<?xml version="1.0" encoding="UTF-8"?>
<!DOCTYPE svg PUBLIC "-//W3C//DTD SVG 1.1//EN" "http://www.w3.org/Graphics/SVG/1.1/DTD/svg11.dtd">
<svg xmlns="http://www.w3.org/2000/svg" version="1.1" width="225px" height="225px" style="shape-rendering:geometricPrecision; text-rendering:geometricPrecision; image-rendering:optimizeQuality; fill-rule:evenodd; clip-rule:evenodd" xmlns:xlink="http://www.w3.org/1999/xlink">
<g><path style="opacity:1" fill="#fdfdfd" d="M -0.5,-0.5 C 9.83333,-0.5 20.1667,-0.5 30.5,-0.5C 30.5,0.5 30.5,1.5 30.5,2.5C 28.5853,2.21552 26.9187,2.54885 25.5,3.5C 25.5,61.8333 25.5,120.167 25.5,178.5C 27.5,178.5 29.5,178.5 31.5,178.5C 35.1249,179.57 38.9582,180.236 43,180.5C 55.152,179.428 67.3186,179.261 79.5,180C 64.1851,181.465 48.8518,182.798 33.5,184C 31.8078,185.401 31.1412,187.234 31.5,189.5C 29.4357,189.687 27.4357,190.187 25.5,191C 29.1703,191.279 32.837,191.112 36.5,190.5C 37.1667,190.5 37.8333,190.5 38.5,190.5C 35.1396,195.071 34.6396,200.071 37,205.5C 38.4087,206.781 39.9087,207.781 41.5,208.5C 40.9569,208.56 40.6236,208.893 40.5,209.5C 41.2421,210.287 42.0754,210.953 43,211.5C 45.0886,211.255 47.0886,211.255 49,211.5C 51.0876,210.692 53.0876,209.692 55,208.5C 57.344,210.181 59.6773,211.848 62,213.5C 65.3981,212.113 68.7315,211.113 72,210.5C 81.6596,212.511 91.493,212.511 101.5,210.5C 107.186,212.611 113.686,214.277 121,215.5C 122.975,214.25 124.141,212.917 124.5,211.5C 126.367,214.229 127.367,213.896 127.5,210.5C 130.09,210.396 132.423,211.063 134.5,212.5C 137.162,211.503 139.828,210.503 142.5,209.5C 148.04,211.046 153.706,211.88 159.5,212C 160.044,212.717 160.711,213.217 161.5,213.5C 162.833,213.5 164.167,213.5 165.5,213.5C 165.5,211.5 165.5,209.5 165.5,207.5C 167.653,208.573 169.653,208.573 171.5,207.5C 172.496,207.586 173.329,207.252 174,206.5C 175.368,203.262 175.701,199.928 175,196.5C 173.736,194.393 171.903,193.393 169.5,193.5C 169.38,192.414 168.713,191.747 167.5,191.5C 166.259,192.037 165.092,192.704 164,193.5C 162.584,192.427 161.25,192.427 160,193.5C 160.393,198.132 160.393,202.799 160,207.5C 159.817,204.635 159.317,201.969 158.5,199.5C 158.5,197.5 158.5,195.5 158.5,193.5C 156.833,193.5 155.167,193.5 153.5,193.5C 153.5,196.833 153.5,200.167 153.5,203.5C 152.713,205.104 151.38,205.771 149.5,205.5C 149.5,201.833 149.5,198.167 149.5,194.5C 148.432,193.566 147.099,193.232 145.5,193.5C 145.047,192.542 144.381,191.708 143.5,191C 138.167,190.667 132.833,190.333 127.5,190C 138.182,189.832 148.849,189.332 159.5,188.5C 148.135,187.21 136.802,187.21 125.5,188.5C 125.167,188.5 124.833,188.5 124.5,188.5C 124.082,187.778 123.416,187.278 122.5,187C 125.475,184.996 128.808,183.996 132.5,184C 152.175,183.833 171.842,183.333 191.5,182.5C 183.529,181.502 175.529,180.835 167.5,180.5C 146.398,181.65 125.398,182.15 104.5,182C 106.734,180.415 109.067,179.248 111.5,178.5C 141.338,178.831 171.005,178.498 200.5,177.5C 200.5,176.833 200.5,176.167 200.5,175.5C 200.5,122.167 200.5,68.8333 200.5,15.5C 202.33,68.4906 203.163,121.824 203,175.5C 204.241,177.421 205.741,177.754 207.5,176.5C 206.675,175.614 205.675,175.281 204.5,175.5C 204.5,122.167 204.5,68.8333 204.5,15.5C 205.675,15.719 206.675,15.3857 207.5,14.5C 205.006,11.7467 205.006,9.08004 207.5,6.5C 205.808,4.14851 204.142,1.81518 202.5,-0.5C 209.833,-0.5 217.167,-0.5 224.5,-0.5C 224.5,74.5 224.5,149.5 224.5,224.5C 149.5,224.5 74.5,224.5 -0.5,224.5C -0.5,149.5 -0.5,74.5 -0.5,-0.5 Z"/></g>
<g><path style="opacity:1" fill="#f9fdec" d="M 30.5,-0.5 C 60.1667,-0.5 89.8333,-0.5 119.5,-0.5C 121.055,0.632688 122.889,1.29935 125,1.5C 147.317,0.859185 169.484,0.192518 191.5,-0.5C 192.833,-0.5 194.167,-0.5 195.5,-0.5C 194.653,0.96626 193.32,1.79959 191.5,2C 137.834,2.49999 84.1677,2.66666 30.5,2.5C 30.5,1.5 30.5,0.5 30.5,-0.5 Z"/></g>
<g><path style="opacity:1" fill="#fff7fe" d="M 119.5,-0.5 C 143.5,-0.5 167.5,-0.5 191.5,-0.5C 169.484,0.192518 147.317,0.859185 125,1.5C 122.889,1.29935 121.055,0.632688 119.5,-0.5 Z"/></g>
<g><path style="opacity:1" fill="#21509c" d="M 31.5,4.5 C 31.5,4.16667 31.5,3.83333 31.5,3.5C 84.8333,3.5 138.167,3.5 191.5,3.5C 170.337,4.33194 149.004,4.83194 127.5,5C 132.823,5.49935 138.156,5.66602 143.5,5.5C 136.687,6.49119 129.687,6.82453 122.5,6.5C 121.391,5.71003 120.058,5.21003 118.5,5C 89.5019,4.50002 60.5019,4.33336 31.5,4.5 Z"/></g>
<g><path style="opacity:1" fill="#1e5dbd" d="M 31.5,4.5 C 60.5019,4.33336 89.5019,4.50002 118.5,5C 120.058,5.21003 121.391,5.71003 122.5,6.5C 102.969,5.88118 83.3019,5.88118 63.5,6.5C 52.4784,6.49879 41.8118,5.83212 31.5,4.5 Z"/></g>
<g><path style="opacity:1" fill="#1b65a8" d="M 26.5,3.5 C 28.1667,3.5 29.8333,3.5 31.5,3.5C 31.5,3.83333 31.5,4.16667 31.5,4.5C 41.8118,5.83212 52.4784,6.49879 63.5,6.5C 83.3019,5.88118 102.969,5.88118 122.5,6.5C 129.687,6.82453 136.687,6.49119 143.5,5.5C 159.497,5.99992 175.497,6.49992 191.5,7C 174.489,7.39617 157.489,8.06284 140.5,9C 149.009,10.1547 157.676,10.6547 166.5,10.5C 175.212,10.4864 183.879,10.153 192.5,9.5C 193.466,11.396 193.799,13.396 193.5,15.5C 193.5,68.8333 193.5,122.167 193.5,175.5C 192.833,122.167 192.167,68.8333 191.5,15.5C 148.833,15.1667 148.833,14.8333 191.5,14.5C 191.5,13.5 191.5,12.5 191.5,11.5C 172.156,11.542 152.823,12.042 133.5,13C 134.938,13.2189 136.271,13.7189 137.5,14.5C 135.257,15.4742 132.924,15.8076 130.5,15.5C 130.238,16.9778 130.571,18.3112 131.5,19.5C 134.686,17.772 138.019,16.4387 141.5,15.5C 141.5,17.1667 141.5,18.8333 141.5,20.5C 137.101,18.8425 133.101,19.5092 129.5,22.5C 129.5,21.8333 129.167,21.5 128.5,21.5C 130.165,15.0143 127.832,12.181 121.5,13C 119.859,14.129 118.859,15.629 118.5,17.5C 117.839,18.7175 117.172,20.0508 116.5,21.5C 115.158,19.9951 113.492,19.3285 111.5,19.5C 104.901,19.0546 102.401,22.0546 104,28.5C 106.738,30.4257 109.238,32.4257 111.5,34.5C 108.327,34.5988 105.327,33.9322 102.5,32.5C 100.218,33.2234 97.8845,33.5567 95.5,33.5C 95.7214,32.2652 96.3881,31.2652 97.5,30.5C 95.4798,28.4006 95.1465,26.0673 96.5,23.5C 97.8333,24.5 99.1667,25.5 100.5,26.5C 101.314,24.2338 101.814,21.9005 102,19.5C 105.296,18.344 108.463,17.0107 111.5,15.5C 111.281,16.675 111.614,17.675 112.5,18.5C 113.736,17.7542 115.07,17.4208 116.5,17.5C 116.579,16.0695 116.246,14.7362 115.5,13.5C 87.5347,11.7088 59.5347,11.0421 31.5,11.5C 31.5,12.5 31.5,13.5 31.5,14.5C 52.8359,14.3334 74.1693,14.5 95.5,15C 73.8359,15.5 52.1692,15.6666 30.5,15.5C 30.5,11.8333 30.5,8.16667 30.5,4.5C 29.5,4.5 28.5,4.5 27.5,4.5C 27.5,61.5 27.5,118.5 27.5,175.5C 28.5,175.5 29.5,175.5 30.5,175.5C 30.5,143.5 30.5,111.5 30.5,79.5C 31.1859,78.1516 32.1859,76.985 33.5,76C 39.8333,75.3333 46.1667,75.3333 52.5,76C 53.9423,76.3768 54.9423,77.2101 55.5,78.5C 48.8333,78.5 42.1667,78.5 35.5,78.5C 35.5,82.5 35.5,86.5 35.5,90.5C 45.8333,90.5 56.1667,90.5 66.5,90.5C 66.5,91.5 66.5,92.5 66.5,93.5C 56.5403,91.5273 46.8736,92.194 37.5,95.5C 35.1099,93.7334 33.4432,91.4001 32.5,88.5C 31.3339,102.822 31.1672,117.155 32,131.5C 33.1882,130.437 33.6882,129.103 33.5,127.5C 34.8333,127.5 36.1667,127.5 37.5,127.5C 37.5,128.833 37.5,130.167 37.5,131.5C 36.1667,131.5 34.8333,131.5 33.5,131.5C 33.5358,134.821 32.8692,137.988 31.5,141C 32.4825,143.411 33.1492,145.911 33.5,148.5C 31.8103,157.421 31.1436,166.421 31.5,175.5C 68.6629,176.498 105.996,176.832 143.5,176.5C 154.167,176.5 164.833,176.5 175.5,176.5C 181.833,176.5 188.167,176.5 194.5,176.5C 196.216,176.371 197.883,176.038 199.5,175.5C 199.833,175.5 200.167,175.5 200.5,175.5C 200.5,176.167 200.5,176.833 200.5,177.5C 142.5,177.5 84.5,177.5 26.5,177.5C 26.5,119.5 26.5,61.5 26.5,3.5 Z"/></g>
<g><path style="opacity:1" fill="#1a65b0" d="M 95.5,33.5 C 91.0716,30.5577 87.0716,30.891 83.5,34.5C 82.735,35.6602 81.735,36.6602 80.5,37.5C 70.7228,33.4853 66.0561,36.8186 66.5,47.5C 67.8333,47.5 69.1667,47.5 70.5,47.5C 73.8654,48.8653 76.1987,51.1986 77.5,54.5C 76.7035,58.7985 76.3701,63.1318 76.5,67.5C 79.2307,66.3931 82.064,65.3931 85,64.5C 92.88,69.4607 96.38,67.1274 95.5,57.5C 96.5,60.1667 97.5,62.8333 98.5,65.5C 101.118,66.9447 103.618,68.6113 106,70.5C 106.805,73.6965 106.638,76.6965 105.5,79.5C 104.001,78.3218 103.001,76.6551 102.5,74.5C 100.929,73.6906 99.2624,73.3573 97.5,73.5C 97.5761,70.2327 96.2427,68.8993 93.5,69.5C 94.2427,70.1818 94.9094,70.8485 95.5,71.5C 93.8212,71.2852 92.8212,71.9519 92.5,73.5C 91.7777,72.4489 90.7777,71.7822 89.5,71.5C 88.488,69.124 86.6546,68.124 84,68.5C 81.6241,68.6846 79.7908,69.6846 78.5,71.5C 76.8439,72.1465 75.1772,72.8131 73.5,73.5C 72.3109,73.2444 71.1442,72.9111 70,72.5C 68.9701,72.8361 68.4701,73.5028 68.5,74.5C 65.8333,75.1667 64.1667,76.8333 63.5,79.5C 62.5,79.5 61.5,79.5 60.5,79.5C 59.0813,78.5489 57.4147,78.2155 55.5,78.5C 54.9423,77.2101 53.9423,76.3768 52.5,76C 46.1667,75.3333 39.8333,75.3333 33.5,76C 32.1859,76.985 31.1859,78.1516 30.5,79.5C 30.5,58.1667 30.5,36.8333 30.5,15.5C 52.1692,15.6666 73.8359,15.5 95.5,15C 74.1693,14.5 52.8359,14.3334 31.5,14.5C 31.5,13.5 31.5,12.5 31.5,11.5C 59.5347,11.0421 87.5347,11.7088 115.5,13.5C 116.246,14.7362 116.579,16.0695 116.5,17.5C 115.07,17.4208 113.736,17.7542 112.5,18.5C 111.614,17.675 111.281,16.675 111.5,15.5C 108.463,17.0107 105.296,18.344 102,19.5C 101.814,21.9005 101.314,24.2338 100.5,26.5C 99.1667,25.5 97.8333,24.5 96.5,23.5C 95.1465,26.0673 95.4798,28.4006 97.5,30.5C 96.3881,31.2652 95.7214,32.2652 95.5,33.5 Z"/></g>
<g><path style="opacity:1" fill="#1a65b0" d="M 191.5,15.5 C 191.5,35.8333 191.5,56.1667 191.5,76.5C 185.074,75.88 179.074,76.5467 173.5,78.5C 171.585,78.2155 169.919,78.5489 168.5,79.5C 167.212,77.9652 167.212,76.2985 168.5,74.5C 170.071,75.3094 171.738,75.6427 173.5,75.5C 173.983,71.4231 172.316,69.0897 168.5,68.5C 169.17,71.5904 168.003,73.257 165,73.5C 162.473,72.9758 160.473,71.6424 159,69.5C 157.731,70.9047 157.231,72.5714 157.5,74.5C 156.167,74.5 154.833,74.5 153.5,74.5C 153.343,73.1266 153.51,71.7932 154,70.5C 156.071,69.8971 157.238,68.5638 157.5,66.5C 158.254,61.4902 159.254,56.4902 160.5,51.5C 163.329,50.2533 165.995,48.7533 168.5,47C 171.978,44.2935 172.311,41.2935 169.5,38C 166.259,37.2069 163.259,37.7069 160.5,39.5C 159.833,37.5 159.167,35.5 158.5,33.5C 155.838,31.7319 152.838,31.0653 149.5,31.5C 148.624,31.6309 147.957,31.2975 147.5,30.5C 145.459,27.0653 143.459,23.732 141.5,20.5C 141.5,18.8333 141.5,17.1667 141.5,15.5C 138.019,16.4387 134.686,17.772 131.5,19.5C 130.571,18.3112 130.238,16.9778 130.5,15.5C 132.924,15.8076 135.257,15.4742 137.5,14.5C 136.271,13.7189 134.938,13.2189 133.5,13C 152.823,12.042 172.156,11.542 191.5,11.5C 191.5,12.5 191.5,13.5 191.5,14.5C 148.833,14.8333 148.833,15.1667 191.5,15.5 Z"/></g>
<g><path style="opacity:1" fill="#dff0f1" d="M 128.5,21.5 C 122.407,26.488 119.074,25.1547 118.5,17.5C 118.859,15.629 119.859,14.129 121.5,13C 127.832,12.181 130.165,15.0143 128.5,21.5 Z"/></g>
<g><path style="opacity:1" fill="#3d6988" d="M 118.5,17.5 C 119.074,25.1547 122.407,26.488 128.5,21.5C 129.167,21.5 129.5,21.8333 129.5,22.5C 127.249,24.2099 124.749,25.5432 122,26.5C 118.143,24.6163 114.643,22.2829 111.5,19.5C 113.492,19.3285 115.158,19.9951 116.5,21.5C 117.172,20.0508 117.839,18.7175 118.5,17.5 Z"/></g>
<g><path style="opacity:1" fill="#f1f8f5" d="M 111.5,19.5 C 114.643,22.2829 118.143,24.6163 122,26.5C 124.749,25.5432 127.249,24.2099 129.5,22.5C 133.101,19.5092 137.101,18.8425 141.5,20.5C 143.018,23.791 142.352,26.6243 139.5,29C 136.12,30.4407 132.953,32.2741 130,34.5C 129.505,36.4727 129.338,38.4727 129.5,40.5C 129.5,40.8333 129.5,41.1667 129.5,41.5C 128.784,43.5563 128.117,45.723 127.5,48C 124.528,47.9477 121.695,47.1144 119,45.5C 116.766,46.7015 114.599,48.0348 112.5,49.5C 111.817,49.1373 111.15,48.8039 110.5,48.5C 110.5,48.1667 110.5,47.8333 110.5,47.5C 110.5,46.8333 110.5,46.1667 110.5,45.5C 111.423,41.9359 111.756,38.2693 111.5,34.5C 109.238,32.4257 106.738,30.4257 104,28.5C 102.401,22.0546 104.901,19.0546 111.5,19.5 Z"/></g>
<g><path style="opacity:1" fill="#1f61b7" d="M 111.5,34.5 C 111.756,38.2693 111.423,41.9359 110.5,45.5C 108.838,43.0877 107.838,40.2544 107.5,37C 103.463,36.3933 99.4631,36.56 95.5,37.5C 95.5,36.1667 95.5,34.8333 95.5,33.5C 97.8845,33.5567 100.218,33.2234 102.5,32.5C 105.327,33.9322 108.327,34.5988 111.5,34.5 Z"/></g>
<g><path style="opacity:1" fill="#2b6a9e" d="M 141.5,20.5 C 143.459,23.732 145.459,27.0653 147.5,30.5C 147.957,31.2975 148.624,31.6309 149.5,31.5C 147.394,33.7188 146.394,36.3855 146.5,39.5C 146.5,40.1667 146.167,40.5 145.5,40.5C 143.326,40.2503 141.659,39.2503 140.5,37.5C 141.5,37.5 142.5,37.5 143.5,37.5C 143.5,36.5 143.5,35.5 143.5,34.5C 144.5,34.5 145.5,34.5 146.5,34.5C 146.5,33.5 146.5,32.5 146.5,31.5C 143.833,31.5 141.167,31.5 138.5,31.5C 138.325,33.6208 138.659,35.6208 139.5,37.5C 136.547,37.1496 134.213,38.1496 132.5,40.5C 132.196,39.8501 131.863,39.1835 131.5,38.5C 136.95,35.6692 136.784,34.6692 131,35.5C 130.802,37.3817 130.302,39.0484 129.5,40.5C 129.338,38.4727 129.505,36.4727 130,34.5C 132.953,32.2741 136.12,30.4407 139.5,29C 142.352,26.6243 143.018,23.791 141.5,20.5 Z"/></g>
<g><path style="opacity:1" fill="#295eb5" d="M 140.5,37.5 C 140.167,37.5 139.833,37.5 139.5,37.5C 138.659,35.6208 138.325,33.6208 138.5,31.5C 141.167,31.5 143.833,31.5 146.5,31.5C 146.5,32.5 146.5,33.5 146.5,34.5C 145.5,34.5 144.5,34.5 143.5,34.5C 143.5,35.5 143.5,36.5 143.5,37.5C 142.5,37.5 141.5,37.5 140.5,37.5 Z"/></g>
<g><path style="opacity:1" fill="#e0f2ef" d="M 95.5,33.5 C 95.5,34.8333 95.5,36.1667 95.5,37.5C 92.6921,42.4895 88.8588,43.4895 84,40.5C 83.5045,38.5273 83.3379,36.5273 83.5,34.5C 87.0716,30.891 91.0716,30.5577 95.5,33.5 Z"/></g>
<g><path style="opacity:1" fill="#def1f5" d="M 149.5,31.5 C 152.838,31.0653 155.838,31.7319 158.5,33.5C 157.665,42.3813 153.665,44.3813 146.5,39.5C 146.394,36.3855 147.394,33.7188 149.5,31.5 Z"/></g>
<g><path style="opacity:1" fill="#3f657d" d="M 158.5,33.5 C 159.167,35.5 159.833,37.5 160.5,39.5C 157.771,41.5416 154.771,43.2083 151.5,44.5C 149.129,43.6531 147.129,42.3198 145.5,40.5C 146.167,40.5 146.5,40.1667 146.5,39.5C 153.665,44.3813 157.665,42.3813 158.5,33.5 Z"/></g>
<g><path style="opacity:1" fill="#356490" d="M 83.5,34.5 C 83.3379,36.5273 83.5045,38.5273 84,40.5C 88.8588,43.4895 92.6921,42.4895 95.5,37.5C 99.4631,36.56 103.463,36.3933 107.5,37C 107.838,40.2544 108.838,43.0877 110.5,45.5C 110.5,46.1667 110.5,46.8333 110.5,47.5C 108.833,47.5 107.167,47.5 105.5,47.5C 107.603,44.7678 107.936,41.7678 106.5,38.5C 105.393,37.9781 104.226,37.6448 103,37.5C 98.0602,39.6048 93.2269,41.9382 88.5,44.5C 84.4743,43.4043 80.9743,41.4043 78,38.5C 72.9401,36.2311 69.7734,37.7311 68.5,43C 68.5186,44.833 69.1852,46.333 70.5,47.5C 69.1667,47.5 67.8333,47.5 66.5,47.5C 66.0561,36.8186 70.7228,33.4853 80.5,37.5C 81.735,36.6602 82.735,35.6602 83.5,34.5 Z"/></g>
<g><path style="opacity:1" fill="#e5f3f3" d="M 139.5,37.5 C 139.833,37.5 140.167,37.5 140.5,37.5C 141.659,39.2503 143.326,40.2503 145.5,40.5C 147.129,42.3198 149.129,43.6531 151.5,44.5C 154.771,43.2083 157.771,41.5416 160.5,39.5C 163.259,37.7069 166.259,37.2069 169.5,38C 172.311,41.2935 171.978,44.2935 168.5,47C 165.995,48.7533 163.329,50.2533 160.5,51.5C 159.254,56.4902 158.254,61.4902 157.5,66.5C 155.088,67.9787 153.088,67.4787 151.5,65C 149.866,64.5065 148.199,64.3398 146.5,64.5C 149.287,63.5233 152.287,63.19 155.5,63.5C 155.611,57.5272 156.277,51.6939 157.5,46C 154.042,46.7951 150.542,46.6284 147,45.5C 145.289,45.4393 143.956,46.1059 143,47.5C 141.5,45.6667 140,43.8333 138.5,42C 141.044,40.9015 141.044,39.7348 138.5,38.5C 134.369,39.6305 132.702,42.2971 133.5,46.5C 132.539,44.7354 132.205,42.7354 132.5,40.5C 134.213,38.1496 136.547,37.1496 139.5,37.5 Z"/></g>
<g><path style="opacity:1" fill="#f0f7f4" d="M 105.5,47.5 C 99.0667,47.9326 95.7334,51.2659 95.5,57.5C 96.38,67.1274 92.88,69.4607 85,64.5C 82.064,65.3931 79.2307,66.3931 76.5,67.5C 76.3701,63.1318 76.7035,58.7985 77.5,54.5C 76.1987,51.1986 73.8654,48.8653 70.5,47.5C 69.1852,46.333 68.5186,44.833 68.5,43C 69.7734,37.7311 72.9401,36.2311 78,38.5C 80.9743,41.4043 84.4743,43.4043 88.5,44.5C 93.2269,41.9382 98.0602,39.6048 103,37.5C 104.226,37.6448 105.393,37.9781 106.5,38.5C 107.936,41.7678 107.603,44.7678 105.5,47.5 Z"/></g>
<g><path style="opacity:1" fill="#fafbf4" d="M 146.5,64.5 C 145.5,65.1667 144.5,65.8333 143.5,66.5C 141.708,61.2545 140.874,55.5879 141,49.5C 139.275,48.536 137.441,47.8693 135.5,47.5C 134.508,47.6716 133.842,47.3382 133.5,46.5C 132.702,42.2971 134.369,39.6305 138.5,38.5C 141.044,39.7348 141.044,40.9015 138.5,42C 140,43.8333 141.5,45.6667 143,47.5C 143.956,46.1059 145.289,45.4393 147,45.5C 150.542,46.6284 154.042,46.7951 157.5,46C 156.277,51.6939 155.611,57.5272 155.5,63.5C 152.287,63.19 149.287,63.5233 146.5,64.5 Z"/></g>
<g><path style="opacity:1" fill="#38679d" d="M 129.5,41.5 C 129.817,44.5719 129.484,47.5719 128.5,50.5C 126.377,52.7454 125.377,55.4121 125.5,58.5C 123.126,60.7769 120.293,62.4435 117,63.5C 113.763,61.4627 110.597,59.2961 107.5,57C 100.166,55.1666 97.1657,57.9999 98.5,65.5C 97.5,62.8333 96.5,60.1667 95.5,57.5C 95.7334,51.2659 99.0667,47.9326 105.5,47.5C 105.5,48.5 105.5,49.5 105.5,50.5C 103.473,50.3379 101.473,50.5045 99.5,51C 98.6198,52.3561 98.2865,53.8561 98.5,55.5C 101.09,55.6038 103.423,54.9371 105.5,53.5C 107.626,53.7298 109.293,54.7298 110.5,56.5C 111.057,54.6684 112.057,53.3351 113.5,52.5C 112.5,51.1667 111.5,49.8333 110.5,48.5C 111.15,48.8039 111.817,49.1373 112.5,49.5C 114.599,48.0348 116.766,46.7015 119,45.5C 121.695,47.1144 124.528,47.9477 127.5,48C 128.117,45.723 128.784,43.5563 129.5,41.5 Z"/></g>
<g><path style="opacity:1" fill="#1b60b7" d="M 105.5,47.5 C 107.167,47.5 108.833,47.5 110.5,47.5C 110.5,47.8333 110.5,48.1667 110.5,48.5C 111.5,49.8333 112.5,51.1667 113.5,52.5C 112.057,53.3351 111.057,54.6684 110.5,56.5C 109.293,54.7298 107.626,53.7298 105.5,53.5C 103.423,54.9371 101.09,55.6038 98.5,55.5C 98.2865,53.8561 98.6198,52.3561 99.5,51C 101.473,50.5045 103.473,50.3379 105.5,50.5C 105.5,49.5 105.5,48.5 105.5,47.5 Z"/></g>
<g><path style="opacity:1" fill="#1f65b5" d="M 132.5,40.5 C 132.205,42.7354 132.539,44.7354 133.5,46.5C 133.842,47.3382 134.508,47.6716 135.5,47.5C 136.479,49.1454 137.812,50.4787 139.5,51.5C 140.452,53.0453 140.785,54.712 140.5,56.5C 136.392,54.9423 132.059,54.2756 127.5,54.5C 127.5,55.5 127.5,56.5 127.5,57.5C 127.158,58.3382 126.492,58.6716 125.5,58.5C 125.377,55.4121 126.377,52.7454 128.5,50.5C 129.484,47.5719 129.817,44.5719 129.5,41.5C 129.5,41.1667 129.5,40.8333 129.5,40.5C 130.302,39.0484 130.802,37.3817 131,35.5C 136.784,34.6692 136.95,35.6692 131.5,38.5C 131.863,39.1835 132.196,39.8501 132.5,40.5 Z"/></g>
<g><path style="opacity:1" fill="#e5f4ef" d="M 113.5,52.5 C 116.958,48.5803 120.458,48.5803 124,52.5C 124.401,59.0835 121.235,61.5835 114.5,60C 112.453,57.6697 112.12,55.1697 113.5,52.5 Z"/></g>
<g><path style="opacity:1" fill="#c6e5ef" d="M 135.5,47.5 C 137.441,47.8693 139.275,48.536 141,49.5C 140.874,55.5879 141.708,61.2545 143.5,66.5C 143.5,66.8333 143.5,67.1667 143.5,67.5C 141.365,67.853 140.032,67.0197 139.5,65C 140.348,62.2305 140.681,59.3971 140.5,56.5C 140.785,54.712 140.452,53.0453 139.5,51.5C 137.812,50.4787 136.479,49.1454 135.5,47.5 Z"/></g>
<g><path style="opacity:1" fill="#f1f7f3" d="M 125.5,58.5 C 126.492,58.6716 127.158,58.3382 127.5,57.5C 130.073,56.4448 132.739,56.2782 135.5,57C 138.354,60.6 137.687,63.6 133.5,66C 130.647,67.5336 127.814,69.0336 125,70.5C 124.502,73.4816 124.335,76.4816 124.5,79.5C 123.698,80.9516 123.198,82.6183 123,84.5C 119.996,85.2872 117.163,84.6206 114.5,82.5C 111.972,84.8738 108.972,85.8738 105.5,85.5C 105.5,83.5 105.5,81.5 105.5,79.5C 106.638,76.6965 106.805,73.6965 106,70.5C 103.618,68.6113 101.118,66.9447 98.5,65.5C 97.1657,57.9999 100.166,55.1666 107.5,57C 110.597,59.2961 113.763,61.4627 117,63.5C 120.293,62.4435 123.126,60.7769 125.5,58.5 Z"/></g>
<g><path style="opacity:1" fill="#316796" d="M 140.5,56.5 C 140.681,59.3971 140.348,62.2305 139.5,65C 140.032,67.0197 141.365,67.853 143.5,67.5C 140.665,68.2006 137.665,68.3673 134.5,68C 133.066,70.7469 130.733,72.2469 127.5,72.5C 126.131,74.7639 125.131,77.0972 124.5,79.5C 124.335,76.4816 124.502,73.4816 125,70.5C 127.814,69.0336 130.647,67.5336 133.5,66C 137.687,63.6 138.354,60.6 135.5,57C 132.739,56.2782 130.073,56.4448 127.5,57.5C 127.5,56.5 127.5,55.5 127.5,54.5C 132.059,54.2756 136.392,54.9423 140.5,56.5 Z"/></g>
<g><path style="opacity:1" fill="#115ad2" d="M 95.5,71.5 C 95.5,72.5 95.5,73.5 95.5,74.5C 94.209,74.7373 93.209,74.404 92.5,73.5C 92.8212,71.9519 93.8212,71.2852 95.5,71.5 Z"/></g>
<g><path style="opacity:1" fill="#336899" d="M 146.5,64.5 C 148.199,64.3398 149.866,64.5065 151.5,65C 153.088,67.4787 155.088,67.9787 157.5,66.5C 157.238,68.5638 156.071,69.8971 154,70.5C 153.51,71.7932 153.343,73.1266 153.5,74.5C 154.833,74.5 156.167,74.5 157.5,74.5C 157.231,72.5714 157.731,70.9047 159,69.5C 160.473,71.6424 162.473,72.9758 165,73.5C 168.003,73.257 169.17,71.5904 168.5,68.5C 172.316,69.0897 173.983,71.4231 173.5,75.5C 171.738,75.6427 170.071,75.3094 168.5,74.5C 167.212,76.2985 167.212,77.9652 168.5,79.5C 168.401,82.5857 167.068,84.919 164.5,86.5C 163.391,86.5569 162.391,86.8902 161.5,87.5C 159.938,87.7329 158.605,88.3995 157.5,89.5C 156.707,91.918 155.374,93.918 153.5,95.5C 153.338,93.4727 153.505,91.4727 154,89.5C 157.168,87.2485 160.501,85.2485 164,83.5C 167.05,77.846 165.55,75.0127 159.5,75C 155.212,77.6246 150.712,79.7913 146,81.5C 143.061,80.3773 140.561,78.7107 138.5,76.5C 138.918,75.7784 139.584,75.2784 140.5,75C 139.16,72.8511 139.827,71.6845 142.5,71.5C 140.701,78.8593 143.368,81.0259 150.5,78C 152.65,75.4449 152.983,72.6116 151.5,69.5C 149.591,68.6518 147.591,68.3184 145.5,68.5C 145.5,67.1667 144.833,66.5 143.5,66.5C 144.5,65.8333 145.5,65.1667 146.5,64.5 Z"/></g>
<g><path style="opacity:1" fill="#e8f1f0" d="M 145.5,68.5 C 147.591,68.3184 149.591,68.6518 151.5,69.5C 152.983,72.6116 152.65,75.4449 150.5,78C 143.368,81.0259 140.701,78.8593 142.5,71.5C 143.272,70.3065 144.272,69.3065 145.5,68.5 Z"/></g>
<g><path style="opacity:1" fill="#3f668e" d="M 78.5,71.5 C 77.343,76.0832 79.0096,78.7499 83.5,79.5C 88.1807,78.8217 90.1807,76.155 89.5,71.5C 90.7777,71.7822 91.7777,72.4489 92.5,73.5C 93.209,74.404 94.209,74.7373 95.5,74.5C 91.5102,76.9531 87.3435,79.2865 83,81.5C 78.4791,78.469 73.6458,76.1357 68.5,74.5C 68.4701,73.5028 68.9701,72.8361 70,72.5C 71.1442,72.9111 72.3109,73.2444 73.5,73.5C 75.1772,72.8131 76.8439,72.1465 78.5,71.5 Z"/></g>
<g><path style="opacity:1" fill="#e5f4f4" d="M 89.5,71.5 C 90.1807,76.155 88.1807,78.8217 83.5,79.5C 79.0096,78.7499 77.343,76.0832 78.5,71.5C 79.7908,69.6846 81.6241,68.6846 84,68.5C 86.6546,68.124 88.488,69.124 89.5,71.5 Z"/></g>
<g><path style="opacity:1" fill="#2d64a5" d="M 143.5,66.5 C 144.833,66.5 145.5,67.1667 145.5,68.5C 144.272,69.3065 143.272,70.3065 142.5,71.5C 139.827,71.6845 139.16,72.8511 140.5,75C 139.584,75.2784 138.918,75.7784 138.5,76.5C 135.729,74.9138 132.729,74.4138 129.5,75C 127.934,76.6839 126.934,78.6839 126.5,81C 128.348,84.3473 131.015,86.8473 134.5,88.5C 135.03,93.7801 135.03,99.1135 134.5,104.5C 137.38,104.06 140.046,103.06 142.5,101.5C 142.238,103.564 141.071,104.897 139,105.5C 138.517,106.448 138.351,107.448 138.5,108.5C 137.127,108.657 135.793,108.49 134.5,108C 133.671,106.184 132.837,104.351 132,102.5C 131.727,104.101 131.227,105.601 130.5,107C 128.46,106.386 126.46,106.552 124.5,107.5C 124.5,106.833 124.5,106.167 124.5,105.5C 126.762,104.104 128.929,102.437 131,100.5C 131.814,98.0982 131.647,95.7649 130.5,93.5C 129.393,92.9781 128.226,92.6448 127,92.5C 124.577,93.6257 122.077,94.6257 119.5,95.5C 119.366,93.7085 119.699,92.0418 120.5,90.5C 124.846,90.6657 129.179,90.499 133.5,90C 130.615,89.0175 128.115,87.5175 126,85.5C 124.756,87.5764 122.923,88.5764 120.5,88.5C 119.833,88.5 119.167,88.5 118.5,88.5C 115.456,85.8483 112.456,85.8483 109.5,88.5C 108.5,88.5 107.5,88.5 106.5,88.5C 104.771,87.8825 103.271,86.8825 102,85.5C 99.7497,86.7079 97.583,88.0413 95.5,89.5C 98.7683,90.487 102.102,90.8204 105.5,90.5C 107.18,92.7264 106.847,94.3931 104.5,95.5C 99.0587,90.8603 95.0587,91.8603 92.5,98.5C 92.6233,99.9245 92.9566,101.258 93.5,102.5C 91.7085,102.366 90.0418,102.699 88.5,103.5C 88.9521,99.4543 89.6187,95.4543 90.5,91.5C 92.3603,90.0613 94.027,88.3947 95.5,86.5C 97.4346,85.19 99.4346,83.8567 101.5,82.5C 102.374,80.2534 102.708,77.9201 102.5,75.5C 100.194,75.0074 97.861,74.6741 95.5,74.5C 95.5,73.5 95.5,72.5 95.5,71.5C 94.9094,70.8485 94.2427,70.1818 93.5,69.5C 96.2427,68.8993 97.5761,70.2327 97.5,73.5C 99.2624,73.3573 100.929,73.6906 102.5,74.5C 103.001,76.6551 104.001,78.3218 105.5,79.5C 105.5,81.5 105.5,83.5 105.5,85.5C 108.972,85.8738 111.972,84.8738 114.5,82.5C 117.163,84.6206 119.996,85.2872 123,84.5C 123.198,82.6183 123.698,80.9516 124.5,79.5C 125.131,77.0972 126.131,74.7639 127.5,72.5C 130.733,72.2469 133.066,70.7469 134.5,68C 137.665,68.3673 140.665,68.2006 143.5,67.5C 143.5,67.1667 143.5,66.8333 143.5,66.5 Z"/></g>
<g><path style="opacity:1" fill="#f1f7f4" d="M 68.5,74.5 C 73.6458,76.1357 78.4791,78.469 83,81.5C 87.3435,79.2865 91.5102,76.9531 95.5,74.5C 97.861,74.6741 100.194,75.0074 102.5,75.5C 102.708,77.9201 102.374,80.2534 101.5,82.5C 99.4346,83.8567 97.4346,85.19 95.5,86.5C 92.6655,87.0695 90.9988,88.7361 90.5,91.5C 89.6187,95.4543 88.9521,99.4543 88.5,103.5C 85.1379,103.93 82.3046,102.93 80,100.5C 77.5084,102.497 74.675,103.497 71.5,103.5C 71.5,100.167 71.5,96.8333 71.5,93.5C 72.6129,92.0536 72.7796,90.3869 72,88.5C 69.5015,86.583 66.8349,84.9164 64,83.5C 63.51,82.2068 63.3433,80.8734 63.5,79.5C 64.1667,76.8333 65.8333,75.1667 68.5,74.5 Z"/></g>
<g><path style="opacity:1" fill="#bccae7" d="M 60.5,79.5 C 60.9337,82.9344 62.6004,85.6011 65.5,87.5C 56.2245,89.4733 46.5578,90.14 36.5,89.5C 36.5,86.1667 36.5,82.8333 36.5,79.5C 44.5,79.5 52.5,79.5 60.5,79.5 Z"/></g>
<g><path style="opacity:1" fill="#bdccea" d="M 161.5,87.5 C 162.391,86.8902 163.391,86.5569 164.5,86.5C 166.199,86.6602 167.866,86.4935 169.5,86C 169.014,83.9734 169.014,81.8067 169.5,79.5C 176.167,79.5 182.833,79.5 189.5,79.5C 189.5,82.8333 189.5,86.1667 189.5,89.5C 179.828,89.6665 170.161,89.4998 160.5,89C 161.056,88.6174 161.389,88.1174 161.5,87.5 Z"/></g>
<g><path style="opacity:1" fill="#396492" d="M 60.5,79.5 C 61.5,79.5 62.5,79.5 63.5,79.5C 63.3433,80.8734 63.51,82.2068 64,83.5C 66.8349,84.9164 69.5015,86.583 72,88.5C 72.7796,90.3869 72.6129,92.0536 71.5,93.5C 71.7148,91.8212 71.0481,90.8212 69.5,90.5C 68.5637,89.0256 67.2303,88.0256 65.5,87.5C 62.6004,85.6011 60.9337,82.9344 60.5,79.5 Z"/></g>
<g><path style="opacity:1" fill="#1566a4" d="M 193.5,15.5 C 194.833,41.8249 195.5,68.4915 195.5,95.5C 195.5,122.335 195.167,149.002 194.5,175.5C 194.167,175.5 193.833,175.5 193.5,175.5C 193.5,122.167 193.5,68.8333 193.5,15.5 Z"/></g>
<g><path style="opacity:1" fill="#afc5e9" d="M 106.5,88.5 C 106.167,89.1667 105.833,89.8333 105.5,90.5C 102.102,90.8204 98.7683,90.487 95.5,89.5C 97.583,88.0413 99.7497,86.7079 102,85.5C 103.271,86.8825 104.771,87.8825 106.5,88.5 Z"/></g>
<g><path style="opacity:1" fill="#8bb6e7" d="M 55.5,78.5 C 57.4147,78.2155 59.0813,78.5489 60.5,79.5C 52.5,79.5 44.5,79.5 36.5,79.5C 36.5,82.8333 36.5,86.1667 36.5,89.5C 46.5578,90.14 56.2245,89.4733 65.5,87.5C 67.2303,88.0256 68.5637,89.0256 69.5,90.5C 68.5,90.5 67.5,90.5 66.5,90.5C 56.1667,90.5 45.8333,90.5 35.5,90.5C 35.5,86.5 35.5,82.5 35.5,78.5C 42.1667,78.5 48.8333,78.5 55.5,78.5 Z"/></g>
<g><path style="opacity:1" fill="#598399" d="M 95.5,86.5 C 94.027,88.3947 92.3603,90.0613 90.5,91.5C 90.9988,88.7361 92.6655,87.0695 95.5,86.5 Z"/></g>
<g><path style="opacity:1" fill="#98bae7" d="M 120.5,90.5 C 120.5,89.8333 120.5,89.1667 120.5,88.5C 122.923,88.5764 124.756,87.5764 126,85.5C 128.115,87.5175 130.615,89.0175 133.5,90C 129.179,90.499 124.846,90.6657 120.5,90.5 Z"/></g>
<g><path style="opacity:1" fill="#f1f8f5" d="M 138.5,76.5 C 140.561,78.7107 143.061,80.3773 146,81.5C 150.712,79.7913 155.212,77.6246 159.5,75C 165.55,75.0127 167.05,77.846 164,83.5C 160.501,85.2485 157.168,87.2485 154,89.5C 153.505,91.4727 153.338,93.4727 153.5,95.5C 154.128,105.178 150.795,106.845 143.5,100.5C 142.893,100.624 142.56,100.957 142.5,101.5C 140.046,103.06 137.38,104.06 134.5,104.5C 135.03,99.1135 135.03,93.7801 134.5,88.5C 131.015,86.8473 128.348,84.3473 126.5,81C 126.934,78.6839 127.934,76.6839 129.5,75C 132.729,74.4138 135.729,74.9138 138.5,76.5 Z"/></g>
<g><path style="opacity:1" fill="#90b5e5" d="M 173.5,78.5 C 179.167,78.5 184.833,78.5 190.5,78.5C 190.5,82.5 190.5,86.5 190.5,90.5C 181.5,90.5 172.5,90.5 163.5,90.5C 161.265,90.7947 159.265,90.4614 157.5,89.5C 158.605,88.3995 159.938,87.7329 161.5,87.5C 161.389,88.1174 161.056,88.6174 160.5,89C 170.161,89.4998 179.828,89.6665 189.5,89.5C 189.5,86.1667 189.5,82.8333 189.5,79.5C 182.833,79.5 176.167,79.5 169.5,79.5C 169.014,81.8067 169.014,83.9734 169.5,86C 167.866,86.4935 166.199,86.6602 164.5,86.5C 167.068,84.919 168.401,82.5857 168.5,79.5C 169.919,78.5489 171.585,78.2155 173.5,78.5 Z"/></g>
<g><path style="opacity:1" fill="#ebf4f6" d="M 118.5,88.5 C 118.722,96.8038 115.222,99.1372 108,95.5C 107.167,92.829 107.667,90.4957 109.5,88.5C 112.456,85.8483 115.456,85.8483 118.5,88.5 Z"/></g>
<g><path style="opacity:1" fill="#32649d" d="M 191.5,76.5 C 191.5,81.8333 191.5,87.1667 191.5,92.5C 189.694,91.7938 187.861,92.1271 186,93.5C 183.214,91.3437 180.214,91.0103 177,92.5C 172.352,91.913 167.852,91.2463 163.5,90.5C 172.5,90.5 181.5,90.5 190.5,90.5C 190.5,86.5 190.5,82.5 190.5,78.5C 184.833,78.5 179.167,78.5 173.5,78.5C 179.074,76.5467 185.074,75.88 191.5,76.5 Z"/></g>
<g><path style="opacity:1" fill="#1966b0" d="M 157.5,89.5 C 159.265,90.4614 161.265,90.7947 163.5,90.5C 167.852,91.2463 172.352,91.913 177,92.5C 180.214,91.0103 183.214,91.3437 186,93.5C 187.861,92.1271 189.694,91.7938 191.5,92.5C 192.118,104.683 191.451,116.683 189.5,128.5C 191.173,130.523 191.84,132.856 191.5,135.5C 189.167,135.5 186.833,135.5 184.5,135.5C 184.126,132.38 182.293,131.046 179,131.5C 177.319,131.608 176.152,132.275 175.5,133.5C 173.688,133.229 172.022,132.562 170.5,131.5C 170.185,129.517 169.185,128.184 167.5,127.5C 167.5,124.833 167.5,122.167 167.5,119.5C 159.5,119.5 151.5,119.5 143.5,119.5C 143.18,116.102 143.513,112.768 144.5,109.5C 145.881,109 146.547,108 146.5,106.5C 145.677,104.423 144.344,102.756 142.5,101.5C 142.56,100.957 142.893,100.624 143.5,100.5C 150.795,106.845 154.128,105.178 153.5,95.5C 155.374,93.918 156.707,91.918 157.5,89.5 Z"/></g>
<g><path style="opacity:1" fill="#1166ba" d="M 30.5,15.5 C 30.5,36.8333 30.5,58.1667 30.5,79.5C 30.5,111.5 30.5,143.5 30.5,175.5C 29.5,175.5 28.5,175.5 27.5,175.5C 27.5,118.5 27.5,61.5 27.5,4.5C 28.5,4.5 29.5,4.5 30.5,4.5C 30.5,8.16667 30.5,11.8333 30.5,15.5 Z"/></g>
<g><path style="opacity:1" fill="#1965b1" d="M 66.5,90.5 C 67.5,90.5 68.5,90.5 69.5,90.5C 71.0481,90.8212 71.7148,91.8212 71.5,93.5C 70.7516,95.933 69.585,98.2663 68,100.5C 67.5045,102.473 67.3379,104.473 67.5,106.5C 71.5179,106.243 75.3512,105.243 79,103.5C 82.1157,104.812 85.2824,105.812 88.5,106.5C 88.5,105.5 88.5,104.5 88.5,103.5C 90.0418,102.699 91.7085,102.366 93.5,102.5C 94.1667,102.833 94.8333,103.167 95.5,103.5C 95.2623,106.408 96.2623,108.742 98.5,110.5C 97.624,111.251 96.624,111.751 95.5,112C 96.7659,112.309 97.9326,112.809 99,113.5C 99.4966,115.81 99.6633,118.143 99.5,120.5C 98.1667,120.5 96.8333,120.5 95.5,120.5C 95.3379,122.527 95.5045,124.527 96,126.5C 96.804,125.196 97.9707,124.529 99.5,124.5C 103.083,126.187 106.083,125.52 108.5,122.5C 111.797,123.496 115.131,123.663 118.5,123C 119.423,120.959 119.756,118.792 119.5,116.5C 119.5,114.833 119.5,113.167 119.5,111.5C 120.853,109.817 122.52,108.484 124.5,107.5C 126.46,106.552 128.46,106.386 130.5,107C 131.227,105.601 131.727,104.101 132,102.5C 132.837,104.351 133.671,106.184 134.5,108C 135.793,108.49 137.127,108.657 138.5,108.5C 138.351,107.448 138.517,106.448 139,105.5C 141.071,104.897 142.238,103.564 142.5,101.5C 144.344,102.756 145.677,104.423 146.5,106.5C 146.547,108 145.881,109 144.5,109.5C 143.513,112.768 143.18,116.102 143.5,119.5C 151.5,119.5 159.5,119.5 167.5,119.5C 167.5,122.167 167.5,124.833 167.5,127.5C 167.665,131.182 167.499,134.848 167,138.5C 164.146,135.386 162.979,131.719 163.5,127.5C 162.5,127.5 161.5,127.5 160.5,127.5C 160.67,130.491 159.337,132.491 156.5,133.5C 155.534,131.604 155.201,129.604 155.5,127.5C 154.5,127.5 153.5,127.5 152.5,127.5C 152.657,128.873 152.49,130.207 152,131.5C 151.667,130.833 151.333,130.167 151,129.5C 149.559,130.26 148.059,130.926 146.5,131.5C 144.325,126.637 143.325,127.303 143.5,133.5C 141.964,131.975 140.964,129.975 140.5,127.5C 139.643,128.736 138.977,130.069 138.5,131.5C 136.668,132.057 135.335,133.057 134.5,134.5C 132.922,138.89 132.588,143.223 133.5,147.5C 134.994,151.277 135.661,155.277 135.5,159.5C 135.675,161.621 135.341,163.621 134.5,165.5C 133.833,165.5 133.167,165.5 132.5,165.5C 131.539,163.735 131.205,161.735 131.5,159.5C 132.139,158.903 132.472,158.07 132.5,157C 131.721,152.49 130.887,147.99 130,143.5C 128.268,149.948 127.435,149.948 127.5,143.5C 127.5,142.5 127.5,141.5 127.5,140.5C 128.862,138.3 130.529,136.3 132.5,134.5C 132.5,134.167 132.5,133.833 132.5,133.5C 132.426,129.459 131.093,128.792 128.5,131.5C 126.031,132.168 123.698,132.835 121.5,133.5C 121.5,133.833 121.5,134.167 121.5,134.5C 121.413,137.739 122.08,140.739 123.5,143.5C 122.069,143.119 121.236,142.119 121,140.5C 120.764,142.119 119.931,143.119 118.5,143.5C 116.825,140.493 116.159,137.16 116.5,133.5C 116.167,125.91 114.834,125.91 112.5,133.5C 110.319,133.716 108.653,132.883 107.5,131C 103.463,130.393 99.4631,130.56 95.5,131.5C 95.6549,126.9 94.9882,126.567 93.5,130.5C 94.2255,131.867 94.8921,133.2 95.5,134.5C 91.5,135.167 89.8333,133.5 90.5,129.5C 88.9397,129.519 87.4397,129.852 86,130.5C 84.469,129.783 83.1357,128.783 82,127.5C 81.3333,128.833 80.6667,130.167 80,131.5C 78.1183,130.907 77.1183,129.573 77,127.5C 76.5017,130.817 76.335,134.15 76.5,137.5C 75.8902,138.391 75.5569,139.391 75.5,140.5C 74.603,141.598 73.7697,141.598 73,140.5C 72.5172,141.448 72.3505,142.448 72.5,143.5C 70.8212,143.715 69.8212,143.048 69.5,141.5C 69.366,139.708 69.6993,138.042 70.5,136.5C 71.339,135.359 72.0057,134.026 72.5,132.5C 71.0095,131.756 69.5095,131.09 68,130.5C 66.1866,134.75 64.6866,139.083 63.5,143.5C 62.5,143.5 61.5,143.5 60.5,143.5C 60.6653,139.818 60.4986,136.152 60,132.5C 58.6667,131.167 57.3333,131.167 56,132.5C 55.2811,136.145 54.7811,139.812 54.5,143.5C 53.8333,143.5 53.1667,143.5 52.5,143.5C 52.2189,139.812 51.7189,136.145 51,132.5C 49.806,130.475 48.306,130.141 46.5,131.5C 45.3378,133.824 44.1711,136.158 43,138.5C 41.8333,136.833 40.6667,135.167 39.5,133.5C 39.5272,137.527 39.5272,141.527 39.5,145.5C 39.3691,146.376 39.7025,147.043 40.5,147.5C 41.8448,146.653 42.8448,145.487 43.5,144C 44.7932,143.51 46.1266,143.343 47.5,143.5C 47.1796,146.898 47.513,150.232 48.5,153.5C 49.4519,151.955 49.7852,150.288 49.5,148.5C 54.1667,148.5 58.8333,148.5 63.5,148.5C 63.3668,145.075 64.0335,144.742 65.5,147.5C 65.0764,152.783 62.4098,154.449 57.5,152.5C 55.2272,154.413 52.5605,155.413 49.5,155.5C 47.7353,161.365 47.2353,167.365 48,173.5C 48.3333,173.167 48.6667,172.833 49,172.5C 49.3333,168.833 49.6667,165.167 50,161.5C 50.3076,160.692 50.8076,160.025 51.5,159.5C 52.6623,164.467 52.8289,169.467 52,174.5C 50.8932,173.288 50.3932,173.621 50.5,175.5C 44.1667,175.5 37.8333,175.5 31.5,175.5C 31.1436,166.421 31.8103,157.421 33.5,148.5C 33.1492,145.911 32.4825,143.411 31.5,141C 32.8692,137.988 33.5358,134.821 33.5,131.5C 34.8333,131.5 36.1667,131.5 37.5,131.5C 37.5,130.167 37.5,128.833 37.5,127.5C 36.1667,127.5 34.8333,127.5 33.5,127.5C 33.6882,129.103 33.1882,130.437 32,131.5C 31.1672,117.155 31.3339,102.822 32.5,88.5C 33.4432,91.4001 35.1099,93.7334 37.5,95.5C 46.8736,92.194 56.5403,91.5273 66.5,93.5C 66.5,92.5 66.5,91.5 66.5,90.5 Z"/></g>
<g><path style="opacity:1" fill="#1b5dc5" d="M 191.5,15.5 C 192.167,68.8333 192.833,122.167 193.5,175.5C 193.833,175.5 194.167,175.5 194.5,175.5C 194.5,175.833 194.5,176.167 194.5,176.5C 188.167,176.5 181.833,176.5 175.5,176.5C 180.64,175.512 185.974,175.179 191.5,175.5C 191.5,163.167 191.5,150.833 191.5,138.5C 191.5,137.5 191.5,136.5 191.5,135.5C 191.84,132.856 191.173,130.523 189.5,128.5C 191.451,116.683 192.118,104.683 191.5,92.5C 191.5,87.1667 191.5,81.8333 191.5,76.5C 191.5,56.1667 191.5,35.8333 191.5,15.5 Z"/></g>
<g><path style="opacity:1" fill="#1166b8" d="M 191.5,3.5 C 193.833,3.5 196.167,3.5 198.5,3.5C 199.45,60.8242 199.783,118.157 199.5,175.5C 197.883,176.038 196.216,176.371 194.5,176.5C 194.5,176.167 194.5,175.833 194.5,175.5C 195.167,149.002 195.5,122.335 195.5,95.5C 195.5,68.4915 194.833,41.8249 193.5,15.5C 193.799,13.396 193.466,11.396 192.5,9.5C 183.879,10.153 175.212,10.4864 166.5,10.5C 157.676,10.6547 149.009,10.1547 140.5,9C 157.489,8.06284 174.489,7.39617 191.5,7C 175.497,6.49992 159.497,5.99992 143.5,5.5C 138.156,5.66602 132.823,5.49935 127.5,5C 149.004,4.83194 170.337,4.33194 191.5,3.5 Z"/></g>
<g><path style="opacity:1" fill="#354b82" d="M 198.5,3.5 C 200.423,7.0293 201.089,11.0293 200.5,15.5C 200.5,68.8333 200.5,122.167 200.5,175.5C 200.167,175.5 199.833,175.5 199.5,175.5C 199.783,118.157 199.45,60.8242 198.5,3.5 Z"/></g>
<g><path style="opacity:1" fill="#e7f8f3" d="M 195.5,-0.5 C 197.833,-0.5 200.167,-0.5 202.5,-0.5C 204.142,1.81518 205.808,4.14851 207.5,6.5C 205.006,9.08004 205.006,11.7467 207.5,14.5C 206.675,15.3857 205.675,15.719 204.5,15.5C 204.5,68.8333 204.5,122.167 204.5,175.5C 205.675,175.281 206.675,175.614 207.5,176.5C 205.741,177.754 204.241,177.421 203,175.5C 203.163,121.824 202.33,68.4906 200.5,15.5C 201.089,11.0293 200.423,7.0293 198.5,3.5C 196.167,3.5 193.833,3.5 191.5,3.5C 138.167,3.5 84.8333,3.5 31.5,3.5C 29.8333,3.5 28.1667,3.5 26.5,3.5C 26.1667,3.5 25.8333,3.5 25.5,3.5C 26.9187,2.54885 28.5853,2.21552 30.5,2.5C 84.1677,2.66666 137.834,2.49999 191.5,2C 193.32,1.79959 194.653,0.96626 195.5,-0.5 Z"/></g>
<g><path style="opacity:1" fill="#426c84" d="M 106.5,88.5 C 107.5,88.5 108.5,88.5 109.5,88.5C 107.667,90.4957 107.167,92.829 108,95.5C 115.222,99.1372 118.722,96.8038 118.5,88.5C 119.167,88.5 119.833,88.5 120.5,88.5C 120.5,89.1667 120.5,89.8333 120.5,90.5C 119.699,92.0418 119.366,93.7085 119.5,95.5C 117.324,97.5152 114.824,99.1819 112,100.5C 109.26,99.1008 106.76,97.4341 104.5,95.5C 106.847,94.3931 107.18,92.7264 105.5,90.5C 105.833,89.8333 106.167,89.1667 106.5,88.5 Z"/></g>
<g><path style="opacity:1" fill="#2a6399" d="M 71.5,93.5 C 71.5,96.8333 71.5,100.167 71.5,103.5C 74.675,103.497 77.5084,102.497 80,100.5C 82.3046,102.93 85.1379,103.93 88.5,103.5C 88.5,104.5 88.5,105.5 88.5,106.5C 85.2824,105.812 82.1157,104.812 79,103.5C 75.3512,105.243 71.5179,106.243 67.5,106.5C 67.3379,104.473 67.5045,102.473 68,100.5C 69.585,98.2663 70.7516,95.933 71.5,93.5 Z"/></g>
<g><path style="opacity:1" fill="#f6f9f6" d="M 104.5,95.5 C 106.76,97.4341 109.26,99.1008 112,100.5C 114.824,99.1819 117.324,97.5152 119.5,95.5C 122.077,94.6257 124.577,93.6257 127,92.5C 128.226,92.6448 129.393,92.9781 130.5,93.5C 131.647,95.7649 131.814,98.0982 131,100.5C 128.929,102.437 126.762,104.104 124.5,105.5C 120.643,105.69 118.976,107.69 119.5,111.5C 118.194,114.142 117.194,116.975 116.5,120C 115.167,120.667 113.833,120.667 112.5,120C 109.57,115.347 106.737,115.514 104,120.5C 102.894,116.162 102.061,111.829 101.5,107.5C 99.7952,105.808 97.7952,104.475 95.5,103.5C 94.8333,103.167 94.1667,102.833 93.5,102.5C 92.9566,101.258 92.6233,99.9245 92.5,98.5C 95.0587,91.8603 99.0587,90.8603 104.5,95.5 Z"/></g>
<g><path style="opacity:1" fill="#2d6b7c" d="M 124.5,105.5 C 124.5,106.167 124.5,106.833 124.5,107.5C 122.52,108.484 120.853,109.817 119.5,111.5C 118.976,107.69 120.643,105.69 124.5,105.5 Z"/></g>
<g><path style="opacity:1" fill="#d3ecf6" d="M 101.5,107.5 C 102.061,111.829 102.894,116.162 104,120.5C 106.737,115.514 109.57,115.347 112.5,120C 113.833,120.667 115.167,120.667 116.5,120C 117.194,116.975 118.194,114.142 119.5,111.5C 119.5,113.167 119.5,114.833 119.5,116.5C 118.776,118.218 118.109,120.052 117.5,122C 114.311,122.495 111.477,121.661 109,119.5C 106.295,120.939 103.462,121.939 100.5,122.5C 100.613,117.482 100.947,112.482 101.5,107.5 Z"/></g>
<g><path style="opacity:1" fill="#29639b" d="M 95.5,103.5 C 97.7952,104.475 99.7952,105.808 101.5,107.5C 100.947,112.482 100.613,117.482 100.5,122.5C 103.462,121.939 106.295,120.939 109,119.5C 111.477,121.661 114.311,122.495 117.5,122C 118.109,120.052 118.776,118.218 119.5,116.5C 119.756,118.792 119.423,120.959 118.5,123C 115.131,123.663 111.797,123.496 108.5,122.5C 106.083,125.52 103.083,126.187 99.5,124.5C 97.9707,124.529 96.804,125.196 96,126.5C 95.5045,124.527 95.3379,122.527 95.5,120.5C 96.8333,120.5 98.1667,120.5 99.5,120.5C 99.6633,118.143 99.4966,115.81 99,113.5C 97.9326,112.809 96.7659,112.309 95.5,112C 96.624,111.751 97.624,111.251 98.5,110.5C 96.2623,108.742 95.2623,106.408 95.5,103.5 Z"/></g>
<g><path style="opacity:1" fill="#28679c" d="M 95.5,134.5 C 95.6716,135.492 95.3382,136.158 94.5,136.5C 93.391,136.443 92.391,136.11 91.5,135.5C 85.8655,131.114 80.8655,131.781 76.5,137.5C 76.335,134.15 76.5017,130.817 77,127.5C 77.1183,129.573 78.1183,130.907 80,131.5C 80.6667,130.167 81.3333,128.833 82,127.5C 83.1357,128.783 84.469,129.783 86,130.5C 87.4397,129.852 88.9397,129.519 90.5,129.5C 89.8333,133.5 91.5,135.167 95.5,134.5 Z"/></g>
<g><path style="opacity:1" fill="#5c8bb3" d="M 132.5,133.5 C 128.983,133.213 125.316,133.213 121.5,133.5C 123.698,132.835 126.031,132.168 128.5,131.5C 131.093,128.792 132.426,129.459 132.5,133.5 Z"/></g>
<g><path style="opacity:1" fill="#296796" d="M 116.5,133.5 C 115.85,133.196 115.183,132.863 114.5,132.5C 112.829,135.492 110.829,138.159 108.5,140.5C 108.975,137.918 108.308,135.918 106.5,134.5C 105.508,132.974 104.008,132.307 102,132.5C 99.5582,132.482 97.3915,133.149 95.5,134.5C 94.8921,133.2 94.2255,131.867 93.5,130.5C 94.9882,126.567 95.6549,126.9 95.5,131.5C 99.4631,130.56 103.463,130.393 107.5,131C 108.653,132.883 110.319,133.716 112.5,133.5C 114.834,125.91 116.167,125.91 116.5,133.5 Z"/></g>
<g><path style="opacity:1" fill="#4d84a5" d="M 132.5,134.5 C 130.529,136.3 128.862,138.3 127.5,140.5C 127.5,138.5 127.5,136.5 127.5,134.5C 129.167,134.5 130.833,134.5 132.5,134.5 Z"/></g>
<g><path style="opacity:1" fill="#cfe9f2" d="M 91.5,135.5 C 91.69,139.032 91.0233,142.365 89.5,145.5C 87.7162,145.893 86.0495,146.559 84.5,147.5C 78.5657,148.717 75.5657,146.384 75.5,140.5C 75.5569,139.391 75.8902,138.391 76.5,137.5C 80.8655,131.781 85.8655,131.114 91.5,135.5 Z"/></g>
<g><path style="opacity:1" fill="#2c6498" d="M 52.5,143.5 C 51.4782,140.119 50.1449,136.786 48.5,133.5C 45.4756,137.518 42.4756,141.518 39.5,145.5C 39.5272,141.527 39.5272,137.527 39.5,133.5C 40.6667,135.167 41.8333,136.833 43,138.5C 44.1711,136.158 45.3378,133.824 46.5,131.5C 48.306,130.141 49.806,130.475 51,132.5C 51.7189,136.145 52.2189,139.812 52.5,143.5 Z"/></g>
<g><path style="opacity:1" fill="#c6e1ee" d="M 52.5,143.5 C 52.5,144.833 52.5,146.167 52.5,147.5C 51.1667,147.5 49.8333,147.5 48.5,147.5C 48.7678,145.901 48.4345,144.568 47.5,143.5C 46.1266,143.343 44.7932,143.51 43.5,144C 42.8448,145.487 41.8448,146.653 40.5,147.5C 39.7025,147.043 39.3691,146.376 39.5,145.5C 42.4756,141.518 45.4756,137.518 48.5,133.5C 50.1449,136.786 51.4782,140.119 52.5,143.5 Z"/></g>
<g><path style="opacity:1" fill="#c5e4e8" d="M 116.5,133.5 C 116.159,137.16 116.825,140.493 118.5,143.5C 118.5,144.833 118.5,146.167 118.5,147.5C 117.167,147.5 115.833,147.5 114.5,147.5C 114.699,144.059 114.199,140.726 113,137.5C 111.865,141.269 110.032,144.602 107.5,147.5C 107.167,147.5 106.833,147.5 106.5,147.5C 105.314,146.295 105.314,144.961 106.5,143.5C 107.906,143.027 108.573,142.027 108.5,140.5C 110.829,138.159 112.829,135.492 114.5,132.5C 115.183,132.863 115.85,133.196 116.5,133.5 Z"/></g>
<g><path style="opacity:1" fill="#4073a3" d="M 121.5,134.5 C 122.833,134.5 124.167,134.5 125.5,134.5C 125.142,137.689 124.475,140.689 123.5,143.5C 122.08,140.739 121.413,137.739 121.5,134.5 Z"/></g>
<g><path style="opacity:1" fill="#deeef1" d="M 132.5,133.5 C 132.5,133.833 132.5,134.167 132.5,134.5C 130.833,134.5 129.167,134.5 127.5,134.5C 127.5,136.5 127.5,138.5 127.5,140.5C 127.5,141.5 127.5,142.5 127.5,143.5C 126.566,144.568 126.232,145.901 126.5,147.5C 125.5,147.5 124.5,147.5 123.5,147.5C 123.5,146.167 123.5,144.833 123.5,143.5C 124.475,140.689 125.142,137.689 125.5,134.5C 124.167,134.5 122.833,134.5 121.5,134.5C 121.5,134.167 121.5,133.833 121.5,133.5C 125.316,133.213 128.983,133.213 132.5,133.5 Z"/></g>
<g><path style="opacity:1" fill="#c0e3f0" d="M 106.5,134.5 C 106.5,134.833 106.5,135.167 106.5,135.5C 104.218,134.61 101.885,134.444 99.5,135C 97.2168,138.177 96.3835,141.677 97,145.5C 99.5918,146.982 101.925,146.648 104,144.5C 104.585,145.998 104.085,146.998 102.5,147.5C 98.8849,147.845 95.5516,147.178 92.5,145.5C 92.2069,142.246 92.8736,139.246 94.5,136.5C 95.3382,136.158 95.6716,135.492 95.5,134.5C 97.3915,133.149 99.5582,132.482 102,132.5C 104.008,132.307 105.508,132.974 106.5,134.5 Z"/></g>
<g><path style="opacity:1" fill="#3662a1" d="M 82.5,134.5 C 84.1992,134.34 85.8659,134.506 87.5,135C 89.2209,140.345 87.5542,144.178 82.5,146.5C 81.5581,146.392 80.7247,146.059 80,145.5C 78.8118,141.259 79.6451,137.592 82.5,134.5 Z"/></g>
<g><path style="opacity:1" fill="#2f5bca" d="M 83.5,135.5 C 84.5,135.5 85.5,135.5 86.5,135.5C 86.5,136.833 86.5,138.167 86.5,139.5C 83.0464,139.733 82.0464,138.4 83.5,135.5 Z"/></g>
<g><path style="opacity:1" fill="#d3e8eb" d="M 133.5,147.5 C 132.588,143.223 132.922,138.89 134.5,134.5C 136.318,132.922 137.318,133.422 137.5,136C 136.897,139.181 136.231,142.347 135.5,145.5C 135.253,146.713 134.586,147.38 133.5,147.5 Z"/></g>
<g><path style="opacity:1" fill="#1c5eb8" d="M 106.5,134.5 C 108.308,135.918 108.975,137.918 108.5,140.5C 108.573,142.027 107.906,143.027 106.5,143.5C 105.596,142.791 105.263,141.791 105.5,140.5C 104.167,140.5 102.833,140.5 101.5,140.5C 101.5,141.5 101.5,142.5 101.5,143.5C 100.022,143.762 98.6888,143.429 97.5,142.5C 99.0863,140.827 99.7529,138.827 99.5,136.5C 102.059,136.802 104.393,136.468 106.5,135.5C 106.5,135.167 106.5,134.833 106.5,134.5 Z"/></g>
<g><path style="opacity:1" fill="#d6e9ed" d="M 170.5,143.5 C 169.662,143.842 169.328,144.508 169.5,145.5C 169.5,146.167 169.5,146.833 169.5,147.5C 168.325,147.719 167.325,147.386 166.5,146.5C 164.5,143.833 162.5,141.167 160.5,138.5C 159.765,141.702 158.598,144.702 157,147.5C 157.164,142.836 157.664,138.169 158.5,133.5C 159.552,133.351 160.552,133.517 161.5,134C 163.788,136.743 165.955,139.577 168,142.5C 168.393,139.367 169.226,136.367 170.5,133.5C 170.823,136.705 170.823,140.038 170.5,143.5 Z"/></g>
<g><path style="opacity:1" fill="#ceedf4" d="M 172.5,144.5 C 174.796,147.255 176.796,147.089 178.5,144C 176.983,142.316 175.317,140.816 173.5,139.5C 173.253,137.142 173.919,135.142 175.5,133.5C 177.402,132.489 179.402,132.322 181.5,133C 182.711,133.893 182.711,134.726 181.5,135.5C 179.929,134.691 178.262,134.357 176.5,134.5C 176.351,135.552 176.517,136.552 177,137.5C 182.352,139.891 182.852,143.057 178.5,147C 176.527,147.495 174.527,147.662 172.5,147.5C 172.5,146.5 172.5,145.5 172.5,144.5 Z"/></g>
<g><path style="opacity:1" fill="#205fc0" d="M 173.5,139.5 C 173.539,140.583 173.873,141.583 174.5,142.5C 173.757,143.182 173.091,143.849 172.5,144.5C 171.609,145.11 170.609,145.443 169.5,145.5C 169.328,144.508 169.662,143.842 170.5,143.5C 171.022,141.781 172.022,140.448 173.5,139.5 Z"/></g>
<g><path style="opacity:1" fill="#e0ecf1" d="M 70.5,136.5 C 69.6993,138.042 69.366,139.708 69.5,141.5C 68.5655,142.568 68.2322,143.901 68.5,145.5C 69.9778,145.238 71.3112,145.571 72.5,146.5C 70.2573,147.474 67.924,147.808 65.5,147.5C 65.6721,143.466 66.1721,139.466 67,135.5C 67.7096,134.027 68.8762,133.36 70.5,133.5C 70.5,134.5 70.5,135.5 70.5,136.5 Z"/></g>
<g><path style="opacity:1" fill="#446b86" d="M 173.5,139.5 C 175.317,140.816 176.983,142.316 178.5,144C 176.796,147.089 174.796,147.255 172.5,144.5C 173.091,143.849 173.757,143.182 174.5,142.5C 173.873,141.583 173.539,140.583 173.5,139.5 Z"/></g>
<g><path style="opacity:1" fill="#1864b1" d="M 191.5,138.5 C 191.5,150.833 191.5,163.167 191.5,175.5C 185.974,175.179 180.64,175.512 175.5,176.5C 164.833,176.5 154.167,176.5 143.5,176.5C 143.5,176.167 143.5,175.833 143.5,175.5C 146.642,175.151 149.975,174.984 153.5,175C 155.939,174.467 156.605,173.3 155.5,171.5C 155.5,170.833 155.5,170.167 155.5,169.5C 159.226,169.823 162.893,169.489 166.5,168.5C 167.407,165.579 167.74,162.579 167.5,159.5C 168.167,158.833 168.833,158.167 169.5,157.5C 169.47,158.497 169.97,159.164 171,159.5C 172.44,158.852 173.94,158.519 175.5,158.5C 174.267,152.732 176.6,150.066 182.5,150.5C 183.014,148.302 184.014,146.302 185.5,144.5C 184.189,143.742 183.689,142.742 184,141.5C 186.235,139.798 188.735,138.798 191.5,138.5 Z"/></g>
<g><path style="opacity:1" fill="#427488" d="M 91.5,135.5 C 92.391,136.11 93.391,136.443 94.5,136.5C 92.8736,139.246 92.2069,142.246 92.5,145.5C 91.5,145.5 90.5,145.5 89.5,145.5C 91.0233,142.365 91.69,139.032 91.5,135.5 Z"/></g>
<g><path style="opacity:1" fill="#2f6699" d="M 70.5,136.5 C 70.5,135.5 70.5,134.5 70.5,133.5C 68.8762,133.36 67.7096,134.027 67,135.5C 66.1721,139.466 65.6721,143.466 65.5,147.5C 64.0335,144.742 63.3668,145.075 63.5,148.5C 58.8333,148.5 54.1667,148.5 49.5,148.5C 49.7852,150.288 49.4519,151.955 48.5,153.5C 47.513,150.232 47.1796,146.898 47.5,143.5C 48.4345,144.568 48.7678,145.901 48.5,147.5C 49.8333,147.5 51.1667,147.5 52.5,147.5C 52.5,146.167 52.5,144.833 52.5,143.5C 53.1667,143.5 53.8333,143.5 54.5,143.5C 54.7811,139.812 55.2811,136.145 56,132.5C 57.3333,131.167 58.6667,131.167 60,132.5C 60.4986,136.152 60.6653,139.818 60.5,143.5C 61.5,143.5 62.5,143.5 63.5,143.5C 64.6866,139.083 66.1866,134.75 68,130.5C 69.5095,131.09 71.0095,131.756 72.5,132.5C 72.0057,134.026 71.339,135.359 70.5,136.5 Z"/></g>
<g><path style="opacity:1" fill="#dcebef" d="M 54.5,143.5 C 56.1745,140.493 56.8412,137.16 56.5,133.5C 57.5,133.5 58.5,133.5 59.5,133.5C 59.3542,137.519 59.0209,141.519 58.5,145.5C 59.9778,145.238 61.3112,145.571 62.5,146.5C 59.9135,147.48 57.2469,147.813 54.5,147.5C 54.5,146.167 54.5,144.833 54.5,143.5 Z"/></g>
<g><path style="opacity:1" fill="#2464b0" d="M 89.5,145.5 C 90.5,145.5 91.5,145.5 92.5,145.5C 95.5516,147.178 98.8849,147.845 102.5,147.5C 102.85,150.453 101.85,152.787 99.5,154.5C 98.6066,158.191 97.6066,161.858 96.5,165.5C 95.5386,163.735 95.2053,161.735 95.5,159.5C 95.5,157.833 95.5,156.167 95.5,154.5C 94.5,154.5 93.5,154.5 92.5,154.5C 90.6233,154.9 89.1233,155.9 88,157.5C 86.7202,157.387 85.8869,156.72 85.5,155.5C 86.5948,153.38 88.2615,151.88 90.5,151C 89.3914,150.362 88.2247,149.862 87,149.5C 85.1551,150.756 83.1551,151.756 81,152.5C 79.1186,151.02 77.952,151.52 77.5,154C 78.8847,155.597 79.5514,157.43 79.5,159.5C 78.1411,160.007 77.1411,161.007 76.5,162.5C 76.0615,159.705 75.0615,157.372 73.5,155.5C 73.5,155.167 73.5,154.833 73.5,154.5C 72.791,153.596 71.791,153.263 70.5,153.5C 70.4208,152.07 70.7542,150.736 71.5,149.5C 75.9822,148.833 80.3155,148.166 84.5,147.5C 86.0495,146.559 87.7162,145.893 89.5,145.5 Z"/></g>
<g><path style="opacity:1" fill="#336b9e" d="M 118.5,147.5 C 118.5,149.833 118.5,152.167 118.5,154.5C 117.1,155.1 116.1,156.1 115.5,157.5C 115.662,155.473 115.495,153.473 115,151.5C 112.21,150.524 109.71,149.191 107.5,147.5C 110.032,144.602 111.865,141.269 113,137.5C 114.199,140.726 114.699,144.059 114.5,147.5C 115.833,147.5 117.167,147.5 118.5,147.5 Z"/></g>
<g><path style="opacity:1" fill="#2a659d" d="M 106.5,135.5 C 104.393,136.468 102.059,136.802 99.5,136.5C 99.7529,138.827 99.0863,140.827 97.5,142.5C 98.6888,143.429 100.022,143.762 101.5,143.5C 101.5,142.5 101.5,141.5 101.5,140.5C 102.833,140.5 104.167,140.5 105.5,140.5C 105.263,141.791 105.596,142.791 106.5,143.5C 105.314,144.961 105.314,146.295 106.5,147.5C 105.986,149.366 105.32,151.2 104.5,153C 104.57,153.765 104.903,154.265 105.5,154.5C 105.26,158.606 104.593,162.606 103.5,166.5C 102.5,166.5 101.5,166.5 100.5,166.5C 101.038,162.476 101.705,158.476 102.5,154.5C 101.5,154.5 100.5,154.5 99.5,154.5C 101.85,152.787 102.85,150.453 102.5,147.5C 104.085,146.998 104.585,145.998 104,144.5C 101.925,146.648 99.5918,146.982 97,145.5C 96.3835,141.677 97.2168,138.177 99.5,135C 101.885,134.444 104.218,134.61 106.5,135.5 Z"/></g>
<g><path style="opacity:1" fill="#2c67a1" d="M 143.5,133.5 C 143.325,127.303 144.325,126.637 146.5,131.5C 148.059,130.926 149.559,130.26 151,129.5C 151.333,130.167 151.667,130.833 152,131.5C 152.49,130.207 152.657,128.873 152.5,127.5C 153.5,127.5 154.5,127.5 155.5,127.5C 155.201,129.604 155.534,131.604 156.5,133.5C 159.337,132.491 160.67,130.491 160.5,127.5C 161.5,127.5 162.5,127.5 163.5,127.5C 162.979,131.719 164.146,135.386 167,138.5C 167.499,134.848 167.665,131.182 167.5,127.5C 169.185,128.184 170.185,129.517 170.5,131.5C 172.022,132.562 173.688,133.229 175.5,133.5C 173.919,135.142 173.253,137.142 173.5,139.5C 172.022,140.448 171.022,141.781 170.5,143.5C 170.823,140.038 170.823,136.705 170.5,133.5C 169.226,136.367 168.393,139.367 168,142.5C 165.955,139.577 163.788,136.743 161.5,134C 160.552,133.517 159.552,133.351 158.5,133.5C 157.664,138.169 157.164,142.836 157,147.5C 158.598,144.702 159.765,141.702 160.5,138.5C 162.5,141.167 164.5,143.833 166.5,146.5C 167.325,147.386 168.325,147.719 169.5,147.5C 169.134,148.695 168.301,149.361 167,149.5C 165.192,148.31 163.359,148.31 161.5,149.5C 159.085,148.701 156.585,147.701 154,146.5C 150.146,148.83 145.979,150.497 141.5,151.5C 141.137,152.183 140.804,152.85 140.5,153.5C 139.209,153.263 138.209,153.596 137.5,154.5C 136.833,156.167 136.167,157.833 135.5,159.5C 135.661,155.277 134.994,151.277 133.5,147.5C 134.586,147.38 135.253,146.713 135.5,145.5C 136.231,142.347 136.897,139.181 137.5,136C 137.318,133.422 136.318,132.922 134.5,134.5C 135.335,133.057 136.668,132.057 138.5,131.5C 138.977,130.069 139.643,128.736 140.5,127.5C 140.964,129.975 141.964,131.975 143.5,133.5 Z"/></g>
<g><path style="opacity:1" fill="#d2eaf0" d="M 143.5,133.5 C 147.712,131.843 151.545,132.51 155,135.5C 156.364,143.111 153.197,147.111 145.5,147.5C 143.307,147.674 141.473,147.007 140,145.5C 138.593,140.599 139.76,136.599 143.5,133.5 Z"/></g>
<g><path style="opacity:1" fill="#2e6a93" d="M 150.5,141.5 C 149.456,145.606 147.122,146.939 143.5,145.5C 145.121,145.213 146.121,144.213 146.5,142.5C 147.689,141.571 149.022,141.238 150.5,141.5 Z"/></g>
<g><path style="opacity:1" fill="#1f62bc" d="M 151.5,137.5 C 151.768,139.099 151.434,140.432 150.5,141.5C 149.022,141.238 147.689,141.571 146.5,142.5C 146.121,144.213 145.121,145.213 143.5,145.5C 142.314,143.126 142.314,140.792 143.5,138.5C 146.054,137.612 148.721,137.279 151.5,137.5 Z"/></g>
<g><path style="opacity:1" fill="#356997" d="M 151.5,137.5 C 148.721,137.279 146.054,137.612 143.5,138.5C 143.511,136.983 144.177,135.816 145.5,135C 147.473,134.505 149.473,134.338 151.5,134.5C 151.5,135.5 151.5,136.5 151.5,137.5 Z"/></g>
<g><path style="opacity:1" fill="#1e60b6" d="M 169.5,147.5 C 171.589,147.857 173.589,148.523 175.5,149.5C 173.726,150.187 172.059,151.02 170.5,152C 171.448,152.483 172.448,152.649 173.5,152.5C 173.5,153.5 173.5,154.5 173.5,155.5C 171.517,155.157 170.183,155.824 169.5,157.5C 168.833,158.167 168.167,158.833 167.5,159.5C 165.824,158.817 165.157,157.483 165.5,155.5C 165.5,155.167 165.5,154.833 165.5,154.5C 162.913,153.184 159.913,152.517 156.5,152.5C 153.5,152.667 150.5,152.833 147.5,153C 146.62,154.356 146.286,155.856 146.5,157.5C 146.5,158.5 146.5,159.5 146.5,160.5C 145.5,160.5 144.5,160.5 143.5,160.5C 143.5,162.167 143.5,163.833 143.5,165.5C 142.167,165.5 140.833,165.5 139.5,165.5C 139.5,163.5 139.5,161.5 139.5,159.5C 140.461,157.735 140.795,155.735 140.5,153.5C 140.804,152.85 141.137,152.183 141.5,151.5C 145.979,150.497 150.146,148.83 154,146.5C 156.585,147.701 159.085,148.701 161.5,149.5C 163.359,148.31 165.192,148.31 167,149.5C 168.301,149.361 169.134,148.695 169.5,147.5 Z"/></g>
<g><path style="opacity:1" fill="#2166a4" d="M 191.5,135.5 C 191.5,136.5 191.5,137.5 191.5,138.5C 188.735,138.798 186.235,139.798 184,141.5C 183.689,142.742 184.189,143.742 185.5,144.5C 184.014,146.302 183.014,148.302 182.5,150.5C 176.6,150.066 174.267,152.732 175.5,158.5C 173.94,158.519 172.44,158.852 171,159.5C 169.97,159.164 169.47,158.497 169.5,157.5C 170.183,155.824 171.517,155.157 173.5,155.5C 173.5,154.5 173.5,153.5 173.5,152.5C 172.448,152.649 171.448,152.483 170.5,152C 172.059,151.02 173.726,150.187 175.5,149.5C 173.589,148.523 171.589,147.857 169.5,147.5C 169.5,146.833 169.5,146.167 169.5,145.5C 170.609,145.443 171.609,145.11 172.5,144.5C 172.5,145.5 172.5,146.5 172.5,147.5C 174.527,147.662 176.527,147.495 178.5,147C 182.852,143.057 182.352,139.891 177,137.5C 176.517,136.552 176.351,135.552 176.5,134.5C 178.262,134.357 179.929,134.691 181.5,135.5C 182.711,134.726 182.711,133.893 181.5,133C 179.402,132.322 177.402,132.489 175.5,133.5C 176.152,132.275 177.319,131.608 179,131.5C 182.293,131.046 184.126,132.38 184.5,135.5C 186.833,135.5 189.167,135.5 191.5,135.5 Z"/></g>
<g><path style="opacity:1" fill="#2968a5" d="M 123.5,143.5 C 123.5,144.833 123.5,146.167 123.5,147.5C 124.5,147.5 125.5,147.5 126.5,147.5C 126.232,145.901 126.566,144.568 127.5,143.5C 127.435,149.948 128.268,149.948 130,143.5C 130.887,147.99 131.721,152.49 132.5,157C 132.472,158.07 132.139,158.903 131.5,159.5C 130.549,158.081 130.216,156.415 130.5,154.5C 128.61,154.297 127.11,154.963 126,156.5C 124.011,160.64 121.844,164.64 119.5,168.5C 119.448,170.903 119.781,173.236 120.5,175.5C 118.5,175.5 116.5,175.5 114.5,175.5C 114.821,173.952 115.821,173.285 117.5,173.5C 117.719,169.473 116.552,168.806 114,171.5C 112.784,169.038 112.118,166.371 112,163.5C 111.517,164.448 111.351,165.448 111.5,166.5C 110.167,166.5 108.833,166.5 107.5,166.5C 107.958,162.462 108.624,158.462 109.5,154.5C 111.757,156.729 113.757,159.062 115.5,161.5C 114.286,163.808 114.286,166.141 115.5,168.5C 117.078,165.622 118.412,162.622 119.5,159.5C 119.34,161.199 119.506,162.866 120,164.5C 121.743,158.584 121.91,152.584 120.5,146.5C 119.817,146.863 119.15,147.196 118.5,147.5C 118.5,146.167 118.5,144.833 118.5,143.5C 119.931,143.119 120.764,142.119 121,140.5C 121.236,142.119 122.069,143.119 123.5,143.5 Z"/></g>
<g><path style="opacity:1" fill="#40759f" d="M 165.5,154.5 C 162.096,153.1 159.096,153.766 156.5,156.5C 154.5,156.5 152.5,156.5 150.5,156.5C 151.952,155.698 153.618,155.198 155.5,155C 152.854,154.503 150.187,154.336 147.5,154.5C 147.737,155.791 147.404,156.791 146.5,157.5C 146.286,155.856 146.62,154.356 147.5,153C 150.5,152.833 153.5,152.667 156.5,152.5C 159.913,152.517 162.913,153.184 165.5,154.5 Z"/></g>
<g><path style="opacity:1" fill="#1e63b7" d="M 106.5,147.5 C 106.833,147.5 107.167,147.5 107.5,147.5C 109.71,149.191 112.21,150.524 115,151.5C 115.495,153.473 115.662,155.473 115.5,157.5C 115.5,158.833 115.5,160.167 115.5,161.5C 113.757,159.062 111.757,156.729 109.5,154.5C 108.295,153.314 106.961,153.314 105.5,154.5C 104.903,154.265 104.57,153.765 104.5,153C 105.32,151.2 105.986,149.366 106.5,147.5 Z"/></g>
<g><path style="opacity:1" fill="#2b6aa0" d="M 75.5,140.5 C 75.5657,146.384 78.5657,148.717 84.5,147.5C 80.3155,148.166 75.9822,148.833 71.5,149.5C 70.7542,150.736 70.4208,152.07 70.5,153.5C 71.791,153.263 72.791,153.596 73.5,154.5C 71.8212,154.285 70.8212,154.952 70.5,156.5C 69.2719,157.306 68.2719,158.306 67.5,159.5C 67.5,158.5 67.5,157.5 67.5,156.5C 64.3704,156.7 61.3704,157.366 58.5,158.5C 58.4142,157.504 58.7476,156.671 59.5,156C 60.8333,155.667 62.1667,155.333 63.5,155C 60.854,154.503 58.1873,154.336 55.5,154.5C 54.9627,159.186 54.296,163.853 53.5,168.5C 54.8333,168.5 56.1667,168.5 57.5,168.5C 57.6347,170.554 56.968,172.221 55.5,173.5C 53.9891,174.502 52.3224,175.169 50.5,175.5C 50.3932,173.621 50.8932,173.288 52,174.5C 52.8289,169.467 52.6623,164.467 51.5,159.5C 50.8076,160.025 50.3076,160.692 50,161.5C 49.6667,165.167 49.3333,168.833 49,172.5C 48.6667,172.833 48.3333,173.167 48,173.5C 47.2353,167.365 47.7353,161.365 49.5,155.5C 52.5605,155.413 55.2272,154.413 57.5,152.5C 62.4098,154.449 65.0764,152.783 65.5,147.5C 67.924,147.808 70.2573,147.474 72.5,146.5C 71.3112,145.571 69.9778,145.238 68.5,145.5C 68.2322,143.901 68.5655,142.568 69.5,141.5C 69.8212,143.048 70.8212,143.715 72.5,143.5C 72.3505,142.448 72.5172,141.448 73,140.5C 73.7697,141.598 74.603,141.598 75.5,140.5 Z"/></g>
<g><path style="opacity:1" fill="#78b6d5" d="M 137.5,154.5 C 138.209,153.596 139.209,153.263 140.5,153.5C 140.795,155.735 140.461,157.735 139.5,159.5C 139.923,157.219 139.256,155.552 137.5,154.5 Z"/></g>
<g><path style="opacity:1" fill="#336697" d="M 92.5,154.5 C 91.4706,156.517 90.4706,158.517 89.5,160.5C 88.5178,161.141 87.5178,161.807 86.5,162.5C 86.0161,159.374 84.6827,156.707 82.5,154.5C 81.0652,155.947 80.0652,157.614 79.5,159.5C 79.5514,157.43 78.8847,155.597 77.5,154C 77.952,151.52 79.1186,151.02 81,152.5C 83.1551,151.756 85.1551,150.756 87,149.5C 88.2247,149.862 89.3914,150.362 90.5,151C 88.2615,151.88 86.5948,153.38 85.5,155.5C 85.8869,156.72 86.7202,157.387 88,157.5C 89.1233,155.9 90.6233,154.9 92.5,154.5 Z"/></g>
<g><path style="opacity:1" fill="#cce0eb" d="M 92.5,154.5 C 93.5,154.5 94.5,154.5 95.5,154.5C 95.5,156.167 95.5,157.833 95.5,159.5C 94.5269,161.948 94.1936,164.615 94.5,167.5C 93.2921,168.234 91.9587,168.567 90.5,168.5C 90.8769,165.475 91.0435,162.475 91,159.5C 90.6174,160.056 90.1174,160.389 89.5,160.5C 90.4706,158.517 91.4706,156.517 92.5,154.5 Z"/></g>
<g><path style="opacity:1" fill="#295bac" d="M 150.5,156.5 C 152.5,156.5 154.5,156.5 156.5,156.5C 156.5,157.5 156.5,158.5 156.5,159.5C 155.833,159.5 155.167,159.5 154.5,159.5C 153.167,159.5 151.833,159.5 150.5,159.5C 150.5,158.5 150.5,157.5 150.5,156.5 Z"/></g>
<g><path style="opacity:1" fill="#cbe7f0" d="M 58.5,158.5 C 65.4875,160.871 65.1542,161.871 57.5,161.5C 57.5,163.833 57.5,166.167 57.5,168.5C 56.1667,168.5 54.8333,168.5 53.5,168.5C 54.296,163.853 54.9627,159.186 55.5,154.5C 58.1873,154.336 60.854,154.503 63.5,155C 62.1667,155.333 60.8333,155.667 59.5,156C 58.7476,156.671 58.4142,157.504 58.5,158.5 Z"/></g>
<g><path style="opacity:1" fill="#cee8f2" d="M 109.5,154.5 C 108.624,158.462 107.958,162.462 107.5,166.5C 108.833,166.5 110.167,166.5 111.5,166.5C 111.5,167.167 111.5,167.833 111.5,168.5C 108.302,169.036 105.635,168.369 103.5,166.5C 104.593,162.606 105.26,158.606 105.5,154.5C 106.961,153.314 108.295,153.314 109.5,154.5 Z"/></g>
<g><path style="opacity:1" fill="#d9ecf5" d="M 165.5,154.5 C 165.5,154.833 165.5,155.167 165.5,155.5C 163.703,155.935 161.703,155.935 159.5,155.5C 159.626,158.468 161.126,160.468 164,161.5C 164.17,167.149 161.337,169.482 155.5,168.5C 155.351,167.448 155.517,166.448 156,165.5C 158.222,168.303 160.055,168.137 161.5,165C 159.599,163.271 157.932,161.438 156.5,159.5C 156.5,158.5 156.5,157.5 156.5,156.5C 159.096,153.766 162.096,153.1 165.5,154.5 Z"/></g>
<g><path style="opacity:1" fill="#aacee6" d="M 70.5,156.5 C 70.5858,157.496 70.2524,158.329 69.5,159C 71.1922,160.401 71.8588,162.234 71.5,164.5C 69.712,164.215 68.0453,164.548 66.5,165.5C 65.8118,166.855 64.8118,167.855 63.5,168.5C 64.5382,165.419 65.8715,162.419 67.5,159.5C 68.2719,158.306 69.2719,157.306 70.5,156.5 Z"/></g>
<g><path style="opacity:1" fill="#e3ecec" d="M 73.5,154.5 C 73.5,154.833 73.5,155.167 73.5,155.5C 74.5346,159.739 75.2012,164.072 75.5,168.5C 74.5,168.5 73.5,168.5 72.5,168.5C 72.7678,166.901 72.4345,165.568 71.5,164.5C 71.8588,162.234 71.1922,160.401 69.5,159C 70.2524,158.329 70.5858,157.496 70.5,156.5C 70.8212,154.952 71.8212,154.285 73.5,154.5 Z"/></g>
<g><path style="opacity:1" fill="#cee4ef" d="M 89.5,160.5 C 89.415,162.929 88.415,164.929 86.5,166.5C 85.5754,167.562 84.5754,167.562 83.5,166.5C 83.6168,164.516 82.9501,162.85 81.5,161.5C 80.35,163.763 79.35,166.096 78.5,168.5C 78.1667,167.833 77.8333,167.167 77.5,166.5C 78.4669,164.238 79.1336,161.905 79.5,159.5C 80.0652,157.614 81.0652,155.947 82.5,154.5C 84.6827,156.707 86.0161,159.374 86.5,162.5C 87.5178,161.807 88.5178,161.141 89.5,160.5 Z"/></g>
<g><path style="opacity:1" fill="#e1ecef" d="M 118.5,154.5 C 119.451,155.919 119.784,157.585 119.5,159.5C 118.412,162.622 117.078,165.622 115.5,168.5C 114.286,166.141 114.286,163.808 115.5,161.5C 115.5,160.167 115.5,158.833 115.5,157.5C 116.1,156.1 117.1,155.1 118.5,154.5 Z"/></g>
<g><path style="opacity:1" fill="#2461bc" d="M 119.5,159.5 C 119.784,157.585 119.451,155.919 118.5,154.5C 118.5,152.167 118.5,149.833 118.5,147.5C 119.15,147.196 119.817,146.863 120.5,146.5C 121.91,152.584 121.743,158.584 120,164.5C 119.506,162.866 119.34,161.199 119.5,159.5 Z"/></g>
<g><path style="opacity:1" fill="#d5e9ef" d="M 99.5,154.5 C 100.5,154.5 101.5,154.5 102.5,154.5C 101.705,158.476 101.038,162.476 100.5,166.5C 99.8166,168.176 98.4832,168.843 96.5,168.5C 96.5,167.5 96.5,166.5 96.5,165.5C 97.6066,161.858 98.6066,158.191 99.5,154.5 Z"/></g>
<g><path style="opacity:1" fill="#cee8ed" d="M 131.5,159.5 C 131.205,161.735 131.539,163.735 132.5,165.5C 132.5,166.5 132.5,167.5 132.5,168.5C 131.167,168.5 129.833,168.5 128.5,168.5C 128.196,165.478 127.696,162.478 127,159.5C 125.731,160.905 125.231,162.571 125.5,164.5C 124.5,164.5 123.5,164.5 122.5,164.5C 122.912,166.973 121.912,168.306 119.5,168.5C 121.844,164.64 124.011,160.64 126,156.5C 127.11,154.963 128.61,154.297 130.5,154.5C 130.216,156.415 130.549,158.081 131.5,159.5 Z"/></g>
<g><path style="opacity:1" fill="#d2e4e9" d="M 137.5,154.5 C 139.256,155.552 139.923,157.219 139.5,159.5C 138.532,161.607 138.198,163.941 138.5,166.5C 139.978,166.238 141.311,166.571 142.5,167.5C 139.914,168.48 137.247,168.813 134.5,168.5C 134.5,167.5 134.5,166.5 134.5,165.5C 135.341,163.621 135.675,161.621 135.5,159.5C 136.167,157.833 136.833,156.167 137.5,154.5 Z"/></g>
<g><path style="opacity:1" fill="#c9e8f3" d="M 150.5,156.5 C 150.5,157.5 150.5,158.5 150.5,159.5C 151.833,159.5 153.167,159.5 154.5,159.5C 153.322,160.999 151.655,161.999 149.5,162.5C 148.754,163.736 148.421,165.07 148.5,166.5C 149.978,166.238 151.311,166.571 152.5,167.5C 149.914,168.48 147.247,168.813 144.5,168.5C 144.858,165.733 145.525,163.067 146.5,160.5C 146.5,159.5 146.5,158.5 146.5,157.5C 147.404,156.791 147.737,155.791 147.5,154.5C 150.187,154.336 152.854,154.503 155.5,155C 153.618,155.198 151.952,155.698 150.5,156.5 Z"/></g>
<g><path style="opacity:1" fill="#2c678a" d="M 95.5,159.5 C 95.2053,161.735 95.5386,163.735 96.5,165.5C 96.5,166.5 96.5,167.5 96.5,168.5C 98.4832,168.843 99.8166,168.176 100.5,166.5C 101.5,166.5 102.5,166.5 103.5,166.5C 105.635,168.369 108.302,169.036 111.5,168.5C 109.022,169.164 106.355,169.497 103.5,169.5C 100.231,169.396 97.2308,168.73 94.5,167.5C 94.1936,164.615 94.5269,161.948 95.5,159.5 Z"/></g>
<g><path style="opacity:1" fill="#31689a" d="M 165.5,155.5 C 165.157,157.483 165.824,158.817 167.5,159.5C 167.74,162.579 167.407,165.579 166.5,168.5C 162.893,169.489 159.226,169.823 155.5,169.5C 146.167,169.5 136.833,169.5 127.5,169.5C 127.649,170.552 127.483,171.552 127,172.5C 126.667,171.167 126.333,169.833 126,168.5C 123.605,167.202 122.438,168.035 122.5,171C 125.754,174.211 125.087,175.711 120.5,175.5C 119.781,173.236 119.448,170.903 119.5,168.5C 121.912,168.306 122.912,166.973 122.5,164.5C 123.5,164.5 124.5,164.5 125.5,164.5C 125.231,162.571 125.731,160.905 127,159.5C 127.696,162.478 128.196,165.478 128.5,168.5C 129.833,168.5 131.167,168.5 132.5,168.5C 132.5,167.5 132.5,166.5 132.5,165.5C 133.167,165.5 133.833,165.5 134.5,165.5C 134.5,166.5 134.5,167.5 134.5,168.5C 137.247,168.813 139.914,168.48 142.5,167.5C 141.311,166.571 139.978,166.238 138.5,166.5C 138.198,163.941 138.532,161.607 139.5,159.5C 139.5,161.5 139.5,163.5 139.5,165.5C 140.833,165.5 142.167,165.5 143.5,165.5C 143.5,163.833 143.5,162.167 143.5,160.5C 144.5,160.5 145.5,160.5 146.5,160.5C 145.525,163.067 144.858,165.733 144.5,168.5C 147.247,168.813 149.914,168.48 152.5,167.5C 151.311,166.571 149.978,166.238 148.5,166.5C 148.421,165.07 148.754,163.736 149.5,162.5C 151.655,161.999 153.322,160.999 154.5,159.5C 155.167,159.5 155.833,159.5 156.5,159.5C 157.932,161.438 159.599,163.271 161.5,165C 160.055,168.137 158.222,168.303 156,165.5C 155.517,166.448 155.351,167.448 155.5,168.5C 161.337,169.482 164.17,167.149 164,161.5C 161.126,160.468 159.626,158.468 159.5,155.5C 161.703,155.935 163.703,155.935 165.5,155.5 Z"/></g>
<g><path style="opacity:1" fill="#1666c2" d="M 83.5,166.5 C 84.6787,169.371 84.6787,172.204 83.5,175C 93.8819,175.128 104.215,175.294 114.5,175.5C 116.5,175.5 118.5,175.5 120.5,175.5C 125.087,175.711 125.754,174.211 122.5,171C 122.438,168.035 123.605,167.202 126,168.5C 126.333,169.833 126.667,171.167 127,172.5C 127.483,171.552 127.649,170.552 127.5,169.5C 136.833,169.5 146.167,169.5 155.5,169.5C 155.5,170.167 155.5,170.833 155.5,171.5C 147.5,171.5 139.5,171.5 131.5,171.5C 131.5,172.833 131.5,174.167 131.5,175.5C 135.5,175.5 139.5,175.5 143.5,175.5C 143.5,175.833 143.5,176.167 143.5,176.5C 105.996,176.832 68.6629,176.498 31.5,175.5C 37.8333,175.5 44.1667,175.5 50.5,175.5C 52.3224,175.169 53.9891,174.502 55.5,173.5C 61.9559,175.327 68.6226,175.994 75.5,175.5C 77.5273,175.662 79.5273,175.495 81.5,175C 80.4238,173.274 80.2571,171.441 81,169.5C 81.2355,167.881 82.0689,166.881 83.5,166.5 Z"/></g>
<g><path style="opacity:1" fill="#2c63a2" d="M 73.5,155.5 C 75.0615,157.372 76.0615,159.705 76.5,162.5C 77.1411,161.007 78.1411,160.007 79.5,159.5C 79.1336,161.905 78.4669,164.238 77.5,166.5C 77.8333,167.167 78.1667,167.833 78.5,168.5C 79.35,166.096 80.35,163.763 81.5,161.5C 82.9501,162.85 83.6168,164.516 83.5,166.5C 82.0689,166.881 81.2355,167.881 81,169.5C 80.2571,171.441 80.4238,173.274 81.5,175C 79.5273,175.495 77.5273,175.662 75.5,175.5C 73.2791,172.687 71.6124,169.521 70.5,166C 69.8333,165.333 69.1667,165.333 68.5,166C 67.3147,167.353 65.9814,168.52 64.5,169.5C 63.8933,169.376 63.56,169.043 63.5,168.5C 64.8118,167.855 65.8118,166.855 66.5,165.5C 68.0453,164.548 69.712,164.215 71.5,164.5C 72.4345,165.568 72.7678,166.901 72.5,168.5C 73.5,168.5 74.5,168.5 75.5,168.5C 75.2012,164.072 74.5346,159.739 73.5,155.5 Z"/></g>
<g><path style="opacity:1" fill="#1f64ac" d="M 94.5,167.5 C 97.2308,168.73 100.231,169.396 103.5,169.5C 106.355,169.497 109.022,169.164 111.5,168.5C 111.5,167.833 111.5,167.167 111.5,166.5C 111.351,165.448 111.517,164.448 112,163.5C 112.118,166.371 112.784,169.038 114,171.5C 116.552,168.806 117.719,169.473 117.5,173.5C 115.821,173.285 114.821,173.952 114.5,175.5C 104.215,175.294 93.8819,175.128 83.5,175C 84.6787,172.204 84.6787,169.371 83.5,166.5C 84.5754,167.562 85.5754,167.562 86.5,166.5C 88.415,164.929 89.415,162.929 89.5,160.5C 90.1174,160.389 90.6174,160.056 91,159.5C 91.0435,162.475 90.8769,165.475 90.5,168.5C 91.9587,168.567 93.2921,168.234 94.5,167.5 Z"/></g>
<g><path style="opacity:1" fill="#1468a9" d="M 155.5,171.5 C 156.605,173.3 155.939,174.467 153.5,175C 149.975,174.984 146.642,175.151 143.5,175.5C 139.5,175.5 135.5,175.5 131.5,175.5C 131.5,174.167 131.5,172.833 131.5,171.5C 139.5,171.5 147.5,171.5 155.5,171.5 Z"/></g>
<g><path style="opacity:1" fill="#2362ad" d="M 67.5,159.5 C 65.8715,162.419 64.5382,165.419 63.5,168.5C 63.56,169.043 63.8933,169.376 64.5,169.5C 65.9814,168.52 67.3147,167.353 68.5,166C 69.1667,165.333 69.8333,165.333 70.5,166C 71.6124,169.521 73.2791,172.687 75.5,175.5C 68.6226,175.994 61.9559,175.327 55.5,173.5C 56.968,172.221 57.6347,170.554 57.5,168.5C 57.5,166.167 57.5,163.833 57.5,161.5C 65.1542,161.871 65.4875,160.871 58.5,158.5C 61.3704,157.366 64.3704,156.7 67.5,156.5C 67.5,157.5 67.5,158.5 67.5,159.5 Z"/></g>
<g><path style="opacity:1" fill="#8ca8bb" d="M 25.5,3.5 C 25.8333,3.5 26.1667,3.5 26.5,3.5C 26.5,61.5 26.5,119.5 26.5,177.5C 84.5,177.5 142.5,177.5 200.5,177.5C 171.005,178.498 141.338,178.831 111.5,178.5C 84.8333,178.5 58.1667,178.5 31.5,178.5C 29.5,178.5 27.5,178.5 25.5,178.5C 25.5,120.167 25.5,61.8333 25.5,3.5 Z"/></g>
<g><path style="opacity:1" fill="#f7fcf7" d="M 31.5,178.5 C 58.1667,178.5 84.8333,178.5 111.5,178.5C 109.067,179.248 106.734,180.415 104.5,182C 125.398,182.15 146.398,181.65 167.5,180.5C 175.529,180.835 183.529,181.502 191.5,182.5C 171.842,183.333 152.175,183.833 132.5,184C 128.808,183.996 125.475,184.996 122.5,187C 123.416,187.278 124.082,187.778 124.5,188.5C 123.5,188.5 122.5,188.5 121.5,188.5C 120.539,190.265 120.205,192.265 120.5,194.5C 119.167,194.5 117.833,194.5 116.5,194.5C 114.236,193.781 111.903,193.448 109.5,193.5C 110.89,191 110.723,188.667 109,186.5C 107.204,187.767 105.371,187.767 103.5,186.5C 102.702,186.957 102.369,187.624 102.5,188.5C 101.167,188.5 99.8333,188.5 98.5,188.5C 98.5,190.5 98.5,192.5 98.5,194.5C 96.1944,194.007 93.861,193.674 91.5,193.5C 89.4305,193.551 87.5971,192.885 86,191.5C 83.0044,192.035 80.1711,192.702 77.5,193.5C 76.8333,193.5 76.1667,193.5 75.5,193.5C 74.0646,192.904 72.398,192.904 70.5,193.5C 68.8333,193.5 67.1667,193.5 65.5,193.5C 65.5,196.833 65.5,200.167 65.5,203.5C 64.9232,205.652 63.7565,205.985 62,204.5C 61.5014,200.848 61.3347,197.182 61.5,193.5C 60.1667,193.5 58.8333,193.5 57.5,193.5C 57.1788,191.952 56.1788,191.285 54.5,191.5C 54.67,190.178 54.3366,189.011 53.5,188C 48.1667,187.333 42.8333,187.333 37.5,188C 36.7476,188.671 36.4142,189.504 36.5,190.5C 32.837,191.112 29.1703,191.279 25.5,191C 27.4357,190.187 29.4357,189.687 31.5,189.5C 31.1412,187.234 31.8078,185.401 33.5,184C 48.8518,182.798 64.1851,181.465 79.5,180C 67.3186,179.261 55.152,179.428 43,180.5C 38.9582,180.236 35.1249,179.57 31.5,178.5 Z"/></g>
<g><path style="opacity:1" fill="#2d6d97" d="M 185.5,205.5 C 186.391,206.11 187.391,206.443 188.5,206.5C 185.432,208.951 182.099,209.118 178.5,207C 174.3,198.225 176.967,193.892 186.5,194C 189.821,195.812 191.155,198.645 190.5,202.5C 187.428,202.183 184.428,202.516 181.5,203.5C 182.32,205.111 183.654,205.778 185.5,205.5 Z"/></g>
<g><path style="opacity:1" fill="#1b6694" d="M 169.5,193.5 C 171.903,193.393 173.736,194.393 175,196.5C 175.701,199.928 175.368,203.262 174,206.5C 173.329,207.252 172.496,207.586 171.5,207.5C 170.167,207.5 169.5,206.833 169.5,205.5C 170.786,202.665 170.786,199.832 169.5,197C 168.551,196.383 167.718,196.549 167,197.5C 165.872,199.345 165.372,201.345 165.5,203.5C 165.5,204.833 165.5,206.167 165.5,207.5C 165.5,209.5 165.5,211.5 165.5,213.5C 164.167,213.5 162.833,213.5 161.5,213.5C 161.5,207.167 161.5,200.833 161.5,194.5C 164.237,194.599 166.904,194.265 169.5,193.5 Z"/></g>
<g><path style="opacity:1" fill="#226890" d="M 41.5,208.5 C 39.9087,207.781 38.4087,206.781 37,205.5C 34.6396,200.071 35.1396,195.071 38.5,190.5C 38.9175,189.778 39.5842,189.278 40.5,189C 45.1519,187.807 49.3186,188.64 53,191.5C 53.4828,192.448 53.6495,193.448 53.5,194.5C 52.1779,194.33 51.0113,194.663 50,195.5C 47.7897,192.71 44.9563,191.877 41.5,193C 39.0092,195.968 38.8426,199.135 41,202.5C 43.9149,205.134 46.7483,205.134 49.5,202.5C 47.9547,201.548 46.288,201.215 44.5,201.5C 44.5,200.167 44.5,198.833 44.5,197.5C 47.5,197.5 50.5,197.5 53.5,197.5C 54.7351,206.581 50.7351,210.248 41.5,208.5 Z"/></g>
<g><path style="opacity:1" fill="#e3eff3" d="M 182.5,196.5 C 183.995,196.415 184.995,197.081 185.5,198.5C 184.167,199.833 182.833,199.833 181.5,198.5C 181.863,197.817 182.196,197.15 182.5,196.5 Z"/></g>
<g><path style="opacity:1" fill="#e8f1f0" d="M 169.5,205.5 C 167.938,205.267 166.605,204.6 165.5,203.5C 165.372,201.345 165.872,199.345 167,197.5C 167.718,196.549 168.551,196.383 169.5,197C 170.786,199.832 170.786,202.665 169.5,205.5 Z"/></g>
<g><path style="opacity:1" fill="#1c7378" d="M 188.5,206.5 C 187.391,206.443 186.391,206.11 185.5,205.5C 185.369,204.624 185.702,203.957 186.5,203.5C 187.795,204.098 189.128,204.598 190.5,205C 189.956,205.717 189.289,206.217 188.5,206.5 Z"/></g>
<g><path style="opacity:1" fill="#276971" d="M 165.5,203.5 C 166.605,204.6 167.938,205.267 169.5,205.5C 169.5,206.833 170.167,207.5 171.5,207.5C 169.653,208.573 167.653,208.573 165.5,207.5C 165.5,206.167 165.5,204.833 165.5,203.5 Z"/></g>
<g><path style="opacity:1" fill="#eaf6f8" d="M 109.5,193.5 C 107.81,193.856 106.81,194.856 106.5,196.5C 104.974,197.492 104.307,198.992 104.5,201C 104.393,203.221 105.06,205.054 106.5,206.5C 110.827,209.474 114.827,208.974 118.5,205C 116.053,203.143 113.887,203.31 112,205.5C 110.72,205.387 109.887,204.72 109.5,203.5C 111.743,202.526 114.076,202.192 116.5,202.5C 118.96,200.344 118.96,198.011 116.5,195.5C 116.5,195.167 116.5,194.833 116.5,194.5C 117.833,194.5 119.167,194.5 120.5,194.5C 120.5,199.167 120.5,203.833 120.5,208.5C 122.415,208.784 124.081,208.451 125.5,207.5C 125.5,201.167 125.5,194.833 125.5,188.5C 136.802,187.21 148.135,187.21 159.5,188.5C 148.849,189.332 138.182,189.832 127.5,190C 132.833,190.333 138.167,190.667 143.5,191C 144.381,191.708 145.047,192.542 145.5,193.5C 144.167,197.833 144.167,202.167 145.5,206.5C 146.134,207.947 147.301,208.613 149,208.5C 150.825,208.057 152.658,207.723 154.5,207.5C 155.568,208.434 156.901,208.768 158.5,208.5C 158.5,205.5 158.5,202.5 158.5,199.5C 159.317,201.969 159.817,204.635 160,207.5C 160.393,202.799 160.393,198.132 160,193.5C 161.25,192.427 162.584,192.427 164,193.5C 165.092,192.704 166.259,192.037 167.5,191.5C 168.713,191.747 169.38,192.414 169.5,193.5C 166.904,194.265 164.237,194.599 161.5,194.5C 161.5,200.833 161.5,207.167 161.5,213.5C 160.711,213.217 160.044,212.717 159.5,212C 153.706,211.88 148.04,211.046 142.5,209.5C 139.828,210.503 137.162,211.503 134.5,212.5C 132.423,211.063 130.09,210.396 127.5,210.5C 127.367,213.896 126.367,214.229 124.5,211.5C 124.141,212.917 122.975,214.25 121,215.5C 113.686,214.277 107.186,212.611 101.5,210.5C 91.493,212.511 81.6596,212.511 72,210.5C 68.7315,211.113 65.3981,212.113 62,213.5C 59.6773,211.848 57.344,210.181 55,208.5C 53.0876,209.692 51.0876,210.692 49,211.5C 47.0886,211.255 45.0886,211.255 43,211.5C 42.0754,210.953 41.2421,210.287 40.5,209.5C 40.6236,208.893 40.9569,208.56 41.5,208.5C 50.7351,210.248 54.7351,206.581 53.5,197.5C 50.5,197.5 47.5,197.5 44.5,197.5C 44.5,198.833 44.5,200.167 44.5,201.5C 46.288,201.215 47.9547,201.548 49.5,202.5C 46.7483,205.134 43.9149,205.134 41,202.5C 38.8426,199.135 39.0092,195.968 41.5,193C 44.9563,191.877 47.7897,192.71 50,195.5C 51.0113,194.663 52.1779,194.33 53.5,194.5C 53.6495,193.448 53.4828,192.448 53,191.5C 49.3186,188.64 45.1519,187.807 40.5,189C 39.5842,189.278 38.9175,189.778 38.5,190.5C 37.8333,190.5 37.1667,190.5 36.5,190.5C 36.4142,189.504 36.7476,188.671 37.5,188C 42.8333,187.333 48.1667,187.333 53.5,188C 54.3366,189.011 54.67,190.178 54.5,191.5C 56.1788,191.285 57.1788,191.952 57.5,193.5C 57.3343,197.846 57.501,202.179 58,206.5C 59.7889,208.229 61.9556,208.896 64.5,208.5C 66.5,208.5 68.5,208.5 70.5,208.5C 70.5,203.5 70.5,198.5 70.5,193.5C 72.398,192.904 74.0646,192.904 75.5,193.5C 74.962,195.117 74.6287,196.784 74.5,198.5C 76.7224,198.822 78.5557,198.155 80,196.5C 80.6924,197.025 81.1924,197.692 81.5,198.5C 78.8549,199.192 76.3549,200.192 74,201.5C 73.1923,203.579 73.359,205.579 74.5,207.5C 78.4295,208.433 82.4295,208.766 86.5,208.5C 86.6657,204.154 86.499,199.821 86,195.5C 83.3788,194.009 80.5455,193.342 77.5,193.5C 80.1711,192.702 83.0044,192.035 86,191.5C 87.5971,192.885 89.4305,193.551 91.5,193.5C 88.4664,196.787 87.7997,200.454 89.5,204.5C 89.427,206.027 90.0937,207.027 91.5,207.5C 94.9619,208.482 98.6286,208.815 102.5,208.5C 102.5,203.5 102.5,198.5 102.5,193.5C 102.5,191.833 102.5,190.167 102.5,188.5C 102.369,187.624 102.702,186.957 103.5,186.5C 105.371,187.767 107.204,187.767 109,186.5C 110.723,188.667 110.89,191 109.5,193.5 Z"/></g>
<g><path style="opacity:1" fill="#16629a" d="M 149.5,194.5 C 149.5,198.167 149.5,201.833 149.5,205.5C 151.38,205.771 152.713,205.104 153.5,203.5C 154.477,200.713 154.81,197.713 154.5,194.5C 155.5,194.5 156.5,194.5 157.5,194.5C 157.5,198.833 157.5,203.167 157.5,207.5C 156.5,207.5 155.5,207.5 154.5,207.5C 152.658,207.723 150.825,208.057 149,208.5C 147.301,208.613 146.134,207.947 145.5,206.5C 145.5,202.5 145.5,198.5 145.5,194.5C 146.833,194.5 148.167,194.5 149.5,194.5 Z"/></g>
<g><path style="opacity:1" fill="#6d9aab" d="M 158.5,199.5 C 158.5,202.5 158.5,205.5 158.5,208.5C 156.901,208.768 155.568,208.434 154.5,207.5C 155.5,207.5 156.5,207.5 157.5,207.5C 157.5,203.167 157.5,198.833 157.5,194.5C 156.5,194.5 155.5,194.5 154.5,194.5C 154.81,197.713 154.477,200.713 153.5,203.5C 153.5,200.167 153.5,196.833 153.5,193.5C 155.167,193.5 156.833,193.5 158.5,193.5C 158.5,195.5 158.5,197.5 158.5,199.5 Z"/></g>
<g><path style="opacity:1" fill="#13639d" d="M 93.5,197.5 C 92.0271,200.452 92.3605,203.119 94.5,205.5C 95.6085,206.29 96.9419,206.79 98.5,207C 96.1902,207.497 93.8568,207.663 91.5,207.5C 90.0937,207.027 89.427,206.027 89.5,204.5C 90.2653,201.904 90.5987,199.237 90.5,196.5C 91.791,196.263 92.791,196.596 93.5,197.5 Z"/></g>
<g><path style="opacity:1" fill="#7faab1" d="M 145.5,193.5 C 147.099,193.232 148.432,193.566 149.5,194.5C 148.167,194.5 146.833,194.5 145.5,194.5C 145.5,198.5 145.5,202.5 145.5,206.5C 144.167,202.167 144.167,197.833 145.5,193.5 Z"/></g>
<g><path style="opacity:1" fill="#357c8a" d="M 106.5,196.5 C 106.5,199.833 106.5,203.167 106.5,206.5C 105.06,205.054 104.393,203.221 104.5,201C 104.307,198.992 104.974,197.492 106.5,196.5 Z"/></g>
<g><path style="opacity:1" fill="#d6e3ea" d="M 94.5,205.5 C 92.3605,203.119 92.0271,200.452 93.5,197.5C 96.404,196.124 98.0707,197.124 98.5,200.5C 98.7981,203.603 97.4648,205.27 94.5,205.5 Z"/></g>
<g><path style="opacity:1" fill="#1c6493" d="M 57.5,193.5 C 58.8333,193.5 60.1667,193.5 61.5,193.5C 61.3347,197.182 61.5014,200.848 62,204.5C 63.7565,205.985 64.9232,205.652 65.5,203.5C 66.4767,200.713 66.81,197.713 66.5,194.5C 67.5,194.5 68.5,194.5 69.5,194.5C 69.5,198.833 69.5,203.167 69.5,207.5C 67.5853,207.216 65.9187,207.549 64.5,208.5C 61.9556,208.896 59.7889,208.229 58,206.5C 57.501,202.179 57.3343,197.846 57.5,193.5 Z"/></g>
<g><path style="opacity:1" fill="#1068a0" d="M 121.5,188.5 C 122.5,188.5 123.5,188.5 124.5,188.5C 124.833,188.5 125.167,188.5 125.5,188.5C 125.5,194.833 125.5,201.167 125.5,207.5C 124.167,207.5 122.833,207.5 121.5,207.5C 121.5,201.167 121.5,194.833 121.5,188.5 Z"/></g>
<g><path style="opacity:1" fill="#7b9db2" d="M 121.5,188.5 C 121.5,194.833 121.5,201.167 121.5,207.5C 122.833,207.5 124.167,207.5 125.5,207.5C 124.081,208.451 122.415,208.784 120.5,208.5C 120.5,203.833 120.5,199.167 120.5,194.5C 120.205,192.265 120.539,190.265 121.5,188.5 Z"/></g>
<g><path style="opacity:1" fill="#427f83" d="M 116.5,195.5 C 118.96,198.011 118.96,200.344 116.5,202.5C 116.5,200.167 116.5,197.833 116.5,195.5 Z"/></g>
<g><path style="opacity:1" fill="#6898ac" d="M 70.5,193.5 C 70.5,198.5 70.5,203.5 70.5,208.5C 68.5,208.5 66.5,208.5 64.5,208.5C 65.9187,207.549 67.5853,207.216 69.5,207.5C 69.5,203.167 69.5,198.833 69.5,194.5C 68.5,194.5 67.5,194.5 66.5,194.5C 66.81,197.713 66.4767,200.713 65.5,203.5C 65.5,200.167 65.5,196.833 65.5,193.5C 67.1667,193.5 68.8333,193.5 70.5,193.5 Z"/></g>
<g><path style="opacity:1" fill="#2c6695" d="M 109.5,193.5 C 111.903,193.448 114.236,193.781 116.5,194.5C 116.5,194.833 116.5,195.167 116.5,195.5C 116.5,197.833 116.5,200.167 116.5,202.5C 114.076,202.192 111.743,202.526 109.5,203.5C 109.887,204.72 110.72,205.387 112,205.5C 113.887,203.31 116.053,203.143 118.5,205C 114.827,208.974 110.827,209.474 106.5,206.5C 106.5,203.167 106.5,199.833 106.5,196.5C 106.81,194.856 107.81,193.856 109.5,193.5 Z"/></g>
<g><path style="opacity:1" fill="#ccf4fe" d="M 110.5,196.5 C 111.995,196.415 112.995,197.081 113.5,198.5C 112.167,199.833 110.833,199.833 109.5,198.5C 109.863,197.817 110.196,197.15 110.5,196.5 Z"/></g>
<g><path style="opacity:1" fill="#2b6999" d="M 75.5,193.5 C 76.1667,193.5 76.8333,193.5 77.5,193.5C 80.5455,193.342 83.3788,194.009 86,195.5C 86.499,199.821 86.6657,204.154 86.5,208.5C 82.4295,208.766 78.4295,208.433 74.5,207.5C 73.359,205.579 73.1923,203.579 74,201.5C 76.3549,200.192 78.8549,199.192 81.5,198.5C 81.1924,197.692 80.6924,197.025 80,196.5C 78.5557,198.155 76.7224,198.822 74.5,198.5C 74.6287,196.784 74.962,195.117 75.5,193.5 Z"/></g>
<g><path style="opacity:1" fill="#b6dbe9" d="M 78.5,202.5 C 80.3547,202.272 81.1881,202.939 81,204.5C 78.1924,205.86 77.3591,205.193 78.5,202.5 Z"/></g>
<g><path style="opacity:1" fill="#1e6b93" d="M 131.5,193.5 C 142.132,193.593 144.799,198.093 139.5,207C 130.319,210.325 126.485,207.158 128,197.5C 128.69,195.65 129.856,194.316 131.5,193.5 Z"/></g>
<g><path style="opacity:1" fill="#e6f0f0" d="M 132.5,197.5 C 134.144,197.286 135.644,197.62 137,198.5C 137.758,200.769 137.591,202.936 136.5,205C 133.452,205.635 131.785,204.301 131.5,201C 131.989,199.862 132.322,198.695 132.5,197.5 Z"/></g>
<g><path style="opacity:1" fill="#1a619c" d="M 102.5,188.5 C 102.5,190.167 102.5,191.833 102.5,193.5C 101.837,195.042 101.17,196.709 100.5,198.5C 99.2949,197.423 98.6282,196.09 98.5,194.5C 98.5,192.5 98.5,190.5 98.5,188.5C 99.8333,188.5 101.167,188.5 102.5,188.5 Z"/></g>
<g><path style="opacity:1" fill="#2b6b8c" d="M 91.5,193.5 C 93.861,193.674 96.1944,194.007 98.5,194.5C 98.6282,196.09 99.2949,197.423 100.5,198.5C 101.17,196.709 101.837,195.042 102.5,193.5C 102.5,198.5 102.5,203.5 102.5,208.5C 98.6286,208.815 94.9619,208.482 91.5,207.5C 93.8568,207.663 96.1902,207.497 98.5,207C 96.9419,206.79 95.6085,206.29 94.5,205.5C 97.4648,205.27 98.7981,203.603 98.5,200.5C 98.0707,197.124 96.404,196.124 93.5,197.5C 92.791,196.596 91.791,196.263 90.5,196.5C 90.5987,199.237 90.2653,201.904 89.5,204.5C 87.7997,200.454 88.4664,196.787 91.5,193.5 Z"/></g>
</svg>
