<?xml version="1.0" encoding="UTF-8"?>
<!DOCTYPE svg PUBLIC "-//W3C//DTD SVG 1.1//EN" "http://www.w3.org/Graphics/SVG/1.1/DTD/svg11.dtd">
<svg xmlns="http://www.w3.org/2000/svg" version="1.1" width="494px" height="102px" style="shape-rendering:geometricPrecision; text-rendering:geometricPrecision; image-rendering:optimizeQuality; fill-rule:evenodd; clip-rule:evenodd" xmlns:xlink="http://www.w3.org/1999/xlink">
<g><path style="opacity:1" fill="#fcfcfa" d="M 105.5,-0.5 C 106.5,-0.5 107.5,-0.5 108.5,-0.5C 109.167,75.5 109.833,75.5 110.5,-0.5C 238.167,-0.5 365.833,-0.5 493.5,-0.5C 493.5,13.1667 493.5,26.8333 493.5,40.5C 490.589,37.9057 487.255,36.239 483.5,35.5C 479.497,35.2492 476.664,36.9158 475,40.5C 472.267,51.6095 476.434,56.7762 487.5,56C 489.208,54.4905 490.874,52.9905 492.5,51.5C 491.5,51.1667 490.5,50.8333 489.5,50.5C 486.991,51.8431 484.324,52.3431 481.5,52C 479.963,50.8904 479.297,49.3904 479.5,47.5C 484.167,47.5 488.833,47.5 493.5,47.5C 493.5,65.5 493.5,83.5 493.5,101.5C 450.167,101.5 406.833,101.5 363.5,101.5C 363.194,98.6146 363.527,95.9479 364.5,93.5C 367.98,96.147 371.313,95.8137 374.5,92.5C 376.549,92.7058 376.883,93.5391 375.5,95C 378.221,95.6015 380.887,95.4349 383.5,94.5C 388.12,96.4774 391.787,95.3107 394.5,91C 393.046,89.3409 391.713,89.6743 390.5,92C 388.115,92.5564 385.782,92.3897 383.5,91.5C 382.699,89.9582 382.366,88.2915 382.5,86.5C 386.833,86.5 391.167,86.5 395.5,86.5C 395.834,83.812 395.168,81.4786 393.5,79.5C 394.75,79.4226 395.583,78.756 396,77.5C 396.494,75.8659 396.66,74.1992 396.5,72.5C 400.422,71.8826 400.422,71.2159 396.5,70.5C 388.741,70.3061 381.241,68.9727 374,66.5C 371.667,66.5832 369.834,67.5832 368.5,69.5C 367.5,69 366.5,68.5 365.5,68C 368.509,65.9268 371.842,64.5934 375.5,64C 374.5,63.6667 373.5,63.3333 372.5,63C 374.25,61.6814 376.25,61.1814 378.5,61.5C 378.384,64.9103 380.05,66.2436 383.5,65.5C 383.5,64.5 383.5,63.5 383.5,62.5C 388.974,64.1481 394.307,63.8148 399.5,61.5C 383.591,60.2917 383.591,58.7917 399.5,57C 399.167,56.6667 398.833,56.3333 398.5,56C 400.487,53.5301 400.987,50.6967 400,47.5C 399.781,48.938 399.281,50.2713 398.5,51.5C 398.167,51 397.833,50.5 397.5,50C 398.769,47.916 399.769,45.7494 400.5,43.5C 401.485,47.6344 401.818,51.9677 401.5,56.5C 403.735,56.7947 405.735,56.4614 407.5,55.5C 407.666,49.8236 407.499,44.1569 407,38.5C 406.167,37.6667 405.333,36.8333 404.5,36C 400.812,35.5499 397.146,35.7166 393.5,36.5C 392.167,36.5 390.833,36.5 389.5,36.5C 386.904,37.2653 384.237,37.5987 381.5,37.5C 378.028,35.7423 374.362,35.2423 370.5,36C 369.058,36.3768 368.058,37.2101 367.5,38.5C 366.034,39.347 365.2,40.6803 365,42.5C 364.204,45.0385 364.371,47.3718 365.5,49.5C 366.801,50.8816 367.634,52.5483 368,54.5C 369.622,55.0989 371.122,55.7656 372.5,56.5C 370.833,56.5 369.167,56.5 367.5,56.5C 367.785,58.288 367.452,59.9547 366.5,61.5C 362.18,62.1115 357.847,62.7782 353.5,63.5C 354.025,64.1924 354.692,64.6924 355.5,65C 354.062,65.2189 352.729,65.7189 351.5,66.5C 353.766,67.3142 356.1,67.8142 358.5,68C 359.167,68.6667 359.833,69.3333 360.5,70C 351.942,70.8967 351.608,72.3967 359.5,74.5C 359.5,75.5 359.5,76.5 359.5,77.5C 358.5,77.5 357.5,77.5 356.5,77.5C 356.167,77.5 355.833,77.5 355.5,77.5C 354.833,77.5 354.167,77.5 353.5,77.5C 352.624,77.3691 351.957,77.7025 351.5,78.5C 352.426,82.0938 352.759,85.7604 352.5,89.5C 351.5,89.5 350.5,89.5 349.5,89.5C 349.59,87.3037 349.923,85.137 350.5,83C 349.264,79.9078 348.097,76.7411 347,73.5C 343.297,74.9122 339.797,74.4122 336.5,72C 337.809,70.2493 337.475,68.7493 335.5,67.5C 332.216,66.343 328.882,66.1764 325.5,67C 325.043,67.414 324.709,67.914 324.5,68.5C 327.107,69.3184 329.774,69.8184 332.5,70C 331.433,72.6938 332.433,74.5272 335.5,75.5C 332.023,76.1672 328.689,76.8339 325.5,77.5C 323.254,77.9361 321.087,78.6028 319,79.5C 318.814,76.9644 318.314,74.631 317.5,72.5C 317.672,71.5084 317.338,70.8417 316.5,70.5C 315.816,68.5512 314.649,66.8845 313,65.5C 312.07,67.5524 310.57,69.0524 308.5,70C 309.647,71.2811 309.313,71.6144 307.5,71C 306.643,70.3109 305.977,69.4776 305.5,68.5C 306.309,66.9291 306.643,65.2624 306.5,63.5C 309.973,62.7575 313.473,62.0909 317,61.5C 318.561,61.6032 320.061,61.9366 321.5,62.5C 325.316,59.0987 324.649,56.7653 319.5,55.5C 317.5,55.8333 315.5,56.1667 313.5,56.5C 313.5,56.1667 313.5,55.8333 313.5,55.5C 314.493,46.6822 314.827,37.6822 314.5,28.5C 312.5,28.5 310.5,28.5 308.5,28.5C 307.833,36.6763 307.167,45.0096 306.5,53.5C 305.583,52.8728 304.583,52.5394 303.5,52.5C 301.469,43.9107 297.803,36.0773 292.5,29C 290.866,28.5065 289.199,28.3398 287.5,28.5C 285.086,34.9885 282.419,41.3218 279.5,47.5C 276.931,44.1117 274.931,40.445 273.5,36.5C 272.359,38.4213 272.192,40.4213 273,42.5C 274.588,44.4208 276.088,46.4208 277.5,48.5C 276.711,50.4879 275.545,50.8213 274,49.5C 273.376,51.4645 273.876,53.1311 275.5,54.5C 274.635,55.5827 273.635,55.7494 272.5,55C 272.167,48.8116 270,47.9783 266,52.5C 265.722,51.5842 265.222,50.9175 264.5,50.5C 262.833,49.1667 261.167,49.1667 259.5,50.5C 258.518,51.1408 257.518,51.8075 256.5,52.5C 255.264,51.7542 253.93,51.4208 252.5,51.5C 252.5,50.1667 252.5,48.8333 252.5,47.5C 256.833,47.5 261.167,47.5 265.5,47.5C 265.148,44.5716 264.482,41.7383 263.5,39C 251.34,32.3233 245.84,35.8233 247,49.5C 247.311,52.9749 249.144,54.9749 252.5,55.5C 256.017,56.6203 259.684,56.6203 263.5,55.5C 264.404,56.209 264.737,57.209 264.5,58.5C 269.223,58.8114 273.723,58.1447 278,56.5C 282.475,58.9761 286.975,58.9761 291.5,56.5C 292.308,56.8076 292.975,57.3076 293.5,58C 290.149,58.2833 287.149,59.4499 284.5,61.5C 290.163,62.3873 295.829,62.554 301.5,62C 303.991,62.6259 303.991,63.4593 301.5,64.5C 303.167,66.1667 302.833,67.1667 300.5,67.5C 298.085,67.2811 297.085,65.9477 297.5,63.5C 295.654,63.2222 294.32,63.8888 293.5,65.5C 294.309,67.0709 294.643,68.7376 294.5,70.5C 293.167,70.5 291.833,70.5 290.5,70.5C 290.48,68.857 291.147,67.5237 292.5,66.5C 284.542,66.2588 276.875,64.9255 269.5,62.5C 268.833,62.6667 268.167,62.8333 267.5,63C 268.308,63.3076 268.975,63.8076 269.5,64.5C 264.589,66.6728 265.255,67.6728 271.5,67.5C 271.5,68.5 271.5,69.5 271.5,70.5C 256.58,70.303 256.08,71.9697 270,75.5C 273.594,74.8148 277.094,73.8148 280.5,72.5C 281.386,73.325 281.719,74.325 281.5,75.5C 276.654,77.0392 271.654,77.7059 266.5,77.5C 263.939,76.2329 261.272,76.2329 258.5,77.5C 256.567,77.2714 254.9,76.4381 253.5,75C 251.527,74.5045 249.527,74.3379 247.5,74.5C 247.5,75.5 247.5,76.5 247.5,77.5C 247.5,81.8333 247.5,86.1667 247.5,90.5C 245.285,92.5737 242.785,92.9071 240,91.5C 239.501,86.8452 239.334,82.1785 239.5,77.5C 238.548,76.548 237.548,75.548 236.5,74.5C 235.914,74.7093 235.414,75.0426 235,75.5C 234.333,73.5 233.667,71.5 233,69.5C 231.829,68.1068 230.329,67.2735 228.5,67C 230.436,66.187 232.436,65.687 234.5,65.5C 234.83,68.1094 236.33,69.7761 239,70.5C 239.49,69.2068 239.657,67.8734 239.5,66.5C 241.346,66.7778 242.68,66.1112 243.5,64.5C 242.204,62.4208 240.538,60.7541 238.5,59.5C 239.262,59.0894 240.262,58.9227 241.5,59C 242.252,58.3292 242.586,57.4959 242.5,56.5C 242.5,50.8333 242.5,45.1667 242.5,39.5C 243.801,38.1155 243.801,36.6155 242.5,35C 236.327,32.5564 229.993,32.3897 223.5,34.5C 222.106,34.3793 220.772,34.046 219.5,33.5C 218.702,33.9569 218.369,34.6236 218.5,35.5C 215.455,35.5079 212.455,35.8413 209.5,36.5C 205.857,34.8923 202.857,35.5589 200.5,38.5C 199.167,39.1667 198.167,40.1667 197.5,41.5C 196.839,42.7175 196.172,44.0508 195.5,45.5C 194.831,43.3691 194.165,41.3691 193.5,39.5C 192.833,39.1667 192.167,38.8333 191.5,38.5C 190.23,36.3891 188.23,35.3891 185.5,35.5C 183.754,35.9709 182.087,36.6376 180.5,37.5C 179.584,37.4573 178.917,37.1239 178.5,36.5C 177.167,35.1667 175.833,35.1667 174.5,36.5C 173.672,42.3193 173.172,48.3193 173,54.5C 171.605,55.8146 170.605,55.4812 170,53.5C 169.826,48.6486 169.326,43.9819 168.5,39.5C 168.426,37.5891 167.426,36.4224 165.5,36C 162.167,35.3333 158.833,35.3333 155.5,36C 153.162,37.1622 151.828,38.9956 151.5,41.5C 154.958,39.9254 158.624,39.4254 162.5,40C 163.337,41.0113 163.67,42.1779 163.5,43.5C 158.82,43.3754 154.654,44.7087 151,47.5C 149.834,50.9268 150.668,53.5935 153.5,55.5C 158.975,56.4889 164.642,56.8222 170.5,56.5C 170.721,57.7348 171.388,58.7348 172.5,59.5C 168.271,61.0094 164.271,60.6761 160.5,58.5C 156.223,59.6055 151.89,59.7722 147.5,59C 146.354,58.3551 145.354,57.5217 144.5,56.5C 140.364,58.7932 136.03,59.1265 131.5,57.5C 130.692,57.8076 130.025,58.3076 129.5,59C 130.833,59.3333 132.167,59.6667 133.5,60C 136.514,60.1276 139.514,60.1276 142.5,60C 141.663,61.0113 141.33,62.1779 141.5,63.5C 138.739,64.9205 135.739,65.5871 132.5,65.5C 132.281,66.675 132.614,67.675 133.5,68.5C 142.077,67.486 150.743,67.486 159.5,68.5C 159.822,72.439 158.489,73.2723 155.5,71C 153.167,70.3333 150.833,70.3333 148.5,71C 147.421,73.043 145.754,74.3763 143.5,75C 147.136,75.6264 147.136,76.7931 143.5,78.5C 143.624,79.1067 143.957,79.44 144.5,79.5C 142.533,82.6915 142.199,86.0248 143.5,89.5C 142.295,87.8624 140.962,87.5291 139.5,88.5C 139.666,82.8236 139.499,77.1569 139,71.5C 137.989,70.6634 136.822,70.33 135.5,70.5C 135.5,72.8333 135.5,75.1667 135.5,77.5C 134.5,77.5 133.5,77.5 132.5,77.5C 128.465,77.4168 125.465,79.0834 123.5,82.5C 121.952,82.1788 121.285,81.1788 121.5,79.5C 120.5,79.5 119.5,79.5 118.5,79.5C 118.462,86.0414 117.796,86.0414 116.5,79.5C 115.667,80.5 114.833,81.5 114,82.5C 113.691,81.2341 113.191,80.0674 112.5,79C 114.526,77.0408 116.692,76.2075 119,76.5C 119.481,74.522 120.647,73.1887 122.5,72.5C 125.449,73.3022 128.449,73.6355 131.5,73.5C 131.5,72.5 131.5,71.5 131.5,70.5C 129.516,70.3832 127.85,71.0499 126.5,72.5C 125.354,71.8551 124.354,71.0217 123.5,70C 124.542,68.082 125.708,66.2487 127,64.5C 128.516,67.0515 129.349,66.7181 129.5,63.5C 127.193,63.0137 125.027,63.0137 123,63.5C 121.566,61.8645 119.733,60.8645 117.5,60.5C 116.948,58.9974 116.948,57.3307 117.5,55.5C 115.5,55.5 113.5,55.5 111.5,55.5C 111.5,58.1667 111.5,60.8333 111.5,63.5C 110.5,63.5 109.5,63.5 108.5,63.5C 108.5,76.1667 108.5,88.8333 108.5,101.5C 107.5,101.5 106.5,101.5 105.5,101.5C 105.5,67.5 105.5,33.5 105.5,-0.5 Z"/></g>
<g><path style="opacity:1" fill="#fdfde8" d="M 108.5,-0.5 C 109.167,-0.5 109.833,-0.5 110.5,-0.5C 109.833,75.5 109.167,75.5 108.5,-0.5 Z"/></g>
<g><path style="opacity:1" fill="#f0a980" d="M 453.5,32.5 C 452.081,33.4511 450.415,33.7845 448.5,33.5C 448.5,31.5 448.5,29.5 448.5,27.5C 450.5,27.5 452.5,27.5 454.5,27.5C 454.784,29.4147 454.451,31.0813 453.5,32.5 Z"/></g>
<g><path style="opacity:1" fill="#f37229" d="M 123.5,28.5 C 129.893,28.2071 136.227,28.5404 142.5,29.5C 146.092,32.8934 146.425,36.5601 143.5,40.5C 147.432,45.1991 147.432,49.8657 143.5,54.5C 136.866,55.4967 130.2,55.83 123.5,55.5C 123.5,46.5 123.5,37.5 123.5,28.5 Z"/></g>
<g><path style="opacity:1" fill="#f68038" d="M 319.5,28.5 C 322.504,28.3347 324.504,29.6681 325.5,32.5C 323.604,33.4656 321.604,33.7989 319.5,33.5C 319.5,31.8333 319.5,30.1667 319.5,28.5 Z"/></g>
<g><path style="opacity:1" fill="#f86f1c" d="M 453.5,32.5 C 452.167,32.5 450.833,32.5 449.5,32.5C 449.167,29.5 450.5,28.1667 453.5,28.5C 453.5,29.8333 453.5,31.1667 453.5,32.5 Z"/></g>
<g><path style="opacity:1" fill="#f08b54" d="M 308.5,28.5 C 310.5,28.5 312.5,28.5 314.5,28.5C 314.827,37.6822 314.493,46.6822 313.5,55.5C 313.5,53.1667 313.5,50.8333 313.5,48.5C 312.167,48.5 310.833,48.5 309.5,48.5C 309.5,50.8333 309.5,53.1667 309.5,55.5C 308.507,46.6822 308.173,37.6822 308.5,28.5 Z"/></g>
<g><path style="opacity:1" fill="#fa6a10" d="M 310.5,29.5 C 311.5,29.5 312.5,29.5 313.5,29.5C 313.5,35.5 313.5,41.5 313.5,47.5C 312.5,47.5 311.5,47.5 310.5,47.5C 310.5,41.5 310.5,35.5 310.5,29.5 Z"/></g>
<g><path style="opacity:1" fill="#febe97" d="M 138.5,33.5 C 135.5,33.5 132.5,33.5 129.5,33.5C 129.5,35.5 129.5,37.5 129.5,39.5C 128.532,37.3926 128.198,35.0593 128.5,32.5C 132.042,32.1872 135.375,32.5206 138.5,33.5 Z"/></g>
<g><path style="opacity:1" fill="#faefe7" d="M 138.5,33.5 C 139.807,35.2232 139.807,37.0565 138.5,39C 135.518,39.498 132.518,39.6646 129.5,39.5C 129.5,37.5 129.5,35.5 129.5,33.5C 132.5,33.5 135.5,33.5 138.5,33.5 Z"/></g>
<g><path style="opacity:1" fill="#f17a38" d="M 419.5,51.5 C 418.521,48.3752 418.187,45.0419 418.5,41.5C 416.876,41.6399 415.71,40.9733 415,39.5C 414.501,44.4889 414.334,49.4889 414.5,54.5C 413.932,49.0553 412.932,43.5553 411.5,38C 412.618,35.941 413.285,33.7743 413.5,31.5C 415.167,31.5 416.833,31.5 418.5,31.5C 417.756,34.9496 419.09,36.6162 422.5,36.5C 422.5,37.5 422.5,38.5 422.5,39.5C 421.5,39.5 420.5,39.5 419.5,39.5C 419.5,43.5 419.5,47.5 419.5,51.5 Z"/></g>
<g><path style="opacity:1" fill="#f66c18" d="M 389.5,36.5 C 390.833,36.5 392.167,36.5 393.5,36.5C 393.5,42.8333 393.5,49.1667 393.5,55.5C 392.167,55.5 390.833,55.5 389.5,55.5C 389.5,49.1667 389.5,42.8333 389.5,36.5 Z"/></g>
<g><path style="opacity:1" fill="#ee7737" d="M 407.5,55.5 C 405.833,55.5 404.167,55.5 402.5,55.5C 402.666,51.1539 402.499,46.8206 402,42.5C 401.768,41.2625 401.268,40.2625 400.5,39.5C 398.533,39.2606 396.699,39.5939 395,40.5C 394.826,45.6835 394.326,50.6835 393.5,55.5C 393.5,49.1667 393.5,42.8333 393.5,36.5C 397.146,35.7166 400.812,35.5499 404.5,36C 405.333,36.8333 406.167,37.6667 407,38.5C 407.499,44.1569 407.666,49.8236 407.5,55.5 Z"/></g>
<g><path style="opacity:1" fill="#e27e41" d="M 178.5,36.5 C 177.5,36.5 176.5,36.5 175.5,36.5C 176.542,42.8099 176.542,49.1432 175.5,55.5C 175.147,49.4849 174.813,43.1516 174.5,36.5C 175.833,35.1667 177.167,35.1667 178.5,36.5 Z"/></g>
<g><path style="opacity:1" fill="#e68863" d="M 335.5,36.5 C 334.167,36.5 332.833,36.5 331.5,36.5C 331.209,42.923 331.542,49.2564 332.5,55.5C 330.541,49.2504 329.874,42.5837 330.5,35.5C 332.415,35.2155 334.081,35.5489 335.5,36.5 Z"/></g>
<g><path style="opacity:1" fill="#f49974" d="M 319.5,36.5 C 321.265,35.5386 323.265,35.2053 325.5,35.5C 325.824,42.3543 325.491,49.021 324.5,55.5C 324.5,49.1667 324.5,42.8333 324.5,36.5C 322.833,36.5 321.167,36.5 319.5,36.5 Z"/></g>
<g><path style="opacity:1" fill="#f67124" d="M 381.5,37.5 C 383.025,40.2471 384.025,43.2471 384.5,46.5C 379.88,47.4933 375.214,47.8266 370.5,47.5C 370.178,50.5319 371.511,52.1986 374.5,52.5C 376.5,51.8333 378.5,51.1667 380.5,50.5C 381.5,50.8333 382.5,51.1667 383.5,51.5C 380.727,55.0519 377.06,56.7186 372.5,56.5C 371.122,55.7656 369.622,55.0989 368,54.5C 367.634,52.5483 366.801,50.8816 365.5,49.5C 365.424,45.6163 366.09,41.9496 367.5,38.5C 368.058,37.2101 369.058,36.3768 370.5,36C 374.362,35.2423 378.028,35.7423 381.5,37.5 Z"/></g>
<g><path style="opacity:1" fill="#f3732b" d="M 303.5,52.5 C 303.5,53.5 303.5,54.5 303.5,55.5C 301.833,55.5 300.167,55.5 298.5,55.5C 298.167,53.5 297.833,51.5 297.5,49.5C 296.167,49.5 294.833,49.5 293.5,49.5C 290.5,49.5 287.5,49.5 284.5,49.5C 284.167,51.5 283.833,53.5 283.5,55.5C 281.5,55.5 279.5,55.5 277.5,55.5C 277.858,52.7334 278.525,50.0667 279.5,47.5C 282.419,41.3218 285.086,34.9885 287.5,28.5C 289.199,28.3398 290.866,28.5065 292.5,29C 297.803,36.0773 301.469,43.9107 303.5,52.5 Z"/></g>
<g><path style="opacity:1" fill="#f66f27" d="M 460.5,55.5 C 460.5,49.1667 460.5,42.8333 460.5,36.5C 461.5,36.5 462.5,36.5 463.5,36.5C 466.455,35.8413 469.455,35.5079 472.5,35.5C 472.714,37.1439 472.38,38.6439 471.5,40C 469.527,40.4955 467.527,40.6621 465.5,40.5C 465.5,45.5 465.5,50.5 465.5,55.5C 463.833,55.5 462.167,55.5 460.5,55.5 Z"/></g>
<g><path style="opacity:1" fill="#efbaa0" d="M 138.5,44.5 C 135.5,44.5 132.5,44.5 129.5,44.5C 129.5,46.5 129.5,48.5 129.5,50.5C 133.167,50.5 136.833,50.5 140.5,50.5C 136.702,51.4834 132.702,51.8168 128.5,51.5C 128.708,49.0799 128.374,46.7466 127.5,44.5C 131.315,43.1923 134.981,43.1923 138.5,44.5 Z"/></g>
<g><path style="opacity:1" fill="#f57222" d="M 259.5,50.5 C 260.833,50.5 262.167,50.5 263.5,50.5C 263.67,51.8221 263.337,52.9887 262.5,54C 259.274,55.1989 255.941,55.6989 252.5,55.5C 249.144,54.9749 247.311,52.9749 247,49.5C 245.84,35.8233 251.34,32.3233 263.5,39C 264.482,41.7383 265.148,44.5716 265.5,47.5C 261.167,47.5 256.833,47.5 252.5,47.5C 252.5,48.8333 252.5,50.1667 252.5,51.5C 253.93,51.4208 255.264,51.7542 256.5,52.5C 257.518,51.8075 258.518,51.1408 259.5,50.5 Z"/></g>
<g><path style="opacity:1" fill="#f66d22" d="M 358.5,36.5 C 357.722,42.9287 358.388,49.2621 360.5,55.5C 358.833,55.5 357.167,55.5 355.5,55.5C 355.5,50.1667 355.5,44.8333 355.5,39.5C 353.208,39.2436 351.041,39.5769 349,40.5C 348.501,45.4889 348.334,50.4889 348.5,55.5C 346.833,55.5 345.167,55.5 343.5,55.5C 343.666,50.8215 343.499,46.1548 343,41.5C 340.731,38.9456 338.398,38.9456 336,41.5C 335.501,46.1548 335.334,50.8215 335.5,55.5C 334.5,55.5 333.5,55.5 332.5,55.5C 331.542,49.2564 331.209,42.923 331.5,36.5C 332.833,36.5 334.167,36.5 335.5,36.5C 342.915,37.5417 350.582,37.5417 358.5,36.5 Z"/></g>
<g><path style="opacity:1" fill="#fdccab" d="M 400.5,39.5 C 401.268,40.2625 401.768,41.2625 402,42.5C 402.499,46.8206 402.666,51.1539 402.5,55.5C 404.167,55.5 405.833,55.5 407.5,55.5C 405.735,56.4614 403.735,56.7947 401.5,56.5C 401.818,51.9677 401.485,47.6344 400.5,43.5C 400.5,42.1667 400.5,40.8333 400.5,39.5 Z"/></g>
<g><path style="opacity:1" fill="#f37225" d="M 493.5,40.5 C 493.5,42.8333 493.5,45.1667 493.5,47.5C 488.833,47.5 484.167,47.5 479.5,47.5C 479.297,49.3904 479.963,50.8904 481.5,52C 484.324,52.3431 486.991,51.8431 489.5,50.5C 490.5,50.8333 491.5,51.1667 492.5,51.5C 490.874,52.9905 489.208,54.4905 487.5,56C 476.434,56.7762 472.267,51.6095 475,40.5C 476.664,36.9158 479.497,35.2492 483.5,35.5C 487.255,36.239 490.589,37.9057 493.5,40.5 Z"/></g>
<g><path style="opacity:1" fill="#f9cca7" d="M 482.5,39.5 C 481.766,40.7079 481.433,42.0413 481.5,43.5C 483.167,43.5 484.833,43.5 486.5,43.5C 486.5,42.5 486.5,41.5 486.5,40.5C 487.434,41.5676 487.768,42.901 487.5,44.5C 484.833,44.5 482.167,44.5 479.5,44.5C 479.5,42.8333 479.5,41.1667 479.5,39.5C 480.5,39.5 481.5,39.5 482.5,39.5 Z"/></g>
<g><path style="opacity:1" fill="#f7f4f1" d="M 482.5,39.5 C 484.099,39.2322 485.432,39.5655 486.5,40.5C 486.5,41.5 486.5,42.5 486.5,43.5C 484.833,43.5 483.167,43.5 481.5,43.5C 481.433,42.0413 481.766,40.7079 482.5,39.5 Z"/></g>
<g><path style="opacity:1" fill="#f5f9f6" d="M 138.5,44.5 C 140.28,45.9899 140.946,47.9899 140.5,50.5C 136.833,50.5 133.167,50.5 129.5,50.5C 129.5,48.5 129.5,46.5 129.5,44.5C 132.5,44.5 135.5,44.5 138.5,44.5 Z"/></g>
<g><path style="opacity:1" fill="#f17b37" d="M 200.5,38.5 C 199.781,40.7638 199.448,43.0971 199.5,45.5C 200.959,45.5674 202.292,45.2341 203.5,44.5C 202.831,50.0001 205.165,52.1667 210.5,51C 212.076,48.0492 212.743,44.8826 212.5,41.5C 213.428,44.5888 214.428,47.7555 215.5,51C 212.553,51.0755 211.553,52.2422 212.5,54.5C 201.388,58.0869 196.388,53.7536 197.5,41.5C 198.167,40.1667 199.167,39.1667 200.5,38.5 Z"/></g>
<g><path style="opacity:1" fill="#f1742d" d="M 168.5,39.5 C 168.5,44.8333 168.5,50.1667 168.5,55.5C 163.596,55.0343 158.596,55.0343 153.5,55.5C 150.668,53.5935 149.834,50.9268 151,47.5C 154.654,44.7087 158.82,43.3754 163.5,43.5C 163.67,42.1779 163.337,41.0113 162.5,40C 158.624,39.4254 154.958,39.9254 151.5,41.5C 151.828,38.9956 153.162,37.1622 155.5,36C 158.833,35.3333 162.167,35.3333 165.5,36C 167.426,36.4224 168.426,37.5891 168.5,39.5 Z"/></g>
<g><path style="opacity:1" fill="#f67020" d="M 191.5,38.5 C 190.392,44.2754 190.392,49.942 191.5,55.5C 190.167,55.5 188.833,55.5 187.5,55.5C 187.666,50.8215 187.499,46.1548 187,41.5C 184.827,39.099 182.494,39.099 180,41.5C 179.501,46.1548 179.334,50.8215 179.5,55.5C 178.167,55.5 176.833,55.5 175.5,55.5C 176.542,49.1432 176.542,42.8099 175.5,36.5C 176.5,36.5 177.5,36.5 178.5,36.5C 178.917,37.1239 179.584,37.4573 180.5,37.5C 182.087,36.6376 183.754,35.9709 185.5,35.5C 188.23,35.3891 190.23,36.3891 191.5,38.5 Z"/></g>
<g><path style="opacity:1" fill="#eb8d5c" d="M 191.5,38.5 C 192.167,38.8333 192.833,39.1667 193.5,39.5C 194.113,45.2709 193.446,50.6042 191.5,55.5C 190.392,49.942 190.392,44.2754 191.5,38.5 Z"/></g>
<g><path style="opacity:1" fill="#f47327" d="M 426.5,55.5 C 426.167,54.1667 425.833,52.8333 425.5,51.5C 425.357,49.7376 425.691,48.0709 426.5,46.5C 429.93,44.6345 433.597,43.4678 437.5,43C 438.337,41.9887 438.67,40.8221 438.5,39.5C 434.427,39.8079 430.427,40.4746 426.5,41.5C 426.393,39.0968 427.393,37.2635 429.5,36C 434.655,34.913 439.155,36.0797 443,39.5C 443.499,44.8229 443.666,50.1563 443.5,55.5C 437.841,55.4851 432.174,55.4851 426.5,55.5 Z"/></g>
<g><path style="opacity:1" fill="#f9e8dd" d="M 160.5,46.5 C 161.5,46.5 162.5,46.5 163.5,46.5C 163.828,51.4177 161.495,53.4177 156.5,52.5C 156.5,50.8333 156.5,49.1667 156.5,47.5C 158.099,47.7678 159.432,47.4345 160.5,46.5 Z"/></g>
<g><path style="opacity:1" fill="#f0f3e9" d="M 434.5,46.5 C 435.5,46.5 436.5,46.5 437.5,46.5C 438.5,51.5 436.5,53.5 431.5,52.5C 431.5,50.8333 431.5,49.1667 431.5,47.5C 432.791,47.7373 433.791,47.404 434.5,46.5 Z"/></g>
<g><path style="opacity:1" fill="#e39d7e" d="M 453.5,36.5 C 452.167,36.5 450.833,36.5 449.5,36.5C 449.5,42.8333 449.5,49.1667 449.5,55.5C 448.509,49.021 448.176,42.3543 448.5,35.5C 450.415,35.2155 452.081,35.5489 453.5,36.5 Z"/></g>
<g><path style="opacity:1" fill="#f7c5a5" d="M 218.5,35.5 C 218.827,45.015 218.494,54.3483 217.5,63.5C 217.5,54.5 217.5,45.5 217.5,36.5C 214.648,37.2583 211.981,37.2583 209.5,36.5C 212.455,35.8413 215.455,35.5079 218.5,35.5 Z"/></g>
<g><path style="opacity:1" fill="#f37327" d="M 453.5,36.5 C 454.49,42.6446 454.823,48.9779 454.5,55.5C 452.833,55.5 451.167,55.5 449.5,55.5C 449.5,49.1667 449.5,42.8333 449.5,36.5C 450.833,36.5 452.167,36.5 453.5,36.5 Z"/></g>
<g><path style="opacity:1" fill="#f99d6c" d="M 463.5,36.5 C 462.5,36.5 461.5,36.5 460.5,36.5C 460.5,42.8333 460.5,49.1667 460.5,55.5C 459.509,49.021 459.176,42.3543 459.5,35.5C 461.099,35.2322 462.432,35.5655 463.5,36.5 Z"/></g>
<g><path style="opacity:1" fill="#f86b1c" d="M 419.5,51.5 C 420.209,52.404 421.209,52.7373 422.5,52.5C 422.5,53.5 422.5,54.5 422.5,55.5C 419.956,55.8957 417.789,55.229 416,53.5C 415.536,54.0944 415.369,54.7611 415.5,55.5C 414.833,55.5 414.5,55.1667 414.5,54.5C 414.334,49.4889 414.501,44.4889 415,39.5C 415.71,40.9733 416.876,41.6399 418.5,41.5C 418.187,45.0419 418.521,48.3752 419.5,51.5 Z"/></g>
<g><path style="opacity:1" fill="#f6d5c0" d="M 174.5,36.5 C 174.813,43.1516 175.147,49.4849 175.5,55.5C 176.833,55.5 178.167,55.5 179.5,55.5C 176.713,56.4767 173.713,56.81 170.5,56.5C 164.642,56.8222 158.975,56.4889 153.5,55.5C 158.596,55.0343 163.596,55.0343 168.5,55.5C 168.5,50.1667 168.5,44.8333 168.5,39.5C 169.326,43.9819 169.826,48.6486 170,53.5C 170.605,55.4812 171.605,55.8146 173,54.5C 173.172,48.3193 173.672,42.3193 174.5,36.5 Z"/></g>
<g><path style="opacity:1" fill="#f8ddc6" d="M 308.5,28.5 C 308.173,37.6822 308.507,46.6822 309.5,55.5C 310.833,55.5 312.167,55.5 313.5,55.5C 313.5,55.8333 313.5,56.1667 313.5,56.5C 308.156,56.666 302.823,56.4994 297.5,56C 296.594,54.3005 296.261,52.4672 296.5,50.5C 295.209,50.7373 294.209,50.404 293.5,49.5C 294.833,49.5 296.167,49.5 297.5,49.5C 297.833,51.5 298.167,53.5 298.5,55.5C 300.167,55.5 301.833,55.5 303.5,55.5C 303.5,54.5 303.5,53.5 303.5,52.5C 304.583,52.5394 305.583,52.8728 306.5,53.5C 307.167,45.0096 307.833,36.6763 308.5,28.5 Z"/></g>
<g><path style="opacity:1" fill="#f5cda9" d="M 419.5,51.5 C 421.703,51.9349 423.703,51.9349 425.5,51.5C 425.833,52.8333 426.167,54.1667 426.5,55.5C 425.85,55.1961 425.183,54.8627 424.5,54.5C 421.888,58.0877 418.888,58.421 415.5,55.5C 415.369,54.7611 415.536,54.0944 416,53.5C 417.789,55.229 419.956,55.8957 422.5,55.5C 422.5,54.5 422.5,53.5 422.5,52.5C 421.209,52.7373 420.209,52.404 419.5,51.5 Z"/></g>
<g><path style="opacity:1" fill="#f9f9f4" d="M 242.5,39.5 C 242.737,38.209 242.404,37.209 241.5,36.5C 240.081,35.5489 238.415,35.2155 236.5,35.5C 236.666,40.5111 236.499,45.5111 236,50.5C 233.667,53.1667 231.333,53.1667 229,50.5C 228.501,45.5111 228.334,40.5111 228.5,35.5C 226.833,35.5 225.167,35.5 223.5,35.5C 223.17,41.8682 223.504,48.2015 224.5,54.5C 227.337,56.6301 230.337,56.9635 233.5,55.5C 234.735,55.7214 235.735,56.3881 236.5,57.5C 238.409,56.6518 240.409,56.3184 242.5,56.5C 242.586,57.4959 242.252,58.3292 241.5,59C 240.262,58.9227 239.262,59.0894 238.5,59.5C 240.538,60.7541 242.204,62.4208 243.5,64.5C 242.68,66.1112 241.346,66.7778 239.5,66.5C 239.657,67.8734 239.49,69.2068 239,70.5C 236.33,69.7761 234.83,68.1094 234.5,65.5C 232.436,65.687 230.436,66.187 228.5,67C 230.329,67.2735 231.829,68.1068 233,69.5C 233.667,71.5 234.333,73.5 235,75.5C 235.414,75.0426 235.914,74.7093 236.5,74.5C 237.548,75.548 238.548,76.548 239.5,77.5C 238.5,77.5 237.5,77.5 236.5,77.5C 236.173,82.544 236.506,87.544 237.5,92.5C 240.406,96.1384 243.739,96.4717 247.5,93.5C 248.107,93.6236 248.44,93.9569 248.5,94.5C 249.209,95.404 250.209,95.7373 251.5,95.5C 251.5,89.5 251.5,83.5 251.5,77.5C 250.167,77.5 248.833,77.5 247.5,77.5C 247.5,76.5 247.5,75.5 247.5,74.5C 249.527,74.3379 251.527,74.5045 253.5,75C 254.9,76.4381 256.567,77.2714 258.5,77.5C 256.681,78.9362 256.348,80.6029 257.5,82.5C 259.933,79.758 262.933,78.9246 266.5,80C 267.337,81.0113 267.67,82.1779 267.5,83.5C 264.345,83.9896 261.345,84.6562 258.5,85.5C 254.987,87.9083 254.654,90.7417 257.5,94C 260.728,95.909 263.895,95.7424 267,93.5C 268.465,94.3295 269.965,94.4962 271.5,94C 270.857,89.2162 270.191,84.3829 269.5,79.5C 268.261,79.0576 267.261,78.3909 266.5,77.5C 271.654,77.7059 276.654,77.0392 281.5,75.5C 281.719,74.325 281.386,73.325 280.5,72.5C 277.094,73.8148 273.594,74.8148 270,75.5C 256.08,71.9697 256.58,70.303 271.5,70.5C 271.5,69.5 271.5,68.5 271.5,67.5C 265.255,67.6728 264.589,66.6728 269.5,64.5C 268.975,63.8076 268.308,63.3076 267.5,63C 268.167,62.8333 268.833,62.6667 269.5,62.5C 276.875,64.9255 284.542,66.2588 292.5,66.5C 291.147,67.5237 290.48,68.857 290.5,70.5C 291.833,70.5 293.167,70.5 294.5,70.5C 294.643,68.7376 294.309,67.0709 293.5,65.5C 294.32,63.8888 295.654,63.2222 297.5,63.5C 297.085,65.9477 298.085,67.2811 300.5,67.5C 302.833,67.1667 303.167,66.1667 301.5,64.5C 303.991,63.4593 303.991,62.6259 301.5,62C 295.829,62.554 290.163,62.3873 284.5,61.5C 287.149,59.4499 290.149,58.2833 293.5,58C 292.975,57.3076 292.308,56.8076 291.5,56.5C 286.975,58.9761 282.475,58.9761 278,56.5C 273.723,58.1447 269.223,58.8114 264.5,58.5C 264.737,57.209 264.404,56.209 263.5,55.5C 264.301,53.9582 264.634,52.2915 264.5,50.5C 265.222,50.9175 265.722,51.5842 266,52.5C 270,47.9783 272.167,48.8116 272.5,55C 273.635,55.7494 274.635,55.5827 275.5,54.5C 273.876,53.1311 273.376,51.4645 274,49.5C 275.545,50.8213 276.711,50.4879 277.5,48.5C 276.088,46.4208 274.588,44.4208 273,42.5C 272.192,40.4213 272.359,38.4213 273.5,36.5C 274.931,40.445 276.931,44.1117 279.5,47.5C 278.525,50.0667 277.858,52.7334 277.5,55.5C 279.5,55.5 281.5,55.5 283.5,55.5C 283.833,53.5 284.167,51.5 284.5,49.5C 287.5,49.5 290.5,49.5 293.5,49.5C 294.209,50.404 295.209,50.7373 296.5,50.5C 296.261,52.4672 296.594,54.3005 297.5,56C 302.823,56.4994 308.156,56.666 313.5,56.5C 315.5,56.1667 317.5,55.8333 319.5,55.5C 324.649,56.7653 325.316,59.0987 321.5,62.5C 320.061,61.9366 318.561,61.6032 317,61.5C 313.473,62.0909 309.973,62.7575 306.5,63.5C 306.643,65.2624 306.309,66.9291 305.5,68.5C 305.977,69.4776 306.643,70.3109 307.5,71C 309.313,71.6144 309.647,71.2811 308.5,70C 310.57,69.0524 312.07,67.5524 313,65.5C 314.649,66.8845 315.816,68.5512 316.5,70.5C 315.5,70.5 314.5,70.5 313.5,70.5C 313.5,78.5 313.5,86.5 313.5,94.5C 314.791,94.7373 315.791,94.404 316.5,93.5C 317.491,86.6866 317.825,79.6866 317.5,72.5C 318.314,74.631 318.814,76.9644 319,79.5C 321.087,78.6028 323.254,77.9361 325.5,77.5C 328.689,76.8339 332.023,76.1672 335.5,75.5C 332.433,74.5272 331.433,72.6938 332.5,70C 329.774,69.8184 327.107,69.3184 324.5,68.5C 324.709,67.914 325.043,67.414 325.5,67C 328.882,66.1764 332.216,66.343 335.5,67.5C 337.475,68.7493 337.809,70.2493 336.5,72C 339.797,74.4122 343.297,74.9122 347,73.5C 348.097,76.7411 349.264,79.9078 350.5,83C 349.923,85.137 349.59,87.3037 349.5,89.5C 350.5,89.5 351.5,89.5 352.5,89.5C 352.5,89.8333 352.5,90.1667 352.5,90.5C 349.771,93.0544 347.105,93.0544 344.5,90.5C 344.5,89.8333 344.5,89.1667 344.5,88.5C 344.5,84.5 344.5,80.5 344.5,76.5C 343.178,76.33 342.011,76.6634 341,77.5C 340.185,82.3522 340.352,87.0189 341.5,91.5C 341.5,92.1667 341.833,92.5 342.5,92.5C 343.512,94.876 345.345,95.876 348,95.5C 349.787,95.2414 351.287,94.5747 352.5,93.5C 353.183,95.1765 354.517,95.8432 356.5,95.5C 356.5,89.5 356.5,83.5 356.5,77.5C 357.5,77.5 358.5,77.5 359.5,77.5C 359.5,76.5 359.5,75.5 359.5,74.5C 351.608,72.3967 351.942,70.8967 360.5,70C 359.833,69.3333 359.167,68.6667 358.5,68C 356.1,67.8142 353.766,67.3142 351.5,66.5C 352.729,65.7189 354.062,65.2189 355.5,65C 354.692,64.6924 354.025,64.1924 353.5,63.5C 357.847,62.7782 362.18,62.1115 366.5,61.5C 367.452,59.9547 367.785,58.288 367.5,56.5C 369.167,56.5 370.833,56.5 372.5,56.5C 377.06,56.7186 380.727,55.0519 383.5,51.5C 382.5,51.1667 381.5,50.8333 380.5,50.5C 378.5,51.1667 376.5,51.8333 374.5,52.5C 371.511,52.1986 370.178,50.5319 370.5,47.5C 375.214,47.8266 379.88,47.4933 384.5,46.5C 384.025,43.2471 383.025,40.2471 381.5,37.5C 384.237,37.5987 386.904,37.2653 389.5,36.5C 389.5,42.8333 389.5,49.1667 389.5,55.5C 390.833,55.5 392.167,55.5 393.5,55.5C 394.326,50.6835 394.826,45.6835 395,40.5C 396.699,39.5939 398.533,39.2606 400.5,39.5C 400.5,40.8333 400.5,42.1667 400.5,43.5C 399.769,45.7494 398.769,47.916 397.5,50C 397.833,50.5 398.167,51 398.5,51.5C 399.281,50.2713 399.781,48.938 400,47.5C 400.987,50.6967 400.487,53.5301 398.5,56C 398.833,56.3333 399.167,56.6667 399.5,57C 383.591,58.7917 383.591,60.2917 399.5,61.5C 394.307,63.8148 388.974,64.1481 383.5,62.5C 383.5,63.5 383.5,64.5 383.5,65.5C 380.05,66.2436 378.384,64.9103 378.5,61.5C 376.25,61.1814 374.25,61.6814 372.5,63C 373.5,63.3333 374.5,63.6667 375.5,64C 371.842,64.5934 368.509,65.9268 365.5,68C 366.5,68.5 367.5,69 368.5,69.5C 369.834,67.5832 371.667,66.5832 374,66.5C 381.241,68.9727 388.741,70.3061 396.5,70.5C 400.422,71.2159 400.422,71.8826 396.5,72.5C 396.66,74.1992 396.494,75.8659 396,77.5C 395.583,78.756 394.75,79.4226 393.5,79.5C 388.893,76.7594 384.393,77.0927 380,80.5C 378.496,85.9899 379.663,90.6566 383.5,94.5C 380.887,95.4349 378.221,95.6015 375.5,95C 376.883,93.5391 376.549,92.7058 374.5,92.5C 375.527,88.554 375.694,84.554 375,80.5C 372.219,77.8475 369.052,77.1809 365.5,78.5C 372.897,78.7405 375.397,82.4072 373,89.5C 370.702,92.5257 367.869,93.1924 364.5,91.5C 363.217,88.0108 363.217,84.5108 364.5,81C 364.164,79.9701 363.497,79.4701 362.5,79.5C 362.631,78.6236 362.298,77.9569 361.5,77.5C 360.502,85.4723 360.169,93.4723 360.5,101.5C 276.5,101.5 192.5,101.5 108.5,101.5C 108.5,88.8333 108.5,76.1667 108.5,63.5C 109.5,63.5 110.5,63.5 111.5,63.5C 111.5,60.8333 111.5,58.1667 111.5,55.5C 113.5,55.5 115.5,55.5 117.5,55.5C 116.948,57.3307 116.948,58.9974 117.5,60.5C 119.733,60.8645 121.566,61.8645 123,63.5C 125.027,63.0137 127.193,63.0137 129.5,63.5C 129.349,66.7181 128.516,67.0515 127,64.5C 125.708,66.2487 124.542,68.082 123.5,70C 124.354,71.0217 125.354,71.8551 126.5,72.5C 127.85,71.0499 129.516,70.3832 131.5,70.5C 131.5,71.5 131.5,72.5 131.5,73.5C 128.449,73.6355 125.449,73.3022 122.5,72.5C 120.647,73.1887 119.481,74.522 119,76.5C 116.692,76.2075 114.526,77.0408 112.5,79C 113.191,80.0674 113.691,81.2341 114,82.5C 114.833,81.5 115.667,80.5 116.5,79.5C 117.796,86.0414 118.462,86.0414 118.5,79.5C 119.5,79.5 120.5,79.5 121.5,79.5C 121.285,81.1788 121.952,82.1788 123.5,82.5C 121.876,90.2959 124.876,94.6292 132.5,95.5C 134.46,94.5522 136.46,94.3855 138.5,95C 139.423,92.9592 139.756,90.7925 139.5,88.5C 140.962,87.5291 142.295,87.8624 143.5,89.5C 146.767,95.8827 151.434,97.0493 157.5,93C 158.337,91.9887 158.67,90.8221 158.5,89.5C 156.331,90.7814 153.997,91.7814 151.5,92.5C 146.885,92.1252 145.885,90.2919 148.5,87C 152.152,86.5014 155.818,86.3347 159.5,86.5C 159.736,81.9625 157.736,78.9625 153.5,77.5C 150.282,75.8161 147.615,76.4828 145.5,79.5C 145.167,79.5 144.833,79.5 144.5,79.5C 143.957,79.44 143.624,79.1067 143.5,78.5C 147.136,76.7931 147.136,75.6264 143.5,75C 145.754,74.3763 147.421,73.043 148.5,71C 150.833,70.3333 153.167,70.3333 155.5,71C 158.489,73.2723 159.822,72.439 159.5,68.5C 150.743,67.486 142.077,67.486 133.5,68.5C 132.614,67.675 132.281,66.675 132.5,65.5C 135.739,65.5871 138.739,64.9205 141.5,63.5C 141.33,62.1779 141.663,61.0113 142.5,60C 139.514,60.1276 136.514,60.1276 133.5,60C 132.167,59.6667 130.833,59.3333 129.5,59C 130.025,58.3076 130.692,57.8076 131.5,57.5C 136.03,59.1265 140.364,58.7932 144.5,56.5C 145.354,57.5217 146.354,58.3551 147.5,59C 151.89,59.7722 156.223,59.6055 160.5,58.5C 164.271,60.6761 168.271,61.0094 172.5,59.5C 171.388,58.7348 170.721,57.7348 170.5,56.5C 173.713,56.81 176.713,56.4767 179.5,55.5C 179.334,50.8215 179.501,46.1548 180,41.5C 182.494,39.099 184.827,39.099 187,41.5C 187.499,46.1548 187.666,50.8215 187.5,55.5C 188.833,55.5 190.167,55.5 191.5,55.5C 193.446,50.6042 194.113,45.2709 193.5,39.5C 194.165,41.3691 194.831,43.3691 195.5,45.5C 196.172,44.0508 196.839,42.7175 197.5,41.5C 196.388,53.7536 201.388,58.0869 212.5,54.5C 212.5,57.5 212.5,60.5 212.5,63.5C 214.167,63.5 215.833,63.5 217.5,63.5C 218.494,54.3483 218.827,45.015 218.5,35.5C 218.369,34.6236 218.702,33.9569 219.5,33.5C 220.772,34.046 222.106,34.3793 223.5,34.5C 229.993,32.3897 236.327,32.5564 242.5,35C 243.801,36.6155 243.801,38.1155 242.5,39.5 Z"/></g>
<g><path style="opacity:1" fill="#f9ceac" d="M 241.5,36.5 C 242.404,37.209 242.737,38.209 242.5,39.5C 242.5,45.1667 242.5,50.8333 242.5,56.5C 240.409,56.3184 238.409,56.6518 236.5,57.5C 235.735,56.3881 234.735,55.7214 233.5,55.5C 234.261,54.6091 235.261,53.9424 236.5,53.5C 237.842,55.0049 239.508,55.6715 241.5,55.5C 241.5,49.1667 241.5,42.8333 241.5,36.5 Z"/></g>
<g><path style="opacity:1" fill="#f2b992" d="M 259.5,50.5 C 261.167,49.1667 262.833,49.1667 264.5,50.5C 264.634,52.2915 264.301,53.9582 263.5,55.5C 259.684,56.6203 256.017,56.6203 252.5,55.5C 255.941,55.6989 259.274,55.1989 262.5,54C 263.337,52.9887 263.67,51.8221 263.5,50.5C 262.167,50.5 260.833,50.5 259.5,50.5 Z"/></g>
<g><path style="opacity:1" fill="#f96816" d="M 313.5,55.5 C 312.167,55.5 310.833,55.5 309.5,55.5C 309.5,53.1667 309.5,50.8333 309.5,48.5C 310.833,48.5 312.167,48.5 313.5,48.5C 313.5,50.8333 313.5,53.1667 313.5,55.5 Z"/></g>
<g><path style="opacity:1" fill="#f4712a" d="M 241.5,36.5 C 241.5,42.8333 241.5,49.1667 241.5,55.5C 239.508,55.6715 237.842,55.0049 236.5,53.5C 235.261,53.9424 234.261,54.6091 233.5,55.5C 230.337,56.9635 227.337,56.6301 224.5,54.5C 223.504,48.2015 223.17,41.8682 223.5,35.5C 225.167,35.5 226.833,35.5 228.5,35.5C 228.334,40.5111 228.501,45.5111 229,50.5C 231.333,53.1667 233.667,53.1667 236,50.5C 236.499,45.5111 236.666,40.5111 236.5,35.5C 238.415,35.2155 240.081,35.5489 241.5,36.5 Z"/></g>
<g><path style="opacity:1" fill="#ec864c" d="M 358.5,36.5 C 360.067,37.6808 360.901,39.3474 361,41.5C 361.815,46.3522 361.648,51.0189 360.5,55.5C 358.388,49.2621 357.722,42.9287 358.5,36.5 Z"/></g>
<g><path style="opacity:1" fill="#fec195" d="M 372.5,40.5 C 372.196,41.1499 371.863,41.8165 371.5,42.5C 373.396,43.4656 375.396,43.7989 377.5,43.5C 377.5,42.5 377.5,41.5 377.5,40.5C 378.434,41.5676 378.768,42.901 378.5,44.5C 375.833,44.5 373.167,44.5 370.5,44.5C 370.157,42.5168 370.824,41.1834 372.5,40.5 Z"/></g>
<g><path style="opacity:1" fill="#f8aa86" d="M 252.5,40.5 C 252.5,41.5 252.5,42.5 252.5,43.5C 254.833,43.5 257.167,43.5 259.5,43.5C 259.5,42.5 259.5,41.5 259.5,40.5C 260.434,41.5676 260.768,42.901 260.5,44.5C 257.5,44.5 254.5,44.5 251.5,44.5C 251.232,42.901 251.566,41.5676 252.5,40.5 Z"/></g>
<g><path style="opacity:1" fill="#f2f5eb" d="M 377.5,40.5 C 377.5,41.5 377.5,42.5 377.5,43.5C 375.396,43.7989 373.396,43.4656 371.5,42.5C 371.863,41.8165 372.196,41.1499 372.5,40.5C 374.167,39.1667 375.833,39.1667 377.5,40.5 Z"/></g>
<g><path style="opacity:1" fill="#f5e3d2" d="M 289.5,36.5 C 290.496,36.4142 291.329,36.7476 292,37.5C 293.591,39.9266 294.425,42.5933 294.5,45.5C 292.167,45.5 289.833,45.5 287.5,45.5C 287.873,42.4261 288.539,39.4261 289.5,36.5 Z"/></g>
<g><path style="opacity:1" fill="#f8ece4" d="M 259.5,40.5 C 259.5,41.5 259.5,42.5 259.5,43.5C 257.167,43.5 254.833,43.5 252.5,43.5C 252.5,42.5 252.5,41.5 252.5,40.5C 254.833,39.1667 257.167,39.1667 259.5,40.5 Z"/></g>
<g><path style="opacity:1" fill="#f0915c" d="M 367.5,38.5 C 366.09,41.9496 365.424,45.6163 365.5,49.5C 364.371,47.3718 364.204,45.0385 365,42.5C 365.2,40.6803 366.034,39.347 367.5,38.5 Z"/></g>
<g><path style="opacity:1" fill="#f5f4e9" d="M 212.5,41.5 C 212.743,44.8826 212.076,48.0492 210.5,51C 205.165,52.1667 202.831,50.0001 203.5,44.5C 203.468,39.7871 205.801,38.2871 210.5,40C 211.044,40.7172 211.711,41.2172 212.5,41.5 Z"/></g>
<g><path style="opacity:1" fill="#f76f20" d="M 319.5,36.5 C 321.167,36.5 322.833,36.5 324.5,36.5C 324.5,42.8333 324.5,49.1667 324.5,55.5C 322.833,55.5 321.167,55.5 319.5,55.5C 319.5,49.1667 319.5,42.8333 319.5,36.5 Z"/></g>
<g><path style="opacity:1" fill="#f67022" d="M 209.5,36.5 C 211.981,37.2583 214.648,37.2583 217.5,36.5C 217.5,45.5 217.5,54.5 217.5,63.5C 215.833,63.5 214.167,63.5 212.5,63.5C 212.5,60.5 212.5,57.5 212.5,54.5C 211.553,52.2422 212.553,51.0755 215.5,51C 214.428,47.7555 213.428,44.5888 212.5,41.5C 211.711,41.2172 211.044,40.7172 210.5,40C 205.801,38.2871 203.468,39.7871 203.5,44.5C 202.292,45.2341 200.959,45.5674 199.5,45.5C 199.448,43.0971 199.781,40.7638 200.5,38.5C 202.857,35.5589 205.857,34.8923 209.5,36.5 Z"/></g>
<g><path style="opacity:1" fill="#ea7136" d="M 100.5,-0.5 C 101.167,-0.5 101.833,-0.5 102.5,-0.5C 102.5,33.5 102.5,67.5 102.5,101.5C 101.833,101.5 101.167,101.5 100.5,101.5C 101.093,67.4838 101.093,33.4838 100.5,-0.5 Z"/></g>
<g><path style="opacity:1" fill="#fc6f15" d="M 102.5,-0.5 C 103.5,-0.5 104.5,-0.5 105.5,-0.5C 105.5,33.5 105.5,67.5 105.5,101.5C 104.5,101.5 103.5,101.5 102.5,101.5C 102.5,67.5 102.5,33.5 102.5,-0.5 Z"/></g>
<g><path style="opacity:1" fill="#f4a680" d="M 139.5,88.5 C 139.756,90.7925 139.423,92.9592 138.5,95C 136.46,94.3855 134.46,94.5522 132.5,95.5C 131.9,94.1001 130.9,93.1001 129.5,92.5C 131.292,92.634 132.958,92.3007 134.5,91.5C 135.287,93.1042 136.62,93.7709 138.5,93.5C 138.83,86.4684 138.497,79.4684 137.5,72.5C 136.996,75.2988 135.996,77.7988 134.5,80C 136.673,82.6975 137.006,85.5308 135.5,88.5C 135.79,85.2153 135.123,82.2153 133.5,79.5C 133.167,78.8333 132.833,78.1667 132.5,77.5C 133.5,77.5 134.5,77.5 135.5,77.5C 135.5,75.1667 135.5,72.8333 135.5,70.5C 136.822,70.33 137.989,70.6634 139,71.5C 139.499,77.1569 139.666,82.8236 139.5,88.5 Z"/></g>
<g><path style="opacity:1" fill="#f8ae81" d="M 316.5,70.5 C 317.338,70.8417 317.672,71.5084 317.5,72.5C 317.825,79.6866 317.491,86.6866 316.5,93.5C 315.791,94.404 314.791,94.7373 313.5,94.5C 313.5,86.5 313.5,78.5 313.5,70.5C 314.5,70.5 315.5,70.5 316.5,70.5 Z"/></g>
<g><path style="opacity:1" fill="#f76e2d" d="M 134.5,91.5 C 135.404,90.791 135.737,89.791 135.5,88.5C 137.006,85.5308 136.673,82.6975 134.5,80C 135.996,77.7988 136.996,75.2988 137.5,72.5C 138.497,79.4684 138.83,86.4684 138.5,93.5C 136.62,93.7709 135.287,93.1042 134.5,91.5 Z"/></g>
<g><path style="opacity:1" fill="#f37d3d" d="M 228.5,85.5 C 226.708,84.6909 224.708,84.1909 222.5,84C 225.482,83.502 228.482,83.3354 231.5,83.5C 231.5,86.1667 231.5,88.8333 231.5,91.5C 216.123,99.5583 208.956,94.8916 210,77.5C 213.512,70.8069 219.012,68.6402 226.5,71C 228.351,72.6837 230.018,74.5171 231.5,76.5C 231,76.8333 230.5,77.1667 230,77.5C 226.118,74.0973 221.618,72.9306 216.5,74C 211.682,79.2273 211.349,84.7273 215.5,90.5C 218.982,92.9342 222.649,93.1009 226.5,91C 228.192,89.5993 228.859,87.7659 228.5,85.5 Z"/></g>
<g><path style="opacity:1" fill="#f46d28" d="M 316.5,93.5 C 315.18,90.572 314.514,87.2386 314.5,83.5C 314.833,80.1667 315.167,76.8333 315.5,73.5C 316.497,80.1335 316.83,86.8002 316.5,93.5 Z"/></g>
<g><path style="opacity:1" fill="#f57023" d="M -0.5,-0.5 C 33.1667,-0.5 66.8333,-0.5 100.5,-0.5C 101.093,33.4838 101.093,67.4838 100.5,101.5C 66.8333,101.5 33.1667,101.5 -0.5,101.5C -0.5,67.5 -0.5,33.5 -0.5,-0.5 Z"/></g>
<g><path style="opacity:1" fill="#ed7434" d="M 73.5,12.5 C 60.5072,6.64401 47.5072,6.31067 34.5,11.5C 33.9935,10.1411 32.9935,9.14108 31.5,8.5C 34.4541,7.85264 37.4541,7.68598 40.5,8C 38.9559,7.71039 37.6226,7.04373 36.5,6C 43.8097,6.41371 51.143,6.41371 58.5,6C 63.8365,4.88557 69.0031,3.38557 74,1.5C 74.8333,1.83333 75.6667,2.16667 76.5,2.5C 72.7492,3.97289 69.0825,5.63955 65.5,7.5C 68.0537,9.85227 70.7204,9.85227 73.5,7.5C 75.9368,7.5984 77.9368,8.5984 79.5,10.5C 78.0777,11.5472 76.5777,11.5472 75,10.5C 73.9701,10.8361 73.4701,11.5028 73.5,12.5 Z"/></g>
<g><path style="opacity:1" fill="#e9a272" d="M 153.5,77.5 C 150.549,77.2872 147.882,77.9539 145.5,79.5C 147.615,76.4828 150.282,75.8161 153.5,77.5 Z"/></g>
<g><path style="opacity:1" fill="#fc6b21" d="M 191.5,79.5 C 190.833,79.5 190.167,79.5 189.5,79.5C 187.5,79.5 185.5,79.5 183.5,79.5C 183.5,80.5 183.5,81.5 183.5,82.5C 182.5,82.5 181.5,82.5 180.5,82.5C 181.378,78.9723 183.712,77.3056 187.5,77.5C 189.333,77.5854 190.666,78.2521 191.5,79.5 Z"/></g>
<g><path style="opacity:1" fill="#eeb28f" d="M 344.5,88.5 C 343.834,85.6417 343.167,82.6417 342.5,79.5C 341.509,83.4454 341.176,87.4454 341.5,91.5C 340.352,87.0189 340.185,82.3522 341,77.5C 342.011,76.6634 343.178,76.33 344.5,76.5C 344.5,80.5 344.5,84.5 344.5,88.5 Z"/></g>
<g><path style="opacity:1" fill="#fc6f10" d="M 175.5,72.5 C 175.5,79.8333 175.5,87.1667 175.5,94.5C 174.179,91.4018 173.512,87.9018 173.5,84C 173.667,80.5 173.833,77 174,73.5C 174.383,72.944 174.883,72.6107 175.5,72.5 Z"/></g>
<g><path style="opacity:1" fill="#eaa976" d="M 299.5,77.5 C 302.586,76.0776 305.253,76.7442 307.5,79.5C 306.508,79.3284 305.842,79.6618 305.5,80.5C 304.508,80.6716 303.842,80.3382 303.5,79.5C 304.043,79.44 304.376,79.1067 304.5,78.5C 302.955,77.5481 301.288,77.2148 299.5,77.5 Z"/></g>
<g><path style="opacity:1" fill="#f3ad8a" d="M 247.5,77.5 C 248.833,77.5 250.167,77.5 251.5,77.5C 251.5,83.5 251.5,89.5 251.5,95.5C 250.209,95.7373 249.209,95.404 248.5,94.5C 249.809,92.4294 250.475,89.9294 250.5,87C 250.167,84.5 249.833,82 249.5,79.5C 248.833,83.3125 248.166,86.9792 247.5,90.5C 247.5,86.1667 247.5,81.8333 247.5,77.5 Z"/></g>
<g><path style="opacity:1" fill="#fa701a" d="M 289.5,71.5 C 290.132,79.5729 289.465,87.2395 287.5,94.5C 287.5,94.1667 287.5,93.8333 287.5,93.5C 286.89,92.609 286.557,91.609 286.5,90.5C 289.191,81.1877 286.191,78.1877 277.5,81.5C 276.662,81.1583 276.328,80.4916 276.5,79.5C 277.492,77.9735 278.992,77.3068 281,77.5C 283.187,77.7885 285.354,78.1218 287.5,78.5C 287.187,75.7531 287.52,73.0865 288.5,70.5C 289.107,70.6236 289.44,70.9569 289.5,71.5 Z"/></g>
<g><path style="opacity:1" fill="#eeb795" d="M 289.5,71.5 C 290.492,79.3159 290.826,87.3159 290.5,95.5C 289.209,95.7373 288.209,95.404 287.5,94.5C 289.465,87.2395 290.132,79.5729 289.5,71.5 Z"/></g>
<g><path style="opacity:1" fill="#f4792d" d="M 325.5,77.5 C 335.053,76.5571 338.886,80.8905 337,90.5C 331.951,97.1541 326.951,97.1541 322,90.5C 321.333,87.5 321.333,84.5 322,81.5C 323.102,80.051 324.269,78.7177 325.5,77.5 Z"/></g>
<g><path style="opacity:1" fill="#f7f5f2" d="M 133.5,79.5 C 135.123,82.2153 135.79,85.2153 135.5,88.5C 135.737,89.791 135.404,90.791 134.5,91.5C 132.958,92.3007 131.292,92.634 129.5,92.5C 126.062,88.6687 125.728,84.502 128.5,80C 130.134,79.5065 131.801,79.3398 133.5,79.5 Z"/></g>
<g><path style="opacity:1" fill="#f49362" d="M 231.5,91.5 C 231.5,88.8333 231.5,86.1667 231.5,83.5C 228.482,83.3354 225.482,83.502 222.5,84C 224.708,84.1909 226.708,84.6909 228.5,85.5C 226.167,85.5 223.833,85.5 221.5,85.5C 221.5,84.5 221.5,83.5 221.5,82.5C 225.167,82.5 228.833,82.5 232.5,82.5C 232.81,85.7131 232.477,88.7131 231.5,91.5 Z"/></g>
<g><path style="opacity:1" fill="#fb6b10" d="M 362.5,79.5 C 363.497,79.4701 364.164,79.9701 364.5,81C 363.217,84.5108 363.217,88.0108 364.5,91.5C 364.5,92.1667 364.5,92.8333 364.5,93.5C 363.527,95.9479 363.194,98.6146 363.5,101.5C 362.833,101.5 362.167,101.5 361.5,101.5C 361.175,93.9809 361.508,86.6476 362.5,79.5 Z"/></g>
<g><path style="opacity:1" fill="#f76e26" d="M 393.5,79.5 C 395.168,81.4786 395.834,83.812 395.5,86.5C 391.167,86.5 386.833,86.5 382.5,86.5C 382.366,88.2915 382.699,89.9582 383.5,91.5C 384.625,92.6522 384.625,93.6522 383.5,94.5C 379.663,90.6566 378.496,85.9899 380,80.5C 384.393,77.0927 388.893,76.7594 393.5,79.5 Z"/></g>
<g><path style="opacity:1" fill="#f7eee8" d="M 384.5,79.5 C 386.989,79.2978 389.323,79.7978 391.5,81C 392.337,82.0113 392.67,83.1779 392.5,84.5C 389.167,84.5 385.833,84.5 382.5,84.5C 382.392,82.4862 383.058,80.8195 384.5,79.5 Z"/></g>
<g><path style="opacity:1" fill="#f8a46a" d="M 353.5,77.5 C 353.818,82.0323 353.485,86.3656 352.5,90.5C 352.5,90.1667 352.5,89.8333 352.5,89.5C 352.759,85.7604 352.426,82.0938 351.5,78.5C 351.957,77.7025 352.624,77.3691 353.5,77.5 Z"/></g>
<g><path style="opacity:1" fill="#f37c3f" d="M 276.5,79.5 C 276.328,80.4916 276.662,81.1583 277.5,81.5C 277.335,84.5184 277.502,87.5184 278,90.5C 280.83,93.1013 283.663,93.1013 286.5,90.5C 286.557,91.609 286.89,92.609 287.5,93.5C 283.429,96.3894 279.596,96.0561 276,92.5C 273.865,87.9486 274.032,83.6153 276.5,79.5 Z"/></g>
<g><path style="opacity:1" fill="#f37633" d="M 299.5,77.5 C 301.288,77.2148 302.955,77.5481 304.5,78.5C 304.376,79.1067 304.043,79.44 303.5,79.5C 299.488,78.8874 297.488,80.5541 297.5,84.5C 300.5,84.5 303.5,84.5 306.5,84.5C 306.768,82.901 306.434,81.5676 305.5,80.5C 305.842,79.6618 306.508,79.3284 307.5,79.5C 310.092,81.0361 311.092,83.3695 310.5,86.5C 306.167,86.5 301.833,86.5 297.5,86.5C 297.178,88.7224 297.845,90.5557 299.5,92C 303.055,92.0557 306.389,91.2223 309.5,89.5C 309.649,90.552 309.483,91.552 309,92.5C 297.387,97.5844 292.72,93.5844 295,80.5C 296.271,79.1175 297.771,78.1175 299.5,77.5 Z"/></g>
<g><path style="opacity:1" fill="#f5efe9" d="M 303.5,79.5 C 303.842,80.3382 304.508,80.6716 305.5,80.5C 306.434,81.5676 306.768,82.901 306.5,84.5C 303.5,84.5 300.5,84.5 297.5,84.5C 297.488,80.5541 299.488,78.8874 303.5,79.5 Z"/></g>
<g><path style="opacity:1" fill="#f5793c" d="M 153.5,77.5 C 157.736,78.9625 159.736,81.9625 159.5,86.5C 155.818,86.3347 152.152,86.5014 148.5,87C 145.885,90.2919 146.885,92.1252 151.5,92.5C 153.997,91.7814 156.331,90.7814 158.5,89.5C 158.67,90.8221 158.337,91.9887 157.5,93C 151.434,97.0493 146.767,95.8827 143.5,89.5C 142.199,86.0248 142.533,82.6915 144.5,79.5C 144.833,79.5 145.167,79.5 145.5,79.5C 147.882,77.9539 150.549,77.2872 153.5,77.5 Z"/></g>
<g><path style="opacity:1" fill="#f7f0db" d="M 148.5,79.5 C 150.527,79.3379 152.527,79.5045 154.5,80C 155.38,81.3561 155.714,82.8561 155.5,84.5C 152.5,84.5 149.5,84.5 146.5,84.5C 146.392,82.4862 147.058,80.8195 148.5,79.5 Z"/></g>
<g><path style="opacity:1" fill="#ea8e57" d="M 189.5,79.5 C 190.167,79.5 190.833,79.5 191.5,79.5C 191.833,79.5 192.167,79.5 192.5,79.5C 193.167,99.5 193.833,99.5 194.5,79.5C 195.488,84.6405 195.821,89.9738 195.5,95.5C 192.421,94.6281 189.421,94.6281 186.5,95.5C 186.167,94.8333 185.833,94.1667 185.5,93.5C 189.989,93.2634 191.989,90.9301 191.5,86.5C 189.708,86.366 188.042,86.6993 186.5,87.5C 186.5,86.8333 186.5,86.1667 186.5,85.5C 188.042,84.6993 189.708,84.366 191.5,84.5C 191.635,82.4458 190.968,80.7791 189.5,79.5 Z"/></g>
<g><path style="opacity:1" fill="#f96d1e" d="M 192.5,79.5 C 193.167,79.5 193.833,79.5 194.5,79.5C 193.833,99.5 193.167,99.5 192.5,79.5 Z"/></g>
<g><path style="opacity:1" fill="#f2f5ee" d="M 286.5,90.5 C 283.663,93.1013 280.83,93.1013 278,90.5C 277.502,87.5184 277.335,84.5184 277.5,81.5C 286.191,78.1877 289.191,81.1877 286.5,90.5 Z"/></g>
<g><path style="opacity:1" fill="#e6804f" d="M 362.5,79.5 C 361.508,86.6476 361.175,93.9809 361.5,101.5C 361.167,101.5 360.833,101.5 360.5,101.5C 360.169,93.4723 360.502,85.4723 361.5,77.5C 362.298,77.9569 362.631,78.6236 362.5,79.5 Z"/></g>
<g><path style="opacity:1" fill="#f7772e" d="M 132.5,77.5 C 132.833,78.1667 133.167,78.8333 133.5,79.5C 131.801,79.3398 130.134,79.5065 128.5,80C 125.728,84.502 126.062,88.6687 129.5,92.5C 130.9,93.1001 131.9,94.1001 132.5,95.5C 124.876,94.6292 121.876,90.2959 123.5,82.5C 125.465,79.0834 128.465,77.4168 132.5,77.5 Z"/></g>
<g><path style="opacity:1" fill="#f96715" d="M 353.5,77.5 C 354.167,77.5 354.833,77.5 355.5,77.5C 355.829,83.2055 355.495,88.8722 354.5,94.5C 353.817,94.1373 353.15,93.8039 352.5,93.5C 352.5,92.5 352.5,91.5 352.5,90.5C 353.485,86.3656 353.818,82.0323 353.5,77.5 Z"/></g>
<g><path style="opacity:1" fill="#fbcbbb" d="M 267.5,83.5 C 267.362,85.896 267.029,88.2293 266.5,90.5C 264.365,88.631 261.698,87.9644 258.5,88.5C 260.042,87.8365 261.709,87.1698 263.5,86.5C 261.955,85.5481 260.288,85.2148 258.5,85.5C 261.345,84.6562 264.345,83.9896 267.5,83.5 Z"/></g>
<g><path style="opacity:1" fill="#fb7019" d="M 344.5,88.5 C 344.5,89.1667 344.5,89.8333 344.5,90.5C 344.5,91.8333 343.833,92.5 342.5,92.5C 341.833,92.5 341.5,92.1667 341.5,91.5C 341.176,87.4454 341.509,83.4454 342.5,79.5C 343.167,82.6417 343.834,85.6417 344.5,88.5 Z"/></g>
<g><path style="opacity:1" fill="#fac99f" d="M 355.5,77.5 C 355.833,77.5 356.167,77.5 356.5,77.5C 356.5,83.5 356.5,89.5 356.5,95.5C 354.517,95.8432 353.183,95.1765 352.5,93.5C 353.15,93.8039 353.817,94.1373 354.5,94.5C 355.495,88.8722 355.829,83.2055 355.5,77.5 Z"/></g>
<g><path style="opacity:1" fill="#e4835a" d="M 175.5,72.5 C 174.883,72.6107 174.383,72.944 174,73.5C 173.833,77 173.667,80.5 173.5,84C 173.512,87.9018 174.179,91.4018 175.5,94.5C 174.791,95.404 173.791,95.7373 172.5,95.5C 172.334,87.4931 172.5,79.4931 173,71.5C 174.461,70.1175 175.294,70.4508 175.5,72.5 Z"/></g>
<g><path style="opacity:1" fill="#f5f0ec" d="M 185.5,93.5 C 181.216,90.7551 181.549,88.7551 186.5,87.5C 188.042,86.6993 189.708,86.366 191.5,86.5C 191.989,90.9301 189.989,93.2634 185.5,93.5 Z"/></g>
<g><path style="opacity:1" fill="#f87824" d="M 186.5,85.5 C 186.5,86.1667 186.5,86.8333 186.5,87.5C 181.549,88.7551 181.216,90.7551 185.5,93.5C 185.833,94.1667 186.167,94.8333 186.5,95.5C 182.587,95.7595 180.253,93.9261 179.5,90C 180.664,86.6672 182.998,85.1672 186.5,85.5 Z"/></g>
<g><path style="opacity:1" fill="#f37336" d="M 239.5,77.5 C 239.334,82.1785 239.501,86.8452 240,91.5C 242.785,92.9071 245.285,92.5737 247.5,90.5C 248.166,86.9792 248.833,83.3125 249.5,79.5C 249.833,82 250.167,84.5 250.5,87C 250.475,89.9294 249.809,92.4294 248.5,94.5C 248.44,93.9569 248.107,93.6236 247.5,93.5C 243.739,96.4717 240.406,96.1384 237.5,92.5C 236.506,87.544 236.173,82.544 236.5,77.5C 237.5,77.5 238.5,77.5 239.5,77.5 Z"/></g>
<g><path style="opacity:1" fill="#f6f0ed" d="M 325.5,79.5 C 334.426,79.4518 336.76,83.4518 332.5,91.5C 325.19,93.0209 322.357,90.0209 324,82.5C 325.039,81.7562 325.539,80.7562 325.5,79.5 Z"/></g>
<g><path style="opacity:1" fill="#f6f1ea" d="M 73.5,12.5 C 93.3004,24.2678 100.467,41.6011 95,64.5C 82.5988,88.5388 63.0988,97.3722 36.5,91C 20.7163,84.2158 11.2163,72.3825 8,55.5C 6.74178,34.6227 15.5751,19.956 34.5,11.5C 47.5072,6.31067 60.5072,6.64401 73.5,12.5 Z"/></g>
<g><path style="opacity:1" fill="#f56f23" d="M 87.5,70.5 C 85.0656,76.1025 81.0656,80.2691 75.5,83C 60.4086,91.3209 45.0752,91.6543 29.5,84C 24.5949,80.5971 20.5949,76.4305 17.5,71.5C 28.8137,70.1677 40.4803,69.501 52.5,69.5C 64.3382,69.5001 76.0048,69.8335 87.5,70.5 Z"/></g>
<g><path style="opacity:1" fill="#f0a384" d="M 87.5,70.5 C 76.0048,69.8335 64.3382,69.5001 52.5,69.5C 40.4803,69.501 28.8137,70.1677 17.5,71.5C 16.5222,71.189 15.8555,70.5223 15.5,69.5C 39.8333,68.1667 64.1667,68.1667 88.5,69.5C 88.3764,70.1067 88.0431,70.44 87.5,70.5 Z"/></g>
<g><path style="opacity:1" fill="#f2d0ac" d="M 27.5,57.5 C 29.8056,57.9926 32.139,58.3259 34.5,58.5C 35.7267,61.5655 37.8934,63.8988 41,65.5C 42.0299,65.1639 42.5299,64.4972 42.5,63.5C 43.404,64.209 43.7373,65.209 43.5,66.5C 33.6522,66.8271 23.9856,66.4938 14.5,65.5C 20.5982,66.1167 26.2649,65.45 31.5,63.5C 29.8772,61.8147 28.5439,59.8147 27.5,57.5 Z"/></g>
<g><path style="opacity:1" fill="#f4d7af" d="M 77.5,58.5 C 77.4139,60.677 76.7472,62.677 75.5,64.5C 80.456,65.4941 85.456,65.8275 90.5,65.5C 80.3416,66.6585 70.0083,66.8252 59.5,66C 58.3909,64.187 59.0576,63.3537 61.5,63.5C 61.3893,64.1174 61.056,64.6174 60.5,65C 65.2231,66.1158 68.8897,64.6158 71.5,60.5C 70.7573,59.8182 70.0906,59.1515 69.5,58.5C 72.3524,58.017 75.0191,58.017 77.5,58.5 Z"/></g>
<g><path style="opacity:1" fill="#f47025" d="M 43.5,11.5 C 50.1802,11.6123 56.8469,11.9457 63.5,12.5C 89.0168,21.7023 98.0168,39.3689 90.5,65.5C 85.456,65.8275 80.456,65.4941 75.5,64.5C 76.7472,62.677 77.4139,60.677 77.5,58.5C 81.798,56.2478 83.798,52.5811 83.5,47.5C 84.5,47.5 85.5,47.5 86.5,47.5C 87.9309,44.6462 88.7642,41.6462 89,38.5C 85.8632,37.8386 83.0299,36.5052 80.5,34.5C 79.5108,38.1073 79.1774,41.774 79.5,45.5C 74.719,45.3477 70.0523,46.0143 65.5,47.5C 60.7309,44.3141 57.3975,45.3141 55.5,50.5C 53.3843,52.0881 53.051,54.0881 54.5,56.5C 58.5722,54.901 62.2389,55.5677 65.5,58.5C 66.1067,58.3764 66.44,58.0431 66.5,57.5C 67.609,57.5569 68.609,57.8902 69.5,58.5C 70.0906,59.1515 70.7573,59.8182 71.5,60.5C 68.8897,64.6158 65.2231,66.1158 60.5,65C 61.056,64.6174 61.3893,64.1174 61.5,63.5C 62.3382,63.1583 62.6716,62.4916 62.5,61.5C 63.404,60.791 63.7373,59.791 63.5,58.5C 56.1667,58.5 48.8333,58.5 41.5,58.5C 41.2155,60.4147 41.5489,62.0813 42.5,63.5C 42.5299,64.4972 42.0299,65.1639 41,65.5C 37.8934,63.8988 35.7267,61.5655 34.5,58.5C 38.7261,57.3831 42.3928,55.2164 45.5,52C 47.7695,51.2419 49.9361,51.4086 52,52.5C 52.1051,47.758 49.9384,44.4247 45.5,42.5C 43.2937,44.1994 40.7937,45.1994 38,45.5C 33.5302,44.7363 29.0302,44.403 24.5,44.5C 24.5,41.5 24.5,38.5 24.5,35.5C 21.3389,36.4698 18.5056,38.1365 16,40.5C 16.1404,42.8511 16.6404,45.1845 17.5,47.5C 18.552,47.3505 19.552,47.5172 20.5,48C 22.4884,51.5013 24.8217,54.668 27.5,57.5C 28.5439,59.8147 29.8772,61.8147 31.5,63.5C 26.2649,65.45 20.5982,66.1167 14.5,65.5C 8.04783,46.8558 12.3812,31.1891 27.5,18.5C 32.4367,15.0263 37.7701,12.693 43.5,11.5 Z"/></g>
<g><path style="opacity:1" fill="#f16d2d" d="M 73.5,59.5 C 75.2252,59.8425 75.7252,60.8425 75,62.5C 73.809,64.8469 71.9757,65.6802 69.5,65C 72.2146,64.1253 73.5479,62.2919 73.5,59.5 Z"/></g>
<g><path style="opacity:1" fill="#ef7c39" d="M 31.5,63.5 C 31.238,62.0222 31.5713,60.6888 32.5,59.5C 33.2929,62.1263 34.9595,63.9596 37.5,65C 35.1261,65.7432 33.1261,65.2432 31.5,63.5 Z"/></g>
<g><path style="opacity:1" fill="#fac9b1" d="M 62.5,61.5 C 56.2504,59.5411 49.5837,58.8745 42.5,59.5C 42.5,60.8333 42.5,62.1667 42.5,63.5C 41.5489,62.0813 41.2155,60.4147 41.5,58.5C 48.8333,58.5 56.1667,58.5 63.5,58.5C 63.7373,59.791 63.404,60.791 62.5,61.5 Z"/></g>
<g><path style="opacity:1" fill="#edaf7f" d="M 55.5,50.5 C 55.5,51.8333 55.5,53.1667 55.5,54.5C 59.7171,53.9453 63.3838,54.9453 66.5,57.5C 66.44,58.0431 66.1067,58.3764 65.5,58.5C 62.2389,55.5677 58.5722,54.901 54.5,56.5C 53.051,54.0881 53.3843,52.0881 55.5,50.5 Z"/></g>
<g><path style="opacity:1" fill="#f8f8f4" d="M 77.5,58.5 C 75.0191,58.017 72.3524,58.017 69.5,58.5C 68.609,57.8902 67.609,57.5569 66.5,57.5C 63.3838,54.9453 59.7171,53.9453 55.5,54.5C 55.5,53.1667 55.5,51.8333 55.5,50.5C 57.3975,45.3141 60.7309,44.3141 65.5,47.5C 70.0523,46.0143 74.719,45.3477 79.5,45.5C 79.1774,41.774 79.5108,38.1073 80.5,34.5C 83.0299,36.5052 85.8632,37.8386 89,38.5C 88.7642,41.6462 87.9309,44.6462 86.5,47.5C 85.5,47.5 84.5,47.5 83.5,47.5C 83.798,52.5811 81.798,56.2478 77.5,58.5 Z"/></g>
<g><path style="opacity:1" fill="#f8f5f0" d="M 34.5,58.5 C 32.139,58.3259 29.8056,57.9926 27.5,57.5C 24.8217,54.668 22.4884,51.5013 20.5,48C 19.552,47.5172 18.552,47.3505 17.5,47.5C 16.6404,45.1845 16.1404,42.8511 16,40.5C 18.5056,38.1365 21.3389,36.4698 24.5,35.5C 24.5,38.5 24.5,41.5 24.5,44.5C 29.0302,44.403 33.5302,44.7363 38,45.5C 40.7937,45.1994 43.2937,44.1994 45.5,42.5C 49.9384,44.4247 52.1051,47.758 52,52.5C 49.9361,51.4086 47.7695,51.2419 45.5,52C 42.3928,55.2164 38.7261,57.3831 34.5,58.5 Z"/></g>
<g><path style="opacity:1" fill="#f4a570" d="M 43.5,11.5 C 50.2315,10.1232 56.8982,10.4566 63.5,12.5C 56.8469,11.9457 50.1802,11.6123 43.5,11.5 Z"/></g>
<g><path style="opacity:1" fill="#e8895d" d="M 344.5,90.5 C 347.105,93.0544 349.771,93.0544 352.5,90.5C 352.5,91.5 352.5,92.5 352.5,93.5C 351.287,94.5747 349.787,95.2414 348,95.5C 345.345,95.876 343.512,94.876 342.5,92.5C 343.833,92.5 344.5,91.8333 344.5,90.5 Z"/></g>
<g><path style="opacity:1" fill="#f2773a" d="M 266.5,77.5 C 267.261,78.3909 268.261,79.0576 269.5,79.5C 270.191,84.3829 270.857,89.2162 271.5,94C 269.965,94.4962 268.465,94.3295 267,93.5C 263.895,95.7424 260.728,95.909 257.5,94C 254.654,90.7417 254.987,87.9083 258.5,85.5C 260.288,85.2148 261.955,85.5481 263.5,86.5C 261.709,87.1698 260.042,87.8365 258.5,88.5C 257.209,89.5417 257.209,90.7083 258.5,92C 261.538,92.885 264.205,92.385 266.5,90.5C 267.029,88.2293 267.362,85.896 267.5,83.5C 267.67,82.1779 267.337,81.0113 266.5,80C 262.933,78.9246 259.933,79.758 257.5,82.5C 256.348,80.6029 256.681,78.9362 258.5,77.5C 261.272,76.2329 263.939,76.2329 266.5,77.5 Z"/></g>
<g><path style="opacity:1" fill="#f1f0e1" d="M 258.5,88.5 C 261.698,87.9644 264.365,88.631 266.5,90.5C 264.205,92.385 261.538,92.885 258.5,92C 257.209,90.7083 257.209,89.5417 258.5,88.5 Z"/></g>
<g><path style="opacity:1" fill="#f28552" d="M 383.5,94.5 C 384.625,93.6522 384.625,92.6522 383.5,91.5C 385.782,92.3897 388.115,92.5564 390.5,92C 391.713,89.6743 393.046,89.3409 394.5,91C 391.787,95.3107 388.12,96.4774 383.5,94.5 Z"/></g>
<g><path style="opacity:1" fill="#f57a3c" d="M 374.5,92.5 C 371.313,95.8137 367.98,96.147 364.5,93.5C 364.5,92.8333 364.5,92.1667 364.5,91.5C 367.869,93.1924 370.702,92.5257 373,89.5C 375.397,82.4072 372.897,78.7405 365.5,78.5C 369.052,77.1809 372.219,77.8475 375,80.5C 375.694,84.554 375.527,88.554 374.5,92.5 Z"/></g>
</svg>
