<?xml version="1.0" encoding="UTF-8"?>
<!DOCTYPE svg PUBLIC "-//W3C//DTD SVG 1.1//EN" "http://www.w3.org/Graphics/SVG/1.1/DTD/svg11.dtd">
<svg xmlns="http://www.w3.org/2000/svg" version="1.1" width="500px" height="315px" style="shape-rendering:geometricPrecision; text-rendering:geometricPrecision; image-rendering:optimizeQuality; fill-rule:evenodd; clip-rule:evenodd" xmlns:xlink="http://www.w3.org/1999/xlink">
<g><path style="opacity:1" fill="#fefefe" d="M -0.5,-0.5 C 166.167,-0.5 332.833,-0.5 499.5,-0.5C 499.5,104.5 499.5,209.5 499.5,314.5C 332.833,314.5 166.167,314.5 -0.5,314.5C -0.5,284.167 -0.5,253.833 -0.5,223.5C 0.28913,223.783 0.955796,224.283 1.5,225C 11.1667,225.667 20.8333,225.667 30.5,225C 33.3062,222.063 32.9729,219.563 29.5,217.5C 23.021,216.509 16.3543,216.176 9.5,216.5C 9.5,214.167 9.5,211.833 9.5,209.5C 15.358,209.822 21.0247,209.489 26.5,208.5C 29.9729,206.437 30.3062,203.937 27.5,201C 21.5092,200.501 15.5092,200.334 9.5,200.5C 9.5,197.833 9.5,195.167 9.5,192.5C 16.3543,192.824 23.021,192.491 29.5,191.5C 30.9931,190.688 31.6598,189.355 31.5,187.5C 31.4805,186.274 31.1471,185.274 30.5,184.5C 21.0089,183.342 11.3422,183.175 1.5,184C 0.944043,184.383 0.610709,184.883 0.5,185.5C 0.166667,185.5 -0.166667,185.5 -0.5,185.5C -0.5,168.833 -0.5,152.167 -0.5,135.5C 7.50382,166.513 27.1705,178.013 58.5,170C 66.8919,166.275 73.3919,160.441 78,152.5C 78.6667,150.5 78.6667,148.5 78,146.5C 75.3667,141.933 71.5333,140.433 66.5,142C 63.1667,144 60.5,146.667 58.5,150C 39.1455,160.982 25.4788,156.149 17.5,135.5C 17.2479,130.012 17.9145,124.678 19.5,119.5C 22.2306,113.103 26.8973,108.77 33.5,106.5C 37.7978,105.8 42.1311,105.467 46.5,105.5C 48.1992,105.34 49.8659,105.506 51.5,106C 56.9824,109.654 61.9824,113.821 66.5,118.5C 69.3404,119.917 72.007,119.584 74.5,117.5C 78.4554,114.226 79.2888,110.226 77,105.5C 59.9589,86.2824 40.1256,82.7824 17.5,95C 8.31191,102.242 2.31191,111.409 -0.5,122.5C -0.5,81.5 -0.5,40.5 -0.5,-0.5 Z"/></g>
<g><path style="opacity:1" fill="#3f5665" d="M 74.5,117.5 C 71.8728,118.092 69.2062,118.425 66.5,118.5C 61.9824,113.821 56.9824,109.654 51.5,106C 49.8659,105.506 48.1992,105.34 46.5,105.5C 44.866,104.839 43.0326,104.506 41,104.5C 38.1345,104.3 35.6345,104.967 33.5,106.5C 26.8973,108.77 22.2306,113.103 19.5,119.5C 18.207,120.842 17.3736,122.509 17,124.5C 16.1901,128.358 16.3567,132.024 17.5,135.5C 25.4788,156.149 39.1455,160.982 58.5,150C 60.5,146.667 63.1667,144 66.5,142C 71.5333,140.433 75.3667,141.933 78,146.5C 78.6667,148.5 78.6667,150.5 78,152.5C 73.3919,160.441 66.8919,166.275 58.5,170C 27.1705,178.013 7.50382,166.513 -0.5,135.5C -0.5,131.167 -0.5,126.833 -0.5,122.5C 2.31191,111.409 8.31191,102.242 17.5,95C 40.1256,82.7824 59.9589,86.2824 77,105.5C 79.2888,110.226 78.4554,114.226 74.5,117.5 Z"/></g>
<g><path style="opacity:1" fill="#b6bdc4" d="M 187.5,90.5 C 198.659,89.3407 209.992,89.1741 221.5,90C 222.737,90.2321 223.737,90.7321 224.5,91.5C 212.197,90.5818 199.864,90.2484 187.5,90.5 Z"/></g>
<g><path style="opacity:1" fill="#75b11a" d="M 127.5,88.5 C 132.538,89.8769 135.538,93.2103 136.5,98.5C 135.883,98.3893 135.383,98.056 135,97.5C 134.811,108.576 134.311,119.576 133.5,130.5C 130.659,126.151 128.326,121.484 126.5,116.5C 125.363,107.578 125.196,98.5779 126,89.5C 126.383,88.944 126.883,88.6107 127.5,88.5 Z"/></g>
<g><path style="opacity:1" fill="#3f5665" d="M 187.5,90.5 C 199.864,90.2484 212.197,90.5818 224.5,91.5C 243.199,99.5938 248.699,113.26 241,132.5C 235.19,141.159 227.023,145.826 216.5,146.5C 210.167,146.5 203.833,146.5 197.5,146.5C 197.5,153.167 197.5,159.833 197.5,166.5C 194.012,171.189 189.345,172.689 183.5,171C 182.333,169.167 181.167,167.333 180,165.5C 179.333,142.5 179.333,119.5 180,96.5C 181.512,93.1434 184.012,91.1434 187.5,90.5 Z"/></g>
<g><path style="opacity:1" fill="#94bc1c" d="M 127.5,88.5 C 126.883,88.6107 126.383,88.944 126,89.5C 125.196,98.5779 125.363,107.578 126.5,116.5C 125.624,116.369 124.957,116.702 124.5,117.5C 120.043,127.411 115.376,137.078 110.5,146.5C 110.24,132.804 110.573,119.137 111.5,105.5C 113.382,100.735 115.548,96.0683 118,91.5C 120.577,87.9317 123.744,86.9317 127.5,88.5 Z"/></g>
<g><path style="opacity:1" fill="#8f9ca5" d="M 46.5,105.5 C 42.1311,105.467 37.7978,105.8 33.5,106.5C 35.6345,104.967 38.1345,104.3 41,104.5C 43.0326,104.506 44.866,104.839 46.5,105.5 Z"/></g>
<g><path style="opacity:1" fill="#fcfcfc" d="M 198.5,106.5 C 205.906,106.152 213.239,106.652 220.5,108C 222.041,109.371 223.375,110.871 224.5,112.5C 225.833,116.5 225.833,120.5 224.5,124.5C 222.687,127.647 220.02,129.647 216.5,130.5C 210.5,130.5 204.5,130.5 198.5,130.5C 198.5,122.5 198.5,114.5 198.5,106.5 Z"/></g>
<g><path style="opacity:1" fill="#62ac1b" d="M 136.5,98.5 C 138.825,103.799 141.159,109.132 143.5,114.5C 142.883,114.389 142.383,114.056 142,113.5C 142.148,124.547 141.314,135.214 139.5,145.5C 137.226,140.617 135.226,135.617 133.5,130.5C 134.311,119.576 134.811,108.576 135,97.5C 135.383,98.056 135.883,98.3893 136.5,98.5 Z"/></g>
<g><path style="opacity:1" fill="#84939c" d="M 224.5,112.5 C 225.117,112.611 225.617,112.944 226,113.5C 226.667,116.833 226.667,120.167 226,123.5C 225.617,124.056 225.117,124.389 224.5,124.5C 225.833,120.5 225.833,116.5 224.5,112.5 Z"/></g>
<g><path style="opacity:1" fill="#a5b0b6" d="M 74.5,117.5 C 72.007,119.584 69.3404,119.917 66.5,118.5C 69.2062,118.425 71.8728,118.092 74.5,117.5 Z"/></g>
<g><path style="opacity:1" fill="#f8fbf4" d="M 126.5,116.5 C 128.326,121.484 130.659,126.151 133.5,130.5C 135.226,135.617 137.226,140.617 139.5,145.5C 141.054,146.895 140.721,147.561 138.5,147.5C 137.151,147.154 135.817,146.821 134.5,146.5C 132.786,145.262 130.786,144.595 128.5,144.5C 123.926,143.106 119.592,143.773 115.5,146.5C 113.666,147.494 111.999,147.494 110.5,146.5C 115.376,137.078 120.043,127.411 124.5,117.5C 124.957,116.702 125.624,116.369 126.5,116.5 Z"/></g>
<g><path style="opacity:1" fill="#a4c21a" d="M 111.5,105.5 C 110.573,119.137 110.24,132.804 110.5,146.5C 111.999,147.494 113.666,147.494 115.5,146.5C 114.194,152.599 114.194,158.599 115.5,164.5C 111.526,166.16 107.526,167.827 103.5,169.5C 103.829,154.99 103.496,140.657 102.5,126.5C 104.713,119.084 107.713,112.084 111.5,105.5 Z"/></g>
<g><path style="opacity:1" fill="#53a71e" d="M 143.5,114.5 C 147.011,120.861 150.011,127.528 152.5,134.5C 152.5,146.5 152.5,158.5 152.5,170.5C 146.155,169.496 140.155,167.496 134.5,164.5C 132.92,161.468 132.253,158.135 132.5,154.5C 132.522,151.41 133.188,148.743 134.5,146.5C 135.817,146.821 137.151,147.154 138.5,147.5C 140.721,147.561 141.054,146.895 139.5,145.5C 141.314,135.214 142.148,124.547 142,113.5C 142.383,114.056 142.883,114.389 143.5,114.5 Z"/></g>
<g><path style="opacity:1" fill="#8b99a2" d="M 19.5,119.5 C 17.9145,124.678 17.2479,130.012 17.5,135.5C 16.3567,132.024 16.1901,128.358 17,124.5C 17.3736,122.509 18.207,120.842 19.5,119.5 Z"/></g>
<g><path style="opacity:1" fill="#9fabb2" d="M 198.5,106.5 C 198.5,114.5 198.5,122.5 198.5,130.5C 204.5,130.5 210.5,130.5 216.5,130.5C 210.355,131.49 204.022,131.823 197.5,131.5C 197.174,122.983 197.507,114.65 198.5,106.5 Z"/></g>
<g><path style="opacity:1" fill="#b4c918" d="M 102.5,126.5 C 103.496,140.657 103.829,154.99 103.5,169.5C 99.6644,171.259 95.6644,172.092 91.5,172C 88.0164,170.044 86.0164,167.044 85.5,163C 90.525,150.454 96.1917,138.288 102.5,126.5 Z"/></g>
<g><path style="opacity:1" fill="#accc61" d="M 128.5,144.5 C 127.5,144.5 126.5,144.5 125.5,144.5C 122.211,145.374 118.877,146.041 115.5,146.5C 119.592,143.773 123.926,143.106 128.5,144.5 Z"/></g>
<g><path style="opacity:1" fill="#78b21e" d="M 125.5,144.5 C 126.5,144.5 127.5,144.5 128.5,144.5C 130.786,144.595 132.786,145.262 134.5,146.5C 133.188,148.743 132.522,151.41 132.5,154.5C 132.253,158.135 132.92,161.468 134.5,164.5C 131.673,163.892 129.007,162.892 126.5,161.5C 125.548,155.925 125.214,150.259 125.5,144.5 Z"/></g>
<g><path style="opacity:1" fill="#8cb916" d="M 125.5,144.5 C 125.214,150.259 125.548,155.925 126.5,161.5C 122.763,162.2 119.096,163.2 115.5,164.5C 114.194,158.599 114.194,152.599 115.5,146.5C 118.877,146.041 122.211,145.374 125.5,144.5 Z"/></g>
<g><path style="opacity:1" fill="#9ea9b1" d="M 216.5,146.5 C 210.69,147.49 204.69,147.823 198.5,147.5C 198.823,154.022 198.49,160.355 197.5,166.5C 197.5,159.833 197.5,153.167 197.5,146.5C 203.833,146.5 210.167,146.5 216.5,146.5 Z"/></g>
<g><path style="opacity:1" fill="#37a02f" d="M 152.5,134.5 C 157.498,143.665 161.831,153.165 165.5,163C 164.056,170.718 159.723,173.218 152.5,170.5C 152.5,158.5 152.5,146.5 152.5,134.5 Z"/></g>
<g><path style="opacity:1" fill="#919ea7" d="M 196.5,184.5 C 190.833,183.167 185.167,183.167 179.5,184.5C 182.186,183.009 185.186,182.343 188.5,182.5C 191.527,182.287 194.193,182.953 196.5,184.5 Z"/></g>
<g><path style="opacity:1" fill="#768690" d="M 30.5,184.5 C 20.4478,184.216 10.4478,184.55 0.5,185.5C 0.610709,184.883 0.944043,184.383 1.5,184C 11.3422,183.175 21.0089,183.342 30.5,184.5 Z"/></g>
<g><path style="opacity:1" fill="#415867" d="M 196.5,184.5 C 203.465,186.798 208.131,191.465 210.5,198.5C 210.647,203.214 210.314,207.881 209.5,212.5C 204.027,223.73 195.027,228.23 182.5,226C 169.777,221.729 164.277,212.896 166,199.5C 168.257,192.413 172.757,187.413 179.5,184.5C 185.167,183.167 190.833,183.167 196.5,184.5 Z"/></g>
<g><path style="opacity:1" fill="#425968" d="M 51.5,203.5 C 51.2172,202.711 50.7172,202.044 50,201.5C 49.5004,208.492 49.3337,215.492 49.5,222.5C 47.0943,227.148 44.2609,227.481 41,223.5C 40.3333,210.833 40.3333,198.167 41,185.5C 43.1529,183.556 45.6529,183.056 48.5,184C 53.2149,189.941 57.5483,196.108 61.5,202.5C 65.7324,197.717 69.2324,192.384 72,186.5C 75.1815,182.943 78.6815,182.609 82.5,185.5C 83.666,198.154 83.8326,210.82 83,223.5C 80,227.5 77,227.5 74,223.5C 73.6667,216.167 73.3333,208.833 73,201.5C 70.417,204.997 68.0836,208.664 66,212.5C 63.633,215.932 60.9663,216.265 58,213.5C 56.004,210.014 53.8373,206.681 51.5,203.5 Z"/></g>
<g><path style="opacity:1" fill="#415867" d="M 93.5,183.5 C 100.175,183.334 106.842,183.5 113.5,184C 123.007,187.147 126.507,193.647 124,203.5C 121.993,208.838 118.159,212.004 112.5,213C 108.514,213.499 104.514,213.666 100.5,213.5C 100.665,216.85 100.498,220.183 100,223.5C 97.633,226.932 94.9663,227.265 92,224.5C 91.3333,211.5 91.3333,198.5 92,185.5C 92.7172,184.956 93.2172,184.289 93.5,183.5 Z"/></g>
<g><path style="opacity:1" fill="#3e5564" d="M 141.5,186.5 C 141.5,196.833 141.5,207.167 141.5,217.5C 147.833,217.5 154.167,217.5 160.5,217.5C 163.973,219.563 164.306,222.063 161.5,225C 152.255,225.817 143.089,225.65 134,224.5C 132.372,211.595 132.039,198.595 133,185.5C 136.258,182.654 139.092,182.987 141.5,186.5 Z"/></g>
<g><path style="opacity:1" fill="#3e5664" d="M 30.5,184.5 C 31.1471,185.274 31.4805,186.274 31.5,187.5C 31.6598,189.355 30.9931,190.688 29.5,191.5C 22.5,191.5 15.5,191.5 8.5,191.5C 8.19,194.713 8.52333,197.713 9.5,200.5C 15.5092,200.334 21.5092,200.501 27.5,201C 30.3062,203.937 29.9729,206.437 26.5,208.5C 20.5,208.5 14.5,208.5 8.5,208.5C 8.5,211.5 8.5,214.5 8.5,217.5C 15.5,217.5 22.5,217.5 29.5,217.5C 32.9729,219.563 33.3062,222.063 30.5,225C 20.8333,225.667 11.1667,225.667 1.5,225C 0.955796,224.283 0.28913,223.783 -0.5,223.5C -0.5,210.833 -0.5,198.167 -0.5,185.5C -0.166667,185.5 0.166667,185.5 0.5,185.5C 10.4478,184.55 20.4478,184.216 30.5,184.5 Z"/></g>
<g><path style="opacity:1" fill="#445b69" d="M 218.5,183.5 C 226.507,183.334 234.507,183.5 242.5,184C 244.673,185.865 245.007,188.031 243.5,190.5C 241.149,192.229 238.482,192.896 235.5,192.5C 235.5,200.833 235.5,209.167 235.5,217.5C 238.685,217.02 241.519,217.686 244,219.5C 244.825,221.701 244.325,223.534 242.5,225C 234.5,225.667 226.5,225.667 218.5,225C 215.833,222.667 215.833,220.333 218.5,218C 220.81,217.503 223.143,217.337 225.5,217.5C 225.5,209.167 225.5,200.833 225.5,192.5C 217.258,193.618 214.925,190.618 218.5,183.5 Z"/></g>
<g><path style="opacity:1" fill="#b3bcc1" d="M 141.5,186.5 C 142.494,196.319 142.827,206.319 142.5,216.5C 148.69,216.177 154.69,216.51 160.5,217.5C 154.167,217.5 147.833,217.5 141.5,217.5C 141.5,207.167 141.5,196.833 141.5,186.5 Z"/></g>
<g><path style="opacity:1" fill="#9aa6ad" d="M 29.5,191.5 C 23.021,192.491 16.3543,192.824 9.5,192.5C 9.5,195.167 9.5,197.833 9.5,200.5C 8.52333,197.713 8.19,194.713 8.5,191.5C 15.5,191.5 22.5,191.5 29.5,191.5 Z"/></g>
<g><path style="opacity:1" fill="#f7f8f8" d="M 100.5,192.5 C 104.182,192.335 107.848,192.501 111.5,193C 116.508,196.085 116.842,199.752 112.5,204C 108.514,204.499 104.514,204.666 100.5,204.5C 100.5,200.5 100.5,196.5 100.5,192.5 Z"/></g>
<g><path style="opacity:1" fill="#f9f9fa" d="M 185.5,191.5 C 200.235,192.626 204.402,199.96 198,213.5C 193.909,217.305 189.076,218.472 183.5,217C 175.257,211.907 173.424,205.074 178,196.5C 180.17,194.177 182.67,192.51 185.5,191.5 Z"/></g>
<g><path style="opacity:1" fill="#bec5ca" d="M 51.5,203.5 C 50.8333,209.833 50.1667,216.167 49.5,222.5C 49.3337,215.492 49.5004,208.492 50,201.5C 50.7172,202.044 51.2172,202.711 51.5,203.5 Z"/></g>
<g><path style="opacity:1" fill="#929fa7" d="M 210.5,198.5 C 211.162,200.304 211.495,202.304 211.5,204.5C 211.713,207.527 211.047,210.193 209.5,212.5C 210.314,207.881 210.647,203.214 210.5,198.5 Z"/></g>
<g><path style="opacity:1" fill="#c2cf25" d="M 285.5,201.5 C 289.415,201.247 293.081,201.913 296.5,203.5C 296.67,204.822 296.337,205.989 295.5,207C 292.189,206.785 288.856,206.785 285.5,207C 280.564,210.958 280.231,215.291 284.5,220C 287.146,220.497 289.813,220.664 292.5,220.5C 292.5,219.167 292.5,217.833 292.5,216.5C 290.833,216.5 289.167,216.5 287.5,216.5C 287.5,215.167 287.5,213.833 287.5,212.5C 290.833,212.5 294.167,212.5 297.5,212.5C 298.639,224.79 293.305,228.623 281.5,224C 275.688,218.209 275.021,211.876 279.5,205C 281.432,203.541 283.432,202.375 285.5,201.5 Z"/></g>
<g><path style="opacity:1" fill="#b2c81b" d="M 301.5,202.5 C 303.167,202.5 304.833,202.5 306.5,202.5C 306.334,207.844 306.501,213.177 307,218.5C 309.667,221.167 312.333,221.167 315,218.5C 315.499,213.177 315.666,207.844 315.5,202.5C 317.167,202.5 318.833,202.5 320.5,202.5C 320.877,209.257 320.377,215.924 319,222.5C 314.486,225.751 309.653,226.251 304.5,224C 303.299,223.097 302.465,221.931 302,220.5C 301.501,214.509 301.334,208.509 301.5,202.5 Z"/></g>
<g><path style="opacity:1" fill="#8cba2b" d="M 377.5,220.5 C 380.287,221.477 383.287,221.81 386.5,221.5C 386.5,222.833 386.5,224.167 386.5,225.5C 381.833,225.5 377.167,225.5 372.5,225.5C 372.5,217.833 372.5,210.167 372.5,202.5C 377.5,202.5 382.5,202.5 387.5,202.5C 387.714,204.144 387.38,205.644 386.5,207C 383.518,207.498 380.518,207.665 377.5,207.5C 377.5,208.833 377.5,210.167 377.5,211.5C 380.5,211.5 383.5,211.5 386.5,211.5C 386.5,213.167 386.5,214.833 386.5,216.5C 383.5,216.5 380.5,216.5 377.5,216.5C 377.5,217.833 377.5,219.167 377.5,220.5 Z"/></g>
<g><path style="opacity:1" fill="#81b72d" d="M 391.5,202.5 C 393.5,202.5 395.5,202.5 397.5,202.5C 397.5,208.5 397.5,214.5 397.5,220.5C 400.833,220.5 404.167,220.5 407.5,220.5C 407.5,222.167 407.5,223.833 407.5,225.5C 402.238,225.805 397.072,225.471 392,224.5C 391.5,217.174 391.334,209.841 391.5,202.5 Z"/></g>
<g><path style="opacity:1" fill="#53a827" d="M 436.5,202.5 C 438.167,202.5 439.833,202.5 441.5,202.5C 441.334,207.844 441.501,213.177 442,218.5C 445.156,221.399 447.822,221.065 450,217.5C 450.499,212.511 450.666,207.511 450.5,202.5C 452.167,202.5 453.833,202.5 455.5,202.5C 455.666,208.176 455.499,213.843 455,219.5C 451.298,225.542 446.131,227.042 439.5,224C 438.299,223.097 437.465,221.931 437,220.5C 436.501,214.509 436.334,208.509 436.5,202.5 Z"/></g>
<g><path style="opacity:1" fill="#44a42e" d="M 460.5,202.5 C 464.846,202.334 469.179,202.501 473.5,203C 479.84,207.084 480.173,211.75 474.5,217C 471.518,217.498 468.518,217.665 465.5,217.5C 465.5,220.167 465.5,222.833 465.5,225.5C 463.833,225.5 462.167,225.5 460.5,225.5C 460.5,217.833 460.5,210.167 460.5,202.5 Z"/></g>
<g><path style="opacity:1" fill="#35a13a" d="M 482.5,202.5 C 487.167,202.5 491.833,202.5 496.5,202.5C 496.5,204.167 496.5,205.833 496.5,207.5C 493.167,207.5 489.833,207.5 486.5,207.5C 486.5,208.833 486.5,210.167 486.5,211.5C 489.5,211.5 492.5,211.5 495.5,211.5C 495.5,213.167 495.5,214.833 495.5,216.5C 492.5,216.5 489.5,216.5 486.5,216.5C 486.5,217.833 486.5,219.167 486.5,220.5C 488.948,221.473 491.615,221.806 494.5,221.5C 494.5,222.5 494.5,223.5 494.5,224.5C 490.5,224.5 486.5,224.5 482.5,224.5C 482.5,217.167 482.5,209.833 482.5,202.5 Z"/></g>
<g><path style="opacity:1" fill="#6aaf28" d="M 415.5,202.5 C 428.71,200.875 434.21,206.542 432,219.5C 427.754,224.916 422.254,226.749 415.5,225C 409.636,221.434 407.47,216.267 409,209.5C 410.694,206.642 412.861,204.309 415.5,202.5 Z"/></g>
<g><path style="opacity:1" fill="#abc633" d="M 330.5,202.5 C 332.792,202.244 334.959,202.577 337,203.5C 340.194,210.581 342.694,217.914 344.5,225.5C 340.759,226.401 338.759,225.068 338.5,221.5C 335.102,221.18 331.768,221.513 328.5,222.5C 327.213,225.281 325.213,225.948 322.5,224.5C 324.62,216.935 327.287,209.601 330.5,202.5 Z"/></g>
<g><path style="opacity:1" fill="#9bc031" d="M 347.5,202.5 C 351.846,202.334 356.179,202.501 360.5,203C 367.829,205.33 370.329,210.163 368,217.5C 366.833,221.333 364.333,223.833 360.5,225C 356.179,225.499 351.846,225.666 347.5,225.5C 347.5,217.833 347.5,210.167 347.5,202.5 Z"/></g>
<g><path style="opacity:1" fill="#fcfdfb" d="M 353.5,207.5 C 361.563,206.396 364.397,209.73 362,217.5C 359.804,220.125 356.97,221.125 353.5,220.5C 353.5,216.167 353.5,211.833 353.5,207.5 Z"/></g>
<g><path style="opacity:1" fill="#f7faf3" d="M 417.5,206.5 C 427.629,207.106 429.963,211.606 424.5,220C 416.19,221.352 413.023,217.852 415,209.5C 416.045,208.627 416.878,207.627 417.5,206.5 Z"/></g>
<g><path style="opacity:1" fill="#f1f7ee" d="M 465.5,207.5 C 467.527,207.338 469.527,207.505 471.5,208C 472.833,209.667 472.833,211.333 471.5,213C 469.527,213.495 467.527,213.662 465.5,213.5C 465.5,211.5 465.5,209.5 465.5,207.5 Z"/></g>
<g><path style="opacity:1" fill="#f6f8ea" d="M 335.5,214.5 C 335.38,215.586 334.713,216.253 333.5,216.5C 332.287,216.253 331.62,215.586 331.5,214.5C 332.882,207.886 334.216,207.886 335.5,214.5 Z"/></g>
<g><path style="opacity:1" fill="#cad0d4" d="M 26.5,208.5 C 21.0247,209.489 15.358,209.822 9.5,209.5C 9.5,211.833 9.5,214.167 9.5,216.5C 16.3543,216.176 23.021,216.509 29.5,217.5C 22.5,217.5 15.5,217.5 8.5,217.5C 8.5,214.5 8.5,211.5 8.5,208.5C 14.5,208.5 20.5,208.5 26.5,208.5 Z"/></g>
<g><path style="opacity:1" fill="#d9e4a1" d="M 331.5,214.5 C 331.62,215.586 332.287,216.253 333.5,216.5C 334.713,216.253 335.38,215.586 335.5,214.5C 336.404,215.209 336.737,216.209 336.5,217.5C 334.5,217.5 332.5,217.5 330.5,217.5C 330.263,216.209 330.596,215.209 331.5,214.5 Z"/></g>
<g><path style="opacity:1" fill="#b0d06f" d="M 377.5,220.5 C 380.85,220.335 384.183,220.502 387.5,221C 388.916,222.915 388.582,224.415 386.5,225.5C 386.5,224.167 386.5,222.833 386.5,221.5C 383.287,221.81 380.287,221.477 377.5,220.5 Z"/></g>
<g><path style="opacity:1" fill="#45a94b" d="M 482.5,202.5 C 482.5,209.833 482.5,217.167 482.5,224.5C 486.5,224.5 490.5,224.5 494.5,224.5C 494.5,223.5 494.5,222.5 494.5,221.5C 491.615,221.806 488.948,221.473 486.5,220.5C 489.85,220.335 493.183,220.502 496.5,221C 497.517,222.049 497.684,223.216 497,224.5C 491.928,225.471 486.762,225.805 481.5,225.5C 481.175,217.648 481.508,209.982 482.5,202.5 Z"/></g>
</svg>
