<?xml version="1.0" encoding="UTF-8"?>
<!DOCTYPE svg PUBLIC "-//W3C//DTD SVG 1.1//EN" "http://www.w3.org/Graphics/SVG/1.1/DTD/svg11.dtd">
<svg xmlns="http://www.w3.org/2000/svg" version="1.1" width="1600px" height="1600px" style="shape-rendering:geometricPrecision; text-rendering:geometricPrecision; image-rendering:optimizeQuality; fill-rule:evenodd; clip-rule:evenodd" xmlns:xlink="http://www.w3.org/1999/xlink">
<g><path style="opacity:1" fill="#97ab50" d="M 223.5,63.5 C 479.5,63.5 735.5,63.5 991.5,63.5C 991.5,116.833 991.5,170.167 991.5,223.5C 1044.83,223.5 1098.17,223.5 1151.5,223.5C 1151.5,362.167 1151.5,500.833 1151.5,639.5C 1130.17,639.5 1108.83,639.5 1087.5,639.5C 1087.5,522.167 1087.5,404.833 1087.5,287.5C 842.167,287.5 596.833,287.5 351.5,287.5C 351.5,266.167 351.5,244.833 351.5,223.5C 543.5,223.5 735.5,223.5 927.5,223.5C 927.5,191.5 927.5,159.5 927.5,127.5C 714.167,127.5 500.833,127.5 287.5,127.5C 287.5,180.833 287.5,234.167 287.5,287.5C 234.167,287.5 180.833,287.5 127.5,287.5C 127.5,660.833 127.5,1034.17 127.5,1407.5C 234.167,1407.5 340.833,1407.5 447.5,1407.5C 447.5,1428.83 447.5,1450.17 447.5,1471.5C 319.5,1471.5 191.5,1471.5 63.5,1471.5C 63.5,1055.5 63.5,639.5 63.5,223.5C 116.833,223.5 170.167,223.5 223.5,223.5C 223.5,170.167 223.5,116.833 223.5,63.5 Z"/></g>
<g><path style="opacity:1" fill="#97ab50" d="M 255.5,383.5 C 298.167,383.5 340.833,383.5 383.5,383.5C 383.5,404.833 383.5,426.167 383.5,447.5C 340.833,447.5 298.167,447.5 255.5,447.5C 255.5,426.167 255.5,404.833 255.5,383.5 Z"/></g>
<g><path style="opacity:1" fill="#97ab50" d="M 543.5,383.5 C 586.167,383.5 628.833,383.5 671.5,383.5C 671.5,404.833 671.5,426.167 671.5,447.5C 628.833,447.5 586.167,447.5 543.5,447.5C 543.5,426.167 543.5,404.833 543.5,383.5 Z"/></g>
<g><path style="opacity:1" fill="#97ab50" d="M 831.5,383.5 C 874.167,383.5 916.833,383.5 959.5,383.5C 959.5,404.833 959.5,426.167 959.5,447.5C 916.833,447.5 874.167,447.5 831.5,447.5C 831.5,426.167 831.5,404.833 831.5,383.5 Z"/></g>
<g><path style="opacity:1" fill="#97ab50" d="M 255.5,543.5 C 298.167,543.5 340.833,543.5 383.5,543.5C 383.5,564.833 383.5,586.167 383.5,607.5C 340.833,607.5 298.167,607.5 255.5,607.5C 255.5,586.167 255.5,564.833 255.5,543.5 Z"/></g>
<g><path style="opacity:1" fill="#97ab50" d="M 543.5,543.5 C 586.167,543.5 628.833,543.5 671.5,543.5C 671.5,564.833 671.5,586.167 671.5,607.5C 628.833,607.5 586.167,607.5 543.5,607.5C 543.5,586.167 543.5,564.833 543.5,543.5 Z"/></g>
<g><path style="opacity:1" fill="#97ab50" d="M 831.5,543.5 C 874.167,543.5 916.833,543.5 959.5,543.5C 959.5,564.833 959.5,586.167 959.5,607.5C 916.833,607.5 874.167,607.5 831.5,607.5C 831.5,586.167 831.5,564.833 831.5,543.5 Z"/></g>
<g><path style="opacity:0.987" fill="#97ab50" d="M 900.5,639.5 C 916.514,639.167 932.514,639.501 948.5,640.5C 955.706,655.078 963.039,669.578 970.5,684C 997.423,687.413 1021.76,697.08 1043.5,713C 1051.05,720.048 1058.05,727.548 1064.5,735.5C 1109.39,710.855 1157.39,700.522 1208.5,704.5C 1215.17,717.833 1221.83,731.167 1228.5,744.5C 1288.07,753.197 1325.91,786.531 1342,844.5C 1352.67,888.42 1350.17,931.587 1334.5,974C 1349.5,1000.39 1352.67,1028.22 1344,1057.5C 1337.66,1078.19 1326.33,1095.53 1310,1109.5C 1307.58,1142.11 1297.58,1172.11 1280,1199.5C 1279.33,1217.17 1279.33,1234.83 1280,1252.5C 1286.83,1264.67 1296.33,1274.17 1308.5,1281C 1337.15,1294.82 1366.15,1307.82 1395.5,1320C 1420.98,1331.23 1444.65,1345.23 1466.5,1362C 1507.04,1395.58 1529.88,1438.74 1535,1491.5C 1536.09,1506.16 1536.93,1520.82 1537.5,1535.5C 1195.5,1535.5 853.5,1535.5 511.5,1535.5C 507.93,1497.13 512.43,1459.79 525,1423.5C 536.588,1393.58 554.755,1368.41 579.5,1348C 591.618,1338.55 604.284,1329.89 617.5,1322C 656.589,1302.46 695.922,1283.46 735.5,1265C 749.051,1257.12 759.551,1246.28 767,1232.5C 767.667,1209.83 767.667,1187.17 767,1164.5C 739.931,1138.37 722.764,1106.71 715.5,1069.5C 676.254,1040.93 664.42,1003.59 680,957.5C 683.005,951.682 686.171,946.016 689.5,940.5C 673.755,894.916 670.922,848.583 681,801.5C 699.35,737.14 739.184,691.307 800.5,664C 832.591,650.287 865.924,642.12 900.5,639.5 Z M 905.5,707.5 C 906.978,707.238 908.311,707.571 909.5,708.5C 915.5,720.5 921.5,732.5 927.5,744.5C 984.34,739.302 1019.17,764.302 1032,819.5C 1038.4,852.819 1036.07,885.486 1025,917.5C 1020.3,924.701 1015.8,932.035 1011.5,939.5C 1019.07,948.98 1025.91,958.98 1032,969.5C 1037.02,983.41 1035.69,996.744 1028,1009.5C 1018.96,1018.2 1009.63,1026.54 1000,1034.5C 999.736,1055.35 996.402,1075.69 990,1095.5C 983.535,1112.3 973.535,1126.63 960,1138.5C 959.018,1176.89 959.352,1215.23 961,1253.5C 971.116,1278.21 987.283,1298.05 1009.5,1313C 1024.4,1322.87 1040.07,1331.54 1056.5,1339C 1087.29,1351.73 1117.29,1366.06 1146.5,1382C 1165.49,1392.98 1181.32,1407.48 1194,1425.5C 1201.89,1439.83 1207.39,1454.99 1210.5,1471C 1000.5,1471.67 790.5,1471.67 580.5,1471C 585.254,1442.15 598.587,1418.15 620.5,1399C 632.482,1389.67 645.148,1381.34 658.5,1374C 691.833,1358.33 725.167,1342.67 758.5,1327C 782.637,1314.53 802.804,1297.36 819,1275.5C 823.802,1267.56 827.802,1259.23 831,1250.5C 831.667,1212.17 831.667,1173.83 831,1135.5C 823.381,1130.22 816.048,1124.55 809,1118.5C 787.175,1092.5 775.008,1062.5 772.5,1028.5C 764.136,1024.32 755.802,1020.15 747.5,1016C 737.058,1004.84 735.225,992.341 742,978.5C 747.714,969.779 754.548,961.946 762.5,955C 748.894,929.847 740.727,903.014 738,874.5C 734.141,801.108 765.975,750.608 833.5,723C 856.969,714.706 880.969,709.539 905.5,707.5 Z M 1167.5,771.5 C 1168.38,771.369 1169.04,771.702 1169.5,772.5C 1174.55,783.591 1179.88,794.591 1185.5,805.5C 1244.45,799.523 1276.95,825.857 1283,884.5C 1286.02,920.229 1278.52,953.562 1260.5,984.5C 1265.48,989.985 1270.65,995.319 1276,1000.5C 1285.98,1020.01 1285.65,1039.35 1275,1058.5C 1266,1064.5 1257,1070.5 1248,1076.5C 1247.42,1108.49 1240.08,1138.83 1226,1167.5C 1223.04,1171.47 1219.7,1175.13 1216,1178.5C 1215.33,1209.17 1215.33,1239.83 1216,1270.5C 1226.22,1297.39 1243.72,1318.23 1268.5,1333C 1300.5,1350.45 1333.5,1365.78 1367.5,1379C 1387.65,1388.23 1406.65,1399.23 1424.5,1412C 1443.63,1427.32 1456.63,1446.82 1463.5,1470.5C 1401.5,1471.5 1339.5,1471.83 1277.5,1471.5C 1270.41,1415.33 1244.08,1370.83 1198.5,1338C 1187.5,1330.5 1176.17,1323.5 1164.5,1317C 1137.65,1303.24 1110.31,1290.57 1082.5,1279C 1062.88,1271.03 1045.71,1259.53 1031,1244.5C 1028.27,1240.76 1025.93,1236.76 1024,1232.5C 1023.33,1208.83 1023.33,1185.17 1024,1161.5C 1045.33,1133.48 1057.83,1101.81 1061.5,1066.5C 1093.36,1038.74 1105.2,1004.07 1097,962.5C 1093.95,952.68 1090.12,943.18 1085.5,934C 1098.81,901.033 1103.64,866.866 1100,831.5C 1098.37,819.039 1096.37,806.706 1094,794.5C 1116.7,780.871 1141.2,773.204 1167.5,771.5 Z"/></g>
<g><path style="opacity:1" fill="#97ab50" d="M 255.5,703.5 C 298.167,703.5 340.833,703.5 383.5,703.5C 383.5,724.833 383.5,746.167 383.5,767.5C 340.833,767.5 298.167,767.5 255.5,767.5C 255.5,746.167 255.5,724.833 255.5,703.5 Z"/></g>
<g><path style="opacity:0.992" fill="#97ab50" d="M 543.5,703.5 C 583.835,703.333 624.168,703.5 664.5,704C 650.969,724.699 637.636,745.533 624.5,766.5C 597.508,767.5 570.508,767.833 543.5,767.5C 543.5,746.167 543.5,724.833 543.5,703.5 Z"/></g>
<g><path style="opacity:1" fill="#97ab50" d="M 255.5,863.5 C 298.167,863.5 340.833,863.5 383.5,863.5C 383.5,884.833 383.5,906.167 383.5,927.5C 340.833,927.5 298.167,927.5 255.5,927.5C 255.5,906.167 255.5,884.833 255.5,863.5 Z"/></g>
<g><path style="opacity:0.993" fill="#97ab50" d="M 543.5,863.5 C 569.169,863.333 594.835,863.5 620.5,864C 624.5,885 628.5,906 632.5,927C 602.835,927.5 573.169,927.667 543.5,927.5C 543.5,906.167 543.5,884.833 543.5,863.5 Z"/></g>
<g><path style="opacity:1" fill="#97ab50" d="M 255.5,1023.5 C 298.167,1023.5 340.833,1023.5 383.5,1023.5C 383.5,1044.83 383.5,1066.17 383.5,1087.5C 340.833,1087.5 298.167,1087.5 255.5,1087.5C 255.5,1066.17 255.5,1044.83 255.5,1023.5 Z"/></g>
<g><path style="opacity:0.993" fill="#97ab50" d="M 543.5,1023.5 C 571.833,1023.5 600.167,1023.5 628.5,1023.5C 636.478,1044.93 645.144,1066.1 654.5,1087C 617.502,1087.5 580.502,1087.67 543.5,1087.5C 543.5,1066.17 543.5,1044.83 543.5,1023.5 Z"/></g>
<g><path style="opacity:1" fill="#97ab50" d="M 255.5,1183.5 C 298.167,1183.5 340.833,1183.5 383.5,1183.5C 383.5,1204.83 383.5,1226.17 383.5,1247.5C 340.833,1247.5 298.167,1247.5 255.5,1247.5C 255.5,1226.17 255.5,1204.83 255.5,1183.5 Z"/></g>
<g><path style="opacity:1" fill="#97ab50" d="M 543.5,1183.5 C 586.167,1183.5 628.833,1183.5 671.5,1183.5C 671.5,1204.83 671.5,1226.17 671.5,1247.5C 628.833,1247.5 586.167,1247.5 543.5,1247.5C 543.5,1226.17 543.5,1204.83 543.5,1183.5 Z"/></g>
</svg>
