<?xml version="1.0" encoding="UTF-8"?>
<!DOCTYPE svg PUBLIC "-//W3C//DTD SVG 1.1//EN" "http://www.w3.org/Graphics/SVG/1.1/DTD/svg11.dtd">
<svg xmlns="http://www.w3.org/2000/svg" version="1.1" width="4096px" height="4096px" style="shape-rendering:geometricPrecision; text-rendering:geometricPrecision; image-rendering:optimizeQuality; fill-rule:evenodd; clip-rule:evenodd" xmlns:xlink="http://www.w3.org/1999/xlink">
<g><path style="opacity:0.994" fill="#97ab50" d="M 1780.5,41.5 C 2161.89,40.6816 2495.56,164.515 2781.5,413C 3043.64,649.358 3203.48,942.858 3261,1293.5C 3305.21,1596.58 3261.54,1886.24 3130,2162.5C 3085.94,2251.69 3034.1,2335.69 2974.5,2414.5C 3233.14,2778.97 3491.97,3143.31 3751,3507.5C 3775.64,3548.95 3773.97,3589.28 3746,3628.5C 3740.14,3634.7 3733.97,3640.53 3727.5,3646C 3545.5,3775.33 3363.5,3904.67 3181.5,4034C 3146.03,4057.1 3109.36,4059.1 3071.5,4040C 3060.77,4033.27 3051.27,4025.1 3043,4015.5C 2783.87,3650.07 2524.37,3284.9 2264.5,2920C 2011.83,3000.54 1755.5,3014.2 1495.5,2961C 1182.29,2891.72 918.454,2739.22 704,2503.5C 471.61,2240.84 346.276,1933.18 328,1580.5C 316.282,1242.24 407.282,935.238 601,659.5C 791.017,397.821 1039.85,215.654 1347.5,113C 1488.46,67.9504 1632.8,44.1171 1780.5,41.5 Z M 1762.5,243.5 C 2070.02,237.51 2345.02,327.677 2587.5,514C 2827.94,705.731 2981.78,952.564 3049,1254.5C 3104.17,1528.33 3074.83,1792.67 2961,2047.5C 2838.66,2308.18 2650.82,2507.01 2397.5,2644C 2137.5,2778.38 1863.17,2820.72 1574.5,2771C 1302.68,2718.87 1071.18,2594.04 880,2396.5C 674.31,2177.35 558.31,1917.02 532,1615.5C 510.792,1292.18 596.792,1001.52 790,743.5C 976.654,504.163 1218.15,348.33 1514.5,276C 1596.31,257.442 1678.97,246.608 1762.5,243.5 Z M 1560.5,996.5 C 1721.83,996.5 1883.17,996.5 2044.5,996.5C 2044.5,1052.5 2044.5,1108.5 2044.5,1164.5C 1883.17,1164.5 1721.83,1164.5 1560.5,1164.5C 1560.5,1108.5 1560.5,1052.5 1560.5,996.5 Z M 1156.5,1366.5 C 1586.83,1366.5 2017.17,1366.5 2447.5,1366.5C 2447.5,1590.5 2447.5,1814.5 2447.5,2038.5C 2017.17,2038.5 1586.83,2038.5 1156.5,2038.5C 1156.5,1814.5 1156.5,1590.5 1156.5,1366.5 Z M 2836.5,2569.5 C 3067.18,2893 3297.51,3216.84 3527.5,3541C 3400.4,3631.3 3273.24,3721.46 3146,3811.5C 2915.47,3488.29 2685.31,3164.79 2455.5,2841C 2597.15,2770.82 2724.15,2680.32 2836.5,2569.5 Z"/></g>
<g><path style="opacity:0.995" fill="#97ab50" d="M 1453.5,794.5 C 1685.83,794.333 1918.17,794.5 2150.5,795C 2203.48,800.985 2234.98,830.151 2245,882.5C 2245.5,976.499 2245.67,1070.5 2245.5,1164.5C 2352.19,1164.01 2458.86,1164.51 2565.5,1166C 2601.82,1173.07 2627.32,1193.57 2642,1227.5C 2646.24,1238.44 2648.57,1249.78 2649,1261.5C 2649.67,1555.5 2649.67,1849.5 2649,2143.5C 2645.38,2185.93 2624.22,2215.77 2585.5,2233C 2577.74,2235.94 2569.74,2237.94 2561.5,2239C 2308.33,2239.17 2055.17,2239.33 1802,2239.5C 1548.83,2239.33 1295.67,2239.17 1042.5,2239C 1000.1,2231.6 972.271,2207.44 959,2166.5C 957.615,2161.24 956.615,2155.91 956,2150.5C 955.333,1851.5 955.333,1552.5 956,1253.5C 963.948,1205.89 991.448,1176.72 1038.5,1166C 1145.14,1164.51 1251.81,1164.01 1358.5,1164.5C 1358.33,1071.83 1358.5,979.166 1359,886.5C 1363.79,846.392 1384.62,818.225 1421.5,802C 1432.01,798.203 1442.68,795.703 1453.5,794.5 Z M 1560.5,996.5 C 1560.5,1052.5 1560.5,1108.5 1560.5,1164.5C 1721.83,1164.5 1883.17,1164.5 2044.5,1164.5C 2044.5,1108.5 2044.5,1052.5 2044.5,996.5C 1883.17,996.5 1721.83,996.5 1560.5,996.5 Z M 1156.5,1366.5 C 1156.5,1590.5 1156.5,1814.5 1156.5,2038.5C 1586.83,2038.5 2017.17,2038.5 2447.5,2038.5C 2447.5,1814.5 2447.5,1590.5 2447.5,1366.5C 2017.17,1366.5 1586.83,1366.5 1156.5,1366.5 Z"/></g>
<g><path style="opacity:0.992" fill="#97ab50" d="M 1490.5,1463.5 C 1701.52,1463.01 1912.52,1463.51 2123.5,1465C 2169.07,1474.57 2195.57,1502.4 2203,1548.5C 2207.84,1584.98 2197.34,1616.15 2171.5,1642C 2157.05,1654.22 2140.39,1661.55 2121.5,1664C 2015.18,1665.16 1908.85,1665.66 1802.5,1665.5C 1699.5,1665.33 1596.5,1665.17 1493.5,1665C 1445.45,1661.28 1415.28,1636.12 1403,1589.5C 1395.02,1550.58 1404.52,1516.74 1431.5,1488C 1448.66,1473.67 1468.32,1465.51 1490.5,1463.5 Z"/></g>
<g><path style="opacity:0.996" fill="#97ab50" d="M 1485.5,1739.5 C 1698.86,1739.01 1912.19,1739.51 2125.5,1741C 2160.99,1748.16 2185.16,1768.66 2198,1802.5C 2209.98,1839.92 2204.65,1874.59 2182,1906.5C 2165.28,1925.95 2144.11,1937.11 2118.5,1940C 1905.48,1940.99 1692.48,1940.66 1479.5,1939C 1436.15,1929.65 1410.32,1903.15 1402,1859.5C 1395.87,1820.88 1406.71,1788.05 1434.5,1761C 1449.69,1749.4 1466.69,1742.24 1485.5,1739.5 Z"/></g>
</svg>
