<?xml version="1.0" encoding="UTF-8"?>
<!DOCTYPE svg PUBLIC "-//W3C//DTD SVG 1.1//EN" "http://www.w3.org/Graphics/SVG/1.1/DTD/svg11.dtd">
<svg xmlns="http://www.w3.org/2000/svg" version="1.1" width="300px" height="250px" style="shape-rendering:geometricPrecision; text-rendering:geometricPrecision; image-rendering:optimizeQuality; fill-rule:evenodd; clip-rule:evenodd" xmlns:xlink="http://www.w3.org/1999/xlink">
<g><path style="opacity:1" fill="#fdfdfd" d="M -0.5,-0.5 C 99.5,-0.5 199.5,-0.5 299.5,-0.5C 299.5,82.8333 299.5,166.167 299.5,249.5C 199.5,249.5 99.5,249.5 -0.5,249.5C -0.5,166.167 -0.5,82.8333 -0.5,-0.5 Z"/></g>
<g><path style="opacity:1" fill="#63bcd9" d="M 178.5,20.5 C 173.688,19.3222 169.021,19.3222 164.5,20.5C 154.924,18.1746 145.258,17.8413 135.5,19.5C 132.544,19.3011 129.544,18.9678 126.5,18.5C 123.766,20.3706 120.766,21.3706 117.5,21.5C 137.683,11.2172 158.017,10.8838 178.5,20.5 Z"/></g>
<g><path style="opacity:1" fill="#49a7cc" d="M 164.5,20.5 C 169.021,19.3222 173.688,19.3222 178.5,20.5C 189.336,25.1038 198.67,31.9371 206.5,41C 203.066,40.8081 199.732,39.9748 196.5,38.5C 195.167,36.5 193.5,34.8333 191.5,33.5C 183.471,27.3198 174.471,22.9864 164.5,20.5 Z"/></g>
<g><path style="opacity:1" fill="#83badb" d="M 123.5,24.5 C 129.01,26.2113 135.01,27.7113 141.5,29C 148.178,29.2203 154.845,29.2203 161.5,29C 160.692,29.3076 160.025,29.8076 159.5,30.5C 162.441,31.522 165.441,32.3554 168.5,33C 176.159,33.4997 183.826,33.6664 191.5,33.5C 193.5,34.8333 195.167,36.5 196.5,38.5C 184.966,37.2309 173.966,38.8976 163.5,43.5C 163.881,42.0689 164.881,41.2355 166.5,41C 164.22,40.7674 162.22,39.934 160.5,38.5C 159.5,39.1667 158.5,39.8333 157.5,40.5C 141.833,38.5 126.167,36.5 110.5,34.5C 109.269,35.6507 109.269,36.8173 110.5,38C 108.011,38.9411 106.011,38.4411 104.5,36.5C 110.014,31.2408 116.347,27.2408 123.5,24.5 Z"/></g>
<g><path style="opacity:1" fill="#90cbe8" d="M 164.5,20.5 C 174.471,22.9864 183.471,27.3198 191.5,33.5C 183.826,33.6664 176.159,33.4997 168.5,33C 165.441,32.3554 162.441,31.522 159.5,30.5C 160.025,29.8076 160.692,29.3076 161.5,29C 154.845,29.2203 148.178,29.2203 141.5,29C 135.01,27.7113 129.01,26.2113 123.5,24.5C 127.5,22.8333 131.5,21.1667 135.5,19.5C 145.258,17.8413 154.924,18.1746 164.5,20.5 Z"/></g>
<g><path style="opacity:1" fill="#48a9cd" d="M 135.5,19.5 C 131.5,21.1667 127.5,22.8333 123.5,24.5C 116.347,27.2408 110.014,31.2408 104.5,36.5C 104.167,36.5 103.833,36.5 103.5,36.5C 102.737,35.7321 101.737,35.2321 100.5,35C 101.252,34.3292 101.586,33.4959 101.5,32.5C 106.164,27.8368 111.497,24.1701 117.5,21.5C 120.766,21.3706 123.766,20.3706 126.5,18.5C 129.544,18.9678 132.544,19.3011 135.5,19.5 Z"/></g>
<g><path style="opacity:1" fill="#6aa1c8" d="M 163.5,43.5 C 160.5,45.5 157.5,47.5 154.5,49.5C 152.856,49.2865 151.356,49.6198 150,50.5C 148.829,49.1068 147.329,48.2735 145.5,48C 132.154,47.8327 118.821,47.3327 105.5,46.5C 102.384,46.0799 99.7171,45.0799 97.5,43.5C 99.5,41.1667 101.5,38.8333 103.5,36.5C 103.833,36.5 104.167,36.5 104.5,36.5C 106.011,38.4411 108.011,38.9411 110.5,38C 109.269,36.8173 109.269,35.6507 110.5,34.5C 126.167,36.5 141.833,38.5 157.5,40.5C 158.5,39.8333 159.5,39.1667 160.5,38.5C 162.22,39.934 164.22,40.7674 166.5,41C 164.881,41.2355 163.881,42.0689 163.5,43.5 Z"/></g>
<g><path style="opacity:1" fill="#b6564a" d="M 215.5,47.5 C 213.965,46.6457 212.632,46.6457 211.5,47.5C 210.067,46.1667 208.733,44.6667 207.5,43C 207.833,42.8333 208.167,42.6667 208.5,42.5C 211.077,43.9431 213.41,45.6098 215.5,47.5 Z"/></g>
<g><path style="opacity:1" fill="#548db8" d="M 97.5,43.5 C 99.7171,45.0799 102.384,46.0799 105.5,46.5C 118.821,47.3327 132.154,47.8327 145.5,48C 147.329,48.2735 148.829,49.1068 150,50.5C 151.356,49.6198 152.856,49.2865 154.5,49.5C 148.911,56.0139 144.911,63.3472 142.5,71.5C 142.5,70.5 142.5,69.5 142.5,68.5C 142.472,66.4176 143.139,64.5843 144.5,63C 128.116,58.7224 111.449,56.7224 94.5,57C 91.4322,51.6247 92.4322,47.1247 97.5,43.5 Z"/></g>
<g><path style="opacity:1" fill="#d12425" d="M 215.5,47.5 C 219.957,50.6187 223.291,54.6187 225.5,59.5C 225.5,60.1667 225.5,60.8333 225.5,61.5C 224.542,61.0472 223.708,60.3805 223,59.5C 220.881,62.7993 221.047,65.966 223.5,69C 222.714,72.4582 222.38,75.9582 222.5,79.5C 222.167,79.5 221.833,79.5 221.5,79.5C 220.011,68.195 216.677,57.5283 211.5,47.5C 212.632,46.6457 213.965,46.6457 215.5,47.5 Z"/></g>
<g><path style="opacity:1" fill="#528ab5" d="M 207.5,67.5 C 204.586,68.905 202.753,67.905 202,64.5C 200.903,66.0526 199.57,67.386 198,68.5C 191.811,66.9038 185.478,65.9038 179,65.5C 176.739,65.4391 174.739,66.1057 173,67.5C 171.271,65.5663 169.271,65.5663 167,67.5C 166.626,69.4913 165.793,71.158 164.5,72.5C 169.672,53.5829 181.339,48.0829 199.5,56C 203.582,58.9046 206.249,62.7379 207.5,67.5 Z"/></g>
<g><path style="opacity:1" fill="#3979a8" d="M 101.5,32.5 C 101.586,33.4959 101.252,34.3292 100.5,35C 101.737,35.2321 102.737,35.7321 103.5,36.5C 101.5,38.8333 99.5,41.1667 97.5,43.5C 92.4322,47.1247 91.4322,51.6247 94.5,57C 111.449,56.7224 128.116,58.7224 144.5,63C 143.139,64.5843 142.472,66.4176 142.5,68.5C 141.71,69.6085 141.21,70.9419 141,72.5C 139.853,71.5419 138.853,71.8753 138,73.5C 137.667,72.5 137.333,71.5 137,70.5C 134.757,71.1371 132.424,71.4704 130,71.5C 120.008,69.8874 109.841,69.0541 99.5,69C 98.1095,67.98 96.6095,67.1466 95,66.5C 93.2111,68.229 91.0444,68.8957 88.5,68.5C 88.4249,65.7938 88.0916,63.1272 87.5,60.5C 88.8896,58.0002 88.7229,55.6668 87,53.5C 86.2917,54.3805 85.4584,55.0472 84.5,55.5C 88.2451,46.4204 93.9117,38.7537 101.5,32.5 Z"/></g>
<g><path style="opacity:1" fill="#27689b" d="M 87.5,60.5 C 88.0916,63.1272 88.4249,65.7938 88.5,68.5C 91.0444,68.8957 93.2111,68.229 95,66.5C 96.6095,67.1466 98.1095,67.98 99.5,69C 109.841,69.0541 120.008,69.8874 130,71.5C 132.424,71.4704 134.757,71.1371 137,70.5C 137.333,71.5 137.667,72.5 138,73.5C 138.853,71.8753 139.853,71.5419 141,72.5C 141.21,70.9419 141.71,69.6085 142.5,68.5C 142.5,69.5 142.5,70.5 142.5,71.5C 142.5,72.1667 142.5,72.8333 142.5,73.5C 141.512,78.6405 141.179,83.9738 141.5,89.5C 141.167,89.5 140.833,89.5 140.5,89.5C 140.795,87.2646 140.461,85.2646 139.5,83.5C 134.895,81.5926 129.395,79.9259 123,78.5C 122.439,79.0219 121.772,79.3552 121,79.5C 113.342,78.5006 105.675,77.5006 98,76.5C 95.3149,77.9217 92.8149,77.5884 90.5,75.5C 88.2753,76.1005 86.1086,76.4339 84,76.5C 83.7127,70.7621 84.8793,65.4288 87.5,60.5 Z"/></g>
<g><path style="opacity:1" fill="#dd031a" d="M 225.5,61.5 C 228.582,68.8456 229.249,76.5122 227.5,84.5C 226.914,84.2907 226.414,83.9574 226,83.5C 225.751,84.624 225.251,85.624 224.5,86.5C 223.365,84.2933 222.699,81.9599 222.5,79.5C 222.38,75.9582 222.714,72.4582 223.5,69C 221.047,65.966 220.881,62.7993 223,59.5C 223.708,60.3805 224.542,61.0472 225.5,61.5 Z"/></g>
<g><path style="opacity:1" fill="#3773a2" d="M 207.5,67.5 C 209.25,71.1829 209.917,75.1829 209.5,79.5C 194.496,79.6666 179.496,79.4999 164.5,79C 163.232,76.8368 163.232,74.6702 164.5,72.5C 165.793,71.158 166.626,69.4913 167,67.5C 169.271,65.5663 171.271,65.5663 173,67.5C 174.739,66.1057 176.739,65.4391 179,65.5C 185.478,65.9038 191.811,66.9038 198,68.5C 199.57,67.386 200.903,66.0526 202,64.5C 202.753,67.905 204.586,68.905 207.5,67.5 Z"/></g>
<g><path style="opacity:1" fill="#145a8f" d="M 87.5,60.5 C 84.8793,65.4288 83.7127,70.7621 84,76.5C 86.1086,76.4339 88.2753,76.1005 90.5,75.5C 92.8149,77.5884 95.3149,77.9217 98,76.5C 105.675,77.5006 113.342,78.5006 121,79.5C 121.772,79.3552 122.439,79.0219 123,78.5C 129.395,79.9259 134.895,81.5926 139.5,83.5C 128.173,82.6124 117.173,83.9457 106.5,87.5C 101.691,88.0165 96.8575,89.0165 92,90.5C 88.9588,89.4885 86.2921,89.8219 84,91.5C 82.878,84.5514 82.2113,77.5514 82,70.5C 81.586,70.0426 81.086,69.7093 80.5,69.5C 79.8243,70.6016 79.1577,71.6016 78.5,72.5C 78.6785,69.7835 79.1785,67.1168 80,64.5C 81.0576,61.2342 82.5576,58.2342 84.5,55.5C 85.4584,55.0472 86.2917,54.3805 87,53.5C 88.7229,55.6668 88.8896,58.0002 87.5,60.5 Z"/></g>
<g><path style="opacity:1" fill="#bf2f36" d="M 225.5,59.5 C 229.735,66.5115 231.235,74.1782 230,82.5C 228.939,86.3948 226.439,88.7281 222.5,89.5C 222.167,89.5 221.833,89.5 221.5,89.5C 221.5,86.1667 221.5,82.8333 221.5,79.5C 221.833,79.5 222.167,79.5 222.5,79.5C 222.699,81.9599 223.365,84.2933 224.5,86.5C 225.251,85.624 225.751,84.624 226,83.5C 226.414,83.9574 226.914,84.2907 227.5,84.5C 229.249,76.5122 228.582,68.8456 225.5,61.5C 225.5,60.8333 225.5,60.1667 225.5,59.5 Z"/></g>
<g><path style="opacity:1" fill="#ecf3f7" d="M 142.5,73.5 C 142.5,78.1667 142.5,82.8333 142.5,87.5C 144.288,87.2148 145.955,87.5481 147.5,88.5C 147.291,89.086 146.957,89.586 146.5,90C 149.859,90.7713 153.192,91.6047 156.5,92.5C 158.666,95.173 160.166,98.173 161,101.5C 161.741,98.438 161.575,95.438 160.5,92.5C 160.977,91.5224 161.643,90.6891 162.5,90C 180.851,89.7946 199.184,89.2946 217.5,88.5C 218.925,88.6233 220.258,88.9566 221.5,89.5C 221.833,89.5 222.167,89.5 222.5,89.5C 222.666,93.5138 222.499,97.5138 222,101.5C 221.31,102.738 220.81,102.738 220.5,101.5C 220.942,97.8455 221.276,94.1788 221.5,90.5C 202.497,90.3334 183.497,90.5001 164.5,91C 163.884,92.4002 163.551,93.9002 163.5,95.5C 164.094,99.6128 165.094,103.613 166.5,107.5C 165.9,112.1 163.234,114.767 158.5,115.5C 157.167,116.833 157.167,118.167 158.5,119.5C 161.848,118.915 164.848,117.582 167.5,115.5C 168.981,116.48 170.315,117.647 171.5,119C 169.1,119.186 166.766,119.686 164.5,120.5C 164.833,120.833 165.167,121.167 165.5,121.5C 168.438,120.425 171.438,120.259 174.5,121C 170.882,122.312 167.549,123.479 164.5,124.5C 161.772,123.855 159.105,123.021 156.5,122C 157.167,121.667 157.833,121.333 158.5,121C 156.866,120.506 155.199,120.34 153.5,120.5C 145.595,111.802 141.595,101.469 141.5,89.5C 141.179,83.9738 141.512,78.6405 142.5,73.5 Z"/></g>
<g><path style="opacity:1" fill="#05477e" d="M 106.5,87.5 C 104.324,89.5152 101.824,91.1819 99,92.5C 96.7743,94.2847 95.6076,96.6181 95.5,99.5C 94.448,99.3505 93.448,99.5172 92.5,100C 88.7813,105.552 85.6147,105.718 83,100.5C 82.6667,97.5 82.3333,94.5 82,91.5C 81.6667,91.1667 81.3333,90.8333 81,90.5C 80.9504,92.744 80.1171,94.4107 78.5,95.5C 77.5119,90.3595 77.1786,85.0262 77.5,79.5C 77.1984,76.9407 77.5318,74.6074 78.5,72.5C 79.1577,71.6016 79.8243,70.6016 80.5,69.5C 81.086,69.7093 81.586,70.0426 82,70.5C 82.2113,77.5514 82.878,84.5514 84,91.5C 86.2921,89.8219 88.9588,89.4885 92,90.5C 96.8575,89.0165 101.691,88.0165 106.5,87.5 Z"/></g>
<g><path style="opacity:1" fill="#c8dbe8" d="M 77.5,79.5 C 77.1786,85.0262 77.5119,90.3595 78.5,95.5C 78.5,97.5 78.5,99.5 78.5,101.5C 76.8985,100.481 75.8985,98.9812 75.5,97C 76.1062,91.022 76.7728,85.1887 77.5,79.5 Z"/></g>
<g><path style="opacity:1" fill="#03376d" d="M 211.5,110.5 C 201.506,120.693 189.839,123.193 176.5,118C 173.669,116.334 171.336,114.168 169.5,111.5C 169.181,107.864 168.015,104.531 166,101.5C 165.223,98.5706 165.39,95.7372 166.5,93C 183.5,92.3333 200.5,92.3333 217.5,93C 218.658,94.0086 219.325,95.3419 219.5,97C 219.212,99.187 218.878,101.354 218.5,103.5C 217.127,103.343 215.793,103.51 214.5,104C 213.138,106.034 212.138,108.201 211.5,110.5 Z"/></g>
<g><path style="opacity:1" fill="#013970" d="M 139.5,83.5 C 140.461,85.2646 140.795,87.2646 140.5,89.5C 140.386,92.85 140.053,96.1833 139.5,99.5C 139.706,102.336 140.373,105.002 141.5,107.5C 137.995,106.891 135.328,108.058 133.5,111C 132.552,111.483 131.552,111.649 130.5,111.5C 130.539,109.641 129.706,108.308 128,107.5C 122.41,108.809 116.577,109.475 110.5,109.5C 104.833,109.333 99.1667,109.167 93.5,109C 92,108.167 90.8333,107 90,105.5C 90.1851,109.511 88.3518,111.511 84.5,111.5C 84.4312,108.916 83.2645,106.916 81,105.5C 80.6012,105.728 80.4346,106.062 80.5,106.5C 79.8333,104.833 79.1667,103.167 78.5,101.5C 78.5,99.5 78.5,97.5 78.5,95.5C 80.1171,94.4107 80.9504,92.744 81,90.5C 81.3333,90.8333 81.6667,91.1667 82,91.5C 82.3333,94.5 82.6667,97.5 83,100.5C 85.6147,105.718 88.7813,105.552 92.5,100C 93.448,99.5172 94.448,99.3505 95.5,99.5C 95.6076,96.6181 96.7743,94.2847 99,92.5C 101.824,91.1819 104.324,89.5152 106.5,87.5C 117.173,83.9457 128.173,82.6124 139.5,83.5 Z"/></g>
<g><path style="opacity:1" fill="#24456a" d="M 220.5,101.5 C 219.662,101.842 219.328,102.508 219.5,103.5C 219.5,103.833 219.5,104.167 219.5,104.5C 216.569,106.091 213.902,108.091 211.5,110.5C 212.138,108.201 213.138,106.034 214.5,104C 215.793,103.51 217.127,103.343 218.5,103.5C 218.878,101.354 219.212,99.187 219.5,97C 219.325,95.3419 218.658,94.0086 217.5,93C 200.5,92.3333 183.5,92.3333 166.5,93C 165.39,95.7372 165.223,98.5706 166,101.5C 168.015,104.531 169.181,107.864 169.5,111.5C 168.5,110.167 167.5,108.833 166.5,107.5C 165.094,103.613 164.094,99.6128 163.5,95.5C 163.551,93.9002 163.884,92.4002 164.5,91C 183.497,90.5001 202.497,90.3334 221.5,90.5C 221.276,94.1788 220.942,97.8455 220.5,101.5 Z"/></g>
<g><path style="opacity:1" fill="#bb262d" d="M 219.5,103.5 C 226.392,102.704 228.725,105.371 226.5,111.5C 227.058,105.445 224.891,104.112 220,107.5C 219.307,111.172 218.14,114.672 216.5,118C 217.072,120.074 218.405,121.24 220.5,121.5C 217.612,125.948 213.612,128.948 208.5,130.5C 207.957,130.44 207.624,130.107 207.5,129.5C 212.842,121.815 216.842,113.482 219.5,104.5C 219.5,104.167 219.5,103.833 219.5,103.5 Z"/></g>
<g><path style="opacity:1" fill="#023060" d="M 140.5,89.5 C 140.833,89.5 141.167,89.5 141.5,89.5C 141.595,101.469 145.595,111.802 153.5,120.5C 153.5,120.833 153.5,121.167 153.5,121.5C 153.869,123.441 154.536,125.275 155.5,127C 139.823,127.167 124.156,127.667 108.5,128.5C 110.031,129.613 111.031,131.113 111.5,133C 111.333,133.833 111.167,134.667 111,135.5C 108.625,132.409 105.792,129.909 102.5,128C 101.207,127.51 99.8734,127.343 98.5,127.5C 97.9895,133.588 96.3229,133.922 93.5,128.5C 92.675,127.614 91.675,127.281 90.5,127.5C 85.6516,121.323 82.3183,114.323 80.5,106.5C 80.4346,106.062 80.6012,105.728 81,105.5C 83.2645,106.916 84.4312,108.916 84.5,111.5C 88.3518,111.511 90.1851,109.511 90,105.5C 90.8333,107 92,108.167 93.5,109C 99.1667,109.167 104.833,109.333 110.5,109.5C 116.577,109.475 122.41,108.809 128,107.5C 129.706,108.308 130.539,109.641 130.5,111.5C 131.552,111.649 132.552,111.483 133.5,111C 135.328,108.058 137.995,106.891 141.5,107.5C 140.373,105.002 139.706,102.336 139.5,99.5C 140.053,96.1833 140.386,92.85 140.5,89.5 Z"/></g>
<g><path style="opacity:1" fill="#cc091c" d="M 226.5,111.5 C 225.728,115.598 223.728,118.931 220.5,121.5C 218.405,121.24 217.072,120.074 216.5,118C 218.14,114.672 219.307,111.172 220,107.5C 224.891,104.112 227.058,105.445 226.5,111.5 Z"/></g>
<g><path style="opacity:1" fill="#e0e8ef" d="M 219.5,104.5 C 216.842,113.482 212.842,121.815 207.5,129.5C 207.624,130.107 207.957,130.44 208.5,130.5C 207.205,131.488 205.872,132.488 204.5,133.5C 204.265,132.903 203.765,132.57 203,132.5C 184.545,137.058 168.045,133.391 153.5,121.5C 153.5,121.167 153.5,120.833 153.5,120.5C 155.199,120.34 156.866,120.506 158.5,121C 157.833,121.333 157.167,121.667 156.5,122C 159.105,123.021 161.772,123.855 164.5,124.5C 167.549,123.479 170.882,122.312 174.5,121C 171.438,120.259 168.438,120.425 165.5,121.5C 165.167,121.167 164.833,120.833 164.5,120.5C 166.766,119.686 169.1,119.186 171.5,119C 170.315,117.647 168.981,116.48 167.5,115.5C 164.848,117.582 161.848,118.915 158.5,119.5C 157.167,118.167 157.167,116.833 158.5,115.5C 163.234,114.767 165.9,112.1 166.5,107.5C 167.5,108.833 168.5,110.167 169.5,111.5C 171.336,114.168 173.669,116.334 176.5,118C 189.839,123.193 201.506,120.693 211.5,110.5C 213.902,108.091 216.569,106.091 219.5,104.5 Z"/></g>
<g><path style="opacity:1" fill="#02234d" d="M 153.5,121.5 C 168.045,133.391 184.545,137.058 203,132.5C 203.765,132.57 204.265,132.903 204.5,133.5C 200.918,137.297 196.918,140.63 192.5,143.5C 188.45,142.689 185.784,144.189 184.5,148C 177.564,151.397 170.231,152.397 162.5,151C 169.98,149.897 170.147,148.73 163,147.5C 160.806,148.079 158.64,148.746 156.5,149.5C 150.179,148.364 143.845,148.364 137.5,149.5C 133.824,149.572 130.324,148.906 127,147.5C 127.019,149.107 127.185,150.774 127.5,152.5C 124.103,151.626 120.77,150.459 117.5,149C 115.658,146.45 113.825,144.617 112,143.5C 110.374,143.854 108.541,143.854 106.5,143.5C 104.068,142.25 101.734,140.75 99.5,139C 96.2854,135.291 93.2854,131.458 90.5,127.5C 91.675,127.281 92.675,127.614 93.5,128.5C 96.3229,133.922 97.9895,133.588 98.5,127.5C 99.8734,127.343 101.207,127.51 102.5,128C 105.792,129.909 108.625,132.409 111,135.5C 111.167,134.667 111.333,133.833 111.5,133C 111.031,131.113 110.031,129.613 108.5,128.5C 124.156,127.667 139.823,127.167 155.5,127C 154.536,125.275 153.869,123.441 153.5,121.5 Z"/></g>
<g><path style="opacity:1" fill="#091d40" d="M 106.5,143.5 C 108.541,143.854 110.374,143.854 112,143.5C 113.825,144.617 115.658,146.45 117.5,149C 120.77,150.459 124.103,151.626 127.5,152.5C 127.185,150.774 127.019,149.107 127,147.5C 130.324,148.906 133.824,149.572 137.5,149.5C 143.845,148.364 150.179,148.364 156.5,149.5C 158.64,148.746 160.806,148.079 163,147.5C 170.147,148.73 169.98,149.897 162.5,151C 170.231,152.397 177.564,151.397 184.5,148C 185.784,144.189 188.45,142.689 192.5,143.5C 186.461,148.857 179.461,152.691 171.5,155C 147.569,162.754 125.903,158.921 106.5,143.5 Z"/></g>
<g><path style="opacity:1" fill="#b5656d" d="M 287.5,186.5 C 287.5,184.833 287.5,183.167 287.5,181.5C 286.167,181.5 284.833,181.5 283.5,181.5C 283.5,183.167 283.5,184.833 283.5,186.5C 282.539,184.735 282.205,182.735 282.5,180.5C 284.5,180.5 286.5,180.5 288.5,180.5C 288.795,182.735 288.461,184.735 287.5,186.5 Z"/></g>
<g><path style="opacity:1" fill="#183a6a" d="M 50.5,181.5 C 54.316,182.401 57.9827,183.901 61.5,186C 62.8486,187.635 62.6819,189.135 61,190.5C 58.0844,188.959 55.2511,187.293 52.5,185.5C 49.5997,187.951 46.2663,189.285 42.5,189.5C 42.3505,188.448 42.5172,187.448 43,186.5C 45.8239,185.182 48.3239,183.515 50.5,181.5 Z"/></g>
<g><path style="opacity:1" fill="#b71226" d="M 287.5,186.5 C 286.167,186.5 284.833,186.5 283.5,186.5C 283.5,184.833 283.5,183.167 283.5,181.5C 284.833,181.5 286.167,181.5 287.5,181.5C 287.5,183.167 287.5,184.833 287.5,186.5 Z"/></g>
<g><path style="opacity:1" fill="#5c7a9f" d="M 75.5,214.5 C 74.5054,203.679 74.1721,192.679 74.5,181.5C 73.1667,181.5 71.8333,181.5 70.5,181.5C 70.5,192.833 70.5,204.167 70.5,215.5C 69.5051,204.012 69.1717,192.345 69.5,180.5C 71.5,180.5 73.5,180.5 75.5,180.5C 75.5,191.833 75.5,203.167 75.5,214.5 Z"/></g>
<g><path style="opacity:1" fill="#f796a1" d="M 243.5,181.5 C 241.833,181.5 240.167,181.5 238.5,181.5C 238.5,192.833 238.5,204.167 238.5,215.5C 237.505,204.012 237.172,192.345 237.5,180.5C 239.735,180.205 241.735,180.539 243.5,181.5 Z"/></g>
<g><path style="opacity:1" fill="#0a3671" d="M 75.5,214.5 C 77.5027,216.982 80.1694,217.982 83.5,217.5C 83.5,219.5 83.5,221.5 83.5,223.5C 76.9984,224.093 72.665,221.427 70.5,215.5C 70.5,204.167 70.5,192.833 70.5,181.5C 71.8333,181.5 73.1667,181.5 74.5,181.5C 74.1721,192.679 74.5054,203.679 75.5,214.5 Z"/></g>
<g><path style="opacity:1" fill="#163b70" d="M 17.5,193.5 C 29.8551,190.705 36.1884,195.539 36.5,208C 35.8191,220.537 29.1524,225.703 16.5,223.5C 16.5,227.5 16.5,231.5 16.5,235.5C 14.8333,235.5 13.1667,235.5 11.5,235.5C 11.3335,223.829 11.5001,212.162 12,200.5C 12.9668,197.379 14.8001,195.046 17.5,193.5 Z"/></g>
<g><path style="opacity:1" fill="#fdecef" d="M 288.5,223.5 C 288.5,213.167 288.5,202.833 288.5,192.5C 286.5,192.5 284.5,192.5 282.5,192.5C 282.5,202.5 282.5,212.5 282.5,222.5C 279.722,217.022 277.055,217.189 274.5,223C 272.866,223.494 271.199,223.66 269.5,223.5C 274.118,222.318 276.951,219.318 278,214.5C 278.667,209.833 278.667,205.167 278,200.5C 277.34,198.676 276.173,197.343 274.5,196.5C 273.942,195.21 272.942,194.377 271.5,194C 268.183,193.502 264.85,193.335 261.5,193.5C 267.14,191.998 272.807,192.331 278.5,194.5C 280.666,194.57 280.999,193.904 279.5,192.5C 279.808,191.692 280.308,191.025 281,190.5C 283.719,191.444 286.552,191.777 289.5,191.5C 290.071,197.474 290.404,203.474 290.5,209.5C 290.493,214.551 289.827,219.217 288.5,223.5 Z"/></g>
<g><path style="opacity:1" fill="#c71929" d="M 187.5,193.5 C 194.852,191.759 200.352,194.092 204,200.5C 204.5,208.159 204.666,215.826 204.5,223.5C 202.833,223.5 201.167,223.5 199.5,223.5C 199.666,216.492 199.5,209.492 199,202.5C 194.333,198.5 189.667,198.5 185,202.5C 184.5,209.492 184.334,216.492 184.5,223.5C 182.833,223.5 181.167,223.5 179.5,223.5C 179.891,216.079 179.391,208.746 178,201.5C 177.184,200.177 176.017,199.511 174.5,199.5C 173.376,198.191 171.876,197.525 170,197.5C 167.765,198.45 165.598,198.45 163.5,197.5C 164.193,196.482 164.859,195.482 165.5,194.5C 169.311,193.355 173.311,193.188 177.5,194C 179.286,194.785 180.786,195.951 182,197.5C 183.147,195.181 184.981,193.848 187.5,193.5 Z"/></g>
<g><path style="opacity:1" fill="#d01123" d="M 230.5,196.5 C 233.084,203.859 233.084,211.192 230.5,218.5C 229.5,218.5 228.5,218.5 227.5,218.5C 227.5,217.5 227.5,216.5 227.5,215.5C 228.55,210.886 228.717,206.22 228,201.5C 223.006,197.211 218.506,197.544 214.5,202.5C 213.512,207.64 213.179,212.974 213.5,218.5C 218.032,218.069 222.365,218.569 226.5,220C 221.898,221.122 217.232,221.622 212.5,221.5C 212.826,225.884 212.492,230.217 211.5,234.5C 210.501,222.852 210.168,211.186 210.5,199.5C 211.277,196.888 212.944,195.055 215.5,194C 219.5,193.333 223.5,193.333 227.5,194C 228.942,194.377 229.942,195.21 230.5,196.5 Z"/></g>
<g><path style="opacity:1" fill="#163c71" d="M 46.5,193.5 C 63.3213,192.411 69.1547,200.077 64,216.5C 59.5442,223.57 53.3775,225.404 45.5,222C 43.9512,220.786 42.7845,219.286 42,217.5C 40.4826,211.92 40.1492,206.253 41,200.5C 41.9668,197.379 43.8001,195.046 46.5,193.5 Z"/></g>
<g><path style="opacity:1" fill="#cb1125" d="M 259.5,193.5 C 260.167,193.5 260.833,193.5 261.5,193.5C 264.85,193.335 268.183,193.502 271.5,194C 272.942,194.377 273.942,195.21 274.5,196.5C 278.106,203.105 278.273,209.772 275,216.5C 274.501,210.843 274.334,205.176 274.5,199.5C 270.352,198.356 266.352,198.356 262.5,199.5C 260.827,200.343 259.66,201.676 259,203.5C 258.502,206.482 258.335,209.482 258.5,212.5C 258.762,213.978 258.429,215.311 257.5,216.5C 256.712,215.23 255.712,214.23 254.5,213.5C 252.033,205.86 253.7,199.193 259.5,193.5 Z"/></g>
<g><path style="opacity:1" fill="#b11e2f" d="M 243.5,181.5 C 243.5,192.167 243.5,202.833 243.5,213.5C 242.506,203.347 242.172,193.014 242.5,182.5C 241.5,182.5 240.5,182.5 239.5,182.5C 239.5,194.167 239.5,205.833 239.5,217.5C 238.662,217.158 238.328,216.492 238.5,215.5C 238.5,204.167 238.5,192.833 238.5,181.5C 240.167,181.5 241.833,181.5 243.5,181.5 Z"/></g>
<g><path style="opacity:1" fill="#c47a85" d="M 288.5,223.5 C 288.167,223.5 287.833,223.5 287.5,223.5C 287.5,213.5 287.5,203.5 287.5,193.5C 286.167,193.5 284.833,193.5 283.5,193.5C 283.5,203.5 283.5,213.5 283.5,223.5C 282.833,223.5 282.5,223.167 282.5,222.5C 282.5,212.5 282.5,202.5 282.5,192.5C 284.5,192.5 286.5,192.5 288.5,192.5C 288.5,202.833 288.5,213.167 288.5,223.5 Z"/></g>
<g><path style="opacity:1" fill="#c63e46" d="M 165.5,194.5 C 164.859,195.482 164.193,196.482 163.5,197.5C 165.598,198.45 167.765,198.45 170,197.5C 171.876,197.525 173.376,198.191 174.5,199.5C 170.713,198.814 167.546,199.814 165,202.5C 164.5,209.492 164.334,216.492 164.5,223.5C 162.5,223.5 160.5,223.5 158.5,223.5C 158.177,216.978 158.51,210.645 159.5,204.5C 159.5,210.5 159.5,216.5 159.5,222.5C 160.5,222.5 161.5,222.5 162.5,222.5C 162.449,215.44 162.616,208.44 163,201.5C 161.989,202.337 160.822,202.67 159.5,202.5C 160.079,198.639 162.079,195.973 165.5,194.5 Z"/></g>
<g><path style="opacity:1" fill="#fcf0f1" d="M 262.5,199.5 C 272.333,198.511 275.833,202.844 273,212.5C 270.847,216.891 267.347,218.391 262.5,217C 260.93,215.603 259.596,214.103 258.5,212.5C 258.335,209.482 258.502,206.482 259,203.5C 259.66,201.676 260.827,200.343 262.5,199.5 Z"/></g>
<g><path style="opacity:1" fill="#fcf3f4" d="M 227.5,215.5 C 223.404,217.28 219.071,217.946 214.5,217.5C 214.5,212.5 214.5,207.5 214.5,202.5C 218.506,197.544 223.006,197.211 228,201.5C 228.717,206.22 228.55,210.886 227.5,215.5 Z"/></g>
<g><path style="opacity:1" fill="#cb0820" d="M 287.5,223.5 C 286.167,223.5 284.833,223.5 283.5,223.5C 283.5,213.5 283.5,203.5 283.5,193.5C 284.833,193.5 286.167,193.5 287.5,193.5C 287.5,203.5 287.5,213.5 287.5,223.5 Z"/></g>
<g><path style="opacity:1" fill="#1b3f73" d="M 92.5,193.5 C 105.67,191.671 111.67,197.338 110.5,210.5C 104.167,210.5 97.8333,210.5 91.5,210.5C 92.3277,217.161 95.9943,219.661 102.5,218C 103.966,217.365 105.3,216.531 106.5,215.5C 110.264,218.706 109.598,221.206 104.5,223C 95.1164,225.727 88.9498,222.56 86,213.5C 83.7118,205.18 85.8784,198.513 92.5,193.5 Z"/></g>
<g><path style="opacity:1" fill="#f5fbf7" d="M 94.5,198.5 C 100.686,197.042 104.019,199.375 104.5,205.5C 100.167,205.5 95.8333,205.5 91.5,205.5C 91.1496,202.547 92.1496,200.213 94.5,198.5 Z"/></g>
<g><path style="opacity:1" fill="#eff6f8" d="M 49.5,198.5 C 53.1916,197.971 56.3583,198.971 59,201.5C 59.6667,205.833 59.6667,210.167 59,214.5C 55.2685,218.05 51.2685,218.383 47,215.5C 44.2959,209.131 45.1293,203.465 49.5,198.5 Z"/></g>
<g><path style="opacity:1" fill="#d0061e" d="M 159.5,204.5 C 159.5,203.833 159.5,203.167 159.5,202.5C 160.822,202.67 161.989,202.337 163,201.5C 162.616,208.44 162.449,215.44 162.5,222.5C 161.5,222.5 160.5,222.5 159.5,222.5C 159.5,216.5 159.5,210.5 159.5,204.5 Z"/></g>
<g><path style="opacity:1" fill="#d3041f" d="M 243.5,213.5 C 243.5,213.833 243.5,214.167 243.5,214.5C 244.665,217.59 246.998,218.924 250.5,218.5C 250.719,219.675 250.386,220.675 249.5,221.5C 246.071,220.749 242.737,219.749 239.5,218.5C 239.5,218.167 239.5,217.833 239.5,217.5C 239.5,205.833 239.5,194.167 239.5,182.5C 240.5,182.5 241.5,182.5 242.5,182.5C 242.172,193.014 242.506,203.347 243.5,213.5 Z"/></g>
<g><path style="opacity:1" fill="#d17780" d="M 154.5,203.5 C 155.468,205.607 155.802,207.941 155.5,210.5C 148.833,210.5 142.167,210.5 135.5,210.5C 141.645,209.51 147.978,209.177 154.5,209.5C 154.5,207.5 154.5,205.5 154.5,203.5 Z"/></g>
<g><path style="opacity:1" fill="#f4faf9" d="M 20.5,198.5 C 24.1916,197.971 27.3583,198.971 30,201.5C 33.8434,214.146 29.3434,219.48 16.5,217.5C 16.3341,212.489 16.5007,207.489 17,202.5C 17.6897,200.65 18.8564,199.316 20.5,198.5 Z"/></g>
<g><path style="opacity:1" fill="#fddde3" d="M 187.5,193.5 C 193.169,191.882 198.669,192.548 204,195.5C 206.922,205.077 207.088,214.41 204.5,223.5C 204.666,215.826 204.5,208.159 204,200.5C 200.352,194.092 194.852,191.759 187.5,193.5 Z"/></g>
<g><path style="opacity:1" fill="#c1222f" d="M 274.5,196.5 C 276.173,197.343 277.34,198.676 278,200.5C 278.667,205.167 278.667,209.833 278,214.5C 276.951,219.318 274.118,222.318 269.5,223.5C 266.061,223.747 262.728,223.414 259.5,222.5C 259.5,222.167 259.5,221.833 259.5,221.5C 263.555,221.824 267.555,221.491 271.5,220.5C 273.891,219.191 273.891,218.191 271.5,217.5C 267.5,218.833 263.5,218.833 259.5,217.5C 258.833,217.833 258.167,218.167 257.5,218.5C 258.127,219.417 258.461,220.417 258.5,221.5C 255.851,219.588 254.518,216.921 254.5,213.5C 255.712,214.23 256.712,215.23 257.5,216.5C 258.429,215.311 258.762,213.978 258.5,212.5C 259.596,214.103 260.93,215.603 262.5,217C 267.347,218.391 270.847,216.891 273,212.5C 275.833,202.844 272.333,198.511 262.5,199.5C 266.352,198.356 270.352,198.356 274.5,199.5C 274.334,205.176 274.501,210.843 275,216.5C 278.273,209.772 278.106,203.105 274.5,196.5 Z"/></g>
<g><path style="opacity:1" fill="#c91a29" d="M 154.5,203.5 C 154.5,205.5 154.5,207.5 154.5,209.5C 147.978,209.177 141.645,209.51 135.5,210.5C 135.994,217.403 139.661,219.903 146.5,218C 147.931,217.535 149.097,216.701 150,215.5C 154.58,218.636 154.08,221.136 148.5,223C 132.335,224.943 126.168,217.776 130,201.5C 131.84,195.809 135.673,193.143 141.5,193.5C 148.723,193.054 153.056,196.387 154.5,203.5 Z"/></g>
<g><path style="opacity:1" fill="#f9f2f2" d="M 140.5,197.5 C 145.543,197.877 148.21,200.543 148.5,205.5C 144.167,205.5 139.833,205.5 135.5,205.5C 135.536,201.8 137.203,199.133 140.5,197.5 Z"/></g>
<g><path style="opacity:1" fill="#d60520" d="M 259.5,221.5 C 259.167,221.5 258.833,221.5 258.5,221.5C 258.461,220.417 258.127,219.417 257.5,218.5C 258.167,218.167 258.833,217.833 259.5,217.5C 263.5,218.833 267.5,218.833 271.5,217.5C 273.891,218.191 273.891,219.191 271.5,220.5C 267.555,221.491 263.555,221.824 259.5,221.5 Z"/></g>
<g><path style="opacity:1" fill="#fde3e4" d="M 259.5,193.5 C 253.7,199.193 252.033,205.86 254.5,213.5C 254.518,216.921 255.851,219.588 258.5,221.5C 258.833,221.5 259.167,221.5 259.5,221.5C 259.5,221.833 259.5,222.167 259.5,222.5C 258.417,222.539 257.417,222.873 256.5,223.5C 256.891,222.109 256.058,221.109 254,220.5C 253.764,222.119 252.931,223.119 251.5,223.5C 251.5,221.5 251.5,219.5 251.5,217.5C 248.509,217.834 246.176,216.834 244.5,214.5C 247.064,214.979 249.564,215.645 252,216.5C 251.762,208.886 252.929,201.552 255.5,194.5C 256.689,193.571 258.022,193.238 259.5,193.5 Z"/></g>
<g><path style="opacity:1" fill="#be2631" d="M 243.5,214.5 C 243.833,214.5 244.167,214.5 244.5,214.5C 246.176,216.834 248.509,217.834 251.5,217.5C 251.5,219.5 251.5,221.5 251.5,223.5C 246.513,224.001 242.513,222.335 239.5,218.5C 242.737,219.749 246.071,220.749 249.5,221.5C 250.386,220.675 250.719,219.675 250.5,218.5C 246.998,218.924 244.665,217.59 243.5,214.5 Z"/></g>
<g><path style="opacity:1" fill="#bf353c" d="M 230.5,196.5 C 232.234,198.09 233.4,200.09 234,202.5C 236.599,217.974 230.099,224.974 214.5,223.5C 214.5,227.5 214.5,231.5 214.5,235.5C 212.5,235.5 210.5,235.5 208.5,235.5C 208.333,224.495 208.5,213.495 209,202.5C 209.232,201.263 209.732,200.263 210.5,199.5C 210.168,211.186 210.501,222.852 211.5,234.5C 212.492,230.217 212.826,225.884 212.5,221.5C 217.232,221.622 221.898,221.122 226.5,220C 222.365,218.569 218.032,218.069 213.5,218.5C 213.179,212.974 213.512,207.64 214.5,202.5C 214.5,207.5 214.5,212.5 214.5,217.5C 219.071,217.946 223.404,217.28 227.5,215.5C 227.5,216.5 227.5,217.5 227.5,218.5C 228.5,218.5 229.5,218.5 230.5,218.5C 233.084,211.192 233.084,203.859 230.5,196.5 Z"/></g>
</svg>
