<?xml version="1.0" encoding="UTF-8"?>
<!DOCTYPE svg PUBLIC "-//W3C//DTD SVG 1.1//EN" "http://www.w3.org/Graphics/SVG/1.1/DTD/svg11.dtd">
<svg xmlns="http://www.w3.org/2000/svg" version="1.1" width="652px" height="199px" style="shape-rendering:geometricPrecision; text-rendering:geometricPrecision; image-rendering:optimizeQuality; fill-rule:evenodd; clip-rule:evenodd" xmlns:xlink="http://www.w3.org/1999/xlink">
<g><path style="opacity:1" fill="#fdfdfd" d="M -0.5,-0.5 C 216.833,-0.5 434.167,-0.5 651.5,-0.5C 651.5,65.8333 651.5,132.167 651.5,198.5C 434.167,198.5 216.833,198.5 -0.5,198.5C -0.5,132.167 -0.5,65.8333 -0.5,-0.5 Z"/></g>
<g><path style="opacity:1" fill="#9499b9" d="M 20.5,10.5 C 31.3404,9.17624 42.3404,9.17624 53.5,10.5C 53.3764,11.1067 53.0431,11.44 52.5,11.5C 42.3468,10.5058 32.0135,10.1724 21.5,10.5C 21.1667,10.5 20.8333,10.5 20.5,10.5 Z"/></g>
<g><path style="opacity:1" fill="#ef848a" d="M 92.5,10.5 C 83.3178,10.1734 74.3178,10.5067 65.5,11.5C 64.9569,11.44 64.6236,11.1067 64.5,10.5C 73.9918,9.17783 83.3251,9.17783 92.5,10.5 Z"/></g>
<g><path style="opacity:1" fill="#2a3274" d="M 21.5,10.5 C 32.0135,10.1724 42.3468,10.5058 52.5,11.5C 48.6548,13.6027 47.6548,16.6027 49.5,20.5C 49.5,21.5 49.5,22.5 49.5,23.5C 47.5,23.5 45.5,23.5 43.5,23.5C 43.5654,23.0618 43.3988,22.7284 43,22.5C 42.6924,23.3081 42.1924,23.9747 41.5,24.5C 38.344,23.1563 36.844,24.1563 37,27.5C 39.159,25.0437 39.9923,25.7104 39.5,29.5C 41.5273,29.3379 43.5273,29.5045 45.5,30C 44.5842,30.2784 43.9175,30.7784 43.5,31.5C 45.8731,32.1951 48.2064,32.5284 50.5,32.5C 49.1007,33.8897 47.4341,34.8897 45.5,35.5C 37.5,35.5 29.5,35.5 21.5,35.5C 21.5,27.1667 21.5,18.8333 21.5,10.5 Z"/></g>
<g><path style="opacity:1" fill="#e01018" d="M 92.5,10.5 C 92.5,18.8333 92.5,27.1667 92.5,35.5C 82.1148,35.7855 71.7815,35.4522 61.5,34.5C 60.4017,33.3991 60.235,32.0657 61,30.5C 63.6305,30.1408 65.7971,29.1408 67.5,27.5C 69.9163,25.2949 69.9163,23.2949 67.5,21.5C 68.1252,18.0295 67.1252,15.1962 64.5,13C 65.056,12.6174 65.3893,12.1174 65.5,11.5C 74.3178,10.5067 83.3178,10.1734 92.5,10.5 Z"/></g>
<g><path style="opacity:1" fill="#eb5b5e" d="M 67.5,21.5 C 69.9163,23.2949 69.9163,25.2949 67.5,27.5C 68.2751,25.3881 68.2751,23.3881 67.5,21.5 Z"/></g>
<g><path style="opacity:1" fill="#4c538a" d="M 43.5,23.5 C 43.1788,25.0481 42.1788,25.7148 40.5,25.5C 40.5,26.5 40.5,27.5 40.5,28.5C 42.288,28.7852 43.9547,28.4519 45.5,27.5C 44.4937,26.6043 44.4937,25.9377 45.5,25.5C 46.7202,26.7111 47.8869,26.7111 49,25.5C 49.4643,26.0944 49.631,26.7611 49.5,27.5C 47.4677,28.0478 46.4677,29.3812 46.5,31.5C 45.5,31.5 44.5,31.5 43.5,31.5C 43.9175,30.7784 44.5842,30.2784 45.5,30C 43.5273,29.5045 41.5273,29.3379 39.5,29.5C 39.9923,25.7104 39.159,25.0437 37,27.5C 36.844,24.1563 38.344,23.1563 41.5,24.5C 42.1924,23.9747 42.6924,23.3081 43,22.5C 43.3988,22.7284 43.5654,23.0618 43.5,23.5 Z"/></g>
<g><path style="opacity:1" fill="#989bbb" d="M 49.5,20.5 C 50.8333,22.8333 50.8333,25.1667 49.5,27.5C 49.631,26.7611 49.4643,26.0944 49,25.5C 47.8869,26.7111 46.7202,26.7111 45.5,25.5C 44.4937,25.9377 44.4937,26.6043 45.5,27.5C 43.9547,28.4519 42.288,28.7852 40.5,28.5C 40.5,27.5 40.5,26.5 40.5,25.5C 42.1788,25.7148 43.1788,25.0481 43.5,23.5C 45.5,23.5 47.5,23.5 49.5,23.5C 49.5,22.5 49.5,21.5 49.5,20.5 Z"/></g>
<g><path style="opacity:1" fill="#969aba" d="M 49.5,27.5 C 50.4831,28.8503 51.8164,29.8503 53.5,30.5C 52.6431,31.4252 51.6431,32.0919 50.5,32.5C 48.2064,32.5284 45.8731,32.1951 43.5,31.5C 44.5,31.5 45.5,31.5 46.5,31.5C 46.4677,29.3812 47.4677,28.0478 49.5,27.5 Z"/></g>
<g><path style="opacity:1" fill="#565d91" d="M 20.5,10.5 C 20.8333,10.5 21.1667,10.5 21.5,10.5C 21.5,18.8333 21.5,27.1667 21.5,35.5C 29.5,35.5 37.5,35.5 45.5,35.5C 37.3501,36.4927 29.0168,36.8261 20.5,36.5C 20.5,27.8333 20.5,19.1667 20.5,10.5 Z"/></g>
<g><path style="opacity:1" fill="#e7454d" d="M 61.5,34.5 C 71.7815,35.4522 82.1148,35.7855 92.5,35.5C 82.6753,36.6583 72.6753,36.8249 62.5,36C 61.944,35.6174 61.6107,35.1174 61.5,34.5 Z"/></g>
<g><path style="opacity:1" fill="#404041" d="M 63.5,47.5 C 62.1667,47.5 61.5,46.8333 61.5,45.5C 62.6354,43.7868 64.302,43.1201 66.5,43.5C 66.5323,45.6188 65.5323,46.9522 63.5,47.5 Z"/></g>
<g><path style="opacity:1" fill="#404041" d="M 101.5,50.5 C 106.64,49.5119 111.974,49.1786 117.5,49.5C 117.5,50.8333 117.5,52.1667 117.5,53.5C 115.5,53.5 113.5,53.5 111.5,53.5C 113.042,52.8365 114.709,52.1698 116.5,51.5C 111.544,50.5059 106.544,50.1725 101.5,50.5 Z"/></g>
<g><path style="opacity:1" fill="#9e9e9e" d="M 372.5,49.5 C 370.57,53.3727 369.903,57.706 370.5,62.5C 369.532,60.3926 369.198,58.0593 369.5,55.5C 368.5,55.5 367.5,55.5 366.5,55.5C 367.091,54.8485 367.757,54.1818 368.5,53.5C 366.879,52.305 365.213,51.305 363.5,50.5C 364.952,49.2869 366.286,49.6203 367.5,51.5C 368.626,48.7968 370.293,48.1301 372.5,49.5 Z"/></g>
<g><path style="opacity:1" fill="#19191a" d="M 20.5,49.5 C 25.3932,48.8361 29.7265,49.8361 33.5,52.5C 33.6621,54.5273 33.4955,56.5273 33,58.5C 31.583,59.0779 30.7496,60.0779 30.5,61.5C 28.8333,61.5 27.1667,61.5 25.5,61.5C 24.5318,63.6074 24.1984,65.9407 24.5,68.5C 23.1667,68.5 21.8333,68.5 20.5,68.5C 20.5,62.1667 20.5,55.8333 20.5,49.5 Z"/></g>
<g><path style="opacity:1" fill="#d2d2d2" d="M 37.5,49.5 C 37.5,56.1667 37.5,62.8333 37.5,69.5C 35.7316,65.9558 34.8982,61.9558 35,57.5C 34.5685,60.0724 33.0685,61.4057 30.5,61.5C 30.7496,60.0779 31.583,59.0779 33,58.5C 33.4955,56.5273 33.6621,54.5273 33.5,52.5C 34.1174,52.6107 34.6174,52.944 35,53.5C 35.1216,51.563 35.955,50.2297 37.5,49.5 Z"/></g>
<g><path style="opacity:1" fill="#2f2f2f" d="M 37.5,49.5 C 41.0419,49.1872 44.3752,49.5206 47.5,50.5C 44.5,50.5 41.5,50.5 38.5,50.5C 38.1707,56.5368 38.5041,62.5368 39.5,68.5C 40.1681,66.0312 40.8347,63.6979 41.5,61.5C 41.5,64.1667 41.5,66.8333 41.5,69.5C 40.1667,69.5 38.8333,69.5 37.5,69.5C 37.5,62.8333 37.5,56.1667 37.5,49.5 Z"/></g>
<g><path style="opacity:1" fill="#0e0e0f" d="M 47.5,50.5 C 49.2261,52.8201 49.8928,55.4867 49.5,58.5C 47.4805,59.5383 47.1472,60.8716 48.5,62.5C 48.8333,63.1667 49.1667,63.8333 49.5,64.5C 49.5106,66.0174 50.1772,67.1841 51.5,68C 50.2068,68.49 48.8734,68.6567 47.5,68.5C 46.643,65.0797 44.643,62.7464 41.5,61.5C 40.8347,63.6979 40.1681,66.0312 39.5,68.5C 38.5041,62.5368 38.1707,56.5368 38.5,50.5C 41.5,50.5 44.5,50.5 47.5,50.5 Z"/></g>
<g><path style="opacity:1" fill="#bfbfbf" d="M 55.5,49.5 C 55.1765,56.0221 55.5098,62.3554 56.5,68.5C 59.9619,69.4816 63.6286,69.815 67.5,69.5C 63.4336,70.822 59.2669,70.822 55,69.5C 54.1794,62.6536 54.346,55.987 55.5,49.5 Z"/></g>
<g><path style="opacity:1" fill="#6a6a6a" d="M 61.5,45.5 C 61.5,46.8333 62.1667,47.5 63.5,47.5C 64.8333,48.1667 66.1667,48.8333 67.5,49.5C 63.8333,49.5 60.1667,49.5 56.5,49.5C 56.5,55.8333 56.5,62.1667 56.5,68.5C 55.5098,62.3554 55.1765,56.0221 55.5,49.5C 57.8046,48.6771 59.8046,47.3437 61.5,45.5 Z"/></g>
<g><path style="opacity:1" fill="#151515" d="M 67.5,49.5 C 67.5,50.5 67.5,51.5 67.5,52.5C 64.8333,52.5 62.1667,52.5 59.5,52.5C 59.2155,54.4147 59.5489,56.0813 60.5,57.5C 62.1667,57.5 63.8333,57.5 65.5,57.5C 65.5,58.5 65.5,59.5 65.5,60.5C 63.5,60.5 61.5,60.5 59.5,60.5C 59.5,62.5 59.5,64.5 59.5,66.5C 62.1667,66.5 64.8333,66.5 67.5,66.5C 67.5,67.5 67.5,68.5 67.5,69.5C 63.6286,69.815 59.9619,69.4816 56.5,68.5C 56.5,62.1667 56.5,55.8333 56.5,49.5C 60.1667,49.5 63.8333,49.5 67.5,49.5 Z"/></g>
<g><path style="opacity:1" fill="#515152" d="M 76.5,57.5 C 75.5489,56.0813 75.2155,54.4147 75.5,52.5C 77.924,52.8076 80.2573,52.4742 82.5,51.5C 79.2317,50.513 75.8984,50.1796 72.5,50.5C 72.5,56.5 72.5,62.5 72.5,68.5C 73.5,68.5 74.5,68.5 75.5,68.5C 75.1984,65.9407 75.5318,63.6074 76.5,61.5C 76.5,64.1667 76.5,66.8333 76.5,69.5C 74.8333,69.5 73.1667,69.5 71.5,69.5C 71.5,62.8333 71.5,56.1667 71.5,49.5C 75.5,49.5 79.5,49.5 83.5,49.5C 83.5,50.8333 83.5,52.1667 83.5,53.5C 81.1667,53.5 78.8333,53.5 76.5,53.5C 76.5,54.8333 76.5,56.1667 76.5,57.5 Z"/></g>
<g><path style="opacity:1" fill="#101011" d="M 76.5,57.5 C 78.1667,57.5 79.8333,57.5 81.5,57.5C 81.5,58.5 81.5,59.5 81.5,60.5C 79.5853,60.2155 77.9187,60.5489 76.5,61.5C 75.5318,63.6074 75.1984,65.9407 75.5,68.5C 74.5,68.5 73.5,68.5 72.5,68.5C 72.5,62.5 72.5,56.5 72.5,50.5C 75.8984,50.1796 79.2317,50.513 82.5,51.5C 80.2573,52.4742 77.924,52.8076 75.5,52.5C 75.2155,54.4147 75.5489,56.0813 76.5,57.5 Z"/></g>
<g><path style="opacity:1" fill="#4d4d4e" d="M 91.5,57.5 C 90.5489,56.0813 90.2155,54.4147 90.5,52.5C 92.924,52.8076 95.2573,52.4742 97.5,51.5C 94.2317,50.513 90.8984,50.1796 87.5,50.5C 87.5,56.5 87.5,62.5 87.5,68.5C 90.8984,68.8204 94.2317,68.487 97.5,67.5C 95.3691,66.8313 93.3691,66.1646 91.5,65.5C 93.8333,65.5 96.1667,65.5 98.5,65.5C 98.5,66.8333 98.5,68.1667 98.5,69.5C 94.5,69.5 90.5,69.5 86.5,69.5C 86.5,62.8333 86.5,56.1667 86.5,49.5C 90.5,49.5 94.5,49.5 98.5,49.5C 98.5,50.8333 98.5,52.1667 98.5,53.5C 96.1667,53.5 93.8333,53.5 91.5,53.5C 91.5,54.8333 91.5,56.1667 91.5,57.5 Z"/></g>
<g><path style="opacity:1" fill="#0e0e0f" d="M 91.5,57.5 C 93.1667,57.5 94.8333,57.5 96.5,57.5C 96.5,58.5 96.5,59.5 96.5,60.5C 94.5853,60.2155 92.9187,60.5489 91.5,61.5C 90.1667,62.8333 90.1667,64.1667 91.5,65.5C 93.3691,66.1646 95.3691,66.8313 97.5,67.5C 94.2317,68.487 90.8984,68.8204 87.5,68.5C 87.5,62.5 87.5,56.5 87.5,50.5C 90.8984,50.1796 94.2317,50.513 97.5,51.5C 95.2573,52.4742 92.924,52.8076 90.5,52.5C 90.2155,54.4147 90.5489,56.0813 91.5,57.5 Z"/></g>
<g><path style="opacity:1" fill="#0b0b0c" d="M 101.5,50.5 C 106.544,50.1725 111.544,50.5059 116.5,51.5C 114.709,52.1698 113.042,52.8365 111.5,53.5C 110.513,58.3054 110.179,63.3054 110.5,68.5C 109.5,68.5 108.5,68.5 107.5,68.5C 107.5,63.5 107.5,58.5 107.5,53.5C 105.5,53.5 103.5,53.5 101.5,53.5C 101.5,52.5 101.5,51.5 101.5,50.5 Z"/></g>
<g><path style="opacity:1" fill="#202020" d="M 333.5,49.5 C 333.5,50.1667 333.5,50.8333 333.5,51.5C 330.833,50.8333 330.833,50.1667 333.5,49.5 Z"/></g>
<g><path style="opacity:1" fill="#1d1d1d" d="M 363.5,50.5 C 365.213,51.305 366.879,52.305 368.5,53.5C 367.757,54.1818 367.091,54.8485 366.5,55.5C 366.229,57.8211 366.896,59.8211 368.5,61.5C 366.994,62.7472 365.494,62.7472 364,61.5C 363.095,57.7454 362.928,54.0787 363.5,50.5 Z"/></g>
<g><path style="opacity:1" fill="#747474" d="M 67.5,52.5 C 65.3926,53.4682 63.0593,53.8016 60.5,53.5C 60.5,54.8333 60.5,56.1667 60.5,57.5C 59.5489,56.0813 59.2155,54.4147 59.5,52.5C 62.1667,52.5 64.8333,52.5 67.5,52.5 Z"/></g>
<g><path style="opacity:1" fill="#8b8b8b" d="M 333.5,49.5 C 330.833,50.1667 330.833,50.8333 333.5,51.5C 333.5,51.8333 333.5,52.1667 333.5,52.5C 331.598,55.3373 330.931,58.6707 331.5,62.5C 330.514,58.03 330.181,53.3633 330.5,48.5C 331.791,48.2627 332.791,48.596 333.5,49.5 Z"/></g>
<g><path style="opacity:1" fill="#040404" d="M 333.5,52.5 C 334.069,56.3293 333.402,59.6627 331.5,62.5C 330.931,58.6707 331.598,55.3373 333.5,52.5 Z"/></g>
<g><path style="opacity:1" fill="#101010" d="M 341.5,52.5 C 341.25,53.9221 340.417,54.9221 339,55.5C 338.503,57.8098 338.337,60.1432 338.5,62.5C 336.598,59.6627 335.931,56.3293 336.5,52.5C 338.167,52.5 339.833,52.5 341.5,52.5 Z"/></g>
<g><path style="opacity:1" fill="#252525" d="M 372.5,49.5 C 373.097,54.294 372.43,58.6273 370.5,62.5C 369.903,57.706 370.57,53.3727 372.5,49.5 Z"/></g>
<g><path style="opacity:1" fill="#252525" d="M 376.5,52.5 C 383.632,52.7891 385.298,55.9558 381.5,62C 376.16,62.9888 373.66,60.8222 374,55.5C 374.698,54.3094 375.531,53.3094 376.5,52.5 Z"/></g>
<g><path style="opacity:1" fill="#878787" d="M 28.5,53.5 C 27.5,53.5 26.5,53.5 25.5,53.5C 25.5,54.8333 25.5,56.1667 25.5,57.5C 24.5489,56.0813 24.2155,54.4147 24.5,52.5C 26.099,52.2322 27.4324,52.5655 28.5,53.5 Z"/></g>
<g><path style="opacity:1" fill="#e1e1e2" d="M 28.5,53.5 C 29.4345,54.5676 29.7678,55.901 29.5,57.5C 28.1667,57.5 26.8333,57.5 25.5,57.5C 25.5,56.1667 25.5,54.8333 25.5,53.5C 26.5,53.5 27.5,53.5 28.5,53.5 Z"/></g>
<g><path style="opacity:1" fill="#f9f9f9" d="M 41.5,54.5 C 42.5,54.5 43.5,54.5 44.5,54.5C 44.5,55.5 44.5,56.5 44.5,57.5C 44.5,56.5 44.5,55.5 44.5,54.5C 43.5,54.5 42.5,54.5 41.5,54.5 Z"/></g>
<g><path style="opacity:1" fill="#a4a4a4" d="M 44.5,57.5 C 44.5,56.5 44.5,55.5 44.5,54.5C 43.5,54.5 42.5,54.5 41.5,54.5C 43.0686,52.0348 44.7353,52.2015 46.5,55C 46.3613,56.301 45.6946,57.1344 44.5,57.5 Z"/></g>
<g><path style="opacity:1" fill="#7c7c7c" d="M 47.5,50.5 C 48.4959,50.4142 49.3292,50.7476 50,51.5C 50.7958,54.0385 50.6291,56.3718 49.5,58.5C 49.8928,55.4867 49.2261,52.8201 47.5,50.5 Z"/></g>
<g><path style="opacity:1" fill="#adadad" d="M 101.5,53.5 C 103.5,53.5 105.5,53.5 107.5,53.5C 107.5,58.5 107.5,63.5 107.5,68.5C 107.5,68.8333 107.5,69.1667 107.5,69.5C 106.513,64.6946 106.179,59.6946 106.5,54.5C 104.585,54.7845 102.919,54.4511 101.5,53.5 Z"/></g>
<g><path style="opacity:1" fill="#454545" d="M 111.5,53.5 C 111.5,58.8333 111.5,64.1667 111.5,69.5C 110.167,69.5 108.833,69.5 107.5,69.5C 107.5,69.1667 107.5,68.8333 107.5,68.5C 108.5,68.5 109.5,68.5 110.5,68.5C 110.179,63.3054 110.513,58.3054 111.5,53.5 Z"/></g>
<g><path style="opacity:1" fill="#121212" d="M 393.5,53.5 C 394.403,56.3915 394.736,59.3915 394.5,62.5C 392.656,60.7211 391.99,58.3878 392.5,55.5C 391.167,55.5 389.833,55.5 388.5,55.5C 388.808,57.924 388.474,60.2573 387.5,62.5C 386.513,59.2317 386.18,55.8984 386.5,52.5C 389.059,52.1984 391.393,52.5318 393.5,53.5 Z"/></g>
<g><path style="opacity:1" fill="#191919" d="M 350.5,54.5 C 350.5,55.8333 350.5,57.1667 350.5,58.5C 348.712,58.2148 347.045,58.5481 345.5,59.5C 347.332,60.0568 348.665,61.0568 349.5,62.5C 347.379,62.6747 345.379,62.3414 343.5,61.5C 342.286,58.8707 342.286,56.204 343.5,53.5C 346.083,52.0623 348.417,52.3956 350.5,54.5 Z"/></g>
<g><path style="opacity:1" fill="#dfdfdf" d="M 376.5,55.5 C 378.665,55.1159 380.332,55.7826 381.5,57.5C 380.332,59.2174 378.665,59.8841 376.5,59.5C 376.5,58.1667 376.5,56.8333 376.5,55.5 Z"/></g>
<g><path style="opacity:1" fill="#b6b6b6" d="M 341.5,52.5 C 342.167,52.8333 342.833,53.1667 343.5,53.5C 342.286,56.204 342.286,58.8707 343.5,61.5C 341.836,60.0512 341.002,58.0512 341,55.5C 339.957,57.8329 339.124,60.1663 338.5,62.5C 338.337,60.1432 338.503,57.8098 339,55.5C 340.417,54.9221 341.25,53.9221 341.5,52.5 Z"/></g>
<g><path style="opacity:1" fill="#9e9e9e" d="M 393.5,53.5 C 394.765,54.5145 395.431,56.0145 395.5,58C 395.492,59.7067 395.158,61.2067 394.5,62.5C 394.736,59.3915 394.403,56.3915 393.5,53.5 Z"/></g>
<g><path style="opacity:1" fill="#959595" d="M 350.5,54.5 C 351.167,55.8333 351.833,57.1667 352.5,58.5C 352.5,58.8333 352.5,59.1667 352.5,59.5C 351.9,60.9002 350.9,61.9002 349.5,62.5C 348.665,61.0568 347.332,60.0568 345.5,59.5C 347.045,58.5481 348.712,58.2148 350.5,58.5C 350.5,57.1667 350.5,55.8333 350.5,54.5 Z"/></g>
<g><path style="opacity:1" fill="#1b1b1b" d="M 317.5,50.5 C 321.257,50.0708 324.757,50.7375 328,52.5C 329.325,60.6733 325.825,64.0066 317.5,62.5C 317.5,58.5 317.5,54.5 317.5,50.5 Z"/></g>
<g><path style="opacity:1" fill="#707070" d="M 320.5,52.5 C 320.5,54.8333 320.5,57.1667 320.5,59.5C 321.5,59.5 322.5,59.5 323.5,59.5C 322.432,60.4345 321.099,60.7678 319.5,60.5C 319.194,57.6146 319.527,54.9479 320.5,52.5 Z"/></g>
<g><path style="opacity:1" fill="#e9e9e9" d="M 320.5,52.5 C 323.244,52.2003 324.911,53.367 325.5,56C 325.613,57.6991 324.947,58.8658 323.5,59.5C 322.5,59.5 321.5,59.5 320.5,59.5C 320.5,57.1667 320.5,54.8333 320.5,52.5 Z"/></g>
<g><path style="opacity:1" fill="#2d2d2d" d="M 352.5,59.5 C 352.5,59.1667 352.5,58.8333 352.5,58.5C 352.329,53.5057 354.662,51.6724 359.5,53C 359.957,53.414 360.291,53.914 360.5,54.5C 352.5,56.5 352.5,58.5 360.5,60.5C 357.489,63.3001 354.823,62.9667 352.5,59.5 Z"/></g>
<g><path style="opacity:1" fill="#828283" d="M 49.5,58.5 C 49.1667,59.8333 48.8333,61.1667 48.5,62.5C 47.1472,60.8716 47.4805,59.5383 49.5,58.5 Z"/></g>
<g><path style="opacity:1" fill="#797979" d="M 81.5,57.5 C 82.4345,58.5676 82.7678,59.901 82.5,61.5C 80.5,61.5 78.5,61.5 76.5,61.5C 77.9187,60.5489 79.5853,60.2155 81.5,60.5C 81.5,59.5 81.5,58.5 81.5,57.5 Z"/></g>
<g><path style="opacity:1" fill="#79797a" d="M 96.5,57.5 C 97.4345,58.5676 97.7678,59.901 97.5,61.5C 95.5,61.5 93.5,61.5 91.5,61.5C 92.9187,60.5489 94.5853,60.2155 96.5,60.5C 96.5,59.5 96.5,58.5 96.5,57.5 Z"/></g>
<g><path style="opacity:1" fill="#9e9e9e" d="M 20.5,49.5 C 20.5,55.8333 20.5,62.1667 20.5,68.5C 21.8333,68.5 23.1667,68.5 24.5,68.5C 24.1984,65.9407 24.5318,63.6074 25.5,61.5C 25.6641,64.1873 25.4974,66.854 25,69.5C 23.3333,70.8333 21.6667,70.8333 20,69.5C 19.1794,62.6536 19.346,55.987 20.5,49.5 Z"/></g>
<g><path style="opacity:1" fill="#626262" d="M 65.5,57.5 C 66.4345,58.5676 66.7678,59.901 66.5,61.5C 64.5,61.5 62.5,61.5 60.5,61.5C 60.5,62.8333 60.5,64.1667 60.5,65.5C 63.0593,65.1984 65.3926,65.5318 67.5,66.5C 64.8333,66.5 62.1667,66.5 59.5,66.5C 59.5,64.5 59.5,62.5 59.5,60.5C 61.5,60.5 63.5,60.5 65.5,60.5C 65.5,59.5 65.5,58.5 65.5,57.5 Z"/></g>
<g><path style="opacity:1" fill="#565656" d="M 49.5,64.5 C 51.7271,65.4006 52.7271,67.0672 52.5,69.5C 50.5853,69.7845 48.9187,69.4511 47.5,68.5C 48.8734,68.6567 50.2068,68.49 51.5,68C 50.1772,67.1841 49.5106,66.0174 49.5,64.5 Z"/></g>
<g><path style="opacity:1" fill="#666666" d="M 323.5,70.5 C 324.209,69.596 325.209,69.2627 326.5,69.5C 326.819,74.3633 326.486,79.03 325.5,83.5C 326.097,78.706 325.43,74.3727 323.5,70.5 Z"/></g>
<g><path style="opacity:1" fill="#151515" d="M 343.5,70.5 C 345.43,74.3727 346.097,78.706 345.5,83.5C 343.57,79.6273 342.903,75.294 343.5,70.5 Z"/></g>
<g><path style="opacity:1" fill="#676767" d="M 343.5,70.5 C 344.209,69.596 345.209,69.2627 346.5,69.5C 346.819,74.3633 346.486,79.03 345.5,83.5C 346.097,78.706 345.43,74.3727 343.5,70.5 Z"/></g>
<g><path style="opacity:1" fill="#0a0a0a" d="M 451.5,70.5 C 453.43,74.3727 454.097,78.706 453.5,83.5C 450.941,83.8016 448.607,83.4682 446.5,82.5C 447.919,81.5489 449.585,81.2155 451.5,81.5C 451.784,79.5853 451.451,77.9187 450.5,76.5C 449.209,76.2627 448.209,76.596 447.5,77.5C 446.732,78.2625 446.232,79.2625 446,80.5C 445.167,76.1638 447,74.1638 451.5,74.5C 451.5,73.1667 451.5,71.8333 451.5,70.5 Z"/></g>
<g><path style="opacity:1" fill="#bababa" d="M 451.5,70.5 C 452.601,69.4017 453.934,69.235 455.5,70C 454.378,73.4085 454.211,76.9085 455,80.5C 455.21,78.9419 455.71,77.6085 456.5,76.5C 456.166,79.188 456.832,81.5214 458.5,83.5C 456.833,82.1667 455.167,82.1667 453.5,83.5C 454.097,78.706 453.43,74.3727 451.5,70.5 Z"/></g>
<g><path style="opacity:1" fill="#000000" d="M 471.5,70.5 C 473.43,74.3727 474.097,78.706 473.5,83.5C 471.57,79.6273 470.903,75.294 471.5,70.5 Z"/></g>
<g><path style="opacity:1" fill="#b6b6b6" d="M 471.5,70.5 C 472.601,69.4017 473.934,69.235 475.5,70C 474.446,71.3876 474.28,72.8876 475,74.5C 475.377,73.0577 476.21,72.0577 477.5,71.5C 477.322,72.6948 476.989,73.8615 476.5,75C 476.836,76.0299 477.503,76.5299 478.5,76.5C 477.432,77.4345 476.099,77.7678 474.5,77.5C 474.795,79.7354 474.461,81.7354 473.5,83.5C 474.097,78.706 473.43,74.3727 471.5,70.5 Z"/></g>
<g><path style="opacity:1" fill="#121212" d="M 518.5,70.5 C 520.43,74.3727 521.097,78.706 520.5,83.5C 518.57,79.6273 517.903,75.294 518.5,70.5 Z"/></g>
<g><path style="opacity:1" fill="#6f6f6f" d="M 518.5,70.5 C 519.209,69.596 520.209,69.2627 521.5,69.5C 521.819,74.3633 521.486,79.03 520.5,83.5C 521.097,78.706 520.43,74.3727 518.5,70.5 Z"/></g>
<g><path style="opacity:1" fill="#171717" d="M 477.5,71.5 C 478.376,71.3691 479.043,71.7025 479.5,72.5C 478.754,73.7362 478.421,75.0695 478.5,76.5C 477.503,76.5299 476.836,76.0299 476.5,75C 476.989,73.8615 477.322,72.6948 477.5,71.5 Z"/></g>
<g><path style="opacity:1" fill="#a6a6a6" d="M 359.5,74.5 C 358.209,73.4583 358.209,72.2917 359.5,71C 357.934,70.7003 356.601,71.2003 355.5,72.5C 356.048,69.9162 357.715,68.9162 360.5,69.5C 360.371,71.2161 360.038,72.8828 359.5,74.5 Z"/></g>
<g><path style="opacity:1" fill="#5b5b5b" d="M 451.5,70.5 C 451.5,71.8333 451.5,73.1667 451.5,74.5C 447,74.1638 445.167,76.1638 446,80.5C 446.232,79.2625 446.732,78.2625 447.5,77.5C 447.5,78.5 447.5,79.5 447.5,80.5C 448.5,80.5 449.5,80.5 450.5,80.5C 450.5,79.1667 450.5,77.8333 450.5,76.5C 451.451,77.9187 451.784,79.5853 451.5,81.5C 449.585,81.2155 447.919,81.5489 446.5,82.5C 445.883,82.3893 445.383,82.056 445,81.5C 443.178,76.1707 445.011,73.504 450.5,73.5C 450.263,72.209 450.596,71.209 451.5,70.5 Z"/></g>
<g><path style="opacity:1" fill="#616161" d="M 497.5,74.5 C 495.167,74.5 492.833,74.5 490.5,74.5C 490.5,77.5 490.5,80.5 490.5,83.5C 489.833,83.5 489.5,83.1667 489.5,82.5C 489.5,79.8333 489.5,77.1667 489.5,74.5C 492.167,73.1667 494.833,73.1667 497.5,74.5 Z"/></g>
<g><path style="opacity:1" fill="#252526" d="M 136.5,76.5 C 134.821,76.7148 133.821,76.0481 133.5,74.5C 134.751,72.439 136.418,72.1057 138.5,73.5C 137.807,74.5178 137.141,75.5178 136.5,76.5 Z"/></g>
<g><path style="opacity:1" fill="#272727" d="M 351.5,73.5 C 350.094,73.9731 349.427,74.9731 349.5,76.5C 347.035,74.9314 347.202,73.2647 350,71.5C 351.03,71.8361 351.53,72.5028 351.5,73.5 Z"/></g>
<g><path style="opacity:1" fill="#b9b9b9" d="M 382.5,73.5 C 382.5,73.8333 382.5,74.1667 382.5,74.5C 382.5,77.5 382.5,80.5 382.5,83.5C 381.298,82.5946 379.964,82.5946 378.5,83.5C 380.226,81.1799 380.893,78.5133 380.5,75.5C 381.167,74.8333 381.833,74.1667 382.5,73.5 Z"/></g>
<g><path style="opacity:1" fill="#010201" d="M 382.5,74.5 C 384.388,76.9878 385.055,79.9878 384.5,83.5C 383.833,83.5 383.167,83.5 382.5,83.5C 382.5,80.5 382.5,77.5 382.5,74.5 Z"/></g>
<g><path style="opacity:1" fill="#292929" d="M 394.5,73.5 C 400.801,73.2877 403.134,76.121 401.5,82C 392.899,84.559 390.565,81.7257 394.5,73.5 Z"/></g>
<g><path style="opacity:1" fill="#2b2b2b" d="M 417.5,74.5 C 419.177,77.9271 418.844,80.9271 416.5,83.5C 415.532,81.3926 415.198,79.0593 415.5,76.5C 414.5,76.5 413.5,76.5 412.5,76.5C 412.5,78.8333 412.5,81.1667 412.5,83.5C 411.5,83.5 410.5,83.5 409.5,83.5C 408.833,74.1667 408.167,74.1667 407.5,83.5C 406.5,83.5 405.5,83.5 404.5,83.5C 404.5,80.1667 404.5,76.8333 404.5,73.5C 409.039,74.1835 413.372,74.5168 417.5,74.5 Z"/></g>
<g><path style="opacity:1" fill="#b2b2b2" d="M 421.5,70.5 C 422.167,73.1667 422.833,73.1667 423.5,70.5C 424.167,72.1667 424.833,73.8333 425.5,75.5C 425.107,78.5133 425.774,81.1799 427.5,83.5C 426.036,82.5946 424.702,82.5946 423.5,83.5C 421.167,84.8333 418.833,84.8333 416.5,83.5C 418.844,80.9271 419.177,77.9271 417.5,74.5C 419.237,77.008 420.07,80.008 420,83.5C 420.175,78.9805 420.675,74.6472 421.5,70.5 Z"/></g>
<g><path style="opacity:1" fill="#050505" d="M 423.5,83.5 C 422.223,82.3064 421.556,80.6397 421.5,78.5C 421.833,76.8333 422.167,75.1667 422.5,73.5C 423.487,76.7683 423.82,80.1016 423.5,83.5 Z"/></g>
<g><path style="opacity:1" fill="#101010" d="M 421.5,70.5 C 422.167,70.5 422.833,70.5 423.5,70.5C 422.833,73.1667 422.167,73.1667 421.5,70.5 Z"/></g>
<g><path style="opacity:1" fill="#404040" d="M 482.5,74.5 C 484.05,73.2801 485.716,73.2801 487.5,74.5C 487.5,74.8333 487.5,75.1667 487.5,75.5C 486.596,76.209 486.263,77.209 486.5,78.5C 482.473,78.7192 481.806,77.5525 484.5,75C 483.906,74.5357 483.239,74.369 482.5,74.5 Z"/></g>
<g><path style="opacity:1" fill="#161616" d="M 503.5,74.5 C 504.403,77.3915 504.736,80.3915 504.5,83.5C 502.656,81.7211 501.99,79.3878 502.5,76.5C 501.167,76.5 499.833,76.5 498.5,76.5C 497.833,85.8333 497.167,85.8333 496.5,76.5C 495.167,76.5 493.833,76.5 492.5,76.5C 493.01,79.3878 492.344,81.7211 490.5,83.5C 490.5,80.5 490.5,77.5 490.5,74.5C 492.833,74.5 495.167,74.5 497.5,74.5C 499.611,73.2584 501.611,73.2584 503.5,74.5 Z"/></g>
<g><path style="opacity:1" fill="#9d9d9d" d="M 506.5,73.5 C 506.5,73.8333 506.5,74.1667 506.5,74.5C 506.5,79.1667 506.5,83.8333 506.5,88.5C 505.833,86.8333 505.167,85.1667 504.5,83.5C 504.736,80.3915 504.403,77.3915 503.5,74.5C 504.609,74.4431 505.609,74.1098 506.5,73.5 Z"/></g>
<g><path style="opacity:1" fill="#080808" d="M 506.5,74.5 C 508.527,74.3379 510.527,74.5045 512.5,75C 511.263,75.2321 510.263,75.7321 509.5,76.5C 507.716,79.8081 508.716,81.4747 512.5,81.5C 513.492,81.3284 514.158,81.6618 514.5,82.5C 512.621,83.3414 510.621,83.6747 508.5,83.5C 508.923,85.7812 508.256,87.4479 506.5,88.5C 506.5,83.8333 506.5,79.1667 506.5,74.5 Z"/></g>
<g><path style="opacity:1" fill="#444444" d="M 533.5,69.5 C 534.5,69.5 535.5,69.5 536.5,69.5C 536.5,74.1667 536.5,78.8333 536.5,83.5C 535.5,83.5 534.5,83.5 533.5,83.5C 533.5,78.8333 533.5,74.1667 533.5,69.5 Z"/></g>
<g><path style="opacity:1" fill="#1b1b1b" d="M 323.5,70.5 C 325.43,74.3727 326.097,78.706 325.5,83.5C 317.576,84.754 315.076,81.754 318,74.5C 319.699,73.5939 321.533,73.2606 323.5,73.5C 323.5,72.5 323.5,71.5 323.5,70.5 Z"/></g>
<g><path style="opacity:1" fill="#202020" d="M 359.5,74.5 C 362.565,73.6713 365.898,73.6713 369.5,74.5C 367.4,75.8297 365.4,77.3297 363.5,79C 364.333,81.5 365.833,82 368,80.5C 369.728,81.3523 369.895,82.3523 368.5,83.5C 366.379,83.6747 364.379,83.3414 362.5,82.5C 362.126,80.0503 360.626,79.0503 358,79.5C 356.833,79.8333 355.667,80.1667 354.5,80.5C 356.631,81.1687 358.631,81.8354 360.5,82.5C 357.263,84.0146 354.263,83.6813 351.5,81.5C 351.325,79.3792 351.659,77.3792 352.5,75.5C 353.306,74.2719 354.306,73.2719 355.5,72.5C 356.601,71.2003 357.934,70.7003 359.5,71C 358.209,72.2917 358.209,73.4583 359.5,74.5 Z"/></g>
<g><path style="opacity:1" fill="#434343" d="M 427.5,74.5 C 430.113,73.0073 432.113,73.6739 433.5,76.5C 431.989,77.5025 430.322,78.1692 428.5,78.5C 428.5,77.5 428.5,76.5 428.5,75.5C 432.172,74.9553 431.838,74.6219 427.5,74.5 Z"/></g>
<g><path style="opacity:1" fill="#1b1b1b" d="M 463.5,74.5 C 464.301,76.0418 464.634,77.7085 464.5,79.5C 456.526,80.0155 456.526,80.8488 464.5,82C 463.944,82.3826 463.611,82.8826 463.5,83.5C 461.833,83.5 460.167,83.5 458.5,83.5C 456.832,81.5214 456.166,79.188 456.5,76.5C 458.265,73.5512 460.598,72.8846 463.5,74.5 Z"/></g>
<g><path style="opacity:1" fill="#2d2d2d" d="M 382.5,74.5 C 382.5,74.1667 382.5,73.8333 382.5,73.5C 390.336,72.3398 393.336,75.6732 391.5,83.5C 390.5,83.5 389.5,83.5 388.5,83.5C 388.5,81.1667 388.5,78.8333 388.5,76.5C 387.5,76.5 386.5,76.5 385.5,76.5C 385.802,79.0593 385.468,81.3926 384.5,83.5C 385.055,79.9878 384.388,76.9878 382.5,74.5 Z"/></g>
<g><path style="opacity:1" fill="#e4e4e4" d="M 395.5,76.5 C 399.161,76.3501 400.161,77.8501 398.5,81C 397.551,81.6172 396.718,81.4506 396,80.5C 395.51,79.2068 395.343,77.8734 395.5,76.5 Z"/></g>
<g><path style="opacity:1" fill="#d9d9d9" d="M 509.5,76.5 C 513.284,76.5253 514.284,78.1919 512.5,81.5C 508.716,81.4747 507.716,79.8081 509.5,76.5 Z"/></g>
<g><path style="opacity:1" fill="#d3d3d3" d="M 319.5,76.5 C 320.833,76.5 322.167,76.5 323.5,76.5C 323.99,78.9484 323.157,80.615 321,81.5C 318.389,80.5001 317.889,78.8334 319.5,76.5 Z"/></g>
<g><path style="opacity:1" fill="#1e1e1e" d="M 337.5,79.5 C 329.114,79.7724 328.78,80.6058 336.5,82C 335.944,82.3826 335.611,82.8826 335.5,83.5C 327.56,84.0625 325.56,80.8959 329.5,74C 334.25,72.9283 336.917,74.7617 337.5,79.5 Z"/></g>
<g><path style="opacity:1" fill="#a5a5a5" d="M 351.5,73.5 C 351.328,74.4916 351.662,75.1583 352.5,75.5C 351.659,77.3792 351.325,79.3792 351.5,81.5C 350.833,79.8333 350.167,78.1667 349.5,76.5C 349.427,74.9731 350.094,73.9731 351.5,73.5 Z"/></g>
<g><path style="opacity:1" fill="#0e0e0e" d="M 427.5,74.5 C 431.838,74.6219 432.172,74.9553 428.5,75.5C 428.5,76.5 428.5,77.5 428.5,78.5C 430.322,78.1692 431.989,77.5025 433.5,76.5C 433.5,77.5 433.5,78.5 433.5,79.5C 425.5,80.1667 425.5,80.8333 433.5,81.5C 432.01,83.2798 430.01,83.9465 427.5,83.5C 425.774,81.1799 425.107,78.5133 425.5,75.5C 426.167,75.1667 426.833,74.8333 427.5,74.5 Z"/></g>
<g><path style="opacity:1" fill="#ebebeb" d="M 450.5,76.5 C 450.5,77.8333 450.5,79.1667 450.5,80.5C 449.5,80.5 448.5,80.5 447.5,80.5C 447.5,79.5 447.5,78.5 447.5,77.5C 448.209,76.596 449.209,76.2627 450.5,76.5 Z"/></g>
<g><path style="opacity:1" fill="#161617" d="M 180.5,78.5 C 184.942,78.0321 188.942,79.0321 192.5,81.5C 196.698,93.642 192.364,98.9753 179.5,97.5C 177.721,96.6064 176.388,95.273 175.5,93.5C 174.08,89.3533 174.413,85.3533 176.5,81.5C 177.262,79.7376 178.596,78.7376 180.5,78.5 Z"/></g>
<g><path style="opacity:1" fill="#5b5b5c" d="M 180.5,78.5 C 184.074,77.2262 187.741,77.3929 191.5,79C 192.252,79.6708 192.586,80.5041 192.5,81.5C 188.942,79.0321 184.942,78.0321 180.5,78.5 Z"/></g>
<g><path style="opacity:1" fill="#2e2e2e" d="M 506.5,74.5 C 506.5,74.1667 506.5,73.8333 506.5,73.5C 511.487,72.3081 514.82,73.9747 516.5,78.5C 516.66,80.3545 515.993,81.6879 514.5,82.5C 514.158,81.6618 513.492,81.3284 512.5,81.5C 514.284,78.1919 513.284,76.5253 509.5,76.5C 510.263,75.7321 511.263,75.2321 512.5,75C 510.527,74.5045 508.527,74.3379 506.5,74.5 Z"/></g>
<g><path style="opacity:1" fill="#9e9e9f" d="M 30.5,78.5 C 27.1667,78.5 23.8333,78.5 20.5,78.5C 20.5,84.8333 20.5,91.1667 20.5,97.5C 19.5093,91.021 19.176,84.3543 19.5,77.5C 23.3714,77.185 27.0381,77.5184 30.5,78.5 Z"/></g>
<g><path style="opacity:1" fill="#1c1c1d" d="M 30.5,78.5 C 38.0837,81.0101 40.2504,86.0101 37,93.5C 32.2338,98.3145 26.7338,99.6478 20.5,97.5C 20.5,91.1667 20.5,84.8333 20.5,78.5C 23.8333,78.5 27.1667,78.5 30.5,78.5 Z"/></g>
<g><path style="opacity:1" fill="#171718" d="M 53.5,94.5 C 53.5,95.5 53.5,96.5 53.5,97.5C 49.8333,97.5 46.1667,97.5 42.5,97.5C 42.5,91.1667 42.5,84.8333 42.5,78.5C 46.1667,78.5 49.8333,78.5 53.5,78.5C 53.5,79.5 53.5,80.5 53.5,81.5C 51.1667,81.5 48.8333,81.5 46.5,81.5C 46.5,83.1667 46.5,84.8333 46.5,86.5C 48.8333,86.5 51.1667,86.5 53.5,86.5C 53.5,87.5 53.5,88.5 53.5,89.5C 51.1667,89.5 48.8333,89.5 46.5,89.5C 46.5,91.1667 46.5,92.8333 46.5,94.5C 48.8333,94.5 51.1667,94.5 53.5,94.5 Z"/></g>
<g><path style="opacity:1" fill="#c8c8c8" d="M 66.5,77.5 C 66.5,77.8333 66.5,78.1667 66.5,78.5C 65.5093,84.979 65.176,91.6457 65.5,98.5C 69.5,98.5 73.5,98.5 77.5,98.5C 73.3656,99.4849 69.0323,99.8182 64.5,99.5C 63.8701,91.7572 64.5367,84.4238 66.5,77.5 Z"/></g>
<g><path style="opacity:1" fill="#585858" d="M 66.5,78.5 C 66.5,84.8333 66.5,91.1667 66.5,97.5C 69.8984,97.8204 73.2317,97.487 76.5,96.5C 73.7051,96.0615 71.3717,95.0615 69.5,93.5C 69.8333,93.5 70.1667,93.5 70.5,93.5C 72.8333,93.5 75.1667,93.5 77.5,93.5C 77.5,95.1667 77.5,96.8333 77.5,98.5C 73.5,98.5 69.5,98.5 65.5,98.5C 65.176,91.6457 65.5093,84.979 66.5,78.5 Z"/></g>
<g><path style="opacity:1" fill="#070708" d="M 66.5,78.5 C 67.5,78.5 68.5,78.5 69.5,78.5C 69.5,83.5 69.5,88.5 69.5,93.5C 71.3717,95.0615 73.7051,96.0615 76.5,96.5C 73.2317,97.487 69.8984,97.8204 66.5,97.5C 66.5,91.1667 66.5,84.8333 66.5,78.5 Z"/></g>
<g><path style="opacity:1" fill="#898989" d="M 66.5,78.5 C 66.5,78.1667 66.5,77.8333 66.5,77.5C 67.8333,77.5 69.1667,77.5 70.5,77.5C 70.5,82.8333 70.5,88.1667 70.5,93.5C 70.1667,93.5 69.8333,93.5 69.5,93.5C 69.5,88.5 69.5,83.5 69.5,78.5C 68.5,78.5 67.5,78.5 66.5,78.5 Z"/></g>
<g><path style="opacity:1" fill="#151516" d="M 93.5,82.5 C 93.7549,84.9674 94.7549,86.9674 96.5,88.5C 96.7959,90.403 97.4625,92.0697 98.5,93.5C 98.5,94.8333 98.5,96.1667 98.5,97.5C 96.8007,97.4729 95.4674,96.8062 94.5,95.5C 93.8333,95.5 93.5,95.1667 93.5,94.5C 92.6661,93.2521 91.3328,92.5854 89.5,92.5C 86.159,91.8431 84.159,93.1765 83.5,96.5C 82.675,97.3857 81.675,97.719 80.5,97.5C 80.5,96.5 80.5,95.5 80.5,94.5C 82.0337,89.4196 84.0337,84.4196 86.5,79.5C 88.5,78.1667 90.5,78.1667 92.5,79.5C 93.1272,80.4168 93.4606,81.4168 93.5,82.5 Z"/></g>
<g><path style="opacity:1" fill="#636363" d="M 110.5,78.5 C 110.5,84.8333 110.5,91.1667 110.5,97.5C 111.5,97.5 112.5,97.5 113.5,97.5C 112.432,98.4345 111.099,98.7678 109.5,98.5C 109.176,91.6457 109.509,84.979 110.5,78.5 Z"/></g>
<g><path style="opacity:1" fill="#111112" d="M 110.5,78.5 C 120.746,76.8923 124.079,80.7256 120.5,90C 122.016,92.0242 123.349,94.1909 124.5,96.5C 120.626,96.6862 117.96,94.6862 116.5,90.5C 115.791,89.596 114.791,89.2627 113.5,89.5C 113.5,92.1667 113.5,94.8333 113.5,97.5C 112.5,97.5 111.5,97.5 110.5,97.5C 110.5,91.1667 110.5,84.8333 110.5,78.5 Z"/></g>
<g><path style="opacity:1" fill="#161617" d="M 128.5,78.5 C 132.167,78.5 135.833,78.5 139.5,78.5C 139.5,79.5 139.5,80.5 139.5,81.5C 137.167,81.5 134.833,81.5 132.5,81.5C 132.5,83.1667 132.5,84.8333 132.5,86.5C 134.5,86.5 136.5,86.5 138.5,86.5C 138.5,87.5 138.5,88.5 138.5,89.5C 136.5,89.5 134.5,89.5 132.5,89.5C 132.5,91.1667 132.5,92.8333 132.5,94.5C 134.833,94.5 137.167,94.5 139.5,94.5C 139.5,95.5 139.5,96.5 139.5,97.5C 135.833,97.5 132.167,97.5 128.5,97.5C 128.5,91.1667 128.5,84.8333 128.5,78.5 Z"/></g>
<g><path style="opacity:1" fill="#060607" d="M 166.5,78.5 C 167.5,78.5 168.5,78.5 169.5,78.5C 169.5,84.8333 169.5,91.1667 169.5,97.5C 168.5,97.5 167.5,97.5 166.5,97.5C 166.5,91.1667 166.5,84.8333 166.5,78.5 Z"/></g>
<g><path style="opacity:1" fill="#8e8e8e" d="M 166.5,78.5 C 167.568,77.5655 168.901,77.2322 170.5,77.5C 170.824,84.3543 170.491,91.021 169.5,97.5C 169.5,91.1667 169.5,84.8333 169.5,78.5C 168.5,78.5 167.5,78.5 166.5,78.5 Z"/></g>
<g><path style="opacity:1" fill="#bcbcbc" d="M 203.5,78.5 C 201.833,78.5 200.167,78.5 198.5,78.5C 198.5,84.8333 198.5,91.1667 198.5,97.5C 197.509,91.021 197.176,84.3543 197.5,77.5C 199.735,77.2053 201.735,77.5386 203.5,78.5 Z"/></g>
<g><path style="opacity:1" fill="#3e3e3e" d="M 203.5,78.5 C 204.906,78.9731 205.573,79.9731 205.5,81.5C 203.858,79.9192 201.858,79.2525 199.5,79.5C 199.5,85.5 199.5,91.5 199.5,97.5C 200.5,97.5 201.5,97.5 202.5,97.5C 201.432,98.4345 200.099,98.7678 198.5,98.5C 198.5,98.1667 198.5,97.8333 198.5,97.5C 198.5,91.1667 198.5,84.8333 198.5,78.5C 200.167,78.5 201.833,78.5 203.5,78.5 Z"/></g>
<g><path style="opacity:1" fill="#0f0f0f" d="M 205.5,81.5 C 206.82,83.4632 208.154,85.4632 209.5,87.5C 210.122,88.6266 210.955,89.6266 212,90.5C 212.499,86.8484 212.665,83.1817 212.5,79.5C 213.5,79.5 214.5,79.5 215.5,79.5C 215.5,85.5 215.5,91.5 215.5,97.5C 214.167,97.5 212.833,97.5 211.5,97.5C 210.167,95.8333 208.833,94.1667 207.5,92.5C 206.52,89.8839 205.02,87.5506 203,85.5C 202.501,89.4862 202.334,93.4862 202.5,97.5C 201.5,97.5 200.5,97.5 199.5,97.5C 199.5,91.5 199.5,85.5 199.5,79.5C 201.858,79.2525 203.858,79.9192 205.5,81.5 Z"/></g>
<g><path style="opacity:1" fill="#4a4a4b" d="M 212.5,79.5 C 213.568,78.5655 214.901,78.2322 216.5,78.5C 216.5,84.8333 216.5,91.1667 216.5,97.5C 214.833,98.8333 213.167,98.8333 211.5,97.5C 212.833,97.5 214.167,97.5 215.5,97.5C 215.5,91.5 215.5,85.5 215.5,79.5C 214.5,79.5 213.5,79.5 212.5,79.5 Z"/></g>
<g><path style="opacity:1" fill="#bdbdbd" d="M 216.5,97.5 C 216.5,91.1667 216.5,84.8333 216.5,78.5C 214.901,78.2322 213.568,78.5655 212.5,79.5C 212.665,83.1817 212.499,86.8484 212,90.5C 210.955,89.6266 210.122,88.6266 209.5,87.5C 211.402,84.6627 212.069,81.3293 211.5,77.5C 213.5,77.5 215.5,77.5 217.5,77.5C 217.824,84.3543 217.491,91.021 216.5,97.5 Z"/></g>
<g><path style="opacity:1" fill="#c2c2c2" d="M 369.5,74.5 C 370.391,75.1098 371.391,75.4431 372.5,75.5C 371.659,77.3792 371.325,79.3792 371.5,81.5C 370.778,82.5511 369.778,83.2178 368.5,83.5C 369.895,82.3523 369.728,81.3523 368,80.5C 365.833,82 364.333,81.5 363.5,79C 365.4,77.3297 367.4,75.8297 369.5,74.5 Z"/></g>
<g><path style="opacity:1" fill="#1b1b1c" d="M 159.5,83.5 C 156.972,82.9886 154.472,82.3219 152,81.5C 148.331,82.2488 146.498,84.5821 146.5,88.5C 147.651,94.0913 150.984,95.9246 156.5,94C 157.38,92.6439 157.714,91.1439 157.5,89.5C 155.833,89.5 154.167,89.5 152.5,89.5C 152.5,88.5 152.5,87.5 152.5,86.5C 155.5,86.5 158.5,86.5 161.5,86.5C 162.417,96.0775 158.084,99.9108 148.5,98C 142.891,94.7231 141.058,89.8897 143,83.5C 145.919,77.9752 150.419,76.1419 156.5,78C 158.081,78.7065 159.581,79.5399 161,80.5C 161.239,81.788 160.739,82.788 159.5,83.5 Z"/></g>
<g><path style="opacity:1" fill="#898989" d="M 337.5,79.5 C 337.843,81.4832 337.176,82.8166 335.5,83.5C 335.611,82.8826 335.944,82.3826 336.5,82C 328.78,80.6058 329.114,79.7724 337.5,79.5 Z"/></g>
<g><path style="opacity:1" fill="#7b7b7b" d="M 362.5,82.5 C 361.833,82.5 361.167,82.5 360.5,82.5C 358.631,81.8354 356.631,81.1687 354.5,80.5C 355.667,80.1667 356.833,79.8333 358,79.5C 360.626,79.0503 362.126,80.0503 362.5,82.5 Z"/></g>
<g><path style="opacity:1" fill="#818181" d="M 433.5,79.5 C 433.5,80.1667 433.5,80.8333 433.5,81.5C 425.5,80.8333 425.5,80.1667 433.5,79.5 Z"/></g>
<g><path style="opacity:1" fill="#b3b3b3" d="M 487.5,75.5 C 487.5,75.1667 487.5,74.8333 487.5,74.5C 488.167,74.5 488.833,74.5 489.5,74.5C 489.5,77.1667 489.5,79.8333 489.5,82.5C 489.167,82.5 488.833,82.5 488.5,82.5C 486.631,81.8354 484.631,81.1687 482.5,80.5C 484.396,79.5344 486.396,79.2011 488.5,79.5C 488.768,77.901 488.434,76.5676 487.5,75.5 Z"/></g>
<g><path style="opacity:1" fill="#272727" d="M 524.5,73.5 C 530.801,73.2877 533.134,76.121 531.5,82C 522.899,84.559 520.565,81.7257 524.5,73.5 Z"/></g>
<g><path style="opacity:1" fill="#d1d1d1" d="M 525.5,76.5 C 529.161,76.3501 530.161,77.8501 528.5,81C 524.707,81.4866 523.707,79.9866 525.5,76.5 Z"/></g>
<g><path style="opacity:1" fill="#1a1a1a" d="M 380.5,75.5 C 380.893,78.5133 380.226,81.1799 378.5,83.5C 375.812,83.8342 373.479,83.1675 371.5,81.5C 371.325,79.3792 371.659,77.3792 372.5,75.5C 375.045,72.9252 377.712,72.9252 380.5,75.5 Z"/></g>
<g><path style="opacity:1" fill="#d1d1d1" d="M 374.5,76.5 C 378.161,76.3501 379.161,77.8501 377.5,81C 373.707,81.4866 372.707,79.9866 374.5,76.5 Z"/></g>
<g><path style="opacity:1" fill="#171717" d="M 482.5,74.5 C 483.239,74.369 483.906,74.5357 484.5,75C 481.806,77.5525 482.473,78.7192 486.5,78.5C 486.263,77.209 486.596,76.209 487.5,75.5C 488.434,76.5676 488.768,77.901 488.5,79.5C 486.396,79.2011 484.396,79.5344 482.5,80.5C 484.631,81.1687 486.631,81.8354 488.5,82.5C 482.389,84.7153 479.556,82.7153 480,76.5C 480.708,75.6195 481.542,74.9528 482.5,74.5 Z"/></g>
<g><path style="opacity:1" fill="#b5b5b5" d="M 133.5,74.5 C 133.821,76.0481 134.821,76.7148 136.5,76.5C 137.568,77.4345 138.901,77.7678 140.5,77.5C 140.5,79.5 140.5,81.5 140.5,83.5C 138.143,83.3367 135.81,83.5034 133.5,84C 135.744,84.0496 137.411,84.8829 138.5,86.5C 136.5,86.5 134.5,86.5 132.5,86.5C 132.5,84.8333 132.5,83.1667 132.5,81.5C 134.833,81.5 137.167,81.5 139.5,81.5C 139.5,80.5 139.5,79.5 139.5,78.5C 135.833,78.5 132.167,78.5 128.5,78.5C 129.568,77.5655 130.901,77.2322 132.5,77.5C 132.263,76.209 132.596,75.209 133.5,74.5 Z"/></g>
<g><path style="opacity:1" fill="#9f9f9f" d="M 463.5,74.5 C 464.765,75.5145 465.431,77.0145 465.5,79C 465.431,80.9855 464.765,82.4855 463.5,83.5C 463.611,82.8826 463.944,82.3826 464.5,82C 456.526,80.8488 456.526,80.0155 464.5,79.5C 464.634,77.7085 464.301,76.0418 463.5,74.5 Z"/></g>
<g><path style="opacity:1" fill="#929293" d="M 25.5,82.5 C 25.5,86.1667 25.5,89.8333 25.5,93.5C 27.1667,93.5 28.8333,93.5 30.5,93.5C 28.7354,94.4614 26.7354,94.7947 24.5,94.5C 24.1832,90.2984 24.5166,86.2984 25.5,82.5 Z"/></g>
<g><path style="opacity:1" fill="#f2f2f2" d="M 25.5,82.5 C 31.8302,81.6662 34.6635,84.3329 34,90.5C 32.9609,91.7101 31.7942,92.7101 30.5,93.5C 28.8333,93.5 27.1667,93.5 25.5,93.5C 25.5,89.8333 25.5,86.1667 25.5,82.5 Z"/></g>
<g><path style="opacity:1" fill="#7f7f7f" d="M 117.5,82.5 C 116.5,82.5 115.5,82.5 114.5,82.5C 114.5,83.8333 114.5,85.1667 114.5,86.5C 113.549,85.0813 113.216,83.4147 113.5,81.5C 115.099,81.2322 116.432,81.5655 117.5,82.5 Z"/></g>
<g><path style="opacity:1" fill="#dadada" d="M 117.5,82.5 C 119.035,85.3298 118.035,86.6631 114.5,86.5C 114.5,85.1667 114.5,83.8333 114.5,82.5C 115.5,82.5 116.5,82.5 117.5,82.5 Z"/></g>
<g><path style="opacity:1" fill="#d9d9d9" d="M 159.5,83.5 C 159.389,84.1174 159.056,84.6174 158.5,85C 159.737,85.2321 160.737,85.7321 161.5,86.5C 158.5,86.5 155.5,86.5 152.5,86.5C 152.5,87.5 152.5,88.5 152.5,89.5C 154.167,89.5 155.833,89.5 157.5,89.5C 157.714,91.1439 157.38,92.6439 156.5,94C 150.984,95.9246 147.651,94.0913 146.5,88.5C 146.498,84.5821 148.331,82.2488 152,81.5C 154.472,82.3219 156.972,82.9886 159.5,83.5 Z"/></g>
<g><path style="opacity:1" fill="#f6f6f6" d="M 189.5,90.5 C 187.397,94.3452 184.397,95.3452 180.5,93.5C 179.3,90.2977 179.3,87.1311 180.5,84C 186.82,81.8361 189.82,84.0028 189.5,90.5 Z"/></g>
<g><path style="opacity:1" fill="#959595" d="M 436.5,81.5 C 436.322,82.6948 435.989,83.8615 435.5,85C 435.836,86.0299 436.503,86.5299 437.5,86.5C 436.791,87.404 435.791,87.7373 434.5,87.5C 434.054,84.9899 434.72,82.9899 436.5,81.5 Z"/></g>
<g><path style="opacity:1" fill="#c2c2c2" d="M 53.5,94.5 C 51.1667,94.5 48.8333,94.5 46.5,94.5C 46.5,92.8333 46.5,91.1667 46.5,89.5C 48.8333,89.5 51.1667,89.5 53.5,89.5C 53.5,88.5 53.5,87.5 53.5,86.5C 51.1667,86.5 48.8333,86.5 46.5,86.5C 46.5,84.8333 46.5,83.1667 46.5,81.5C 48.8333,81.5 51.1667,81.5 53.5,81.5C 53.5,80.5 53.5,79.5 53.5,78.5C 49.8333,78.5 46.1667,78.5 42.5,78.5C 42.5,84.8333 42.5,91.1667 42.5,97.5C 45.9619,98.4816 49.6286,98.815 53.5,98.5C 49.4336,99.822 45.2669,99.822 41,98.5C 40.5004,91.5079 40.3337,84.5079 40.5,77.5C 45.5,77.5 50.5,77.5 55.5,77.5C 55.5,79.1667 55.5,80.8333 55.5,82.5C 52.7531,82.1866 50.0865,82.52 47.5,83.5C 49.4233,84.3078 51.4233,84.8078 53.5,85C 54.4061,86.6995 54.7394,88.5328 54.5,90.5C 52.1667,90.5 49.8333,90.5 47.5,90.5C 47.5,91.5 47.5,92.5 47.5,93.5C 49.7354,93.2053 51.7354,93.5386 53.5,94.5 Z"/></g>
<g><path style="opacity:1" fill="#212121" d="M 436.5,81.5 C 437.497,81.4701 438.164,81.9701 438.5,83C 438.011,84.1385 437.678,85.3052 437.5,86.5C 436.503,86.5299 435.836,86.0299 435.5,85C 435.989,83.8615 436.322,82.6948 436.5,81.5 Z"/></g>
<g><path style="opacity:1" fill="#b3b3b4" d="M 88.5,83.5 C 90.9689,84.6067 91.9689,86.6067 91.5,89.5C 90.1667,89.5 88.8333,89.5 87.5,89.5C 87.5172,87.4352 87.8505,85.4352 88.5,83.5 Z"/></g>
<g><path style="opacity:1" fill="#3e3e3e" d="M 538.5,81.5 C 539.978,81.238 541.311,81.5713 542.5,82.5C 541.754,83.7362 541.421,85.0695 541.5,86.5C 540.5,86.5 539.5,86.5 538.5,86.5C 538.5,84.8333 538.5,83.1667 538.5,81.5 Z"/></g>
<g><path style="opacity:1" fill="#5a5a5b" d="M 176.5,81.5 C 174.413,85.3533 174.08,89.3533 175.5,93.5C 174.883,93.3893 174.383,93.056 174,92.5C 173.333,89.5 173.333,86.5 174,83.5C 174.417,82.244 175.25,81.5774 176.5,81.5 Z"/></g>
<g><path style="opacity:1" fill="#8e8e8e" d="M 93.5,82.5 C 95.2451,84.0326 96.2451,86.0326 96.5,88.5C 94.7549,86.9674 93.7549,84.9674 93.5,82.5 Z"/></g>
<g><path style="opacity:1" fill="#adadad" d="M 189.5,90.5 C 189.82,84.0028 186.82,81.8361 180.5,84C 179.3,87.1311 179.3,90.2977 180.5,93.5C 177.146,90.7179 176.646,87.3846 179,83.5C 182.936,80.686 186.603,81.0193 190,84.5C 190.789,86.7116 190.622,88.7116 189.5,90.5 Z"/></g>
<g><path style="opacity:1" fill="#cdcdcd" d="M 207.5,92.5 C 206.542,92.0472 205.708,91.3805 205,90.5C 204.782,93.4262 204.282,96.2595 203.5,99C 201.613,99.7796 199.946,99.6129 198.5,98.5C 200.099,98.7678 201.432,98.4345 202.5,97.5C 202.334,93.4862 202.501,89.4862 203,85.5C 205.02,87.5506 206.52,89.8839 207.5,92.5 Z"/></g>
<g><path style="opacity:1" fill="#7e7e7f" d="M 116.5,90.5 C 114.917,92.5078 113.917,94.8411 113.5,97.5C 113.5,94.8333 113.5,92.1667 113.5,89.5C 114.791,89.2627 115.791,89.596 116.5,90.5 Z"/></g>
<g><path style="opacity:1" fill="#121212" d="M 325.5,91.5 C 325.5,95.8333 325.5,100.167 325.5,104.5C 323.167,104.5 320.833,104.5 318.5,104.5C 316.35,102.078 316.017,99.4109 317.5,96.5C 319.698,96.1249 321.698,95.4582 323.5,94.5C 323.285,92.8212 323.952,91.8212 325.5,91.5 Z"/></g>
<g><path style="opacity:1" fill="#010101" d="M 392.5,91.5 C 394.43,95.3727 395.097,99.706 394.5,104.5C 392.57,100.627 391.903,96.294 392.5,91.5 Z"/></g>
<g><path style="opacity:1" fill="#000000" d="M 477.5,91.5 C 478.167,91.5 478.833,91.5 479.5,91.5C 480.097,96.294 479.43,100.627 477.5,104.5C 477.5,100.167 477.5,95.8333 477.5,91.5 Z"/></g>
<g><path style="opacity:1" fill="#1c1c1c" d="M 614.5,93.5 C 615.344,97.0991 615.677,100.766 615.5,104.5C 614.733,105.172 614.066,106.005 613.5,107C 612.668,107.688 612.002,107.521 611.5,106.5C 614.079,101.804 614.079,97.137 611.5,92.5C 612.86,91.3347 613.86,91.668 614.5,93.5 Z"/></g>
<g><path style="opacity:1" fill="#111111" d="M 557.5,92.5 C 561.516,91.8999 565.016,92.8999 568,95.5C 569.335,99.6081 568.168,102.608 564.5,104.5C 562.167,104.5 559.833,104.5 557.5,104.5C 557.5,100.5 557.5,96.5 557.5,92.5 Z"/></g>
<g><path style="opacity:1" fill="#0c0c0c" d="M 578.5,102.5 C 576.721,104.344 574.388,105.01 571.5,104.5C 571.5,100.5 571.5,96.5 571.5,92.5C 573.924,92.1924 576.257,92.5258 578.5,93.5C 576.955,94.4519 575.288,94.7852 573.5,94.5C 573.5,95.5 573.5,96.5 573.5,97.5C 578.833,98.1667 578.833,98.8333 573.5,99.5C 573.5,100.5 573.5,101.5 573.5,102.5C 575.167,102.5 576.833,102.5 578.5,102.5 Z"/></g>
<g><path style="opacity:1" fill="#0c0c0c" d="M 581.5,92.5 C 583.833,92.5 586.167,92.5 588.5,92.5C 587.448,94.256 585.781,94.9227 583.5,94.5C 583.263,95.791 583.596,96.791 584.5,97.5C 585.675,97.281 586.675,97.6143 587.5,98.5C 586.311,99.4287 584.978,99.762 583.5,99.5C 583.5,100.5 583.5,101.5 583.5,102.5C 585.781,102.077 587.448,102.744 588.5,104.5C 586.167,104.5 583.833,104.5 581.5,104.5C 581.5,100.5 581.5,96.5 581.5,92.5 Z"/></g>
<g><path style="opacity:1" fill="#0b0b0b" d="M 591.5,92.5 C 594.572,92.1826 597.572,92.5159 600.5,93.5C 599.398,94.1757 598.398,94.8423 597.5,95.5C 596.681,98.3054 596.181,101.305 596,104.5C 595.819,101.305 595.319,98.3054 594.5,95.5C 593.1,94.8999 592.1,93.8999 591.5,92.5 Z"/></g>
<g><path style="opacity:1" fill="#777777" d="M 323.5,94.5 C 321.698,95.4582 319.698,96.1249 317.5,96.5C 318.99,94.7202 320.99,94.0535 323.5,94.5 Z"/></g>
<g><path style="opacity:1" fill="#242424" d="M 347.5,94.5 C 348.551,95.2223 349.218,96.2223 349.5,97.5C 348.351,97.7911 347.684,98.6244 347.5,100C 347.684,101.376 348.351,102.209 349.5,102.5C 349.179,104.048 348.179,104.715 346.5,104.5C 345.883,104.389 345.383,104.056 345,103.5C 344.661,100.964 344.161,98.464 343.5,96C 344.375,92.5157 345.708,92.0157 347.5,94.5 Z"/></g>
<g><path style="opacity:1" fill="#111111" d="M 414.5,92.5 C 414.5,93.5 414.5,94.5 414.5,95.5C 415.5,95.5 416.5,95.5 417.5,95.5C 417.179,97.0481 416.179,97.7148 414.5,97.5C 414.5,99.1667 414.5,100.833 414.5,102.5C 415.675,102.281 416.675,102.614 417.5,103.5C 416.277,104.614 414.944,104.781 413.5,104C 412.883,101.723 412.216,99.5563 411.5,97.5C 411.557,96.391 411.89,95.391 412.5,94.5C 412.5,93.1667 413.167,92.5 414.5,92.5 Z"/></g>
<g><path style="opacity:1" fill="#848484" d="M 414.5,92.5 C 415.5,93.5 416.5,94.5 417.5,95.5C 416.5,95.5 415.5,95.5 414.5,95.5C 414.5,94.5 414.5,93.5 414.5,92.5 Z"/></g>
<g><path style="opacity:1" fill="#111111" d="M 523.5,94.5 C 524.551,95.2223 525.218,96.2223 525.5,97.5C 524.351,97.7911 523.684,98.6244 523.5,100C 523.684,101.376 524.351,102.209 525.5,102.5C 524.789,104.842 523.456,105.175 521.5,103.5C 521.84,100.856 521.173,98.5225 519.5,96.5C 520.5,95.1667 521.5,93.8333 522.5,92.5C 523.298,92.9569 523.631,93.6236 523.5,94.5 Z"/></g>
<g><path style="opacity:1" fill="#d0d0d0" d="M 552.5,92.5 C 553.999,91.506 555.666,91.506 557.5,92.5C 557.5,96.5 557.5,100.5 557.5,104.5C 559.833,104.5 562.167,104.5 564.5,104.5C 561.139,105.177 557.806,106.177 554.5,107.5C 553.842,104.844 553.175,102.178 552.5,99.5C 552.594,97.3115 553.261,95.3115 554.5,93.5C 554.043,92.7025 553.376,92.3691 552.5,92.5 Z"/></g>
<g><path style="opacity:1" fill="#afafaf" d="M 588.5,92.5 C 589.5,92.5 590.5,92.5 591.5,92.5C 592.1,93.8999 593.1,94.8999 594.5,95.5C 590.671,94.931 587.337,95.5977 584.5,97.5C 583.596,96.791 583.263,95.791 583.5,94.5C 585.781,94.9227 587.448,94.256 588.5,92.5 Z"/></g>
<g><path style="opacity:1" fill="#585858" d="M 331.5,102.5 C 330.686,100.369 330.186,98.0356 330,95.5C 329.503,98.146 329.336,100.813 329.5,103.5C 328.523,100.713 328.19,97.7131 328.5,94.5C 329.5,94.5 330.5,94.5 331.5,94.5C 331.5,97.1667 331.5,99.8333 331.5,102.5 Z"/></g>
<g><path style="opacity:1" fill="#686868" d="M 337.5,95.5 C 335.94,97.1561 334.94,99.1561 334.5,101.5C 334.5,99.1667 334.5,96.8333 334.5,94.5C 335.791,94.2627 336.791,94.596 337.5,95.5 Z"/></g>
<g><path style="opacity:1" fill="#a7a7a7" d="M 347.5,94.5 C 351.502,94.0357 355.169,94.7024 358.5,96.5C 359.952,97.3019 361.618,97.8019 363.5,98C 360.308,98.6966 358.308,100.53 357.5,103.5C 356.839,102.282 356.172,100.949 355.5,99.5C 354.83,101.291 354.163,102.958 353.5,104.5C 351.167,105.833 348.833,105.833 346.5,104.5C 348.179,104.715 349.179,104.048 349.5,102.5C 350.833,100.833 350.833,99.1667 349.5,97.5C 349.218,96.2223 348.551,95.2223 347.5,94.5 Z"/></g>
<g><path style="opacity:1" fill="#060606" d="M 353.5,104.5 C 351.612,102.012 350.945,99.0122 351.5,95.5C 353.288,95.2148 354.955,95.5481 356.5,96.5C 353.828,98.4255 352.828,101.092 353.5,104.5 Z"/></g>
<g><path style="opacity:1" fill="#aaaaaa" d="M 479.5,91.5 C 480.325,95.6472 480.825,99.9805 481,104.5C 481.175,99.9805 481.675,95.6472 482.5,91.5C 481.903,96.294 482.57,100.627 484.5,104.5C 482.167,105.833 479.833,105.833 477.5,104.5C 479.43,100.627 480.097,96.294 479.5,91.5 Z"/></g>
<g><path style="opacity:1" fill="#101010" d="M 482.5,91.5 C 483.167,91.5 483.833,91.5 484.5,91.5C 484.5,95.8333 484.5,100.167 484.5,104.5C 482.57,100.627 481.903,96.294 482.5,91.5 Z"/></g>
<g><path style="opacity:1" fill="#a0a0a0" d="M 484.5,91.5 C 485.167,93.5 485.833,95.5 486.5,97.5C 486.5,99.1667 486.5,100.833 486.5,102.5C 485.833,103.167 485.167,103.833 484.5,104.5C 484.5,100.167 484.5,95.8333 484.5,91.5 Z"/></g>
<g><path style="opacity:1" fill="#131313" d="M 508.5,95.5 C 510.781,95.0773 512.448,95.744 513.5,97.5C 512.508,97.3284 511.842,97.6618 511.5,98.5C 511.06,100.844 510.06,102.844 508.5,104.5C 508.5,101.5 508.5,98.5 508.5,95.5 Z"/></g>
<g><path style="opacity:1" fill="#282828" d="M 515.5,91.5 C 517.43,95.3727 518.097,99.706 517.5,104.5C 515.57,100.627 514.903,96.294 515.5,91.5 Z"/></g>
<g><path style="opacity:1" fill="#353535" d="M 534.5,91.5 C 533.167,93.1667 533.167,94.8333 534.5,96.5C 533.808,97.4859 532.641,98.4859 531,99.5C 529.862,99.0109 528.695,98.6775 527.5,98.5C 528.737,94.9917 531.07,92.6584 534.5,91.5 Z"/></g>
<g><path style="opacity:1" fill="#7f7f7f" d="M 563.5,95.5 C 562.5,95.5 561.5,95.5 560.5,95.5C 560.5,97.8333 560.5,100.167 560.5,102.5C 559.527,100.052 559.194,97.3854 559.5,94.5C 561.099,94.2322 562.432,94.5655 563.5,95.5 Z"/></g>
<g><path style="opacity:1" fill="#414141" d="M 594.5,95.5 C 595.319,98.3054 595.819,101.305 596,104.5C 596.181,101.305 596.681,98.3054 597.5,95.5C 597.5,98.8333 597.5,102.167 597.5,105.5C 596.5,105.5 595.5,105.5 594.5,105.5C 594.5,102.167 594.5,98.8333 594.5,95.5 Z"/></g>
<g><path style="opacity:1" fill="#8c8c8c" d="M 373.5,95.5 C 374.209,94.596 375.209,94.2627 376.5,94.5C 376.693,97.8111 375.693,100.478 373.5,102.5C 373.961,100.45 374.628,98.4496 375.5,96.5C 375.043,95.7025 374.376,95.3691 373.5,95.5 Z"/></g>
<g><path style="opacity:1" fill="#1b1b1b" d="M 408.5,95.5 C 409.341,97.3792 409.675,99.3792 409.5,101.5C 401.527,101.674 401.527,102.174 409.5,103C 403.138,105.648 400.638,103.481 402,96.5C 404.041,95.5769 406.208,95.2436 408.5,95.5 Z"/></g>
<g><path style="opacity:1" fill="#181818" d="M 430.5,91.5 C 432.43,95.3727 433.097,99.706 432.5,104.5C 425.893,106.251 423.393,103.918 425,97.5C 426.444,95.8446 428.278,95.178 430.5,95.5C 430.5,94.1667 430.5,92.8333 430.5,91.5 Z"/></g>
<g><path style="opacity:1" fill="#1e1e1e" d="M 495.5,91.5 C 495.5,95.8333 495.5,100.167 495.5,104.5C 493.167,104.5 490.833,104.5 488.5,104.5C 488.167,103.5 487.5,102.833 486.5,102.5C 486.5,100.833 486.5,99.1667 486.5,97.5C 488.036,94.9078 490.369,93.9078 493.5,94.5C 493.285,92.8212 493.952,91.8212 495.5,91.5 Z"/></g>
<g><path style="opacity:1" fill="#7b7b7b" d="M 523.5,94.5 C 524.5,94.5 525.5,94.5 526.5,94.5C 526.737,95.791 526.404,96.791 525.5,97.5C 525.218,96.2223 524.551,95.2223 523.5,94.5 Z"/></g>
<g><path style="opacity:1" fill="#e8e8e8" d="M 563.5,95.5 C 565.616,97.0881 565.949,99.0881 564.5,101.5C 563.264,102.246 561.93,102.579 560.5,102.5C 560.5,100.167 560.5,97.8333 560.5,95.5C 561.5,95.5 562.5,95.5 563.5,95.5 Z"/></g>
<g><path style="opacity:1" fill="#7c7c7c" d="M 53.5,94.5 C 54.8333,95.8333 54.8333,97.1667 53.5,98.5C 49.6286,98.815 45.9619,98.4816 42.5,97.5C 46.1667,97.5 49.8333,97.5 53.5,97.5C 53.5,96.5 53.5,95.5 53.5,94.5 Z"/></g>
<g><path style="opacity:1" fill="#919192" d="M 98.5,93.5 C 99.4511,94.9187 99.7845,96.5853 99.5,98.5C 97.8333,98.5 96.1667,98.5 94.5,98.5C 94.5,97.5 94.5,96.5 94.5,95.5C 95.4674,96.8062 96.8007,97.4729 98.5,97.5C 98.5,96.1667 98.5,94.8333 98.5,93.5 Z"/></g>
<g><path style="opacity:1" fill="#7c7c7c" d="M 139.5,94.5 C 140.434,95.5676 140.768,96.901 140.5,98.5C 136.298,98.8168 132.298,98.4834 128.5,97.5C 132.167,97.5 135.833,97.5 139.5,97.5C 139.5,96.5 139.5,95.5 139.5,94.5 Z"/></g>
<g><path style="opacity:1" fill="#1f1f1f" d="M 450.5,95.5 C 450.119,96.9311 449.119,97.7645 447.5,98C 449.677,99.1861 450.677,101.019 450.5,103.5C 449.081,104.451 447.415,104.784 445.5,104.5C 445.881,103.069 446.881,102.236 448.5,102C 446.329,100.826 445.329,98.9928 445.5,96.5C 446.919,95.5489 448.585,95.2155 450.5,95.5 Z"/></g>
<g><path style="opacity:1" fill="#a2a2a2" d="M 498.5,97.5 C 500.199,97.3398 501.866,97.5065 503.5,98C 501.548,98.3661 499.882,99.1995 498.5,100.5C 498.5,99.5 498.5,98.5 498.5,97.5 Z"/></g>
<g><path style="opacity:1" fill="#afafaf" d="M 93.5,94.5 C 90.8333,94.5 88.1667,94.5 85.5,94.5C 85.1662,98.648 82.8328,100.315 78.5,99.5C 78.4021,97.4471 79.0687,95.7804 80.5,94.5C 80.5,95.5 80.5,96.5 80.5,97.5C 81.675,97.719 82.675,97.3857 83.5,96.5C 84.159,93.1765 86.159,91.8431 89.5,92.5C 91.3328,92.5854 92.6661,93.2521 93.5,94.5 Z"/></g>
<g><path style="opacity:1" fill="#f8f8f8" d="M 349.5,97.5 C 350.833,99.1667 350.833,100.833 349.5,102.5C 348.351,102.209 347.684,101.376 347.5,100C 347.684,98.6244 348.351,97.7911 349.5,97.5 Z"/></g>
<g><path style="opacity:1" fill="#8f8f8f" d="M 378.5,97.5 C 383.443,98.4241 383.11,99.4241 377.5,100.5C 378.11,99.609 378.443,98.609 378.5,97.5 Z"/></g>
<g><path style="opacity:1" fill="#bcbcbc" d="M 387.5,91.5 C 388.167,108.833 388.833,108.833 389.5,91.5C 390.5,91.5 391.5,91.5 392.5,91.5C 391.903,96.294 392.57,100.627 394.5,104.5C 391.854,105.164 389.021,105.498 386,105.5C 382.748,105.481 379.915,104.814 377.5,103.5C 379.717,104.369 382.05,104.702 384.5,104.5C 384.664,101.813 384.497,99.146 384,96.5C 382.301,95.5939 380.467,95.2606 378.5,95.5C 381.866,95.0132 384.866,93.6799 387.5,91.5 Z"/></g>
<g><path style="opacity:1" fill="#111111" d="M 387.5,91.5 C 388.167,91.5 388.833,91.5 389.5,91.5C 388.833,108.833 388.167,108.833 387.5,91.5 Z"/></g>
<g><path style="opacity:1" fill="#858585" d="M 412.5,94.5 C 411.89,95.391 411.557,96.391 411.5,97.5C 410.833,98.8333 410.167,100.167 409.5,101.5C 409.675,99.3792 409.341,97.3792 408.5,95.5C 409.833,95.1667 411.167,94.8333 412.5,94.5 Z"/></g>
<g><path style="opacity:1" fill="#dfdfdf" d="M 426.5,97.5 C 427.5,97.5 428.5,97.5 429.5,97.5C 429.5,99.1667 429.5,100.833 429.5,102.5C 428.5,102.5 427.5,102.5 426.5,102.5C 426.5,100.833 426.5,99.1667 426.5,97.5 Z"/></g>
<g><path style="opacity:1" fill="#272727" d="M 443.5,98.5 C 443.5,99.5 443.5,100.5 443.5,101.5C 435.527,101.674 435.527,102.174 443.5,103C 442.944,103.383 442.611,103.883 442.5,104.5C 436.504,105.667 434.004,103.334 435,97.5C 438.547,93.2708 441.38,93.6041 443.5,98.5 Z"/></g>
<g><path style="opacity:1" fill="#9d9d9d" d="M 450.5,95.5 C 451.833,98.1667 451.833,100.833 450.5,103.5C 450.677,101.019 449.677,99.1861 447.5,98C 449.119,97.7645 450.119,96.9311 450.5,95.5 Z"/></g>
<g><path style="opacity:1" fill="#6e6e6e" d="M 515.5,91.5 C 514.903,96.294 515.57,100.627 517.5,104.5C 516.791,105.404 515.791,105.737 514.5,105.5C 514.806,102.615 514.473,99.9479 513.5,97.5C 512.448,95.744 510.781,95.0773 508.5,95.5C 510.265,94.5386 512.265,94.2053 514.5,94.5C 514.263,93.209 514.596,92.209 515.5,91.5 Z"/></g>
<g><path style="opacity:1" fill="#101010" d="M 534.5,96.5 C 535.167,96.5 535.5,96.8333 535.5,97.5C 535.5,98.5 535.5,99.5 535.5,100.5C 533.585,100.216 531.919,100.549 530.5,101.5C 531.952,102.302 533.618,102.802 535.5,103C 533.75,104.319 531.75,104.819 529.5,104.5C 527.919,102.858 527.253,100.858 527.5,98.5C 528.695,98.6775 529.862,99.0109 531,99.5C 532.641,98.4859 533.808,97.4859 534.5,96.5 Z"/></g>
<g><path style="opacity:1" fill="#6f6f6f" d="M 551.5,93.5 C 550.38,97.5282 550.38,101.528 551.5,105.5C 550.883,105.389 550.383,105.056 550,104.5C 549.833,103 549.667,101.5 549.5,100C 549.336,97.4563 550.003,95.2897 551.5,93.5 Z"/></g>
<g><path style="opacity:1" fill="#1d1d1d" d="M 552.5,92.5 C 553.376,92.3691 554.043,92.7025 554.5,93.5C 553.261,95.3115 552.594,97.3115 552.5,99.5C 553.175,102.178 553.842,104.844 554.5,107.5C 552.973,107.573 551.973,106.906 551.5,105.5C 550.38,101.528 550.38,97.5282 551.5,93.5C 552.167,93.5 552.5,93.1667 552.5,92.5 Z"/></g>
<g><path style="opacity:1" fill="#1d1d1d" d="M 369.5,95.5 C 370.778,100.71 372.111,100.71 373.5,95.5C 374.376,95.3691 375.043,95.7025 375.5,96.5C 374.628,98.4496 373.961,100.45 373.5,102.5C 373.38,103.586 372.713,104.253 371.5,104.5C 370.833,104.167 370.167,103.833 369.5,103.5C 368.828,101.47 368.162,99.4705 367.5,97.5C 367.5,96.1667 368.167,95.5 369.5,95.5 Z"/></g>
<g><path style="opacity:1" fill="#656565" d="M 430.5,91.5 C 430.5,92.8333 430.5,94.1667 430.5,95.5C 428.278,95.178 426.444,95.8446 425,97.5C 423.393,103.918 425.893,106.251 432.5,104.5C 424.508,107.679 421.675,105.013 424,96.5C 425.444,94.8446 427.278,94.178 429.5,94.5C 429.263,93.209 429.596,92.209 430.5,91.5 Z"/></g>
<g><path style="opacity:1" fill="#717171" d="M 511.5,98.5 C 511.5,100.833 511.5,103.167 511.5,105.5C 510.209,105.737 509.209,105.404 508.5,104.5C 510.06,102.844 511.06,100.844 511.5,98.5 Z"/></g>
<g><path style="opacity:1" fill="#2b2b2b" d="M 538.5,95.5 C 544.261,95.7088 544.594,96.5422 539.5,98C 543.091,99.0137 544.091,101.18 542.5,104.5C 540.701,105.788 539.035,105.788 537.5,104.5C 537.881,103.069 538.881,102.236 540.5,102C 537.679,100.379 537.013,98.212 538.5,95.5 Z"/></g>
<g><path style="opacity:1" fill="#1d1d1d" d="M 603.5,92.5 C 610.04,92.2973 610.706,93.6306 605.5,96.5C 609.17,98.0491 610.17,100.549 608.5,104C 606.044,104.946 604.044,104.446 602.5,102.5C 607.545,102.548 607.711,101.214 603,98.5C 602.51,96.4546 602.677,94.4546 603.5,92.5 Z"/></g>
<g><path style="opacity:1" fill="#777777" d="M 614.5,93.5 C 615.117,93.6107 615.617,93.944 616,94.5C 616.808,98.0267 616.641,101.36 615.5,104.5C 615.677,100.766 615.344,97.0991 614.5,93.5 Z"/></g>
<g><path style="opacity:1" fill="#bbbbbb" d="M 445.5,96.5 C 445.329,98.9928 446.329,100.826 448.5,102C 446.881,102.236 445.881,103.069 445.5,104.5C 444.5,104.5 443.5,104.5 442.5,104.5C 442.611,103.883 442.944,103.383 443.5,103C 435.527,102.174 435.527,101.674 443.5,101.5C 443.5,100.5 443.5,99.5 443.5,98.5C 444.167,97.8333 444.833,97.1667 445.5,96.5 Z"/></g>
<g><path style="opacity:1" fill="#181818" d="M 463.5,95.5 C 463.119,96.9311 462.119,97.7645 460.5,98C 463.882,101.216 466.216,100.383 467.5,95.5C 469.167,95.5 470.833,95.5 472.5,95.5C 475.167,98.5 475.167,101.5 472.5,104.5C 469.843,104.838 467.51,104.171 465.5,102.5C 464.478,102.855 463.811,103.522 463.5,104.5C 460.99,104.946 458.99,104.28 457.5,102.5C 462.532,102.668 462.699,101.668 458,99.5C 457.333,98.5 457.333,97.5 458,96.5C 459.699,95.5939 461.533,95.2606 463.5,95.5 Z"/></g>
<g><path style="opacity:1" fill="#d6d6d6" d="M 468.5,97.5 C 472.161,97.3501 473.161,98.8501 471.5,102C 467.707,102.487 466.707,100.987 468.5,97.5 Z"/></g>
<g><path style="opacity:1" fill="#949494" d="M 463.5,95.5 C 464.833,95.5 466.167,95.5 467.5,95.5C 466.216,100.383 463.882,101.216 460.5,98C 462.119,97.7645 463.119,96.9311 463.5,95.5 Z"/></g>
<g><path style="opacity:1" fill="#c9c9c9" d="M 489.5,97.5 C 493.161,97.3501 494.161,98.8501 492.5,102C 488.707,102.487 487.707,100.987 489.5,97.5 Z"/></g>
<g><path style="opacity:1" fill="#292929" d="M 505.5,96.5 C 505.5,99.1667 505.5,101.833 505.5,104.5C 503.167,104.5 500.833,104.5 498.5,104.5C 497.314,103.039 497.314,101.705 498.5,100.5C 499.882,99.1995 501.548,98.3661 503.5,98C 501.866,97.5065 500.199,97.3398 498.5,97.5C 500.45,95.2472 502.784,94.9139 505.5,96.5 Z"/></g>
<g><path style="opacity:1" fill="#4f4f4f" d="M 535.5,97.5 C 536.434,98.5676 536.768,99.901 536.5,101.5C 534.5,101.5 532.5,101.5 530.5,101.5C 531.919,100.549 533.585,100.216 535.5,100.5C 535.5,99.5 535.5,98.5 535.5,97.5 Z"/></g>
<g><path style="opacity:1" fill="#d1d1d1" d="M 319.5,97.5 C 323.161,97.3501 324.161,98.8501 322.5,102C 318.707,102.487 317.707,100.987 319.5,97.5 Z"/></g>
<g><path style="opacity:1" fill="#181818" d="M 378.5,95.5 C 380.467,95.2606 382.301,95.5939 384,96.5C 384.497,99.146 384.664,101.813 384.5,104.5C 382.05,104.702 379.717,104.369 377.5,103.5C 377.5,102.5 377.5,101.5 377.5,100.5C 383.11,99.4241 383.443,98.4241 378.5,97.5C 377.494,97.0623 377.494,96.3957 378.5,95.5 Z"/></g>
<g><path style="opacity:1" fill="#cacaca" d="M 477.5,91.5 C 477.5,95.8333 477.5,100.167 477.5,104.5C 475.833,104.5 474.167,104.5 472.5,104.5C 475.167,101.5 475.167,98.5 472.5,95.5C 473.5,95.5 474.5,95.5 475.5,95.5C 475.157,93.5168 475.824,92.1834 477.5,91.5 Z"/></g>
<g><path style="opacity:1" fill="#bcbcbc" d="M 534.5,91.5 C 535.434,92.5676 535.768,93.901 535.5,95.5C 536.5,95.5 537.5,95.5 538.5,95.5C 537.013,98.212 537.679,100.379 540.5,102C 538.881,102.236 537.881,103.069 537.5,104.5C 534.693,105.657 532.026,105.657 529.5,104.5C 531.75,104.819 533.75,104.319 535.5,103C 533.618,102.802 531.952,102.302 530.5,101.5C 532.5,101.5 534.5,101.5 536.5,101.5C 536.768,99.901 536.434,98.5676 535.5,97.5C 535.5,96.8333 535.167,96.5 534.5,96.5C 533.167,94.8333 533.167,93.1667 534.5,91.5 Z"/></g>
<g><path style="opacity:1" fill="#171717" d="M 331.5,102.5 C 332.791,102.737 333.791,102.404 334.5,101.5C 334.94,99.1561 335.94,97.1561 337.5,95.5C 337.5,97.8333 337.5,100.167 337.5,102.5C 335.078,104.65 332.411,104.983 329.5,103.5C 329.336,100.813 329.503,98.146 330,95.5C 330.186,98.0356 330.686,100.369 331.5,102.5 Z"/></g>
<g><path style="opacity:1" fill="#242424" d="M 364.5,95.5 C 365.403,98.3915 365.736,101.391 365.5,104.5C 363.167,104.5 360.833,104.5 358.5,104.5C 358.5,103.833 358.167,103.5 357.5,103.5C 358.308,100.53 360.308,98.6966 363.5,98C 361.618,97.8019 359.952,97.3019 358.5,96.5C 360.379,95.6586 362.379,95.3253 364.5,95.5 Z"/></g>
<g><path style="opacity:1" fill="#7b7b7b" d="M 325.5,91.5 C 326.486,95.97 326.819,100.637 326.5,105.5C 323.615,105.806 320.948,105.473 318.5,104.5C 320.833,104.5 323.167,104.5 325.5,104.5C 325.5,100.167 325.5,95.8333 325.5,91.5 Z"/></g>
<g><path style="opacity:1" fill="#a1a1a1" d="M 337.5,102.5 C 337.126,104.95 335.626,105.95 333,105.5C 331.319,105.392 330.152,104.725 329.5,103.5C 332.411,104.983 335.078,104.65 337.5,102.5 Z"/></g>
<g><path style="opacity:1" fill="#838383" d="M 369.5,95.5 C 368.167,95.5 367.5,96.1667 367.5,97.5C 366.527,99.9479 366.194,102.615 366.5,105.5C 363.615,105.806 360.948,105.473 358.5,104.5C 360.833,104.5 363.167,104.5 365.5,104.5C 365.736,101.391 365.403,98.3915 364.5,95.5C 366.334,94.506 368.001,94.506 369.5,95.5 Z"/></g>
<g><path style="opacity:1" fill="#9a9a9a" d="M 457.5,102.5 C 458.99,104.28 460.99,104.946 463.5,104.5C 461.712,105.622 459.712,105.789 457.5,105C 456.226,104.023 456.226,103.189 457.5,102.5 Z"/></g>
<g><path style="opacity:1" fill="#969696" d="M 472.5,104.5 C 469.656,105.551 466.656,105.551 463.5,104.5C 463.811,103.522 464.478,102.855 465.5,102.5C 467.51,104.171 469.843,104.838 472.5,104.5 Z"/></g>
<g><path style="opacity:1" fill="#7f7f7f" d="M 495.5,91.5 C 496.486,95.97 496.819,100.637 496.5,105.5C 493.615,105.806 490.948,105.473 488.5,104.5C 490.833,104.5 493.167,104.5 495.5,104.5C 495.5,100.167 495.5,95.8333 495.5,91.5 Z"/></g>
<g><path style="opacity:1" fill="#848484" d="M 505.5,96.5 C 506.477,99.2869 506.81,102.287 506.5,105.5C 503.615,105.806 500.948,105.473 498.5,104.5C 500.833,104.5 503.167,104.5 505.5,104.5C 505.5,101.833 505.5,99.1667 505.5,96.5 Z"/></g>
<g><path style="opacity:1" fill="#8c8c8c" d="M 525.5,102.5 C 526.404,103.209 526.737,104.209 526.5,105.5C 524.219,105.923 522.552,105.256 521.5,103.5C 523.456,105.175 524.789,104.842 525.5,102.5 Z"/></g>
<g><path style="opacity:1" fill="#9e9e9e" d="M 581.5,92.5 C 581.5,96.5 581.5,100.5 581.5,104.5C 583.833,104.5 586.167,104.5 588.5,104.5C 582.833,105.833 577.167,105.833 571.5,104.5C 574.388,105.01 576.721,104.344 578.5,102.5C 579.222,102.918 579.722,103.584 580,104.5C 580.176,100.312 580.676,96.3123 581.5,92.5 Z"/></g>
<g><path style="opacity:1" fill="#202020" d="M 25.5,111.5 C 21.5,114.833 21.5,118.167 25.5,121.5C 27.1195,123.238 29.1195,123.738 31.5,123C 33.1066,121.951 33.7733,120.451 33.5,118.5C 31.8333,118.5 30.1667,118.5 28.5,118.5C 28.2627,117.209 28.596,116.209 29.5,115.5C 32.1667,115.5 34.8333,115.5 37.5,115.5C 37.5,118.167 37.5,120.833 37.5,123.5C 27.8992,130.494 21.5659,128.16 18.5,116.5C 18.8158,110.184 22.1492,106.851 28.5,106.5C 32.2091,106.494 35.2091,107.827 37.5,110.5C 37.1131,111.72 36.2798,112.387 35,112.5C 31.9704,110.445 28.8037,110.112 25.5,111.5 Z"/></g>
<g><path style="opacity:1" fill="#202021" d="M 140.5,106.5 C 151.497,105.663 155.997,110.663 154,121.5C 146.831,129.758 140.164,129.425 134,120.5C 132.189,113.796 134.355,109.129 140.5,106.5 Z"/></g>
<g><path style="opacity:1" fill="#a1a1a1" d="M 170.5,126.5 C 171.122,125.373 171.955,124.373 173,123.5C 173.499,118.177 173.666,112.844 173.5,107.5C 172.5,107.5 171.5,107.5 170.5,107.5C 170.819,112.363 170.486,117.03 169.5,121.5C 169.5,116.167 169.5,110.833 169.5,105.5C 171.467,105.261 173.301,105.594 175,106.5C 175.804,112.569 175.471,118.569 174,124.5C 173.184,125.823 172.017,126.489 170.5,126.5 Z"/></g>
<g><path style="opacity:1" fill="#212121" d="M 42.5,107.5 C 43.5,107.5 44.5,107.5 45.5,107.5C 45.1805,112.363 45.5139,117.03 46.5,121.5C 48.2646,122.461 50.2646,122.795 52.5,122.5C 54.4417,117.944 55.1083,112.944 54.5,107.5C 55.5,107.5 56.5,107.5 57.5,107.5C 58.8599,112.739 58.6932,118.072 57,123.5C 51.0913,129.348 46.0913,128.681 42,121.5C 41.1849,116.648 41.3516,111.981 42.5,107.5 Z"/></g>
<g><path style="opacity:1" fill="#575757" d="M 42.5,107.5 C 43.5676,106.566 44.901,106.232 46.5,106.5C 46.5,111.5 46.5,116.5 46.5,121.5C 45.5139,117.03 45.1805,112.363 45.5,107.5C 44.5,107.5 43.5,107.5 42.5,107.5 Z"/></g>
<g><path style="opacity:1" fill="#505051" d="M 57.5,107.5 C 56.5,107.5 55.5,107.5 54.5,107.5C 55.1083,112.944 54.4417,117.944 52.5,122.5C 53.4491,117.26 53.7825,111.927 53.5,106.5C 55.099,106.232 56.4324,106.566 57.5,107.5 Z"/></g>
<g><path style="opacity:1" fill="#1d1d1e" d="M 67.5,107.5 C 69.5,107.5 71.5,107.5 73.5,107.5C 73.3455,110.716 74.3455,113.383 76.5,115.5C 77.129,118.397 78.129,121.064 79.5,123.5C 79.5,124.5 79.5,125.5 79.5,126.5C 78.1667,126.5 76.8333,126.5 75.5,126.5C 74.121,121.992 71.121,120.659 66.5,122.5C 66.0057,124.026 65.339,125.359 64.5,126.5C 63.1667,126.5 61.8333,126.5 60.5,126.5C 60.5,125.5 60.5,124.5 60.5,123.5C 62.3429,117.944 64.6763,112.611 67.5,107.5 Z"/></g>
<g><path style="opacity:1" fill="#676767" d="M 93.5,107.5 C 90.1667,107.5 86.8333,107.5 83.5,107.5C 83.5,113.833 83.5,120.167 83.5,126.5C 86.5,126.5 89.5,126.5 92.5,126.5C 89.3752,127.479 86.0419,127.813 82.5,127.5C 82.5,120.5 82.5,113.5 82.5,106.5C 86.3714,106.185 90.0381,106.518 93.5,107.5 Z"/></g>
<g><path style="opacity:1" fill="#181818" d="M 93.5,107.5 C 95.7837,107.975 97.7837,108.975 99.5,110.5C 100.051,113.807 100.384,117.14 100.5,120.5C 98.5739,123.466 95.9072,125.466 92.5,126.5C 89.5,126.5 86.5,126.5 83.5,126.5C 83.5,120.167 83.5,113.833 83.5,107.5C 86.8333,107.5 90.1667,107.5 93.5,107.5 Z"/></g>
<g><path style="opacity:1" fill="#101011" d="M 105.5,107.5 C 108.898,107.18 112.232,107.513 115.5,108.5C 113.314,109.221 111.147,109.887 109,110.5C 108.333,111.833 108.333,113.167 109,114.5C 110.825,115.103 112.659,115.77 114.5,116.5C 112.709,117.17 111.042,117.837 109.5,118.5C 109.286,120.144 109.62,121.644 110.5,123C 112.473,123.495 114.473,123.662 116.5,123.5C 116.5,124.5 116.5,125.5 116.5,126.5C 112.833,126.5 109.167,126.5 105.5,126.5C 105.5,120.167 105.5,113.833 105.5,107.5 Z"/></g>
<g><path style="opacity:1" fill="#111112" d="M 126.5,122.5 C 128.5,122.5 130.5,122.5 132.5,122.5C 132.5,123.833 132.5,125.167 132.5,126.5C 128.833,126.5 125.167,126.5 121.5,126.5C 121.5,120.167 121.5,113.833 121.5,107.5C 122.5,107.5 123.5,107.5 124.5,107.5C 123.892,112.944 124.558,117.944 126.5,122.5 Z"/></g>
<g><path style="opacity:1" fill="#b0b0b0" d="M 126.5,122.5 C 124.558,117.944 123.892,112.944 124.5,107.5C 123.5,107.5 122.5,107.5 121.5,107.5C 121.5,113.833 121.5,120.167 121.5,126.5C 120.18,123.572 119.514,120.239 119.5,116.5C 119.833,113.167 120.167,109.833 120.5,106.5C 122.371,105.233 124.204,105.233 126,106.5C 126.499,111.823 126.666,117.156 126.5,122.5 Z"/></g>
<g><path style="opacity:1" fill="#161617" d="M 158.5,107.5 C 159.5,107.5 160.5,107.5 161.5,107.5C 161.183,111.702 161.517,115.702 162.5,119.5C 162.477,122.121 163.811,123.455 166.5,123.5C 167.739,123.058 168.739,122.391 169.5,121.5C 170.486,117.03 170.819,112.363 170.5,107.5C 171.5,107.5 172.5,107.5 173.5,107.5C 173.666,112.844 173.499,118.177 173,123.5C 171.955,124.373 171.122,125.373 170.5,126.5C 165.83,128.481 161.997,127.481 159,123.5C 158.501,118.177 158.334,112.844 158.5,107.5 Z"/></g>
<g><path style="opacity:1" fill="#626262" d="M 158.5,107.5 C 159.568,106.566 160.901,106.232 162.5,106.5C 162.5,110.833 162.5,115.167 162.5,119.5C 161.517,115.702 161.183,111.702 161.5,107.5C 160.5,107.5 159.5,107.5 158.5,107.5 Z"/></g>
<g><path style="opacity:1" fill="#565657" d="M 188.5,107.5 C 185.5,107.5 182.5,107.5 179.5,107.5C 179.5,113.5 179.5,119.5 179.5,125.5C 180.5,125.5 181.5,125.5 182.5,125.5C 182.198,122.941 182.532,120.607 183.5,118.5C 183.5,121.167 183.5,123.833 183.5,126.5C 181.833,126.5 180.167,126.5 178.5,126.5C 178.5,119.833 178.5,113.167 178.5,106.5C 182.042,106.187 185.375,106.521 188.5,107.5 Z"/></g>
<g><path style="opacity:1" fill="#0f0f10" d="M 188.5,107.5 C 193.779,110.996 193.779,114.496 188.5,118C 186.866,118.494 185.199,118.66 183.5,118.5C 182.532,120.607 182.198,122.941 182.5,125.5C 181.5,125.5 180.5,125.5 179.5,125.5C 179.5,119.5 179.5,113.5 179.5,107.5C 182.5,107.5 185.5,107.5 188.5,107.5 Z"/></g>
<g><path style="opacity:1" fill="#c3c3c3" d="M 207.5,106.5 C 203.629,106.185 199.962,106.518 196.5,107.5C 195.51,113.645 195.177,119.978 195.5,126.5C 194.346,120.013 194.179,113.346 195,106.5C 199.267,105.178 203.434,105.178 207.5,106.5 Z"/></g>
<g><path style="opacity:1" fill="#676768" d="M 196.5,107.5 C 196.5,113.833 196.5,120.167 196.5,126.5C 200.167,126.5 203.833,126.5 207.5,126.5C 203.5,127.833 199.5,127.833 195.5,126.5C 195.177,119.978 195.51,113.645 196.5,107.5 Z"/></g>
<g><path style="opacity:1" fill="#121213" d="M 196.5,107.5 C 199.898,107.18 203.232,107.513 206.5,108.5C 204.257,109.474 201.924,109.808 199.5,109.5C 199.5,111.5 199.5,113.5 199.5,115.5C 201.5,115.5 203.5,115.5 205.5,115.5C 206.404,116.209 206.737,117.209 206.5,118.5C 204.5,118.5 202.5,118.5 200.5,118.5C 199.549,119.919 199.216,121.585 199.5,123.5C 202.167,123.5 204.833,123.5 207.5,123.5C 207.5,124.5 207.5,125.5 207.5,126.5C 203.833,126.5 200.167,126.5 196.5,126.5C 196.5,120.167 196.5,113.833 196.5,107.5 Z"/></g>
<g><path style="opacity:1" fill="#626263" d="M 105.5,107.5 C 108.962,106.518 112.629,106.185 116.5,106.5C 116.5,108.167 116.5,109.833 116.5,111.5C 114.5,111.5 112.5,111.5 110.5,111.5C 110.5,112.5 110.5,113.5 110.5,114.5C 112.167,114.5 113.833,114.5 115.5,114.5C 115.5,115.833 115.5,117.167 115.5,118.5C 113.5,118.5 111.5,118.5 109.5,118.5C 111.042,117.837 112.709,117.17 114.5,116.5C 112.659,115.77 110.825,115.103 109,114.5C 108.333,113.167 108.333,111.833 109,110.5C 111.147,109.887 113.314,109.221 115.5,108.5C 112.232,107.513 108.898,107.18 105.5,107.5 Z"/></g>
<g><path style="opacity:1" fill="#555556" d="M 196.5,107.5 C 199.962,106.518 203.629,106.185 207.5,106.5C 207.5,107.833 207.5,109.167 207.5,110.5C 205.167,110.5 202.833,110.5 200.5,110.5C 200.5,111.833 200.5,113.167 200.5,114.5C 202.415,114.216 204.081,114.549 205.5,115.5C 203.5,115.5 201.5,115.5 199.5,115.5C 199.5,113.5 199.5,111.5 199.5,109.5C 201.924,109.808 204.257,109.474 206.5,108.5C 203.232,107.513 199.898,107.18 196.5,107.5 Z"/></g>
<g><path style="opacity:1" fill="#9c9c9d" d="M 67.5,107.5 C 69.6074,106.532 71.9407,106.198 74.5,106.5C 74.7556,109.598 75.4222,112.598 76.5,115.5C 74.3455,113.383 73.3455,110.716 73.5,107.5C 71.5,107.5 69.5,107.5 67.5,107.5 Z"/></g>
<g><path style="opacity:1" fill="#646464" d="M 92.5,111.5 C 90.8333,111.5 89.1667,111.5 87.5,111.5C 87.5,115.167 87.5,118.833 87.5,122.5C 86.5166,118.702 86.1832,114.702 86.5,110.5C 88.7354,110.205 90.7354,110.539 92.5,111.5 Z"/></g>
<g><path style="opacity:1" fill="#f4f4f4" d="M 92.5,111.5 C 94.0174,111.511 95.1841,112.177 96,113.5C 97.3016,120.284 94.4683,123.284 87.5,122.5C 87.5,118.833 87.5,115.167 87.5,111.5C 89.1667,111.5 90.8333,111.5 92.5,111.5 Z"/></g>
<g><path style="opacity:1" fill="#ececec" d="M 142.5,110.5 C 149.154,110.634 151.321,113.967 149,120.5C 143.459,124.831 139.625,123.498 137.5,116.5C 137.805,113.207 139.471,111.207 142.5,110.5 Z"/></g>
<g><path style="opacity:1" fill="#767677" d="M 187.5,111.5 C 186.167,111.5 184.833,111.5 183.5,111.5C 183.5,112.5 183.5,113.5 183.5,114.5C 184.833,114.5 186.167,114.5 187.5,114.5C 186.081,115.451 184.415,115.784 182.5,115.5C 182.5,113.833 182.5,112.167 182.5,110.5C 184.415,110.216 186.081,110.549 187.5,111.5 Z"/></g>
<g><path style="opacity:1" fill="#f2f2f2" d="M 187.5,111.5 C 187.5,112.5 187.5,113.5 187.5,114.5C 186.167,114.5 184.833,114.5 183.5,114.5C 183.5,113.5 183.5,112.5 183.5,111.5C 184.833,111.5 186.167,111.5 187.5,111.5 Z"/></g>
<g><path style="opacity:1" fill="#adadad" d="M 25.5,111.5 C 24.1667,114.833 24.1667,118.167 25.5,121.5C 21.5,118.167 21.5,114.833 25.5,111.5 Z"/></g>
<g><path style="opacity:1" fill="#737373" d="M 29.5,115.5 C 32.2869,114.523 35.2869,114.19 38.5,114.5C 38.81,117.713 38.4767,120.713 37.5,123.5C 37.5,120.833 37.5,118.167 37.5,115.5C 34.8333,115.5 32.1667,115.5 29.5,115.5 Z"/></g>
<g><path style="opacity:1" fill="#5c5c5d" d="M 99.5,110.5 C 100.972,112.117 101.639,114.117 101.5,116.5C 101.489,118.045 101.156,119.378 100.5,120.5C 100.384,117.14 100.051,113.807 99.5,110.5 Z"/></g>
<g><path style="opacity:1" fill="#c1c1c1" d="M 68.5,112.5 C 69.5,112.5 70.5,112.5 71.5,112.5C 71.5,114.167 71.5,115.833 71.5,117.5C 70.5,117.5 69.5,117.5 68.5,117.5C 68.5,115.833 68.5,114.167 68.5,112.5 Z"/></g>
<g><path style="opacity:1" fill="#898989" d="M 200.5,118.5 C 200.5,119.833 200.5,121.167 200.5,122.5C 203.059,122.198 205.393,122.532 207.5,123.5C 204.833,123.5 202.167,123.5 199.5,123.5C 199.216,121.585 199.549,119.919 200.5,118.5 Z"/></g>
<g><path style="opacity:1" fill="#9c9c9c" d="M 60.5,123.5 C 60.5,124.5 60.5,125.5 60.5,126.5C 61.8333,126.5 63.1667,126.5 64.5,126.5C 63.0813,127.451 61.4147,127.784 59.5,127.5C 59.2322,125.901 59.5655,124.568 60.5,123.5 Z"/></g>
<g><path style="opacity:1" fill="#9f9f9f" d="M 79.5,123.5 C 80.4345,124.568 80.7678,125.901 80.5,127.5C 78.5853,127.784 76.9187,127.451 75.5,126.5C 76.8333,126.5 78.1667,126.5 79.5,126.5C 79.5,125.5 79.5,124.5 79.5,123.5 Z"/></g>
<g><path style="opacity:1" fill="#3b3b3c" d="M 42.5,144.5 C 42.9111,147.276 42.0777,147.943 40,146.5C 37.1411,148.132 36.9744,149.798 39.5,151.5C 38.5,151.5 37.5,151.5 36.5,151.5C 36.5,149.833 36.5,148.167 36.5,146.5C 37.9238,144.485 38.5905,142.152 38.5,139.5C 41.2048,139.38 41.8715,140.38 40.5,142.5C 41.2427,143.182 41.9094,143.849 42.5,144.5 Z"/></g>
<g><path style="opacity:1" fill="#555556" d="M 51.5,144.5 C 51.7678,146.099 51.4345,147.432 50.5,148.5C 50.6309,147.624 50.2975,146.957 49.5,146.5C 48.069,146.977 46.7357,147.643 45.5,148.5C 46.1667,149.167 46.8333,149.833 47.5,150.5C 46.0416,151.782 44.7082,151.782 43.5,150.5C 43.2525,148.142 43.9192,146.142 45.5,144.5C 47.3469,143.427 49.3469,143.427 51.5,144.5 Z"/></g>
<g><path style="opacity:1" fill="#303031" d="M 51.5,144.5 C 52.8734,144.343 54.2068,144.51 55.5,145C 54.944,145.383 54.6107,145.883 54.5,146.5C 52.716,147.574 51.5494,149.24 51,151.5C 50.5172,150.552 50.3505,149.552 50.5,148.5C 51.4345,147.432 51.7678,146.099 51.5,144.5 Z"/></g>
<g><path style="opacity:1" fill="#9d9d9e" d="M 51.5,144.5 C 53.2646,143.539 55.2646,143.205 57.5,143.5C 56.7417,146.352 56.7417,149.019 57.5,151.5C 56.8106,152.774 55.9772,152.774 55,151.5C 55.4759,149.68 55.3093,148.013 54.5,146.5C 54.6107,145.883 54.944,145.383 55.5,145C 54.2068,144.51 52.8734,144.343 51.5,144.5 Z"/></g>
<g><path style="opacity:1" fill="#585859" d="M 24.5,140.5 C 25.9778,140.238 27.3112,140.571 28.5,141.5C 26.7134,143.858 25.7134,146.525 25.5,149.5C 26.8221,149.67 27.9887,149.337 29,148.5C 29.6172,149.449 29.4506,150.282 28.5,151C 26.5273,151.495 24.5273,151.662 22.5,151.5C 23.3255,147.864 23.9922,144.197 24.5,140.5 Z"/></g>
<g><path style="opacity:1" fill="#b8b8b8" d="M 65.5,147.5 C 66.2341,146.292 66.5674,144.959 66.5,143.5C 65.5,143.5 64.5,143.5 63.5,143.5C 64.0456,140.248 65.7123,139.248 68.5,140.5C 68.2343,143.345 67.2343,145.678 65.5,147.5 Z"/></g>
<g><path style="opacity:1" fill="#a3a3a4" d="M 63.5,147.5 C 64.3984,148.158 65.3984,148.824 66.5,149.5C 66.1445,150.522 65.4778,151.189 64.5,151.5C 64.2786,150.265 63.6119,149.265 62.5,148.5C 62.6236,147.893 62.9569,147.56 63.5,147.5 Z"/></g>
<g><path style="opacity:1" fill="#272728" d="M 32.5,144.5 C 33.3764,144.369 34.0431,144.702 34.5,145.5C 33.6518,147.409 33.3184,149.409 33.5,151.5C 32.5028,151.53 31.8361,151.03 31.5,150C 32.2335,148.234 32.5668,146.401 32.5,144.5 Z"/></g>
<g><path style="opacity:1" fill="#979798" d="M 42.5,144.5 C 43.5,144.5 44.5,144.5 45.5,144.5C 43.9192,146.142 43.2525,148.142 43.5,150.5C 42.0413,150.433 40.7079,150.766 39.5,151.5C 36.9744,149.798 37.1411,148.132 40,146.5C 42.0777,147.943 42.9111,147.276 42.5,144.5 Z"/></g>
<g><path style="opacity:1" fill="#525253" d="M 63.5,143.5 C 64.5,143.5 65.5,143.5 66.5,143.5C 66.5674,144.959 66.2341,146.292 65.5,147.5C 64.8333,147.5 64.1667,147.5 63.5,147.5C 62.9569,147.56 62.6236,147.893 62.5,148.5C 63.6119,149.265 64.2786,150.265 64.5,151.5C 62.0897,150.562 59.7564,150.562 57.5,151.5C 56.7417,149.019 56.7417,146.352 57.5,143.5C 58.6477,142.105 59.6477,142.272 60.5,144C 58.5794,145.241 58.246,146.741 59.5,148.5C 61.5522,147.389 62.8855,145.723 63.5,143.5 Z"/></g>
<g><path style="opacity:1" fill="#ababab" d="M 32.5,144.5 C 33.209,143.596 34.209,143.263 35.5,143.5C 35.2627,144.791 35.596,145.791 36.5,146.5C 36.5,148.167 36.5,149.833 36.5,151.5C 35.5,151.5 34.5,151.5 33.5,151.5C 33.3184,149.409 33.6518,147.409 34.5,145.5C 34.0431,144.702 33.3764,144.369 32.5,144.5 Z"/></g>
<g><path style="opacity:1" fill="#bdbdbd" d="M 62.5,163.5 C 62.5,165.167 62.5,166.833 62.5,168.5C 61.1667,168.833 59.8333,169.167 58.5,169.5C 56.1667,170.833 53.8333,170.833 51.5,169.5C 52.4959,169.586 53.3292,169.252 54,168.5C 54.662,166.187 55.162,163.854 55.5,161.5C 57.8503,160.89 57.517,160.556 54.5,160.5C 54.5,159.5 54.5,158.5 54.5,157.5C 56.8333,158.167 59.1667,158.833 61.5,159.5C 61.4326,160.959 61.7659,162.292 62.5,163.5 Z"/></g>
<g><path style="opacity:1" fill="#c6c6c6" d="M 32.5,161.5 C 33.1667,161.5 33.8333,161.5 34.5,161.5C 34.4171,165.371 33.0838,169.037 30.5,172.5C 27.436,171.032 24.1027,170.032 20.5,169.5C 20.6236,168.893 20.9569,168.56 21.5,168.5C 29.3495,169.352 30.6828,169.352 25.5,168.5C 25.523,166.073 26.023,163.74 27,161.5C 28.8278,160.248 30.6612,160.248 32.5,161.5 Z"/></g>
<g><path style="opacity:1" fill="#909091" d="M 67.5,162.5 C 66.5,162.5 65.5,162.5 64.5,162.5C 64.244,160.088 65.244,158.421 67.5,157.5C 68.4339,159.095 68.4339,160.761 67.5,162.5 Z"/></g>
<g><path style="opacity:1" fill="#454546" d="M 53.5,161.5 C 54.1667,161.5 54.8333,161.5 55.5,161.5C 55.162,163.854 54.662,166.187 54,168.5C 53.3292,169.252 52.4959,169.586 51.5,169.5C 52.0427,166.782 52.7094,164.115 53.5,161.5 Z"/></g>
<g><path style="opacity:1" fill="#4d4d4e" d="M 52.5,159.5 C 50.4493,162.543 48.9493,165.876 48,169.5C 47.4436,167.115 47.6103,164.782 48.5,162.5C 49.3007,160.958 49.634,159.292 49.5,157.5C 51.1788,157.285 52.1788,157.952 52.5,159.5 Z"/></g>
<g><path style="opacity:1" fill="#363637" d="M 64.5,162.5 C 65.5,162.5 66.5,162.5 67.5,162.5C 66.5251,164.193 65.1918,165.693 63.5,167C 67.2229,167.434 67.3895,168.268 64,169.5C 63.2352,169.43 62.7352,169.097 62.5,168.5C 62.5,166.833 62.5,165.167 62.5,163.5C 63.1667,163.167 63.8333,162.833 64.5,162.5 Z"/></g>
<g><path style="opacity:1" fill="#555556" d="M 32.5,161.5 C 30.6612,160.248 28.8278,160.248 27,161.5C 26.023,163.74 25.523,166.073 25.5,168.5C 30.6828,169.352 29.3495,169.352 21.5,168.5C 23.68,165.619 24.68,162.286 24.5,158.5C 26.908,157.939 29.2413,157.439 31.5,157C 31.1667,157.333 30.8333,157.667 30.5,158C 31.9733,158.71 32.6399,159.876 32.5,161.5 Z"/></g>
<g><path style="opacity:1" fill="#bababa" d="M 52.5,159.5 C 52.3284,160.492 52.6618,161.158 53.5,161.5C 52.7094,164.115 52.0427,166.782 51.5,169.5C 46.7979,170.108 42.1313,170.775 37.5,171.5C 37.6399,169.876 36.9733,168.71 35.5,168C 37.8562,166.173 38.5229,164.007 37.5,161.5C 38.9587,161.433 40.2921,161.766 41.5,162.5C 40.1242,164.082 39.1242,165.915 38.5,168C 38.5699,168.765 38.9033,169.265 39.5,169.5C 40.9403,168.637 42.2736,168.637 43.5,169.5C 44.2922,167.535 44.9588,165.535 45.5,163.5C 45.0431,162.702 44.3764,162.369 43.5,162.5C 45.0496,161.28 46.7163,161.28 48.5,162.5C 47.6103,164.782 47.4436,167.115 48,169.5C 48.9493,165.876 50.4493,162.543 52.5,159.5 Z"/></g>
<g><path style="opacity:1" fill="#292929" d="M 42.5,162.5 C 42.8333,162.5 43.1667,162.5 43.5,162.5C 44.3764,162.369 45.0431,162.702 45.5,163.5C 44.9588,165.535 44.2922,167.535 43.5,169.5C 42.2736,168.637 40.9403,168.637 39.5,169.5C 40.1047,167.974 41.2714,166.974 43,166.5C 43.5791,165.072 43.4124,163.738 42.5,162.5 Z"/></g>
<g><path style="opacity:1" fill="#79797a" d="M 41.5,162.5 C 41.8333,162.5 42.1667,162.5 42.5,162.5C 43.4124,163.738 43.5791,165.072 43,166.5C 41.2714,166.974 40.1047,167.974 39.5,169.5C 38.9033,169.265 38.5699,168.765 38.5,168C 39.1242,165.915 40.1242,164.082 41.5,162.5 Z"/></g>
<g><path style="opacity:1" fill="#323233" d="M 58.5,169.5 C 57.5028,169.53 56.8361,169.03 56.5,168C 56.8352,165.423 57.8352,163.256 59.5,161.5C 59.9889,164.114 59.6555,166.78 58.5,169.5 Z"/></g>
<g><path style="opacity:1" fill="#5b5b5c" d="M 34.5,161.5 C 35.5,161.5 36.5,161.5 37.5,161.5C 38.5229,164.007 37.8562,166.173 35.5,168C 36.9733,168.71 37.6399,169.876 37.5,171.5C 35.3452,173.534 33.0118,173.867 30.5,172.5C 33.0838,169.037 34.4171,165.371 34.5,161.5 Z"/></g>
<g><path style="opacity:1" fill="#2c2c2d" d="M 55.5,180.5 C 55.5,182.5 54.5,183.5 52.5,183.5C 51.475,183.103 51.3083,182.437 52,181.5C 52.3333,181.833 52.6667,182.167 53,182.5C 53.4169,181.244 54.2502,180.577 55.5,180.5 Z"/></g>
<g><path style="opacity:1" fill="#3c3c3d" d="M 57.5,180.5 C 59.1992,180.34 60.8659,180.506 62.5,181C 61.944,181.383 61.6107,181.883 61.5,182.5C 59.4841,183.486 58.1508,185.153 57.5,187.5C 57.162,185.345 57.162,183.011 57.5,180.5 Z"/></g>
<g><path style="opacity:1" fill="#303030" d="M 63.5,187.5 C 62.506,186.001 62.506,184.334 63.5,182.5C 64.9179,180.692 66.9179,180.025 69.5,180.5C 69.3015,182.96 68.6348,185.293 67.5,187.5C 67.3852,180.854 66.0518,180.854 63.5,187.5 Z"/></g>
<g><path style="opacity:1" fill="#3d3d3e" d="M 33.5,186.5 C 32.3774,187.757 31.7107,187.424 31.5,185.5C 32.4511,184.081 32.7845,182.415 32.5,180.5C 33.9778,180.238 35.3112,180.571 36.5,181.5C 34.7221,182.726 33.7221,184.393 33.5,186.5 Z"/></g>
<g><path style="opacity:1" fill="#b6b6b6" d="M 32.5,179.5 C 34.1667,179.5 35.8333,179.5 37.5,179.5C 37.443,183.133 38.443,183.3 40.5,180C 42.8098,179.503 45.1432,179.337 47.5,179.5C 45.8106,182.175 45.4773,184.842 46.5,187.5C 45.3684,188.354 44.035,188.354 42.5,187.5C 42.838,184.989 42.838,182.655 42.5,180.5C 41.7379,181.628 41.0712,182.795 40.5,184C 37.659,182.988 36.3256,184.155 36.5,187.5C 35.7784,187.082 35.2784,186.416 35,185.5C 34.6174,186.056 34.1174,186.389 33.5,186.5C 33.7221,184.393 34.7221,182.726 36.5,181.5C 35.3112,180.571 33.9778,180.238 32.5,180.5C 32.7845,182.415 32.4511,184.081 31.5,185.5C 31.7373,184.209 31.404,183.209 30.5,182.5C 29.9935,181.141 28.9935,180.141 27.5,179.5C 29.1673,178.334 30.834,178.334 32.5,179.5 Z"/></g>
<g><path style="opacity:1" fill="#bcbcbd" d="M 78.5,179.5 C 77.4245,181.157 76.7579,182.991 76.5,185C 76.6842,186.376 77.3509,187.209 78.5,187.5C 78.189,188.478 77.5223,189.145 76.5,189.5C 73.1667,189.5 69.8333,189.5 66.5,189.5C 65.7348,188.388 64.7348,187.721 63.5,187.5C 66.0518,180.854 67.3852,180.854 67.5,187.5C 68.6348,185.293 69.3015,182.96 69.5,180.5C 66.9179,180.025 64.9179,180.692 63.5,182.5C 62.8333,182.5 62.1667,182.5 61.5,182.5C 61.6107,181.883 61.944,181.383 62.5,181C 60.8659,180.506 59.1992,180.34 57.5,180.5C 63.0139,179.833 68.6805,179.167 74.5,178.5C 73.1285,176.38 73.7952,175.38 76.5,175.5C 76.1568,177.483 76.8235,178.817 78.5,179.5 Z"/></g>
<g><path style="opacity:1" fill="#5c5c5d" d="M 85.5,176.5 C 86.2389,176.369 86.9056,176.536 87.5,177C 86.2532,178.458 86.2532,179.958 87.5,181.5C 86.91,182.799 85.91,183.632 84.5,184C 86.4812,184.605 86.8146,185.605 85.5,187C 84.2068,187.49 82.8734,187.657 81.5,187.5C 81.8094,183.502 83.1428,179.835 85.5,176.5 Z"/></g>
<g><path style="opacity:1" fill="#6c6c6d" d="M 49.5,179.5 C 51.5749,179.777 53.5749,180.11 55.5,180.5C 54.2502,180.577 53.4169,181.244 53,182.5C 52.6667,182.167 52.3333,181.833 52,181.5C 51.3083,182.437 51.475,183.103 52.5,183.5C 52.5774,184.75 53.244,185.583 54.5,186C 53.4071,187.365 52.0738,187.699 50.5,187C 49.9561,185.041 49.6227,183.208 49.5,181.5C 49.5,180.833 49.5,180.167 49.5,179.5 Z"/></g>
<g><path style="opacity:1" fill="#2b2b2c" d="M 72.5,180.5 C 73.2389,180.369 73.9056,180.536 74.5,181C 73.8875,183.147 73.2208,185.314 72.5,187.5C 72.2725,185.06 72.2725,182.727 72.5,180.5 Z"/></g>
<g><path style="opacity:1" fill="#414142" d="M 78.5,187.5 C 77.3509,187.209 76.6842,186.376 76.5,185C 76.7579,182.991 77.4245,181.157 78.5,179.5C 79.7434,178.263 80.7434,178.596 81.5,180.5C 80.675,181.386 79.675,181.719 78.5,181.5C 78.9349,183.703 78.9349,185.703 78.5,187.5 Z"/></g>
<g><path style="opacity:1" fill="#646465" d="M 32.5,179.5 C 30.834,178.334 29.1673,178.334 27.5,179.5C 28.9935,180.141 29.9935,181.141 30.5,182.5C 29.0813,183.451 27.4147,183.784 25.5,183.5C 25.33,184.822 25.6634,185.989 26.5,187C 24.8333,187.667 23.1667,187.667 21.5,187C 23.352,183.761 24.352,180.261 24.5,176.5C 27.1667,176.5 29.8333,176.5 32.5,176.5C 32.5,177.5 32.5,178.5 32.5,179.5 Z"/></g>
<g><path style="opacity:1" fill="#323233" d="M 49.5,179.5 C 49.5,180.167 49.5,180.833 49.5,181.5C 47.2901,182.455 46.9568,183.955 48.5,186C 47.9558,186.717 47.2891,187.217 46.5,187.5C 45.4773,184.842 45.8106,182.175 47.5,179.5C 47.9377,178.494 48.6043,178.494 49.5,179.5 Z"/></g>
<g><path style="opacity:1" fill="#454545" d="M 42.5,187.5 C 40.5,187.5 38.5,187.5 36.5,187.5C 36.3256,184.155 37.659,182.988 40.5,184C 41.0712,182.795 41.7379,181.628 42.5,180.5C 42.838,182.655 42.838,184.989 42.5,187.5 Z"/></g>
</svg>
