<?xml version="1.0" encoding="UTF-8"?>
<!DOCTYPE svg PUBLIC "-//W3C//DTD SVG 1.1//EN" "http://www.w3.org/Graphics/SVG/1.1/DTD/svg11.dtd">
<svg xmlns="http://www.w3.org/2000/svg" version="1.1" width="1024px" height="1024px" style="shape-rendering:geometricPrecision; text-rendering:geometricPrecision; image-rendering:optimizeQuality; fill-rule:evenodd; clip-rule:evenodd" xmlns:xlink="http://www.w3.org/1999/xlink">
<g><path style="opacity:0.98" fill="#97ab50" d="M 525.5,49.5 C 638.428,47.9773 739.762,81.144 829.5,149C 925.098,229.101 962.598,330.934 942,454.5C 927.936,515.308 899.269,567.974 856,612.5C 834.454,636.909 817.454,664.243 805,694.5C 794.026,728.448 794.026,762.448 805,796.5C 819.961,839.051 836.294,881.051 854,922.5C 856.808,929.757 859.308,937.09 861.5,944.5C 724.818,954.251 588.151,963.251 451.5,971.5C 438.46,934.88 427.96,897.547 420,859.5C 414.064,849.608 405.231,844.441 393.5,844C 383.167,843.333 372.833,843.333 362.5,844C 329.64,849.932 296.64,854.932 263.5,859C 248.524,860.424 233.524,860.757 218.5,860C 197.741,858.531 179.908,850.698 165,836.5C 159.898,829.695 157.064,822.028 156.5,813.5C 159.268,796.492 162.101,779.492 165,762.5C 167.308,750.062 166.974,737.728 164,725.5C 160.854,720.657 156.687,716.823 151.5,714C 141.31,706.466 138.81,696.966 144,685.5C 147.058,681.938 150.558,678.938 154.5,676.5C 143.852,672.604 134.686,666.604 127,658.5C 124.785,652.548 125.452,646.882 129,641.5C 133.496,635.844 137.496,629.844 141,623.5C 143.295,617.191 142.628,611.191 139,605.5C 131.437,596.797 122.604,589.631 112.5,584C 103.833,579.333 95.1667,574.667 86.5,570C 75.5294,561.791 72.3628,551.291 77,538.5C 82.5227,526.306 90.356,515.806 100.5,507C 130.226,483.261 152.393,453.761 167,418.5C 169.947,410.047 171.947,401.38 173,392.5C 172.68,366.171 172.68,339.838 173,313.5C 176.76,254.156 200.26,204.323 243.5,164C 308.14,109.685 382.14,74.0184 465.5,57C 485.515,53.3999 505.515,50.8999 525.5,49.5 Z M 566.5,144.5 C 579.365,143.73 592.032,144.896 604.5,148C 622.757,153.794 639.757,161.961 655.5,172.5C 714.766,162.297 756.766,184.463 781.5,239C 796.326,239.33 808.493,245.163 818,256.5C 830.268,274.965 837.602,295.299 840,317.5C 841.663,332.789 842.663,348.122 843,363.5C 862.213,387.368 866.213,413.701 855,442.5C 848.404,458.411 839.404,472.745 828,485.5C 824.159,517.982 809.326,544.149 783.5,564C 771.839,572.166 759.839,579.832 747.5,587C 717.485,609.528 702.151,639.695 701.5,677.5C 687.163,677.667 672.829,677.5 658.5,677C 659.33,639.238 659.83,601.405 660,563.5C 660.737,552.289 664.071,541.956 670,532.5C 686.465,518.37 702.631,503.87 718.5,489C 725.395,489.444 731.395,492.11 736.5,497C 742.428,503.52 747.094,510.853 750.5,519C 758.618,517.577 766.618,515.41 774.5,512.5C 773.493,498.322 767.493,486.488 756.5,477C 749.091,471.251 741.424,465.917 733.5,461C 741.116,439.14 745.449,416.64 746.5,393.5C 770.712,386.572 790.712,373.405 806.5,354C 799.758,348.215 792.591,343.049 785,338.5C 775.721,350.051 764.221,358.551 750.5,364C 746.903,365.277 743.236,365.61 739.5,365C 729.27,345.438 713.937,331.438 693.5,323C 685.12,319.762 676.62,316.929 668,314.5C 665.972,308.073 666.305,301.74 669,295.5C 671.752,290.088 675.252,285.255 679.5,281C 675.073,273.571 670.24,266.404 665,259.5C 652.721,266.05 644.721,276.05 641,289.5C 639.748,296.288 638.915,302.955 638.5,309.5C 627.224,308.153 615.89,307.153 604.5,306.5C 598.235,289.784 587.235,277.284 571.5,269C 579.616,256.653 584.116,243.153 585,228.5C 576.05,225.936 567.05,224.603 558,224.5C 556.332,238.498 551.832,251.498 544.5,263.5C 529.609,264.178 515.275,267.345 501.5,273C 493.564,274.919 485.564,276.419 477.5,277.5C 467.086,261.92 453.419,250.086 436.5,242C 434.162,241.163 431.828,240.33 429.5,239.5C 428.833,239.833 428.167,240.167 427.5,240.5C 424.389,247.987 422.222,255.654 421,263.5C 436.301,270.396 448.468,280.896 457.5,295C 450.204,318.809 435.37,335.976 413,346.5C 402.974,327.473 388.14,313.639 368.5,305C 360.769,302.02 352.769,300.52 344.5,300.5C 344.81,308.841 345.31,317.174 346,325.5C 366.64,329.129 381.14,340.629 389.5,360C 385.512,362.328 381.179,363.662 376.5,364C 364.832,364.389 353.165,364.222 341.5,363.5C 323.174,362.001 309.674,369.335 301,385.5C 296.96,391.944 294.793,398.777 294.5,406C 302.705,408.598 310.871,410.431 319,411.5C 320.415,395.756 329.082,388.09 345,388.5C 363.297,392.144 381.13,390.644 398.5,384C 403.846,381.997 408.513,378.997 412.5,375C 446.251,362.084 468.918,338.584 480.5,304.5C 487.464,303.152 494.464,301.985 501.5,301C 509.975,298.397 518.308,295.397 526.5,292C 553.01,283.922 571.01,292.922 580.5,319C 571.203,330.089 564.37,342.589 560,356.5C 536.183,355.049 514.35,360.883 494.5,374C 488.896,377.766 484.563,382.6 481.5,388.5C 487.359,393.356 493.859,397.356 501,400.5C 516.767,386.17 535.267,380.836 556.5,384.5C 558.586,403.269 565.086,420.269 576,435.5C 582.941,431.057 589.441,426.057 595.5,420.5C 585.177,403.541 581.01,385.208 583,365.5C 584.87,352.234 591.37,342.067 602.5,335C 614.455,331.993 626.455,331.993 638.5,335C 660.51,338.78 681.177,346.113 700.5,357C 715.46,371.3 721.294,388.8 718,409.5C 716.528,439.96 705.028,465.793 683.5,487C 671.163,495.767 659.663,505.601 649,516.5C 641.633,525.908 636.967,536.575 635,548.5C 634.325,591.838 634.492,635.171 635.5,678.5C 622.5,678.5 609.5,678.5 596.5,678.5C 596.667,630.832 596.5,583.166 596,535.5C 595.104,527.809 592.437,520.809 588,514.5C 571.965,495.384 552.131,481.551 528.5,473C 522.273,470.535 515.94,468.369 509.5,466.5C 482.956,475.152 456.289,475.652 429.5,468C 421.793,465.065 414.626,461.231 408,456.5C 370.255,468.974 332.421,469.474 294.5,458C 246.188,438.556 226.688,403.056 236,351.5C 240.833,319.287 257,294.787 284.5,278C 288.073,276.629 291.573,275.129 295,273.5C 302.824,224.349 331.657,198.182 381.5,195C 388.55,194.203 395.55,194.37 402.5,195.5C 416.389,169.207 438.389,156.207 468.5,156.5C 488.64,157.261 507.973,161.594 526.5,169.5C 536.789,156.194 550.123,147.861 566.5,144.5 Z"/></g>
</svg>
