<?xml version="1.0" encoding="UTF-8"?>
<!DOCTYPE svg PUBLIC "-//W3C//DTD SVG 1.1//EN" "http://www.w3.org/Graphics/SVG/1.1/DTD/svg11.dtd">
<svg xmlns="http://www.w3.org/2000/svg" version="1.1" width="450px" height="245px" style="shape-rendering:geometricPrecision; text-rendering:geometricPrecision; image-rendering:optimizeQuality; fill-rule:evenodd; clip-rule:evenodd" xmlns:xlink="http://www.w3.org/1999/xlink">
<g><path style="opacity:0.939" fill="#024394" d="M 177.5,48.5 C 166.303,61.1886 156.803,75.1886 149,90.5C 147.864,93.0964 147.031,95.763 146.5,98.5C 143.698,103.075 142.198,108.075 142,113.5C 143.836,108.814 145.669,104.148 147.5,99.5C 154.5,85.0136 163.833,72.1803 175.5,61C 176.094,60.5357 176.761,60.369 177.5,60.5C 177.5,81.8333 177.5,103.167 177.5,124.5C 164.167,124.5 150.833,124.5 137.5,124.5C 137.5,85.1667 137.5,45.8333 137.5,6.5C 150.833,6.5 164.167,6.5 177.5,6.5C 177.5,20.5 177.5,34.5 177.5,48.5 Z"/></g>
<g><path style="opacity:0.764" fill="#f6b909" d="M 177.5,60.5 C 176.761,60.369 176.094,60.5357 175.5,61C 163.833,72.1803 154.5,85.0136 147.5,99.5C 146.833,99.5 146.5,99.1667 146.5,98.5C 147.031,95.763 147.864,93.0964 149,90.5C 156.803,75.1886 166.303,61.1886 177.5,48.5C 200.811,27.8425 227.811,14.0091 258.5,7C 261.167,6.33333 263.833,6.33333 266.5,7C 236.132,17.7567 208.465,33.0901 183.5,53C 180.882,55.1057 178.882,57.6057 177.5,60.5 Z"/></g>
<g><path style="opacity:0.651" fill="#009b59" d="M 218.5,49.5 C 226.939,52.5717 228.606,57.905 223.5,65.5C 218.434,65.9658 215.434,63.4658 214.5,58C 215.187,54.8275 216.521,51.9942 218.5,49.5 Z M 219.5,55.5 C 221.914,56.7767 222.081,58.4434 220,60.5C 219.506,58.8659 219.34,57.1992 219.5,55.5 Z"/></g>
<g><path style="opacity:0.681" fill="#009b59" d="M 197.5,57.5 C 198.5,57.5 199.5,57.5 200.5,57.5C 200.343,58.8734 200.51,60.2068 201,61.5C 206.146,66.4023 211.479,71.069 217,75.5C 219.941,83.2562 221.274,91.2562 221,99.5C 218.209,106.414 214.876,113.081 211,119.5C 209.921,122.063 209.421,124.729 209.5,127.5C 208.5,127.5 207.5,127.5 206.5,127.5C 206.335,124.15 206.502,120.817 207,117.5C 210.24,107.779 213.074,97.946 215.5,88C 214.917,85.0819 214.084,82.2486 213,79.5C 206.973,75.6515 201.307,71.3182 196,66.5C 194.058,63.1406 194.558,60.1406 197.5,57.5 Z"/></g>
<g><path style="opacity:0.677" fill="#009b59" d="M 249.5,57.5 C 251.847,59.0301 252.014,61.0301 250,63.5C 242.415,70.695 234.581,77.5284 226.5,84C 228.758,89.0159 230.591,94.1825 232,99.5C 233.435,110.827 234.769,122.16 236,133.5C 237.37,136.991 238.87,140.325 240.5,143.5C 237.737,143.256 235.571,141.923 234,139.5C 232.059,135.952 230.393,132.286 229,128.5C 227.93,117.511 226.93,106.511 226,95.5C 221.046,88.4965 221.379,81.8298 227,75.5C 234.399,69.2561 241.899,63.2561 249.5,57.5 Z"/></g>
<g><path style="opacity:1" fill="#a6933e" d="M 146.5,98.5 C 146.5,99.1667 146.833,99.5 147.5,99.5C 145.669,104.148 143.836,108.814 142,113.5C 142.198,108.075 143.698,103.075 146.5,98.5 Z"/></g>
<g><path style="opacity:0.725" fill="#004394" d="M 252.5,137.5 C 256.514,137.334 260.514,137.501 264.5,138C 266.291,138.415 267.624,139.415 268.5,141C 267.427,142.594 266.427,144.094 265.5,145.5C 262.62,141.631 258.954,140.631 254.5,142.5C 253.253,144.006 253.253,145.506 254.5,147C 259.929,148.911 264.762,151.744 269,155.5C 270.163,160.345 268.663,164.179 264.5,167C 258.564,170.064 252.564,170.231 246.5,167.5C 244.624,160.183 246.291,159.017 251.5,164C 254.167,164.667 256.833,164.667 259.5,164C 262.033,162.084 262.033,160.084 259.5,158C 255.91,156.47 252.243,155.136 248.5,154C 243.626,146.925 244.959,141.425 252.5,137.5 Z"/></g>
<g><path style="opacity:0.706" fill="#004394" d="M 20.5,138.5 C 24.6746,138.188 28.6746,138.855 32.5,140.5C 33.2309,142.401 33.2309,144.401 32.5,146.5C 30.1238,144.841 27.4571,143.507 24.5,142.5C 22.8653,143.046 21.1986,143.38 19.5,143.5C 19.2865,145.144 19.6198,146.644 20.5,148C 25.0175,150.17 29.5175,152.337 34,154.5C 37.0284,162.598 34.195,167.431 25.5,169C 22.5,169.667 19.5,169.667 16.5,169C 9.68528,168.124 8.68528,165.291 13.5,160.5C 17.1497,165.538 21.6497,166.538 27,163.5C 27.7112,161.633 27.2112,160.133 25.5,159C 21.5,157.333 17.5,155.667 13.5,154C 9.99098,150.799 9.65764,147.299 12.5,143.5C 14.9279,141.295 17.5946,139.628 20.5,138.5 Z"/></g>
<g><path style="opacity:0.735" fill="#004394" d="M 348.5,141.5 C 351.167,142.833 353.833,142.833 356.5,141.5C 356.5,150.5 356.5,159.5 356.5,168.5C 353.833,168.5 351.167,168.5 348.5,168.5C 348.5,159.5 348.5,150.5 348.5,141.5 Z"/></g>
<g><path style="opacity:0.706" fill="#004394" d="M 374.5,141.5 C 376.288,141.215 377.955,141.548 379.5,142.5C 383.5,150.833 387.5,159.167 391.5,167.5C 388.554,168.655 385.554,168.821 382.5,168C 381.601,165.808 380.601,163.642 379.5,161.5C 376.572,160.516 373.572,160.183 370.5,160.5C 369.833,163.167 369.167,165.833 368.5,168.5C 366.5,168.5 364.5,168.5 362.5,168.5C 366.219,159.393 370.219,150.393 374.5,141.5 Z M 374.5,151.5 C 375.601,152.848 376.601,154.348 377.5,156C 376.056,156.781 374.723,156.614 373.5,155.5C 374.246,154.264 374.579,152.93 374.5,151.5 Z"/></g>
<g><path style="opacity:0.656" fill="#004394" d="M 396.5,141.5 C 398.881,142.42 401.214,142.42 403.5,141.5C 404.497,149.138 404.831,156.804 404.5,164.5C 407.807,163.949 411.14,163.616 414.5,163.5C 414.5,165.167 414.5,166.833 414.5,168.5C 408.242,168.81 402.076,168.476 396,167.5C 395.225,158.785 395.392,150.119 396.5,141.5 Z"/></g>
<g><path style="opacity:0.691" fill="#004394" d="M 420.5,141.5 C 426.5,141.5 432.5,141.5 438.5,141.5C 438.5,143.167 438.5,144.833 438.5,146.5C 435.167,146.5 431.833,146.5 428.5,146.5C 428.5,148.5 428.5,150.5 428.5,152.5C 431.833,152.5 435.167,152.5 438.5,152.5C 438.5,153.833 438.5,155.167 438.5,156.5C 435.167,156.5 431.833,156.5 428.5,156.5C 428.5,159.167 428.5,161.833 428.5,164.5C 431.807,163.949 435.14,163.616 438.5,163.5C 438.5,165.167 438.5,166.833 438.5,168.5C 432.5,168.5 426.5,168.5 420.5,168.5C 420.5,159.5 420.5,150.5 420.5,141.5 Z"/></g>
<g><path style="opacity:0.666" fill="#004394" d="M 79.5,142.5 C 83.5236,143.038 87.5236,143.705 91.5,144.5C 91.4348,146.696 90.7681,148.696 89.5,150.5C 84.2926,145.233 79.1259,145.233 74,150.5C 71.7851,155.325 72.2851,159.825 75.5,164C 80.7323,166.13 85.7323,165.63 90.5,162.5C 91.7283,164.898 91.0616,166.732 88.5,168C 79.4947,170.956 71.6613,169.123 65,162.5C 62.5258,156.791 63.3592,151.625 67.5,147C 71.3011,144.584 75.3011,143.084 79.5,142.5 Z"/></g>
<g><path style="opacity:0.713" fill="#004394" d="M 285.5,142.5 C 295.162,140.376 302.995,143.043 309,150.5C 310.972,159.543 307.472,165.377 298.5,168C 292.276,169.061 286.276,168.394 280.5,166C 274.516,161.068 273.35,155.234 277,148.5C 279.637,146.109 282.47,144.109 285.5,142.5 Z M 291.5,145.5 C 300.133,147.77 302.633,153.104 299,161.5C 295.353,165.622 291.187,166.289 286.5,163.5C 284.015,158.614 283.849,153.614 286,148.5C 287.719,147.131 289.552,146.131 291.5,145.5 Z"/></g>
<g><path style="opacity:0.672" fill="#004394" d="M 325.5,142.5 C 331.212,142.313 336.879,142.646 342.5,143.5C 342.435,145.696 341.768,147.696 340.5,149.5C 332.02,143.549 326.354,145.549 323.5,155.5C 325.9,165.417 331.567,167.75 340.5,162.5C 342.05,165.129 341.384,166.963 338.5,168C 328.51,170.673 320.676,167.84 315,159.5C 313.922,150.987 317.422,145.32 325.5,142.5 Z"/></g>
<g><path style="opacity:0.675" fill="#004394" d="M 41.5,143.5 C 47.5,143.5 53.5,143.5 59.5,143.5C 59.5,145.167 59.5,146.833 59.5,148.5C 56.5,148.5 53.5,148.5 50.5,148.5C 50.5,150.167 50.5,151.833 50.5,153.5C 53.5,153.5 56.5,153.5 59.5,153.5C 59.5,154.833 59.5,156.167 59.5,157.5C 56.5,157.5 53.5,157.5 50.5,157.5C 50.7564,159.792 50.4231,161.959 49.5,164C 53.0915,164.789 56.5915,164.622 60,163.5C 59.9813,165.107 59.8146,166.774 59.5,168.5C 53.5,168.5 47.5,168.5 41.5,168.5C 41.5,160.167 41.5,151.833 41.5,143.5 Z"/></g>
<g><path style="opacity:0.65" fill="#004394" d="M 97.5,143.5 C 100.167,143.5 102.833,143.5 105.5,143.5C 105.334,148.844 105.501,154.177 106,159.5C 106.709,163.041 108.876,165.041 112.5,165.5C 114.949,165.02 117.115,164.02 119,162.5C 119.5,156.175 119.666,149.842 119.5,143.5C 121.5,143.5 123.5,143.5 125.5,143.5C 125.92,150.284 125.42,156.95 124,163.5C 115.365,171.423 106.698,171.423 98,163.5C 96.2972,156.822 96.1305,150.155 97.5,143.5 Z"/></g>
<g><path style="opacity:0.745" fill="#004394" d="M 133.5,143.5 C 140.391,142.901 147.058,143.735 153.5,146C 156.665,151.575 154.998,155.241 148.5,157C 151.685,159.884 154.518,163.051 157,166.5C 157.749,167.635 157.583,168.635 156.5,169.5C 153.497,168.915 150.497,168.248 147.5,167.5C 145.42,165.007 143.586,162.341 142,159.5C 141.502,162.482 141.335,165.482 141.5,168.5C 138.833,168.5 136.167,168.5 133.5,168.5C 133.5,160.167 133.5,151.833 133.5,143.5 Z M 141.5,147.5 C 146.747,147.64 147.747,149.806 144.5,154C 143.552,154.483 142.552,154.649 141.5,154.5C 141.5,152.167 141.5,149.833 141.5,147.5 Z"/></g>
<g><path style="opacity:0.692" fill="#004394" d="M 162.5,143.5 C 165.448,143.223 168.281,143.556 171,144.5C 171.5,152.493 171.666,160.493 171.5,168.5C 168.5,168.5 165.5,168.5 162.5,168.5C 162.5,160.167 162.5,151.833 162.5,143.5 Z"/></g>
<g><path style="opacity:0.659" fill="#004394" d="M 176.5,143.5 C 184.5,143.5 192.5,143.5 200.5,143.5C 200.5,145.167 200.5,146.833 200.5,148.5C 198.08,148.708 195.747,148.374 193.5,147.5C 192.503,154.468 192.17,161.468 192.5,168.5C 189.5,168.5 186.5,168.5 183.5,168.5C 183.188,161.578 183.521,154.744 184.5,148C 181.572,148.456 178.572,148.456 175.5,148C 176.38,146.644 176.714,145.144 176.5,143.5 Z"/></g>
<g><path style="opacity:0.655" fill="#004394" d="M 204.5,143.5 C 210.833,143.5 217.167,143.5 223.5,143.5C 223.5,145.167 223.5,146.833 223.5,148.5C 220.223,148.784 217.057,148.451 214,147.5C 213.505,149.473 213.338,151.473 213.5,153.5C 216.833,153.5 220.167,153.5 223.5,153.5C 223.5,154.833 223.5,156.167 223.5,157.5C 220.223,157.784 217.057,157.451 214,156.5C 213.503,159.146 213.336,161.813 213.5,164.5C 216.777,164.784 219.943,164.451 223,163.5C 223.494,165.134 223.66,166.801 223.5,168.5C 217.167,168.5 210.833,168.5 204.5,168.5C 204.5,160.167 204.5,151.833 204.5,143.5 Z"/></g>
<g><path style="opacity:0.605" fill="#004394" d="M 186.5,181.5 C 190.881,181.372 195.215,181.705 199.5,182.5C 199.5,183.833 199.5,185.167 199.5,186.5C 196.844,185.842 194.178,185.175 191.5,184.5C 184.788,185.267 182.788,188.767 185.5,195C 188.146,195.497 190.813,195.664 193.5,195.5C 193.5,193.833 193.5,192.167 193.5,190.5C 195.833,190.5 198.167,190.5 200.5,190.5C 200.768,193.119 200.435,195.619 199.5,198C 193.089,199.873 186.756,199.54 180.5,197C 176.354,192.375 176.687,188.041 181.5,184C 183.315,183.243 184.981,182.41 186.5,181.5 Z"/></g>
<g><path style="opacity:0.619" fill="#004394" d="M 304.5,182.5 C 313.112,182.272 316.945,186.272 316,194.5C 309.04,201.132 302.04,201.132 295,194.5C 294.289,192.101 294.456,189.768 295.5,187.5C 298.154,185.011 301.154,183.344 304.5,182.5 Z M 304.5,185.5 C 310.153,185.944 311.986,188.944 310,194.5C 305.562,197.409 302.396,196.409 300.5,191.5C 300.866,188.744 302.2,186.744 304.5,185.5 Z"/></g>
<g><path style="opacity:0.54" fill="#004394" d="M 205.5,183.5 C 207.5,183.5 209.5,183.5 211.5,183.5C 211.5,187.5 211.5,191.5 211.5,195.5C 214.167,195.5 216.833,195.5 219.5,195.5C 219.5,191.5 219.5,187.5 219.5,183.5C 221.144,183.286 222.644,183.62 224,184.5C 226.577,193.355 223.41,198.355 214.5,199.5C 211.257,198.985 208.424,197.652 206,195.5C 205.501,191.514 205.334,187.514 205.5,183.5 Z"/></g>
<g><path style="opacity:0.585" fill="#004394" d="M 233.5,183.5 C 234.978,183.238 236.311,183.571 237.5,184.5C 239.412,188.66 241.579,192.66 244,196.5C 244.667,197.5 244.667,198.5 244,199.5C 240.291,198.905 236.957,197.572 234,195.5C 231.344,196.747 228.677,198.08 226,199.5C 225.333,198.5 225.333,197.5 226,196.5C 228.512,192.139 231.012,187.806 233.5,183.5 Z M 233.5,189.5 C 236.377,191.846 236.044,192.679 232.5,192C 233.252,191.329 233.586,190.496 233.5,189.5 Z"/></g>
<g><path style="opacity:0.609" fill="#004394" d="M 245.5,183.5 C 250.179,183.334 254.845,183.501 259.5,184C 267.485,188.72 267.485,193.387 259.5,198C 254.845,198.499 250.179,198.666 245.5,198.5C 245.5,193.5 245.5,188.5 245.5,183.5 Z M 251.5,186.5 C 258.61,185.904 260.61,188.737 257.5,195C 255.527,195.495 253.527,195.662 251.5,195.5C 251.5,192.5 251.5,189.5 251.5,186.5 Z"/></g>
<g><path style="opacity:0.608" fill="#004394" d="M 267.5,183.5 C 271.5,183.5 275.5,183.5 279.5,183.5C 279.5,184.5 279.5,185.5 279.5,186.5C 277.143,186.337 274.81,186.503 272.5,187C 273.833,187.667 273.833,188.333 272.5,189C 275.651,188.988 278.318,189.988 280.5,192C 277.833,192.333 275.167,192.667 272.5,193C 274.303,195.103 276.636,195.936 279.5,195.5C 279.906,197.109 279.906,198.443 279.5,199.5C 275.571,198.567 271.571,198.234 267.5,198.5C 267.5,193.5 267.5,188.5 267.5,183.5 Z"/></g>
<g><path style="opacity:0.597" fill="#004394" d="M 281.5,183.5 C 283.5,183.5 285.5,183.5 287.5,183.5C 287.5,187.5 287.5,191.5 287.5,195.5C 289.5,195.5 291.5,195.5 293.5,195.5C 293.657,196.873 293.49,198.207 293,199.5C 289.27,198.54 285.437,198.207 281.5,198.5C 281.5,193.5 281.5,188.5 281.5,183.5 Z"/></g>
<g><path style="opacity:0.591" fill="#004394" d="M 319.5,183.5 C 321.167,183.5 322.833,183.5 324.5,183.5C 324.241,187.24 324.574,190.906 325.5,194.5C 327.743,195.474 330.076,195.808 332.5,195.5C 332.5,191.5 332.5,187.5 332.5,183.5C 334.665,183.116 336.332,183.783 337.5,185.5C 336.738,189.111 336.238,192.778 336,196.5C 330.714,200.209 325.38,200.209 320,196.5C 319.501,192.179 319.334,187.846 319.5,183.5 Z"/></g>
<g><path style="opacity:0.623" fill="#004394" d="M 340.5,183.5 C 344.182,183.335 347.848,183.501 351.5,184C 354.703,185.947 355.203,188.447 353,191.5C 350.993,192.669 348.827,193.335 346.5,193.5C 346.5,195.167 346.5,196.833 346.5,198.5C 344.5,198.5 342.5,198.5 340.5,198.5C 340.5,193.5 340.5,188.5 340.5,183.5 Z M 346.5,186.5 C 349.041,187.623 349.041,188.956 346.5,190.5C 346.094,189.443 346.094,188.109 346.5,186.5 Z"/></g>
<g><path style="opacity:0.568" fill="#004394" d="M 355.5,183.5 C 359.833,183.5 364.167,183.5 368.5,183.5C 368.5,184.5 368.5,185.5 368.5,186.5C 366.167,186.5 363.833,186.5 361.5,186.5C 361.5,187.5 361.5,188.5 361.5,189.5C 363.833,189.5 366.167,189.5 368.5,189.5C 368.5,190.5 368.5,191.5 368.5,192.5C 366.167,192.5 363.833,192.5 361.5,192.5C 361.5,193.5 361.5,194.5 361.5,195.5C 363.833,195.5 366.167,195.5 368.5,195.5C 368.657,196.873 368.49,198.207 368,199.5C 363.934,198.536 359.767,198.203 355.5,198.5C 355.5,193.5 355.5,188.5 355.5,183.5 Z"/></g>
<g><path style="opacity:0.621" fill="#004394" d="M 87.5,184.5 C 91.8461,184.334 96.1794,184.501 100.5,185C 107.565,188.726 108.232,193.392 102.5,199C 97.5988,200.325 92.5988,200.825 87.5,200.5C 87.5,195.167 87.5,189.833 87.5,184.5 Z M 93.5,187.5 C 99.8676,187.95 101.534,190.95 98.5,196.5C 96.9291,197.309 95.2624,197.643 93.5,197.5C 93.5,194.167 93.5,190.833 93.5,187.5 Z"/></g>
<g><path style="opacity:0.599" fill="#004394" d="M 120.5,200.5 C 116.833,200.5 113.167,200.5 109.5,200.5C 109.5,195.167 109.5,189.833 109.5,184.5C 113.167,184.5 116.833,184.5 120.5,184.5C 120.762,185.978 120.429,187.311 119.5,188.5C 117.902,187.515 116.235,187.349 114.5,188C 115.955,190.016 117.955,190.849 120.5,190.5C 120.762,191.978 120.429,193.311 119.5,194.5C 118.264,193.754 116.93,193.421 115.5,193.5C 115.109,196.838 116.276,197.838 119,196.5C 121.744,197.061 122.244,198.394 120.5,200.5 Z"/></g>
<g><path style="opacity:0.6" fill="#004394" d="M 133.5,184.5 C 135.5,184.5 137.5,184.5 139.5,184.5C 139.334,188.846 139.501,193.179 140,197.5C 141.356,196.62 142.856,196.286 144.5,196.5C 144.5,197.833 144.5,199.167 144.5,200.5C 140.833,200.5 137.167,200.5 133.5,200.5C 133.5,195.167 133.5,189.833 133.5,184.5 Z"/></g>
<g><path style="opacity:0.617" fill="#004394" d="M 154.5,184.5 C 158.493,184 160.16,185.5 159.5,189C 161.374,192.581 163.374,196.081 165.5,199.5C 164.5,199.833 163.5,200.167 162.5,200.5C 160.167,199.167 157.833,197.833 155.5,196.5C 152.488,196.179 151.155,197.512 151.5,200.5C 149.712,200.785 148.045,200.452 146.5,199.5C 149.434,194.632 152.1,189.632 154.5,184.5 Z M 154.5,190.5 C 155.267,191.172 155.934,192.005 156.5,193C 154.939,193.188 154.272,192.355 154.5,190.5 Z"/></g>
<g><path style="opacity:0.004" fill="#004394" d="M 120.5,200.5 C 121.833,201.167 121.833,201.167 120.5,200.5 Z"/></g>
<g><path style="opacity:0.65" fill="#009b59" d="M 85.5,219.5 C 179.5,219.5 273.5,219.5 367.5,219.5C 367.5,221.167 367.5,222.833 367.5,224.5C 273.5,224.5 179.5,224.5 85.5,224.5C 85.5,222.833 85.5,221.167 85.5,219.5 Z"/></g>
<g><path style="opacity:0.475" fill="#009b59" d="M 89.5,229.5 C 91.8333,229.5 94.1667,229.5 96.5,229.5C 96.5,230.5 96.5,231.5 96.5,232.5C 94.5,232.5 92.5,232.5 90.5,232.5C 90.7007,236.35 92.5341,237.35 96,235.5C 96.4828,236.448 96.6495,237.448 96.5,238.5C 92.9929,239.006 89.8263,238.34 87,236.5C 86.3333,235.167 86.3333,233.833 87,232.5C 88.045,231.627 88.8783,230.627 89.5,229.5 Z"/></g>
<g><path style="opacity:0.477" fill="#009b59" d="M 110.5,229.5 C 111.822,229.33 112.989,229.663 114,230.5C 115.993,232.818 117.159,235.484 117.5,238.5C 113.743,237.622 110.076,237.289 106.5,237.5C 108.372,235.09 109.705,232.423 110.5,229.5 Z"/></g>
<g><path style="opacity:0.516" fill="#009b59" d="M 128.5,229.5 C 129.833,229.5 131.167,229.5 132.5,229.5C 132.5,232.5 132.5,235.5 132.5,238.5C 131.167,238.5 129.833,238.5 128.5,238.5C 128.5,235.5 128.5,232.5 128.5,229.5 Z"/></g>
<g><path style="opacity:0.436" fill="#009b59" d="M 145.5,229.5 C 147.5,229.5 149.5,229.5 151.5,229.5C 151.64,231.124 150.973,232.29 149.5,233C 151.283,234.067 151.783,235.567 151,237.5C 148.619,238.435 146.119,238.768 143.5,238.5C 143.36,236.876 144.027,235.71 145.5,235C 143.103,233.29 143.103,231.456 145.5,229.5 Z"/></g>
<g><path style="opacity:0.438" fill="#009b59" d="M 164.5,229.5 C 166.167,229.5 167.833,229.5 169.5,229.5C 169.64,231.124 168.973,232.29 167.5,233C 170.032,233.612 170.865,235.112 170,237.5C 167.051,238.934 164.218,238.768 161.5,237C 163.781,235.518 163.781,233.851 161.5,232C 162.571,231.148 163.571,230.315 164.5,229.5 Z"/></g>
<g><path style="opacity:0.46" fill="#009b59" d="M 181.5,229.5 C 183.833,229.5 186.167,229.5 188.5,229.5C 188.5,231.5 188.5,233.5 188.5,235.5C 183.318,235.557 183.318,236.224 188.5,237.5C 186.257,238.474 183.924,238.808 181.5,238.5C 181.5,235.5 181.5,232.5 181.5,229.5 Z"/></g>
<g><path style="opacity:0.46" fill="#009b59" d="M 218.5,229.5 C 220.833,229.5 223.167,229.5 225.5,229.5C 225.5,230.5 225.5,231.5 225.5,232.5C 223.208,232.244 221.041,232.577 219,233.5C 218.667,235.934 219.834,236.934 222.5,236.5C 222.5,235.5 222.5,234.5 222.5,233.5C 226.161,233.35 227.161,234.85 225.5,238C 222.5,238.667 219.5,238.667 216.5,238C 213.614,234.374 214.281,231.541 218.5,229.5 Z"/></g>
<g><path style="opacity:0.394" fill="#009b59" d="M 237.5,229.5 C 240.167,229.5 242.833,229.5 245.5,229.5C 245.5,231.5 245.5,233.5 245.5,235.5C 240.318,235.557 240.318,236.224 245.5,237.5C 242.914,238.48 240.247,238.813 237.5,238.5C 237.5,235.5 237.5,232.5 237.5,229.5 Z"/></g>
<g><path style="opacity:0.493" fill="#009b59" d="M 256.5,229.5 C 259.315,230.126 261.815,231.46 264,233.5C 264.49,232.207 264.657,230.873 264.5,229.5C 265.5,229.5 266.5,229.5 267.5,229.5C 267.5,232.5 267.5,235.5 267.5,238.5C 264.215,238.731 261.715,237.397 260,234.5C 259.51,235.793 259.343,237.127 259.5,238.5C 258.5,238.5 257.5,238.5 256.5,238.5C 256.5,235.5 256.5,232.5 256.5,229.5 Z"/></g>
<g><path style="opacity:0.393" fill="#009b59" d="M 279.5,229.5 C 282.167,229.5 284.833,229.5 287.5,229.5C 287.5,231.5 287.5,233.5 287.5,235.5C 282.318,235.557 282.318,236.224 287.5,237.5C 284.914,238.48 282.247,238.813 279.5,238.5C 279.5,235.5 279.5,232.5 279.5,229.5 Z"/></g>
<g><path style="opacity:0.516" fill="#009b59" d="M 298.5,229.5 C 301.249,229.274 303.916,229.607 306.5,230.5C 307.83,232.347 307.497,233.847 305.5,235C 306.5,236 307.5,237 308.5,238C 305.064,237.652 301.731,237.819 298.5,238.5C 298.5,235.5 298.5,232.5 298.5,229.5 Z"/></g>
<g><path style="opacity:0.477" fill="#009b59" d="M 322.5,229.5 C 323.822,229.33 324.989,229.663 326,230.5C 327.123,233.249 328.623,235.749 330.5,238C 326.389,237.782 322.389,237.615 318.5,237.5C 320.372,235.09 321.705,232.423 322.5,229.5 Z"/></g>
<g><path style="opacity:0.471" fill="#009b59" d="M 340.5,229.5 C 341.833,229.5 343.167,229.5 344.5,229.5C 344.5,231.833 344.5,234.167 344.5,236.5C 345.978,236.238 347.311,236.571 348.5,237.5C 345.914,238.48 343.247,238.813 340.5,238.5C 340.5,235.5 340.5,232.5 340.5,229.5 Z"/></g>
<g><path style="opacity:0.397" fill="#009b59" d="M 359.5,229.5 C 362.167,229.5 364.833,229.5 367.5,229.5C 367.5,231.5 367.5,233.5 367.5,235.5C 362.318,235.557 362.318,236.224 367.5,237.5C 364.914,238.48 362.247,238.813 359.5,238.5C 359.5,235.5 359.5,232.5 359.5,229.5 Z"/></g>
</svg>
