<?xml version="1.0" encoding="UTF-8"?>
<!DOCTYPE svg PUBLIC "-//W3C//DTD SVG 1.1//EN" "http://www.w3.org/Graphics/SVG/1.1/DTD/svg11.dtd">
<svg xmlns="http://www.w3.org/2000/svg" version="1.1" width="591px" height="591px" style="shape-rendering:geometricPrecision; text-rendering:geometricPrecision; image-rendering:optimizeQuality; fill-rule:evenodd; clip-rule:evenodd" xmlns:xlink="http://www.w3.org/1999/xlink">
<g><path style="opacity:0.982" fill="#97ab50" d="M 286.5,113.5 C 307.28,111.314 324.113,118.314 337,134.5C 351.172,158.612 349.005,181.112 330.5,202C 315.152,214.737 297.819,218.404 278.5,213C 252.432,201.708 241.265,181.875 245,153.5C 250.564,131.487 264.397,118.154 286.5,113.5 Z"/></g>
<g><path style="opacity:0.97" fill="#97ab50" d="M 206.5,125.5 C 219.756,125.417 231.422,129.584 241.5,138C 231.939,159.632 233.939,180.132 247.5,199.5C 246.239,202.264 244.405,204.597 242,206.5C 225.836,197.471 209.503,196.804 193,204.5C 189.946,185.464 180.446,170.63 164.5,160C 171.518,139.8 185.518,128.3 206.5,125.5 Z"/></g>
<g><path style="opacity:0.971" fill="#97ab50" d="M 379.5,125.5 C 402.073,125.605 417.739,135.938 426.5,156.5C 418.28,161.881 411.114,168.548 405,176.5C 399.663,184.344 396.83,193.01 396.5,202.5C 388.872,200.908 381.206,199.574 373.5,198.5C 365.34,199.165 357.507,201.165 350,204.5C 346.772,202.937 344.605,200.437 343.5,197C 354.593,179.116 356.26,160.449 348.5,141C 357.047,132.06 367.38,126.893 379.5,125.5 Z"/></g>
<g><path style="opacity:0.979" fill="#97ab50" d="M 445.5,160.5 C 469.56,159.271 486.393,169.605 496,191.5C 502.395,213.978 496.561,232.478 478.5,247C 463.784,255.369 448.451,256.703 432.5,251C 429.18,233.186 420.18,219.02 405.5,208.5C 406.036,181.955 419.369,165.955 445.5,160.5 Z"/></g>
<g><path style="opacity:0.977" fill="#97ab50" d="M 128.5,162.5 C 161.343,160.077 180.343,175.077 185.5,207.5C 175.294,215.21 167.461,224.876 162,236.5C 160.31,241.786 158.81,247.12 157.5,252.5C 134.092,261.082 114.592,255.748 99,236.5C 85.8436,212.583 89.0103,191.083 108.5,172C 114.74,167.763 121.407,164.596 128.5,162.5 Z"/></g>
<g><path style="opacity:0.979" fill="#97ab50" d="M 209.5,207.5 C 236.934,206.619 254.434,219.286 262,245.5C 262.667,249.833 262.667,254.167 262,258.5C 250.392,267.704 243.392,279.704 241,294.5C 214.689,307.92 192.689,302.92 175,279.5C 163.006,254.131 167.839,232.631 189.5,215C 195.885,211.377 202.552,208.877 209.5,207.5 Z"/></g>
<g><path style="opacity:0.979" fill="#97ab50" d="M 368.5,207.5 C 395.94,206.621 413.44,219.288 421,245.5C 424.21,274.273 412.044,292.773 384.5,301C 374.552,302.303 364.886,301.303 355.5,298C 352.002,279.822 342.836,265.322 328,254.5C 329.521,228.481 343.021,212.814 368.5,207.5 Z"/></g>
<g><path style="opacity:0.946" fill="#97ab50" d="M 272.5,217.5 C 287.504,217.333 302.504,217.5 317.5,218C 321.951,218.13 326.284,218.796 330.5,220C 324.302,229.26 320.468,239.427 319,250.5C 302.704,243.425 286.704,244.092 271,252.5C 270.326,240.473 266.492,229.64 259.5,220C 263.906,218.959 268.239,218.126 272.5,217.5 Z"/></g>
<g><path style="opacity:0.98" fill="#97ab50" d="M 292.5,255.5 C 323.806,255.81 341.14,271.476 344.5,302.5C 342.337,331.663 326.671,347.663 297.5,350.5C 268.55,347.717 252.884,331.884 250.5,303C 252.362,276.311 266.362,260.478 292.5,255.5 Z"/></g>
<g><path style="opacity:0.983" fill="#97ab50" d="M 431.5,257.5 C 448.17,257.333 464.837,257.5 481.5,258C 509.563,264.063 526.063,281.229 531,309.5C 531.833,328.509 531.666,347.509 530.5,366.5C 509.577,376.152 487.577,380.818 464.5,380.5C 468.006,349.028 457.006,324.195 431.5,306C 425.612,302.889 419.612,300.056 413.5,297.5C 424.704,286.571 430.704,273.237 431.5,257.5 Z"/></g>
<g><path style="opacity:0.982" fill="#97ab50" d="M 111.5,258.5 C 127.167,258.5 142.833,258.5 158.5,258.5C 158.679,274.189 164.346,287.523 175.5,298.5C 138.389,314.02 121.723,342.02 125.5,382.5C 102.539,382.259 80.539,377.592 59.5,368.5C 58.3336,348.175 58.1669,327.842 59,307.5C 65.8059,279.522 83.3059,263.189 111.5,258.5 Z"/></g>
<g><path style="opacity:0.983" fill="#97ab50" d="M 184.5,304.5 C 203.167,304.5 221.833,304.5 240.5,304.5C 241.231,319.958 246.897,333.292 257.5,344.5C 220.664,359.814 203.997,387.481 207.5,427.5C 182.976,425.995 158.976,421.662 135.5,414.5C 135.333,395.164 135.5,375.83 136,356.5C 141.004,328.665 157.171,311.332 184.5,304.5 Z"/></g>
<g><path style="opacity:0.983" fill="#97ab50" d="M 354.5,304.5 C 371.503,304.333 388.503,304.5 405.5,305C 432.557,311.39 448.724,328.223 454,355.5C 454.833,374.842 454.666,394.175 453.5,413.5C 432.525,422.895 410.525,427.562 387.5,427.5C 391.147,386.917 374.147,359.417 336.5,345C 347.799,333.898 353.799,320.398 354.5,304.5 Z"/></g>
<g><path style="opacity:0.988" fill="#97ab50" d="M 267.5,352.5 C 354.284,338.617 390.618,374.951 376.5,461.5C 352.963,471.869 328.296,476.869 302.5,476.5C 273.491,475.832 245.158,471.165 217.5,462.5C 217.333,442.831 217.5,423.164 218,403.5C 223.567,375.768 240.067,358.768 267.5,352.5 Z"/></g>
</svg>
