<?xml version="1.0" encoding="UTF-8"?>
<!DOCTYPE svg PUBLIC "-//W3C//DTD SVG 1.1//EN" "http://www.w3.org/Graphics/SVG/1.1/DTD/svg11.dtd">
<svg xmlns="http://www.w3.org/2000/svg" version="1.1" width="512px" height="512px" style="shape-rendering:geometricPrecision; text-rendering:geometricPrecision; image-rendering:optimizeQuality; fill-rule:evenodd; clip-rule:evenodd" xmlns:xlink="http://www.w3.org/1999/xlink">
<g><path style="opacity:0.987" fill="#97ab50" d="M 273.5,47.5 C 319.356,46.8193 350.19,67.8193 366,110.5C 376.002,153.179 363.169,187.012 327.5,212C 296.5,228.667 265.5,228.667 234.5,212C 198.831,187.012 185.998,153.179 196,110.5C 209.146,73.851 234.979,52.851 273.5,47.5 Z"/></g>
<g><path style="opacity:0.987" fill="#97ab50" d="M 241.5,229.5 C 267.835,229.333 294.169,229.5 320.5,230C 370.947,233.137 405.78,257.97 425,304.5C 427.136,310.709 428.802,317.042 430,323.5C 431.122,343.302 431.622,363.135 431.5,383C 431.167,400.5 430.833,418 430.5,435.5C 410.745,445.03 390.078,451.863 368.5,456C 287.69,469.654 208.523,463.154 131,436.5C 130.333,401.167 130.333,365.833 131,330.5C 138.53,283.307 164.697,251.474 209.5,235C 220.128,232.081 230.795,230.248 241.5,229.5 Z M 260.5,249.5 C 274.504,249.333 288.504,249.5 302.5,250C 303.416,250.374 304.25,250.874 305,251.5C 305.584,254.257 305.25,256.923 304,259.5C 299.356,268.621 294.856,277.787 290.5,287C 284.472,287.83 278.472,287.664 272.5,286.5C 267.939,276.378 263.106,266.378 258,256.5C 257.162,253.519 257.995,251.186 260.5,249.5 Z M 274.5,291.5 C 279.762,291.195 284.928,291.529 290,292.5C 292.529,330.747 295.363,368.913 298.5,407C 293.035,415.431 287.201,423.597 281,431.5C 275.373,422.888 270.206,414.055 265.5,405C 268.186,368.52 270.686,332.02 273,295.5C 273.41,294.099 273.91,292.766 274.5,291.5 Z"/></g>
</svg>
