<?xml version="1.0" encoding="UTF-8"?>
<!DOCTYPE svg PUBLIC "-//W3C//DTD SVG 1.1//EN" "http://www.w3.org/Graphics/SVG/1.1/DTD/svg11.dtd">
<svg xmlns="http://www.w3.org/2000/svg" version="1.1" width="512px" height="512px" style="shape-rendering:geometricPrecision; text-rendering:geometricPrecision; image-rendering:optimizeQuality; fill-rule:evenodd; clip-rule:evenodd" xmlns:xlink="http://www.w3.org/1999/xlink">
<g><path style="opacity:0.98" fill="#97ab50" d="M 94.5,-0.5 C 190.167,-0.5 285.833,-0.5 381.5,-0.5C 396.26,3.76232 405.427,13.429 409,28.5C 409.667,101.833 409.667,175.167 409,248.5C 405.885,234.22 397.385,224.887 383.5,220.5C 382.667,158.836 382.167,97.1694 382,35.5C 381.167,30.6667 378.333,27.8333 373.5,27C 283.167,26.3333 192.833,26.3333 102.5,27C 97.2096,27.9575 94.3763,31.1242 94,36.5C 93.8333,95.6667 93.6667,154.833 93.5,214C 93.3408,274.544 93.8408,335.044 95,395.5C 96.2506,398.381 98.4173,400.214 101.5,401C 129.5,401.333 157.5,401.667 185.5,402C 190.536,405.181 195.536,408.347 200.5,411.5C 195.015,417.485 189.348,423.319 183.5,429C 156.167,429.667 128.833,429.667 101.5,429C 83.4277,426.731 71.9277,416.898 67,399.5C 66.3333,275.833 66.3333,152.167 67,28.5C 70.9461,13.7242 80.1127,4.05755 94.5,-0.5 Z"/></g>
<g><path style="opacity:0.959" fill="#97ab50" d="M 140.5,84.5 C 205.501,84.3333 270.501,84.5 335.5,85C 346.456,88.7654 349.289,95.9321 344,106.5C 342.421,108.041 340.587,109.208 338.5,110C 271.167,110.667 203.833,110.667 136.5,110C 126.848,103.093 126.181,95.4259 134.5,87C 136.611,86.1553 138.611,85.322 140.5,84.5 Z"/></g>
<g><path style="opacity:0.958" fill="#97ab50" d="M 136.5,149.5 C 203.834,149.333 271.167,149.5 338.5,150C 346.859,155.026 348.692,161.86 344,170.5C 341.621,172.884 338.787,174.384 335.5,175C 270.5,175.667 205.5,175.667 140.5,175C 129.617,171.735 126.45,164.901 131,154.5C 132.812,152.7 134.645,151.033 136.5,149.5 Z"/></g>
<g><path style="opacity:0.953" fill="#97ab50" d="M 306.5,217.5 C 311.08,217.113 315.414,217.947 319.5,220C 326.167,226.667 332.833,233.333 339.5,240C 341.087,240.862 342.754,241.529 344.5,242C 354.339,241.223 364.172,240.057 374,238.5C 381.328,238.331 386.328,241.665 389,248.5C 390.613,256.788 391.946,265.121 393,273.5C 393.725,275.949 394.725,278.283 396,280.5C 404.433,285.968 413.266,290.802 422.5,295C 429.009,300.192 430.842,306.692 428,314.5C 423.275,323.281 419.108,332.281 415.5,341.5C 418.578,350.989 422.744,359.989 428,368.5C 430.697,375.446 429.53,381.612 424.5,387C 416.324,391.588 407.991,395.922 399.5,400C 398,401.5 396.5,403 395,404.5C 392.354,414.681 390.354,425.014 389,435.5C 386.203,441.658 381.37,444.992 374.5,445.5C 363.937,443.127 353.27,441.96 342.5,442C 334.873,447.293 328.206,453.626 322.5,461C 314.5,468.333 306.5,468.333 298.5,461C 292.794,453.626 286.127,447.293 278.5,442C 267.733,441.959 257.066,443.126 246.5,445.5C 239.637,444.994 234.804,441.661 232,435.5C 230.48,426.864 229.147,418.197 228,409.5C 227.036,405.532 224.869,402.365 221.5,400C 213.009,395.922 204.676,391.588 196.5,387C 191.47,381.612 190.303,375.446 193,368.5C 198.256,359.989 202.422,350.989 205.5,341.5C 201.892,332.281 197.725,323.281 193,314.5C 190.158,306.692 191.991,300.192 198.5,295C 207.734,290.802 216.567,285.968 225,280.5C 226.275,278.283 227.275,275.949 228,273.5C 229.225,265.148 230.559,256.815 232,248.5C 234.672,241.665 239.672,238.331 247,238.5C 255.871,239.562 264.705,240.895 273.5,242.5C 275.577,242.308 277.577,241.808 279.5,241C 287.136,234.365 294.47,227.365 301.5,220C 303.315,219.243 304.981,218.41 306.5,217.5 Z M 306.5,251.5 C 352.793,253.307 382.626,276.307 396,320.5C 402.918,365.832 386.085,398.999 345.5,420C 305.28,434.487 270.78,425.987 242,394.5C 215.76,357.243 216.094,320.243 243,283.5C 259.861,264.153 281.028,253.486 306.5,251.5 Z"/></g>
<g><path style="opacity:0.983" fill="#97ab50" d="M 302.5,263.5 C 341.949,262.291 368.782,279.958 383,316.5C 392.122,354.824 380.289,384.657 347.5,406C 312.098,422.326 280.598,416.826 253,389.5C 228.725,356.76 228.392,323.76 252,290.5C 265.593,275.289 282.427,266.289 302.5,263.5 Z"/></g>
<g><path style="opacity:0.956" fill="#97ab50" d="M 225.5,511.5 C 222.833,511.5 220.167,511.5 217.5,511.5C 216.164,509.99 214.997,508.323 214,506.5C 212.205,497.86 210.539,489.193 209,480.5C 199.649,477.856 190.149,475.689 180.5,474C 176.387,470.491 175.554,466.324 178,461.5C 192,447.5 206,433.5 220,419.5C 221.44,425.805 222.773,432.138 224,438.5C 228.484,448.307 236.15,453.307 247,453.5C 256.1,452.817 265.1,451.483 274,449.5C 277.235,450.567 279.735,452.567 281.5,455.5C 263.119,474.548 244.452,493.215 225.5,511.5 Z"/></g>
<g><path style="opacity:0.956" fill="#97ab50" d="M 403.5,511.5 C 400.833,511.5 398.167,511.5 395.5,511.5C 376.548,493.215 357.881,474.548 339.5,455.5C 341.316,452.348 343.983,450.348 347.5,449.5C 358.347,452.197 369.347,453.364 380.5,453C 388.502,450.997 394.002,446.164 397,438.5C 398.227,432.138 399.56,425.805 401,419.5C 415,433.5 429,447.5 443,461.5C 445.587,466.413 444.753,470.58 440.5,474C 431.004,475.636 421.671,477.802 412.5,480.5C 410.561,489.133 408.727,497.8 407,506.5C 406.003,508.323 404.836,509.99 403.5,511.5 Z"/></g>
</svg>
